<svg xmlns="http://www.w3.org/2000/svg" viewBox="0 0 350.19 353.23"><defs><style>.cls-1{fill:#607cbd;}.cls-2{fill:#010101;}.cls-3{fill:#010102;}.cls-4{fill:#3657a3;}.cls-5{fill:#4262ac;}.cls-6{fill:#4262ab;}.cls-7{fill:#28b08e;}.cls-8{fill:#1c4082;}.cls-9{fill:#fcc41c;}.cls-10{fill:#f197be;}.cls-11{fill:#f6a105;}.cls-12{fill:#fbc31c;}.cls-13{fill:#e94650;}.cls-14{fill:#fefefe;}.cls-15{fill:#eb9a08;}.cls-16{fill:#030301;}.cls-17{fill:#f49f06;}</style></defs><g id="Camada_2" data-name="Camada 2"><g id="Camada_1-2" data-name="Camada 1"><path class="cls-1" d="M204.78,30l-.06,9.64c-2.24.25-3.22-1.62-4.45-2.87-1.94-2-3.61-2.23-5.65-.16q-10.81,11-21.72,21.9c-2,2.05-1.85,3.78.11,5.71,2.65,2.61,5.19,5.33,7.86,7.9,2.08,2,2.57,4,1.12,6.64a70.86,70.86,0,0,0-6,14.82c-.82,2.88-2.51,4-5.41,3.9-3.82-.11-7.64,0-11.46,0-2.62,0-3.83,1.26-3.83,3.89,0,5.47.07,10.94,0,16.41,0,2.28,1.41,3.61,2.56,5.19.8,2.16.43,4.41.5,6.63.05,1.35-.18,2.76,1,3.78.61.62,1.2,1.26,1.75,1.93,1.32,1.6,1.53,3.17-.32,4.47s-3.72,2.22-5.51-.1a21.29,21.29,0,0,1-1.52-2.56c-6.2-11-16-15.85-28.13-16.37-3.33-.15-6.67.06-10-.09-1.37-.06-2.8-.21-3.37-1.79s-.48-3.17.75-4.17c4.76-3.88,5.05-9.16,4.68-14.63-.26-3.89.8-6.89,4-9.41s4.57-6.4,4.84-10.54c.17-2.71-1-4.42-3.84-4.24-6.75.43-13.21-1.05-19.73-2.57C94.6,71.37,86.47,78,85.71,87a99.81,99.81,0,0,0,0,11.21,7.94,7.94,0,0,0,1.92,5.15c4.14,4.65,2.29,10.13,2,15.33-.1,1.79-2,2-3.53,2-3.58.13-7.16,0-10.74.06-13.52.25-23.63,6.14-30,18.32-1.53,2.94-2.53,6.28-5.56,8.21a11,11,0,0,1-7.16-.19,8.6,8.6,0,0,0-6.76-2.35c-3,.13-5.92,0-8.88,0-2.55,0-3.92,1.2-3.94,3.83-.07,9.71-.11,19.41,0,29.12,0,2.19,1.08,3.5,3.32,3.7,1.45.26,3.12,0,4.07,1.56a1.88,1.88,0,0,1,.2,1.07c-1.66,5.3-1.76,10.77-1.65,16.25-1.33,1.27-3.37,1.76-4,3.76-1.64,1.58-2,3.57-2,5.76,0,7.55,0,15.1,0,22.65,0,5.6,3.83,7.77,8.78,5,.65-.36,1.14-.94,1.76-1.36a4.13,4.13,0,0,1,4.76.43,8.29,8.29,0,0,1,1.5,2.55c6.11,12.6,17.9,16.1,30,8.91,3.5-2.1,6.93-4.32,10.49-6.31,2.9-1.6,3.77-1.31,4.43,1.79,1,4.87,2,9.76,2.59,14.7.28,2.18-.54,4.17-1.38,6.11q-9,20.68-18,41.36c-.53,1.22-.87,2.66-2.51,2.94-2.55-.73-5.15-.2-7.73-.35-2.76-1.64-5.79-1.83-8.92-1.81-9.27.06-18.54.08-27.8,0-5.22-.05-6.05-.89-6.11-6.1-.08-6.48,0-13,0-19.44v-267c0-9.15,0-9.15,9-9.15q90.27,0,180.54,0c8.51,0,8.67.17,8.68,8.78,0,2.49.07,5,0,7.48C202.88,24.19,203.13,27.25,204.78,30Z"/><path class="cls-2" d="M18.52,200.49a28.4,28.4,0,0,1,1.57-17.08c.8-4.94,4-8.77,6.22-13,3.64-6.92,7.3-13.85,11.19-20.64A9.19,9.19,0,0,1,40,146.6c2-3.56,3.88-7.19,6-10.67,6.45-10.59,16-15.82,28.2-16.18,4.08-.13,8.16-.14,12.24,0,2.15.09,2.77-.64,2.65-2.73-.16-3,0-6-.06-9,0-.91.41-2-.74-2.67-3.44-2.11-3.9-5.49-3.69-9.12.25-4.21-.51-8.44.67-12.63,2.39-8.48,10.36-13.43,18.84-11.11a57.55,57.55,0,0,0,19.29,2.3c3-.21,4.31,1.23,4.24,4.23-.14,5.67-2,10.52-6.82,13.71A4.23,4.23,0,0,0,118.67,97c.15,2.73,0,5.48,0,8.23.08,3.86-1.21,7.19-4.39,9.33-1.75,1.17-1.75,2.57-1.48,4.1.35,1.9,2,.94,3.05,1,6.38.28,12.8-.5,19.11,1.39a32.81,32.81,0,0,1,20.32,16.65c.56,1,.45,3.21,2.29,2.77a6.66,6.66,0,0,0,3.95-2.53c.69-1.14-1.44-1.69-2-2.73a11.51,11.51,0,0,0-.89-1.19,4.09,4.09,0,0,1,1.19-5.62c1.9-1.45,2.27-3.33,2.33-5.55.19-7.58,2.89-10.22,10.46-10.2,4.17,0,8.37-.39,12.53.34,4.08,1.6,5.8,4.7,5.8,9q0,16.83,0,33.65c0,4.2,0,4,4.07,3.61q9.94-1.05,19.92-1.6c3.82-.21,7.6-1,11.44-.85,2.54.12,3.19-1.08,2.78-3.48-1.4-8.35-3.09-16.65-4.55-25-.84-4.78-1.76-9.55-2.55-14.35-1-5.91.11-7.47,6-8.82,7.59-1.72,15.19-3.4,22.78-5.14,1.14-.27,2.84-.08,3.13-1.51s-1.15-2.08-2-2.91c-16.86-15.78-42.49-13-55.73,5.94-1.07,1.53-2.06,3.11-3.05,4.69a4.15,4.15,0,0,1-4.32,2.26c-3.14-1.87-3.59-3.73-1.65-7.38,5.9-11.08,15-18.27,26.8-22,.82-.26,1.66-.49,2.48-.75,18.22-4.72,37.89,3.75,47.92,19.51,1.22,1.91,1.78,3.93.4,5.93a2.74,2.74,0,0,0,.62,4.2c3.63,2.88,4.3,6.4,2.54,10.61-.62,1.46-1,2.7,1.55,2.91,2.9.24,3.58,2.73,3.64,5.25.27,10.29-4,18.45-11.43,25.28-9,8.28-19.63,12.14-31.61,12.81-10.85.35-21.65,1.41-32.44,2.44-4.74.45-6.55,2.86-6.71,7.66-.17,5.09.63,10.21-.65,15.24-2.17,10.06-8.15,16.69-18,19.29S154,209,147.56,201.08c-1.83-2.24-3.13-2.61-5.46-1-3,2.12-6.39,3.78-9.4,6-7.74,4.67-15.33,9.58-23.68,14.51,3,.22,4.33,2.1,5.42,4.19,5.7,10.91,10.61,22.22,16.09,33.24,1.15,2.33,1.11,4.82,1.11,7.32q0,37.56,0,75.13c0,5.65,0,5.68,5.49,5.68,7.65,0,15.31,0,23.46,0-2.58-2.49-5.12-3.83-8.35-3.82-3.7,0-7.41.11-11.11,0-3.39-.15-5.29-1.66-5.28-4s1.9-3.83,5.3-4c2.09-.12,4.19,0,6.29,0,4.88,0,5.05-.17,5.06-5q0-24.1,0-48.22c0-5.61-.22-11.22.06-16.82.33-6.46-1.38-12.27-4.22-17.93q-7.53-15-14.91-30.1c-1.88-3.87-1.58-4.9,1.65-7.13,2.7-.47,4.26,1.22,5.28,3.25,6.36,12.67,13.18,25.1,18.54,38.26a24,24,0,0,1,1.69,9.13c0,14.82.45,29.67-.17,44.46-.45,10.69-.53,21.35-.38,32,3.46,3.61,8.07,5.6,12,8.6,1.08.82,2.24,1.55,3.38,2.28,1.55,1,2.75,2.11,2,4.24s-2.24,2-3.9,2q-13.89,0-27.8,0H129.8c-5.31,0-5.76-.44-5.77-5.67,0-11-.12-21.94.08-32.9,0-2.91-.8-3.5-3.48-3.4-5.8.21-11.61,0-17.42.11-2.29.05-3.85-.52-4.43-2.89-.3-3.69,2.36-4,4.87-4.1,5.19-.21,10.38,0,15.57-.08,4.15,0,4.39-.26,4.39-4.49,0-11.35,0-22.69,0-34a12.94,12.94,0,0,0-1.27-6.15c-4.64-8.95-8.45-18.31-13.12-27.24a20.89,20.89,0,0,0-1.08-2c-.92-1.35-2.22-2.27-3.76-1.48s-.54,2.23-.19,3.32c1.67,5.22,3.37,10.44,5.14,15.62a33.05,33.05,0,0,1,.05,22.7c-4.32,11.81-9.4,23.33-13.9,35.07a7.55,7.55,0,0,1-1.94,2.7c-3.26,8-6.43,16-9.85,24-.77,1.78.11,2.47,1,3.44,3.6,3.76,7.18,7.53,10.79,11.27,1.37,1.42,2.5,2.93,1.23,4.91-1.17,1.81-3,1.4-4.68,1q-22.51-5.55-45-11.11c-4.42-1.1-5.05-2.4-3.24-6.58,3.81-8.85,7.67-17.68,11.51-26.51Q65.66,285.13,76,261.61c1.29-2.92-.19-5.63-.5-8.38-.44-3.92-1.45-7.76-2.32-12.17-4.71,2.86-9.25,5.66-13.84,8.39-9.1,5.39-19.73,4-26.52-3.51a22,22,0,0,1-4.74-8.71c-3.18-5.72-1.28-11.06,1.39-16.21,2.05-4,2.13-3.75-1.43-6.3C23.14,211.2,19.11,207,18.52,200.49Z"/><path class="cls-1" d="M132.71,204.88c3.64-2.26,7.35-4.43,10.9-6.84,1.66-1.13,2.36-.68,3.38.81,5.44,8,13.09,11.73,22.5,10.36,10.48-1.52,17.18-7.89,19.83-18.37,2.38-2.33,2.84.45,4,1.51.28.84,0,1.73.19,2.56.93,3.49,3.94,4.35,6.62,2,1.41-1.23,2.29-3.32,4.64-3.15l.05,9.63c-1.66,2.77-1.83,5.82-1.82,9q.06,42,0,84c0,1.12,0,2.24,0,3.36-.06,6-.69,6.69-6.54,6.73-7.15,0-14.3.06-21.46,0-3.12,0-6.15.16-8.89,1.85-5.8,0-5.78,0-5.81,5.84-.05,7.32-.14,14.64-.22,22-.13-10.59-.34-21.16-.4-31.74q-.1-21.31,0-42.63a33.89,33.89,0,0,0-3.55-15.42c-5.53-11.23-11.11-22.44-16.65-33.67-.94-1.9-2-3.43-4.48-3.09C132.5,208.85,132.14,207.1,132.71,204.88Z"/><path class="cls-2" d="M204.72,193.79c-1.35,1.25-2.71,2.49-4,3.76s-2.8,3.3-5,1.53c-2-1.63-4.68-3.25-2.69-6.64.15-.35.33-.82.66-.86,5.42-.7,8.25-5.05,11.73-8.45,4.51-4.43,5.09-4.57,10.57-1.62a78.5,78.5,0,0,0,17.13,7c5,1.34,5.93,2.68,6,7.92,0,2.74.12,5.49,0,8.23-.16,3,1.2,3.91,4,3.86,6.17-.12,12.36-.11,18.53,0,2.66,0,3.86-.88,3.75-3.68-.14-3.24,0-6.48,0-9.72s1.55-5.45,4.74-6.24a78.43,78.43,0,0,0,20.15-8.4,5.37,5.37,0,0,1,7.08.92c2.4,2.34,4.79,4.7,7.09,7.13,1.79,1.9,3.33,2.17,5.28.15q6.85-7.11,13.9-14c2-1.95,1.82-3.48-.11-5.3-2.35-2.21-4.54-4.58-6.83-6.86s-2.75-4.76-1.06-7.73a78.34,78.34,0,0,0,8-19.26c1.16-4.47,2.59-5.45,7.1-5.57,3.08-.08,6.18-.06,9.26,0,2.37,0,3.33-1,3.31-3.38q-.08-9.9,0-19.82c0-2.46-1.11-3.3-3.39-3.26-3.22,0-6.43,0-9.64,0-3.45,0-5.67-1.52-6.48-4.92a75.79,75.79,0,0,0-8.17-20c-1.58-2.78-1.31-5.18.9-7.45q3.63-3.73,7.33-7.42c1.66-1.66,1.64-3.1,0-4.76q-7.26-7.23-14.43-14.54c-1.55-1.57-2.92-1.51-4.44,0-2.35,2.38-4.67,4.81-7.1,7.12-3,2.84-4.41,3.09-7.92,1.14a84.86,84.86,0,0,0-19.82-8.25c-3.29-.85-4.66-3-4.69-6.25s0-6.73,0-10.09c0-2.18-.9-3.19-3.11-3.18q-10,0-20,0c-2.22,0-3.09,1.06-3.09,3.21,0,3.36,0,6.73,0,10.09s-1.46,5.38-4.73,6.23a83.24,83.24,0,0,0-19.81,8.27c-3.45,1.94-4.93,1.67-7.91-1.18-2.42-2.32-4.75-4.74-7.1-7.13-1.53-1.56-2.89-1.54-4.43,0-4.8,4.86-9.59,9.72-14.42,14.54-1.68,1.67-1.67,3.12,0,4.77,2.3,2.27,4.59,4.54,6.81,6.89,2.94,3.12,3.19,4.59,1.17,8.3a93.54,93.54,0,0,0-8.08,19.65c-1.09,3.86-2.35,4.76-6.39,4.89-3.21.11-6.43.09-9.64,0-2.36,0-3.36.94-3.34,3.33,0,4,.19,8-.08,12-.15,2.29-.65,4.59-3.87,4-2.08-.54-3-1.82-3-4,.08-6.11.07-12.22,0-18.33,0-2.83,1.25-4,4-4,4.33.1,8.66-.09,13,.08,2,.08,3.16-.46,3.67-2.53a63.36,63.36,0,0,1,6.69-16.43c.9-1.57.81-2.55-.54-3.83-3.25-3.06-6.27-6.37-9.49-9.46-2.19-2.1-2.09-3.85.05-6q11.37-11.26,22.54-22.74c2.25-2.32,4.06-2.34,6.18,0,1.31,1.46,2.85,2.71,4.29,4.06,2.07,2.13,3.8,5.12,6.32,6.13s4.88-2.1,7.45-3.1c3.55-1.38,7-3.12,10.73-3.9,2.23-.47,2.86-1.66,2.77-3.88-.18-4.11,0-8.23-.08-12.34-.09-3.26,1.08-4.73,4.54-4.69,10.63.15,21.26.13,31.89,0,3.09,0,4.24,1.33,4.21,4.24-.05,4.24.08,8.48-.05,12.72-.07,2.12.36,3.34,2.7,3.92a58,58,0,0,1,15.93,6.7c1.65,1,2.54.6,3.72-.65,3-3.16,6.17-6.13,9.13-9.3,2.12-2.28,4-2.48,6.23-.18q11.34,11.58,22.81,23c2.14,2.15,2,4-.14,6-3.13,3-6.08,6.22-9.23,9.2-1.37,1.29-1.73,2.28-.7,4a62.75,62.75,0,0,1,6.62,16.1c.52,2,1.54,2.67,3.62,2.58,4.32-.18,8.65,0,13-.06,2.73,0,4,1.09,4,4q-.13,16.45,0,32.91c0,2.94-1.33,4-4,4-4.33,0-8.66.12-13-.07-2.09-.09-3.1.57-3.61,2.6a61.86,61.86,0,0,1-6.63,16.09c-1,1.77-.64,2.76.72,4,3.16,3,6.11,6.18,9.24,9.19,2.11,2,2.26,3.89.12,6q-11.46,11.44-22.8,23c-2.27,2.31-4.12,2.08-6.24-.19-3-3.18-6.15-6.14-9.13-9.3-1.18-1.27-2.1-1.63-3.72-.65a57.4,57.4,0,0,1-15.94,6.69c-2.34.57-2.75,1.84-2.68,4,.13,4.24,0,8.48.05,12.72,0,2.95-1.18,4.25-4.23,4.22q-16.12-.17-32.25,0c-3.12,0-4.19-1.41-4.15-4.3.06-4.37-.1-8.73.07-13.09.07-2-.57-2.87-2.43-3.37A64.71,64.71,0,0,1,213.28,188c-1.35-.8-2.32-.91-3.45.46C208.25,190.31,206.43,192,204.72,193.79Z"/><path class="cls-2" d="M204.78,30c-2.33-.54-3.06-2.07-3-4.39.1-5.61-.09-11.23.09-16.83.08-2.35-.64-2.91-2.9-2.89-11.49.12-23,.06-34.48.06Q87.18,6,9.88,5.9c-3.29,0-4,.82-4,4.07Q6,155.64,5.88,301.3c0,3.21.64,4.17,4,4.09,11-.25,22-.05,33-.12,2.35,0,4.15.45,4.75,3-.39,2.22-1.72,3-3.91,3q-19.83-.07-39.68,0c-2.78,0-4.2-1-4-4,0-.62,0-1.24,0-1.87Q0,155.68,0,5.85C0,0,0,0,5.83,0H202c5.73,0,5.73,0,5.73,5.93,0,6.61-.06,13.22,0,19.82C207.79,28,207.3,29.69,204.78,30Z"/><path class="cls-3" d="M262.68,252.23c-.35-1.51-1.87-2.31-2.94-3.44-3.63-3.8-3.67-4.5-.06-8.15,3.15-3.17,6.34-6.29,9.42-9.54,2.15-2.27,4.16-2.39,6.25,0a3.31,3.31,0,0,0,.26.27c1.4,1.18,2.45,3.67,4.08,3.47,2.59-.32,5.1-1.7,7.51-2.89,1.53-.76.67-2.47.69-3.71.1-6.73.05-6.73,6.59-6.73,4.2,0,8.41.13,12.6,0,3.24-.13,4.56,1.33,4.42,4.44a2.29,2.29,0,0,0,0,.37c.09,1.85-.53,4.58.42,5.36,2,1.65,4.78,2.5,7.36,3.26,1.69.5,2.4-1.46,3.4-2.44,4.28-4.16,4.77-4.2,8.88-.06,3,3,5.87,6.07,8.93,9,2.41,2.28,2.41,4.24.06,6.61-3.89,3.9-3.94,6.82-.91,11.67.77,1.22,1.68.77,2.55.82,1.6.1,3.22-.07,4.81.07a3.1,3.1,0,0,1,3.16,3.4q0,8.41,0,16.83c0,2.35-1.3,3.33-3.44,3.51-.37,0-.75,0-1.11,0-1.91.24-4.43-1-5.62.55-1.54,2-2.24,4.66-3.1,7.11-.59,1.7,1.15,2.31,2,3.21,4.66,4.82,4.69,5.06,0,9.76-2.88,2.91-5.81,5.76-8.63,8.74-2.15,2.28-4.16,2.38-6.25,0a1.66,1.66,0,0,0-.27-.26c-1.39-1.19-2.45-3.67-4.08-3.47-2.59.33-5.1,1.69-7.51,2.9-1.52.76-.66,2.47-.68,3.71-.1,6.72,0,6.72-6.61,6.72-4.2,0-8.41-.12-12.6,0-3.23.11-4.56-1.34-4.39-4.46,0-.13,0-.25,0-.37-.16-1.84.85-4.39-.42-5.38-2.06-1.62-4.81-2.48-7.39-3.23-1.67-.49-2.39,1.48-3.39,2.46-4.25,4.14-4.76,4.18-8.89,0-3-3-5.87-6.07-8.93-9-2.41-2.29-2.38-4.24,0-6.6,3.9-3.9,4-6.75.87-11.68-.76-1.22-1.67-.78-2.54-.83-1.6-.1-3.22.08-4.82-.07-1.94-.18-3.16-1.18-3.15-3.37q0-8.41,0-16.83c0-2.36,1.32-3.33,3.45-3.51.61-.05,1.24.05,1.85,0,1.67-.2,3.95.86,4.88-.53C260.92,257.72,261.58,255,262.68,252.23Z"/><path class="cls-1" d="M93.56,308.3c3.73-11.11,8.3-21.9,12.93-32.64,4.42-10.25,4.91-20.23,1-30.62-2.13-5.62-3.88-11.39-5.82-17.14,6.14-.9,6.15-.9,8.64,4.23,4.21,8.67,8.39,17.37,12.64,26a14,14,0,0,1,1.49,6.42c-.07,12.21-.14,24.42,0,36.63,0,3.11-.46,4.41-4,4.18-5.53-.35-11.11,0-16.66-.14-2.56-.08-4.29.6-5,3.19Z"/><path class="cls-2" d="M166.08,308.31c.56-2.62,2.37-3.06,4.72-3,9.14.08,18.29-.1,27.43.1,2.92.07,3.64-.75,3.63-3.67-.11-31-.05-62.07-.09-93.11,0-2.41.17-4.52,3-5.17,2.23.36,3,1.73,3,3.92q0,50.05,0,100.1c0,2.65-1.08,3.87-3.75,3.86q-17-.06-34.06,0C167.73,311.33,166.4,310.57,166.08,308.31Z"/><path class="cls-4" d="M157.27,122.83c2.31-.57,3.07-2.1,3-4.42-.11-4.36.09-8.73-.07-13.09-.09-2.23.46-3.11,2.84-3,3.82.2,7.66,0,11.49.06,2.81,0,4.42-.88,5.16-4a67.7,67.7,0,0,1,8.47-20.46c1.55-2.46,1.22-4.26-.85-6.19-2.91-2.7-5.57-5.67-8.45-8.4-1.41-1.34-1.84-2.21-.18-3.82q8.53-8.31,16.78-16.92c1.52-1.59,2.4-1.44,3.79.07,2.78,3,5.8,5.79,8.59,8.78,1.71,1.83,3.38,2.24,5.54.89a70.69,70.69,0,0,1,21.32-8.91c2.56-.61,3.3-2.29,3.3-4.63,0-4.12.09-8.23,0-12.35-.06-1.94.55-2.57,2.51-2.54,7.78.09,15.57.11,23.35,0,2.18,0,2.73.73,2.66,2.79-.14,4,0,8,0,12,0,2.71,1,4.19,3.88,4.89A68.59,68.59,0,0,1,291,52.24c2.12,1.33,3.79,1.2,5.54-.68,2.88-3.08,6-6,8.86-9,1.32-1.42,2.14-1.48,3.52,0q8.28,8.6,16.78,16.93c1.47,1.45,1.66,2.33.06,3.82-3.08,2.88-5.91,6-9,8.94-1.73,1.66-1.94,3.29-.72,5.29A72.48,72.48,0,0,1,324.88,99c.6,2.58,2.18,3.42,4.51,3.43,4,0,7.92.1,11.87,0,2.11-.07,3.07.32,3,2.8-.17,7.73-.13,15.46,0,23.19,0,2.07-.5,2.87-2.67,2.78-3.95-.16-7.91,0-11.86-.05-2.65,0-4.22.87-4.93,3.82a69.35,69.35,0,0,1-8.6,20.81c-1.44,2.3-1.12,4.06.83,5.89,3,2.81,5.74,5.84,8.7,8.67,1.3,1.25,1.71,2.06.18,3.55q-8.66,8.46-17.05,17.19c-1.41,1.47-2.23,1.3-3.52-.08-2.88-3.08-6-6-8.86-9-1.77-1.89-3.44-2-5.55-.64a69,69,0,0,1-20.62,8.69c-2.91.7-3.87,2.21-3.86,4.91,0,4.11-.06,8.23,0,12.34,0,1.75-.5,2.39-2.3,2.37q-11.87-.12-23.73,0c-2,0-2.54-.67-2.48-2.58.12-3.86,0-7.73.05-11.59.06-3-.76-4.74-4.05-5.54a66.57,66.57,0,0,1-20.29-8.56c-2.22-1.41-4-1.32-5.85.74s-4,3.74-5.69,5.88a10.74,10.74,0,0,1-9.14,4.52c-1.34-.27-1.7-2.86-3.69-1.59,1.15-5.51.45-11.1.58-16.65.11-4.19,2.61-7.73,6.69-8,11.39-.68,22.7-2.32,34.13-2.3,4.36,1.36,9,1.79,13,4.16,2.45,3.25,6,3.22,9.47,3,12.5-.87,24-4.53,33.68-12.94a53,53,0,0,0,18.41-34c2.31-17.24-2.66-32.36-14.39-45-8-8.61-18-13.71-29.64-15.82-10.58-1.92-20.63-.3-30.47,3.68-2.15.87-4,2-4.5,4.51-2.37,3.7-6.46,5.17-9.74,7.7-8.17,2.57-15.68,6.29-21.65,12.68a48.43,48.43,0,0,0-7.25,10.24c-1.11,2.07-1.29,4,.58,5.7.47,2.67-.76,4.52-2.83,6-4.81,0-9.61-.08-14.42,0-5.11,0-7.71,2.66-7.78,7.78,0,3.13.71,6.43-3.33,8.07-1.64.67-1,2.88-1.25,4.44-1.76-.4-1.33-1.84-1.35-3C157.25,128.3,157.28,125.56,157.27,122.83Z"/><path class="cls-2" d="M53.43,46.48c6.34-5.26,12.23-10.09,18-15,1.74-1.48,3.35-2.33,5-.21s.16,3.5-1.3,4.73c-6.52,5.5-13.06,11-19.67,16.4a4.92,4.92,0,0,0-2.14,4.35c.15,5.61,0,11.22.08,16.82,0,3-1.22,4.32-4.21,4.3q-16.68-.07-33.35,0c-2.79,0-4-1.26-4-4.08,0-11.22.06-22.43,0-33.64,0-3.35,1.67-4.24,4.66-4.22,10.74.08,21.49.11,32.24,0,3.6,0,4.93,1.5,4.68,5C53.33,42.51,53.43,44.21,53.43,46.48Z"/><path class="cls-2" d="M44.64,128.72c-.55,2.34-2.09,3-4.38,3q-12-.14-24.07,0c-3.2,0-4.35-1.43-4.33-4.56q.13-16.42,0-32.87c0-3.45,1.48-4.57,4.73-4.54,10.61.1,21.23,0,31.85,0,4.32,0,5,.65,5,4.93,0,1.69,0,3.38,0,5.63,6.35-5.28,12.25-10.11,18.05-15,1.73-1.48,3.31-2.35,5-.2s.24,3.46-1.25,4.71C68.8,95.24,62.4,100.71,55.86,106c-1.69,1.37-2.64,2.67-2.47,4.93.19,2.47,0,5,.07,7.46.1,2.31-.68,3.86-3,4.46-4.86.33-3.31-3.85-4.41-6.52-1.76.33-2.82,1.81-4.14,2.76-2.35,1.69-4.54,1.82-6.68-.24C31.58,115.31,28,111.73,24.52,108c-1.57-1.72-2.24-3.74-.42-5.67s4-1.36,5.9.29c2.23,2,4.26,4.16,6.35,6.28,1.7,1.73,3.17,1.78,5.14.24,3.06-2.4,5.59-4.84,5-9.25-.24-2-.87-3-2.9-3-7.29,0-14.58,0-21.87,0-2,0-2.86,1.11-2.87,3.06,0,7.23,0,14.46,0,21.69,0,2.56,1.48,3.1,3.61,3.1,5.81,0,11.62-.14,17.43.07C42.31,124.84,45.13,124.88,44.64,128.72Z"/><path class="cls-5" d="M35.74,254.4c3.92,0,7.85.12,11.77,0,2.2-.08,3.26.61,3,2.92-1.68,2.77-1.87,5.82-1.83,9,.07,5.59.1,11.19,0,16.79-.1,4.43-1,5.35-5.2,5.41-7.27.12-14.55.14-21.82,0-3.91-.08-4.82-1-4.89-4.91q-.22-11.19,0-22.39c.08-3.88,1-4.68,5-4.9,1.72-.09,3.45-.1,5.18,0C30,256.37,33,256.1,35.74,254.4Z"/><path class="cls-5" d="M44.64,128.72c-.56-2.33-2.07-3.08-4.38-3-6.54.09-13.09-.08-19.64.09-2.35.06-2.88-.71-2.84-3,.13-8.1.11-16.2,0-24.3,0-2,.42-2.82,2.61-2.79q12.24.19,24.46,0c2.12,0,2.32.77,2.76,2.7,1.59,7-3.54,9.9-7.64,13.46-1.21,1-2,.09-2.82-.71-2.62-2.64-5.27-5.26-7.85-7.94-1.37-1.42-2.8-2.18-4.47-.61s-1.12,3.25.42,4.77c3.53,3.49,7.06,7,10.46,10.6,2,2,3.64,2.1,5.68.17,1.69-1.6,3.6-3,5.56-4.56,1.7,3-1.58,7.82,3.52,9.23C50.36,129.62,51.29,128.58,44.64,128.72Z"/><path class="cls-2" d="M35.74,254.4c-.56,2.32-2.06,3.11-4.37,3-3.81-.12-7.64,0-11.46-.06-1.61,0-2.12.52-2.11,2.14q.09,12.87,0,25.74c0,1.65.55,2.12,2.13,2.11,8.51-.06,17-.09,25.52,0,2.07,0,2.07-1.05,2.06-2.55,0-7.71,0-15.42,0-23.13,0-2.32.7-3.84,3-4.4,2.33.55,3,2.1,3,4.41q-.12,13.65,0,27.3c0,3-1.16,4.35-4.18,4.34-11.12-.06-22.24,0-33.36,0-2.78,0-4.05-1.23-4-4.07q.06-16.83,0-33.65c0-3,1.35-4.27,4.29-4.22,5.06.08,10.13.1,15.2,0C33.65,251.34,35.18,252.06,35.74,254.4Z"/><path class="cls-2" d="M109.44,65.85c-15.31,0-30.63,0-45.94,0-2.27,0-4.12-.62-4-3.18.09-2.32,1.89-2.85,4-2.85q46.31,0,92.62,0c2.26,0,4.15.63,4,3.17-.09,2.28-1.93,2.85-4,2.85C140.56,65.83,125,65.85,109.44,65.85Z"/><path class="cls-2" d="M118.65,41.9c12.36,0,24.71,0,37.06,0,2.47,0,4.76.39,4.38,3.5-.32,2.55-2.58,2.52-4.64,2.52q-34.27,0-68.55,0c-1.73,0-3.46,0-5.19,0-2.3.09-4.5-.28-4.42-3.13.07-2.58,2.14-2.89,4.31-2.89C94,41.93,106.3,41.9,118.65,41.9Z"/><path class="cls-5" d="M40,146.6l-19.9,36.81c-1.08-1.4-2.67-.58-4-.92,1.14-9.17.4-18.38.59-27.58.12-5.73.67-6.36,6.46-6.37,3.35,0,6.68.1,9.62-1.89Z"/><path class="cls-6" d="M18.52,200.49c2.59,6.85,6.7,12.37,13.48,15.52,1.38.64,1.42,1.22.39,2.43-4.63,5.48-5.89,11.82-4.31,18.79-1.27-1-2.76-.76-4.21-.76C17.71,235,15.93,231,16.64,225c.5-4.28,0-8.68.12-13,.08-3-.2-5.93-1.91-8.53C14.38,200.27,16.51,200.46,18.52,200.49Z"/><path class="cls-2" d="M32.77,146.65c-.56,2.32-2.06,3.14-4.36,3-2.58-.12-5.19.13-7.76-.07-2.31-.18-2.91.61-2.88,2.9.14,8.46,0,16.91.09,25.36a5.39,5.39,0,0,1-1.76,4.62c-3,.32-4.25-1.1-4.23-4.1.06-10.07.08-20.14,0-30.22,0-3.12,1.14-4.61,4.34-4.53q6.11.17,12.2,0C30.7,143.57,32.22,144.31,32.77,146.65Z"/><path class="cls-2" d="M103.5,18c-5.43,0-10.86,0-16.29,0-2.1,0-3.9-.53-4-2.84C83.11,12.58,85,12,87.22,12q16.66,0,33.32,0c2.1,0,3.9.53,4,2.84.11,2.55-1.73,3.21-4,3.19C114.85,17.92,109.17,18,103.5,18Z"/><path class="cls-3" d="M14.85,203.42c2.56.61,3,2.44,3,4.8-.08,7.47,0,14.93-.06,22.39,0,1.83,0,3.17,2.45,2.89,2.08-.25,3.11,1.11,3.62,3-1.44,2.77-5.57,4.05-9.5,2.89-2.9-.86-2.48-3.29-2.48-5.5,0-8.55,0-17.11,0-25.66C11.84,205.84,12.31,204,14.85,203.42Z"/><path class="cls-7" d="M68.06,188.65c2.42-.58,2.89-2.44,2.91-4.57.09-12.22.16-24.43.28-36.65,0-1.83-.54-3.21-2.4-3.67s-2.77.68-3.54,2.06c-1.2,2.17-2.47,4.31-3.5,6.57-.7,1.52-1.39,1.69-2.73.81-3.31-2.17-6.62-4.33-10-6.32-1.43-.84-1.41-1.56-.76-2.93C54,131.75,63.2,125.1,76.94,125.7a37,37,0,0,0,4.08,0c4.38-.3,8.13-.63,9.6,5.47,1.14,4.73,6.78,7,11.75,6.48a11.67,11.67,0,0,0,10-9.16c.48-2.45,1.38-2.93,3.52-2.81,5.29.31,10.62-.5,15.88.73,8.76,2,14.95,7.23,18.84,15.36.73,1.54,1,2.6-.87,3.62-3.46,1.9-6.81,4-10.13,6.15-1.55,1-2.14.62-2.49-1.08A19.07,19.07,0,0,0,136,147a2.59,2.59,0,0,0-3.33-1.63,2.79,2.79,0,0,0-2.17,3.07,5.72,5.72,0,0,0,.42,2.18c2.3,4.09.64,6.1-3.1,8.32C109.08,170,90.59,181.46,72,192.77c-1.14.69-2.39,1.21-3.59,1.81C66.72,192.71,67,190.71,68.06,188.65Z"/><path class="cls-8" d="M132.71,204.88a8.78,8.78,0,0,0,2.27,4.68c-2.41,1.6-2,3.48-.89,5.78,5.43,10.77,10.69,21.62,16.09,32.41a32.12,32.12,0,0,1,3.56,14.7q-.13,34.6,0,69.22c0,3.12-1,3.79-3.8,3.61-3.33-.21-6.67,0-10,0-2.05,0-3.41.85-3.39,3s1.43,3,3.46,3c3,0,6,.3,8.89-.07,5.9-.74,10.46,1.66,14.67,5.63-1,.75-2.13.4-3.14.4-8.53,0-17.08-.23-25.59.14-4,.17-4.57-1.23-4.55-4.81.14-26.19.05-52.38.11-78.56a16.32,16.32,0,0,0-1.74-7.52c-5-10-9.86-20.09-14.63-30.21-1.51-3.21-3.1-5.84-7.58-4.29l0-1Z"/><path class="cls-9" d="M65.93,203.58l97.29-59.31c0,11.57,0,22.59,0,33.62,0,1.49-1,1.86-1.94,2.4Q129.65,199.61,98,218.88c-2.37,1.44-7.72-1-8.49-3.82-.36-1.31-.34-2.72-.67-4-.75-3-3.54-5-5.8-3.48-5.19,3.59-9,.64-13.12-1.74C68.76,205.14,67.6,204.51,65.93,203.58Z"/><path class="cls-9" d="M185.43,113.8c.94-2,1.89-4,2.83-6,2.73.42,3.83-1.31,5-3.44,12.53-23,43.6-27.07,61-8,3,3.32,3,3.37-1.31,4.35-8.54,1.92-17.09,3.78-25.63,5.67-4.9,1.08-5.34,1.9-4.39,7,2.57,13.8,5.06,27.63,7.63,41.43.38,2,0,2.92-2.27,3.07-10,.67-19.95,1.59-29.94,2.2-2.88.18-5.58.53-8.46,3v-14.5c0-8.73-.15-17.46.07-26.18C190.09,118.45,188.76,115.69,185.43,113.8Z"/><path class="cls-8" d="M79.73,243.46c8.69,1,8.69,1,13.91-6.89.86-1.31,1.76-2.59,3.09-4.53,2.74,9.24,6.76,17.28,7.62,26.25a24.09,24.09,0,0,1-2,11.29C94.56,289,86.67,308.48,78.93,328c-1,2.51-2.08,3.17-4.65,2.34a81.28,81.28,0,0,0-8.66-1.86c-2-.41-4-.09-4.41,2.19s1.19,3.32,3.18,3.79c3,.7,6,1.79,9,2,5.18.32,7.34,4.25,10,7.85-10.5-2.56-21-5.07-31.5-7.69-2.61-.65-1-2.35-.5-3.5q8.94-20.68,18-41.34c3.37-7.74,6.35-15.69,10.21-23.17a22.23,22.23,0,0,0,1.73-16.8C80.64,249.06,80.27,246.26,79.73,243.46Z"/><path class="cls-10" d="M83.44,213.35c-1.12,8.55,5.65,9.26,10.13,12.27-2.47,3.74-4.92,7.32-7.22,11-.91,1.47-1.69,1.66-3.23.8C66.31,228.07,49.38,219,32.67,209.49c-8.57-4.87-11.34-15.07-6.74-23.93,5.64-10.88,11.64-21.57,17.37-32.4,1-1.89,1.79-1.74,3.3-.72,3,2,6,3.92,9.11,5.66,1.92,1.07,2.14,1.92,1,3.94-5.31,9.65-10.42,19.41-15.58,29.14-2.12,4-1.85,4.92,2.05,7,9.19,5,18.46,9.89,27.57,15C74.78,215.53,78.54,217.64,83.44,213.35Z"/><path class="cls-10" d="M165.8,132.73c4.69-1.85,3.44-5.57,3.25-8.58-.22-3.58.74-5,4.42-4.47,3.37.49,7.8-1.46,9.94.8,2,2,.55,6.41.56,9.75q.06,27.68,0,55.36a17.53,17.53,0,0,1-30.89,11.73c-2-2.33-2.49-3.84.82-5.54,4.27-2.19,8.2-5,12.39-7.4a5.1,5.1,0,0,0,2.91-5c-.1-13.59-.13-27.19,0-40.78C169.26,135.9,168,134.43,165.8,132.73Z"/><path class="cls-11" d="M265.84,131.41a20.34,20.34,0,0,1-3.79,9.63c-5.58,7.46-12.69,12.78-21.74,15.26-2.13.58-3.53.66-3.86-2.42-.51-4.8-1.68-9.53-2.65-14.28-.44-2.18-.06-3.23,2.48-3.75,9.16-1.85,18.26-4,27.38-6.12C265.11,129.4,266.58,129,265.84,131.41Z"/><path class="cls-10" d="M95,114.67c0-2.62,0-5.23,0-7.85,0-2.87.51-5.88-3.49-6.67-1-.19-1.27-1.18-.53-2.05s1.43-.71,2.23,0c3.73,3.11,5.76,2.91,8.47-1.52,1.36-2.22,2.42-2.78,4.82-1.76,1.86.8,5.18.26,5.77,1.41,1,2,.5,4.8.52,7.27,0,6.77-2.29,8.53-8.72,6.46-2.16-.69-4.3-1.4-5.24,1.34-1,3,1.54,3.66,3.56,4.62,1.49.71,4.4-.36,4.35,2.16-.09,4.17,1.75,8.9-2.26,12.3a5.12,5.12,0,0,1-5.88.76,5.92,5.92,0,0,1-3.58-5.6C94.93,121.9,95,118.28,95,114.67Z"/><path class="cls-1" d="M68.06,188.65c.25,2-.37,4,.37,5.93-2.27,2.32-5.26,3.54-7.92,5.26-.39.25-.75.51-1.31.21q-5.81-3.17-11.65-6.27c-.82-.43-.54-.93-.24-1.5,5.77-10.83,11.53-21.67,17.74-33.36,0,8.91,0,16.79,0,24.67C65,186,65.1,188.14,68.06,188.65Z"/><path class="cls-12" d="M44.51,223.35c-4.89,3.64-6.36,7.32-4.68,11.69a9,9,0,0,0,9,5.84c4.75-.43,7.42-3.62,8.71-10.63l11.71,6.39C60.77,240.32,55,248.45,45,246.27a14.78,14.78,0,0,1-10.51-19.94C37,219.84,38.85,219.28,44.51,223.35Z"/><path class="cls-8" d="M121.37,80.73c-1.08,6.84-6.19,10.24-12.31,8.44-2.13-.63-4.19-1.47-6.31-2.1-2.51-.74-4.39-.29-4.86,2.78-.17,1.09-.53,3.41-1.64,2.53-1.81-1.44-5.74.89-5.76-3.51,0-7.29,5.75-12.18,12.7-10.47,3,.73,5.92,1.85,8.94,2.24A72.87,72.87,0,0,0,121.37,80.73Z"/><path class="cls-13" d="M250.51,125.77c-1.85,0-7.66-5.87-7.58-7.7.26-6.29,4.48-10.26,11-10.38,1.86,0,7.66,5.87,7.58,7.71C261.28,121.69,257.06,125.65,250.51,125.77Z"/><path class="cls-14" d="M243.65,127.84c-4.13,1-6.86,1.64-9.57,2.33-1.44.36-1.88-.22-2.12-1.62-.82-4.77-1.79-9.51-2.71-14.27-.24-1.27,0-2,1.5-2.29,2.62-.44,5.2-1.15,8.74-2C235.27,117.23,235.33,123.28,243.65,127.84Z"/><path class="cls-15" d="M51.1,231.67c-.21,1.82-1.16,3-2.81,3.06a2.65,2.65,0,0,1-3-2.63A2.7,2.7,0,0,1,48.17,229C50,228.91,50.65,230.27,51.1,231.67Z"/><path class="cls-5" d="M335.06,243.66a7.68,7.68,0,0,1-2.93,4c-2.51,2.13-2.88,4.39-1.07,7.15a20.8,20.8,0,0,1,3.1,7.5c.65,3.41,2.54,4.63,5.74,4.07,3.58-.63,5,.76,4.33,4.37a6,6,0,0,0,0,1.12c0,6.13,0,6.21-6,6.41-2.06.07-3.2.89-3.69,2.85a26.64,26.64,0,0,1-3.21,8.25c-2.1,3.18-1.86,5.73,1.19,8,2.48,1.83,2.58,3.6,0,5.41a8.75,8.75,0,0,0-1.06,1c-4,4-4,4.08-8.21.35-1.71-1.53-3.3-1.8-5.31-.59a26.83,26.83,0,0,1-8.43,3.59c-3.2.64-4.42,2.39-3.9,5.5.62,3.68-.66,5.35-4.48,4.59a8.12,8.12,0,0,0-1.48,0c-5.65,0-5.73,0-5.83-5.79a3.69,3.69,0,0,0-3-4,34.54,34.54,0,0,1-8.15-3.29c-3.31-2.08-5.74-1.54-7.91,1.41-1.73,2.35-3.37,2.53-5.1,0a12.55,12.55,0,0,0-1.3-1.33c-4-4-4-4-.36-8,1.68-1.83,1.9-3.51.62-5.67a25.23,25.23,0,0,1-3.41-8.16c-.63-3.4-2.5-4.66-5.72-4.09-3.54.62-5-.71-4.35-4.35a6,6,0,0,0,0-1.12c0-6.16,0-6.24,5.94-6.43,2.06-.06,3.22-.87,3.71-2.83a26.3,26.3,0,0,1,3.21-8.25c2.08-3.17,1.91-5.78-1.15-8-2.56-1.87-2.53-3.6,0-5.42a8.67,8.67,0,0,0,1.06-1c4.05-4,4.1-4.09,8.22-.34a4,4,0,0,0,5.31.58,27,27,0,0,1,8.42-3.59c3.26-.65,4.39-2.46,3.88-5.52-.64-3.75.76-5.29,4.51-4.56a5.87,5.87,0,0,0,1.11,0c6,0,6.06,0,6.17,5.82,0,2.23.86,3.44,3,3.95a23,23,0,0,1,7.83,3.11c3.28,2.27,5.92,1.95,8.22-1.24,1.76-2.44,3.23-2.21,5.16,0A45,45,0,0,0,335.06,243.66Z"/><path class="cls-3" d="M243.22,168.16c.65-2.44,2.39-2.78,4.59-2.61,25.85,2,47.3-14.46,52.44-40.19C305.68,98.15,285,70.5,257.57,67.92A48.49,48.49,0,0,0,231,72.54c-2,1-3.73,1.13-5.28-.72-.63-2.36.44-3.62,2.51-4.65,31.31-15.6,69.81,2.46,77.38,38a55,55,0,0,1-44.09,65.93c-4.8.87-9.73,1.52-14.71.49C244.69,171.12,243.44,170.36,243.22,168.16Z"/><path class="cls-5" d="M47.29,59.5c0,4.43,1.36,9.14-.39,11.58s-6.67.62-10.19.72c-5.31.14-10.62-.11-15.92.1-2.53.09-3.05-.81-3-3.16q.2-12,0-23.9c0-2.18.38-3.05,2.8-3,8.14.17,16.29.12,24.44,0,1.91,0,2.18.64,2.59,2.47,1.59,7.13-3.41,10.21-7.75,13.76-1.24,1-2-.12-2.79-.89q-3.81-3.81-7.58-7.66c-1.44-1.48-3-2.46-4.75-.67s-.8,3.34.66,4.8c3.42,3.41,6.89,6.78,10.18,10.32,2.05,2.2,3.82,2.24,6,.2C43.21,62.61,45.1,61.27,47.29,59.5Z"/><path class="cls-16" d="M211.19,152c-8.71,0-8,1.57-9.75-8-.75-4.15-1.49-8.29-2.29-12.43-.47-2.39.32-4,2.74-4.33,4.51-.63,9-1.1,13.56-1.63,2.59-.31,3.82.84,4.2,3.45.84,5.77,1.87,11.51,2.84,17.25.53,3.16-.4,5.07-3.93,5.14C216.1,151.52,213.64,151.8,211.19,152Z"/><path class="cls-3" d="M299.78,251.43a21.17,21.17,0,0,1,20.7,20.93c0,11.22-9.58,21-20.66,21a20.95,20.95,0,0,1,0-41.89Z"/><path class="cls-17" d="M210.94,145.86c-2.44.76-3.43-.61-3.61-3.15a34.49,34.49,0,0,0-.7-4c-1.19-5.79-1.18-5.65,4.59-6.47,2.24-.32,3.17,0,3.25,2.44a49.05,49.05,0,0,0,.83,5.87C216.14,145.65,216.15,145.65,210.94,145.86Z"/></g></g></svg>