<svg width="534" height="515" viewBox="0 0 534 515" fill="none" xmlns="http://www.w3.org/2000/svg">
<g clip-path="url(#clip0_3_33)">
<path d="M287.241 505.327L273.952 505.326L267.631 454.138L287.243 454.139L287.241 505.327Z" fill="#FFB6B6"/>
<path d="M241.712 505.026C241.298 505.722 241.08 507.968 241.08 508.777C241.08 511.265 243.099 513.281 245.59 513.281H286.744C288.443 513.281 289.821 511.906 289.821 510.209V508.498C289.821 508.498 291.856 503.355 287.665 497.016C287.665 497.016 282.456 501.98 274.672 494.206L272.376 490.053L255.76 502.189L246.55 503.321C244.535 503.569 242.749 503.283 241.712 505.026H241.712Z" fill="#2F2E41"/>
<path d="M337.665 505.327L324.377 505.326L318.055 454.138L337.668 454.139L337.665 505.327Z" fill="#FFB6B6"/>
<path d="M292.137 505.026C291.723 505.722 291.505 507.968 291.505 508.777C291.505 511.265 293.524 513.281 296.015 513.281H337.168C338.867 513.281 340.245 511.906 340.245 510.209V508.498C340.245 508.498 342.281 503.355 338.089 497.016C338.089 497.016 332.88 501.98 325.096 494.206L322.801 490.053L306.185 502.189L296.975 503.321C294.96 503.569 293.173 503.283 292.137 505.026H292.137Z" fill="#2F2E41"/>
<path d="M347.452 230.361L364.26 268.408L342.97 476.55L316.637 478.229L305.992 294.146L295.907 478.788L264.532 475.431L257.089 241.036L347.452 230.361Z" fill="#2F2E41"/>
<path d="M281.229 78.7308L314.956 72.576L321.768 79.3784L356.416 93.8379L350.813 202.385C350.813 202.385 362.019 209.839 356.416 220.1C350.813 230.361 351.934 242.67 351.934 242.67H257.089L261.17 181.123L249.965 102.79L276.147 90.4108L281.229 78.7308H281.229V78.7308Z" fill="#26548F"/>
<path d="M295.975 69.4002C279.617 69.4002 266.356 56.1569 266.356 39.8203C266.356 23.4838 279.617 10.2404 295.975 10.2404C312.334 10.2404 325.595 23.4838 325.595 39.8203C325.595 56.1569 312.334 69.4002 295.975 69.4002Z" fill="#FFB6B6"/>
<path d="M317.219 66.079C320.767 66.3957 326.56 57.3306 326.302 48.5513C326.136 42.9034 331.046 41.7929 331.41 34.5093C331.623 30.2652 325.095 28.9419 324.647 25.5379C323.834 19.3702 319.85 15.2199 319.352 14.7153C315.058 10.3601 312.028 11.7759 306.978 6.72831C303.938 3.68941 304.717 2.85685 302.669 1.50893C296.76 -2.38124 286.142 1.83497 279.792 7.51436C277.595 9.47966 269.405 7.3317 265.827 12.8815C261.612 19.4202 262.591 32.755 264.398 34.5148C265.496 35.584 268.004 32.9719 274.801 31.2954C281.094 29.7433 275.158 37.4191 282.433 36.131C291.036 34.6078 292.72 31.994 295.942 33.5617C299.348 35.2189 302.009 40.3504 301.237 44.3843C300.853 46.386 299.742 47.5022 300.369 48.5201C301.513 50.3785 302.825 48.5559 304.293 50.4209C306 52.5902 301.758 58.1552 302.557 58.6926C302.718 58.8009 303.205 58.7868 307.783 54.3896C309.611 52.6339 310.147 51.5557 310.505 51.7212C311.084 51.9891 314.879 55.5197 313.43 58.3078C311.175 62.6467 314.061 62.7819 313.43 65.7028C312.779 68.7162 314.964 65.8778 317.219 66.079H317.219L317.219 66.079Z" fill="#2F2E41"/>
<path d="M285.733 209.797C294.466 214.349 299.193 222.538 296.291 228.088C293.389 233.638 283.959 234.446 275.224 229.891C271.709 228.119 268.671 225.533 266.362 222.348L229.604 202.594L239.254 185.565L274.467 206.847C278.404 206.918 282.267 207.929 285.733 209.797H285.733H285.733Z" fill="#FFB6B6"/>
<path d="M256.688 103.909C256.688 103.909 246.603 97.195 239.88 115.1C234.576 129.225 224.738 170.861 220.822 187.809C219.782 192.308 221.287 197.008 224.742 200.076L229.235 204.064L251.085 220.29L265.983 198.64L247.889 187.745L268.524 143.041L256.688 103.909L256.688 103.909H256.688V103.909Z" fill="#26548F"/>
<path d="M256.286 196.492V173.544C256.286 172.221 255.208 171.144 253.883 171.144H242.763C241.438 171.144 240.36 172.221 240.36 173.544V196.492C240.36 197.816 241.438 198.892 242.763 198.892H253.883C255.208 198.892 256.286 197.816 256.286 196.492H256.286H256.286Z" fill="#26548F"/>
<path d="M97.38 159.559C79.1902 159.559 64.4444 144.833 64.4444 126.667C64.4444 108.502 79.1902 93.7758 97.38 93.7758C115.57 93.7758 130.316 108.502 130.316 126.667C130.316 144.833 115.57 159.559 97.38 159.559Z" fill="#FF6884"/>
<path d="M129.906 335.247L167.124 335.76L182.045 169.607C182.407 165.574 181.102 161.497 178.466 158.42L141.869 115.723C136.746 109.746 128.036 108.668 121.607 113.217L75.7705 145.649C72.0311 148.295 69.7138 152.432 69.4132 156.999L35.9545 269.255L40.4422 306.691L40.3982 306.743L35.0946 333.941L129.906 335.247H129.906Z" fill="#E6E6E6"/>
<path d="M137.702 154.356L138.301 146.644C138.459 144.609 136.929 142.824 134.891 142.666L124.041 141.825C122.003 141.667 120.216 143.195 120.058 145.23L119.459 152.942C119.301 154.978 120.83 156.762 122.868 156.92L133.718 157.761C135.756 157.919 137.543 156.392 137.702 154.356V154.356Z" fill="#26548F"/>
<path d="M155.984 215.994L158.201 187.461C158.359 185.425 156.829 183.641 154.791 183.483L138.729 182.238C136.691 182.08 134.904 183.607 134.746 185.643L132.529 214.176C132.37 216.211 133.9 217.996 135.938 218.154L152 219.399C154.038 219.557 155.825 218.029 155.984 215.994V215.994Z" fill="#3F3D56"/>
<path d="M114.487 279.969C116.433 280.05 118.121 278.598 118.329 276.664L121.285 249.149C121.411 247.974 120.985 246.84 120.118 246.037C119.25 245.235 118.086 244.899 116.922 245.113L116.094 245.266C114.444 245.572 113.202 246.951 113.072 248.62L110.946 275.982C110.867 276.993 111.195 277.968 111.869 278.726C112.512 279.451 113.39 279.886 114.352 279.96C114.397 279.964 114.442 279.967 114.487 279.969Z" fill="#3F3D56"/>
<path d="M148.483 278.775L150.707 250.16C150.864 248.139 149.405 246.396 147.387 246.189L132.816 244.702C130.795 244.518 128.969 245.972 128.752 247.993L125.66 276.898C125.553 277.902 125.849 278.882 126.496 279.659C127.141 280.435 128.052 280.905 129.06 280.983L144.499 282.18C146.538 282.338 148.325 280.81 148.483 278.775Z" fill="#3F3D56"/>
<path d="M60.6764 291.641L47.6557 311.069L44.5668 333.813L35.411 333.684L40.6417 306.859L61.4282 282.287C62.8214 285.324 62.5368 288.865 60.6764 291.641Z" fill="#CCCCCC"/>
<path d="M45.4409 327.302L82.5377 330.688L82.4901 331.207L45.3933 327.822L45.4409 327.302Z" fill="#3F3D56"/>
<path d="M48.0506 322.883L83.2402 325.887L83.1957 326.407L48.0061 323.403L48.0506 322.883Z" fill="#3F3D56"/>
<path d="M50.2428 318.33L83.8728 321.597L83.8222 322.117L50.1922 318.85L50.2428 318.33Z" fill="#3F3D56"/>
<path d="M51.6512 313.743L83.9126 317.322L83.8548 317.841L51.5935 314.262L51.6512 313.743Z" fill="#3F3D56"/>
<path d="M53.5382 309.707L84.5297 313.206L84.4709 313.726L53.4794 310.226L53.5382 309.707Z" fill="#3F3D56"/>
<path d="M55.8987 306.209L86.1667 308.555L86.1263 309.076L55.8583 306.73L55.8987 306.209Z" fill="#3F3D56"/>
<path d="M57.7494 302.678L87.1383 305.302L87.0918 305.822L57.7028 303.198L57.7494 302.678Z" fill="#3F3D56"/>
<path d="M59.6017 299.159L88.0316 302.313L87.9739 302.832L59.544 299.678L59.6017 299.159Z" fill="#3F3D56"/>
<path d="M60.9212 295.615L89.0293 298.291L88.9796 298.81L60.8716 296.135L60.9212 295.615Z" fill="#3F3D56"/>
<path d="M63.2904 292.172L90.1753 295.102L90.1186 295.621L63.2337 292.691L63.2904 292.172Z" fill="#3F3D56"/>
<path d="M64.5737 289.077L91.266 291.408L91.2205 291.928L64.5282 289.597L64.5737 289.077Z" fill="#3F3D56"/>
<path d="M94.0713 280.58L96.8145 245.281C96.9727 243.245 95.4431 241.46 93.4047 241.302L76.3004 239.976C74.2621 239.819 72.4753 241.346 72.3171 243.382L69.5739 278.681C69.4158 280.717 70.9451 282.501 72.9834 282.659L90.0878 283.985C92.1261 284.143 93.9131 282.615 94.0713 280.58Z" fill="#26548F"/>
<path d="M129.906 335.247L160.333 335.668L160.579 335.671L162.397 312.27C162.627 309.31 160.404 306.715 157.44 306.486L127.533 304.168C124.57 303.938 121.972 306.159 121.742 309.119L119.773 334.462L120.033 334.482L129.906 335.247Z" fill="#CCCCCC"/>
<path d="M96.9619 216.394L99.0578 189.423C99.216 187.387 97.6864 185.603 95.6481 185.445L90.0106 185.008C87.9723 184.85 86.1855 186.377 86.0273 188.413L83.9313 215.384C83.7731 217.42 85.3025 219.204 87.3408 219.362L92.9783 219.799C95.0166 219.957 96.8037 218.43 96.9619 216.394Z" fill="#3F3D56"/>
<path d="M82.0423 334.156L85.3858 311.374L91.7757 289.876L93.5439 283.991C96.3629 282.38 99.8116 284.682 99.3989 287.9L99.0728 290.442L92.6829 311.94L89.3394 334.722" fill="#CCCCCC"/>
<path d="M456.589 339.446L493.806 339.959L508.728 173.806C509.09 169.773 507.785 165.696 505.149 162.619L468.552 119.922C463.429 113.945 454.719 112.867 448.29 117.416L402.453 149.848C398.714 152.494 396.397 156.631 396.096 161.198L362.637 273.454L367.125 310.89L367.081 310.942L361.778 338.14L456.589 339.446H456.589Z" fill="#E6E6E6"/>
<path d="M464.385 158.555L464.984 150.843C465.142 148.808 463.612 147.023 461.574 146.865L450.724 146.024C448.686 145.866 446.899 147.394 446.741 149.429L446.142 157.141C445.984 159.177 447.513 160.961 449.551 161.119L460.401 161.96C462.439 162.118 464.226 160.591 464.385 158.555H464.385Z" fill="#26548F"/>
<path d="M482.666 220.193L484.884 191.66C485.042 189.624 483.512 187.84 481.474 187.682L465.412 186.437C463.374 186.279 461.587 187.807 461.429 189.842L459.211 218.375C459.053 220.41 460.583 222.195 462.621 222.353L478.683 223.598C480.721 223.756 482.508 222.228 482.666 220.193Z" fill="#3F3D56"/>
<path d="M441.17 284.168C443.116 284.249 444.804 282.797 445.012 280.863L447.967 253.348C448.094 252.173 447.668 251.039 446.801 250.236C445.933 249.434 444.769 249.098 443.605 249.312L442.776 249.465C441.127 249.771 439.885 251.15 439.755 252.819L437.629 280.181C437.55 281.192 437.878 282.167 438.552 282.925C439.195 283.65 440.073 284.085 441.035 284.159C441.08 284.163 441.124 284.166 441.17 284.168Z" fill="#3F3D56"/>
<path d="M475.166 282.974L477.389 254.359C477.546 252.339 476.088 250.595 474.07 250.388L459.499 248.901C457.477 248.717 455.652 250.171 455.435 252.192L452.343 281.097C452.235 282.101 452.532 283.081 453.178 283.858C453.824 284.634 454.735 285.104 455.743 285.182L471.182 286.379C473.221 286.537 475.008 285.009 475.166 282.974L475.166 282.974Z" fill="#3F3D56"/>
<path d="M387.359 295.84L374.339 315.268L371.25 338.012L362.094 337.883L367.325 311.058L388.111 286.487C389.504 289.523 389.22 293.064 387.359 295.84Z" fill="#CCCCCC"/>
<path d="M372.124 331.501L409.221 334.886L409.173 335.406L372.076 332.021L372.124 331.501Z" fill="#3F3D56"/>
<path d="M374.734 327.082L409.923 330.086L409.879 330.606L374.689 327.602L374.734 327.082Z" fill="#3F3D56"/>
<path d="M376.926 322.529L410.556 325.796L410.505 326.316L376.875 323.049L376.926 322.529Z" fill="#3F3D56"/>
<path d="M378.334 317.942L410.596 321.521L410.538 322.04L378.276 318.461L378.334 317.942Z" fill="#3F3D56"/>
<path d="M380.221 313.906L411.213 317.405L411.154 317.925L380.162 314.425L380.221 313.906Z" fill="#3F3D56"/>
<path d="M382.582 310.408L412.85 312.754L412.809 313.275L382.541 310.929L382.582 310.408Z" fill="#3F3D56"/>
<path d="M384.432 306.877L413.821 309.501L413.775 310.021L384.386 307.397L384.432 306.877Z" fill="#3F3D56"/>
<path d="M386.285 303.358L414.714 306.512L414.657 307.032L386.227 303.877L386.285 303.358Z" fill="#3F3D56"/>
<path d="M387.604 299.814L415.712 302.49L415.663 303.009L387.555 300.334L387.604 299.814Z" fill="#3F3D56"/>
<path d="M389.973 296.371L416.858 299.301L416.802 299.82L389.917 296.89L389.973 296.371Z" fill="#3F3D56"/>
<path d="M391.257 293.276L417.949 295.607L417.903 296.127L391.211 293.796L391.257 293.276Z" fill="#3F3D56"/>
<path d="M420.754 284.779L423.497 249.48C423.656 247.444 422.126 245.659 420.088 245.501L402.983 244.176C400.945 244.018 399.158 245.545 399 247.581L396.257 282.88C396.099 284.916 397.628 286.7 399.666 286.858L416.771 288.184C418.809 288.342 420.596 286.814 420.754 284.779H420.754Z" fill="#26548F"/>
<path d="M456.589 339.446L487.016 339.867L487.262 339.87L489.08 316.469C489.31 313.509 487.086 310.914 484.123 310.685L454.216 308.367C451.253 308.137 448.655 310.358 448.425 313.318L446.456 338.661L446.716 338.681L456.589 339.446V339.446Z" fill="#CCCCCC"/>
<path d="M423.645 220.593L425.741 193.622C425.899 191.586 424.369 189.802 422.331 189.644L416.693 189.207C414.655 189.049 412.868 190.576 412.71 192.612L410.614 219.583C410.456 221.619 411.985 223.403 414.024 223.561L419.661 223.998C421.7 224.156 423.487 222.629 423.645 220.593Z" fill="#3F3D56"/>
<path d="M408.725 338.355L412.069 315.574L418.459 294.075L420.227 288.19C423.046 286.579 426.494 288.881 426.082 292.099L425.756 294.641L419.366 316.139L416.022 338.921" fill="#CCCCCC"/>
<path d="M260.338 336.978L297.554 337.49L312.476 171.337C312.838 167.305 311.534 163.227 308.897 160.151L272.3 117.453C267.177 111.476 258.467 110.399 252.038 114.947L206.202 147.38C202.462 150.025 182.345 165.04 182.045 169.607L191.604 283.915L170.873 308.421L170.829 308.473L165.526 335.671L260.338 336.978L260.338 336.978Z" fill="#E6E6E6"/>
<path d="M268.133 156.086L268.732 148.375C268.89 146.339 267.361 144.554 265.322 144.396L254.473 143.555C252.434 143.398 250.648 144.925 250.489 146.961L249.89 154.672C249.732 156.708 251.261 158.493 253.3 158.651L264.149 159.492C266.188 159.65 267.975 158.122 268.133 156.086V156.086Z" fill="#26548F"/>
<path d="M286.415 217.724L288.632 189.191C288.79 187.156 287.261 185.371 285.222 185.213L269.16 183.968C267.122 183.81 265.335 185.338 265.177 187.373L262.96 215.906C262.802 217.942 264.331 219.726 266.369 219.884L282.431 221.129C284.469 221.287 286.257 219.76 286.415 217.724Z" fill="#3F3D56"/>
<path d="M250.194 248.151C250.939 248.84 251.304 249.814 251.195 250.823L248.24 278.338C248.062 280 246.612 281.247 244.94 281.177C244.061 281.144 243.269 280.761 242.691 280.11C242.113 279.458 241.831 278.621 241.898 277.753L244.025 250.391C244.136 248.957 245.203 247.772 246.62 247.51L247.449 247.357C247.73 247.305 248.01 247.29 248.286 247.312C248.99 247.366 249.658 247.655 250.194 248.151V248.151Z" fill="#3F3D56"/>
<path d="M294.249 284.483C295.031 283.837 295.506 282.925 295.584 281.914L297.71 254.552C297.84 252.882 296.826 251.328 295.244 250.772L294.448 250.493C293.333 250.103 292.129 250.255 291.148 250.914C290.167 251.574 289.572 252.629 289.515 253.808L288.184 281.449C288.09 283.393 289.533 285.088 291.47 285.307C291.514 285.312 291.56 285.316 291.604 285.319C292.566 285.394 293.5 285.099 294.249 284.483H294.249Z" fill="#3F3D56"/>
<path d="M191.108 293.371L178.087 312.799L174.998 335.543L165.842 335.414L171.073 308.59L191.859 284.018C193.253 287.054 192.968 290.596 191.108 293.371V293.371Z" fill="#CCCCCC"/>
<path d="M175.872 329.032L212.969 332.418L212.921 332.938L175.824 329.552L175.872 329.032Z" fill="#3F3D56"/>
<path d="M178.482 324.613L213.671 327.617L213.627 328.137L178.437 325.133L178.482 324.613Z" fill="#3F3D56"/>
<path d="M180.674 320.06L214.304 323.328L214.253 323.847L180.623 320.58L180.674 320.06Z" fill="#3F3D56"/>
<path d="M182.082 315.473L214.344 319.052L214.286 319.571L182.025 315.992L182.082 315.473Z" fill="#3F3D56"/>
<path d="M183.969 311.437L214.961 314.937L214.902 315.456L183.911 311.956L183.969 311.437Z" fill="#3F3D56"/>
<path d="M186.33 307.94L216.598 310.285L216.557 310.806L186.289 308.46L186.33 307.94Z" fill="#3F3D56"/>
<path d="M188.181 304.408L217.57 307.032L217.523 307.553L188.134 304.928L188.181 304.408Z" fill="#3F3D56"/>
<path d="M190.033 300.889L218.463 304.044L218.405 304.563L189.975 301.409L190.033 300.889Z" fill="#3F3D56"/>
<path d="M191.352 297.345L219.46 300.021L219.411 300.541L191.303 297.865L191.352 297.345Z" fill="#3F3D56"/>
<path d="M193.722 293.902L220.607 296.832L220.55 297.351L193.665 294.421L193.722 293.902Z" fill="#3F3D56"/>
<path d="M195.005 290.807L221.697 293.138L221.652 293.658L194.959 291.327L195.005 290.807Z" fill="#3F3D56"/>
<path d="M224.503 282.31L227.246 247.011C227.404 244.975 225.874 243.191 223.836 243.033L206.732 241.707C204.693 241.549 202.907 243.077 202.748 245.112L200.005 280.412C199.847 282.447 201.376 284.232 203.415 284.39L220.519 285.715C222.557 285.873 224.344 284.346 224.502 282.31H224.503Z" fill="#26548F"/>
<path d="M260.338 336.978L290.765 337.398L291.01 337.401L292.829 314C293.058 311.041 290.834 308.446 287.871 308.216L257.964 305.898C255.001 305.669 252.403 307.89 252.173 310.849L250.204 336.193L250.464 336.213L260.338 336.978H260.338Z" fill="#CCCCCC"/>
<path d="M227.393 218.124L229.489 191.153C229.647 189.118 228.118 187.333 226.079 187.175L220.442 186.738C218.404 186.58 216.617 188.108 216.459 190.143L214.363 217.114C214.204 219.15 215.734 220.935 217.772 221.093L223.41 221.529C225.448 221.687 227.235 220.16 227.393 218.124Z" fill="#3F3D56"/>
<path d="M212.474 335.887L215.817 313.105L222.207 291.607L223.975 285.722C226.794 284.111 230.243 286.413 229.83 289.63L229.504 292.172L223.114 313.67L219.771 336.452" fill="#CCCCCC"/>
<path d="M0.0135183 333.244L476.639 339.414L476.625 340.458L-3.65649e-05 334.288L0.0135183 333.244Z" fill="#CCCCCC"/>
<path d="M317.419 179.743C305.629 179.743 296.072 170.198 296.072 158.424C296.072 146.65 305.629 137.105 317.419 137.105C329.209 137.105 338.766 146.65 338.766 158.424C338.766 170.198 329.209 179.743 317.419 179.743Z" fill="#26548F"/>
<path d="M303.565 135.965C304.812 135.237 306.713 135.614 307.398 136.968C310.102 142.311 312.073 147.903 313.357 153.692C315.407 151.168 317.457 148.645 319.507 146.121C320.461 144.947 322.477 145.131 323.469 146.121C324.631 147.282 324.425 148.901 323.469 150.078C320.205 154.095 316.942 158.112 313.679 162.129C312.99 162.977 311.543 163.113 310.619 162.707C309.504 162.218 309.049 161.313 308.897 160.151C307.972 153.086 305.775 146.144 302.56 139.792C301.878 138.444 302.204 136.76 303.565 135.965L303.565 135.965Z" fill="white"/>
<path d="M305.675 205.192C296.093 207.476 287.146 204.391 285.691 198.301C284.237 192.211 290.825 185.424 300.41 183.14C304.227 182.175 308.219 182.137 312.053 183.029L352.774 173.863L356.674 193.038L316.116 200.039C313.098 202.565 309.517 204.332 305.675 205.192L305.675 205.192H305.675H305.675Z" fill="#FFB6B6"/>
<path d="M349.693 99.4331L356.416 93.8379C356.416 93.8379 369.863 100.552 372.104 106.147C374.345 111.743 387.791 165.457 387.791 165.457C387.791 165.457 390.429 194.894 383.508 198.64C376.586 202.385 332.885 200.147 332.885 200.147L329.523 177.766L347.452 171.052L349.693 99.4331Z" fill="#26548F"/>
<path d="M81.5428 412.87C82.4888 411.277 86.5817 412.982 87.3341 411.537C88.0839 410.096 84.2812 407.901 82.1087 402.887C81.7168 401.982 79.2479 396.284 81.0757 394.526C84.5401 391.193 100.393 404.947 105.941 400.446C107.159 399.458 108.009 397.486 111.694 394.284C113.16 393.011 114.047 392.436 114.905 392.65C116.122 392.953 116.219 394.58 117.524 397.779C119.481 402.577 120.639 402.287 121.78 406.115C122.627 408.957 122.433 410.609 123.43 410.93C124.839 411.386 126.137 408.372 127.924 408.642C129.747 408.917 130.85 412.426 131.198 415.054C131.851 419.984 130.038 423.238 129.033 426.659C127.941 430.377 127.293 436.031 129.815 444.035L154.778 514.273C149.267 499.86 133.31 460.352 126.605 445.67C124.669 441.432 122.532 437.133 118.143 435.436C113.919 433.802 108.116 434.778 100.719 432.998C99.8548 432.79 97.4574 432.181 97.1556 430.773C96.9061 429.609 98.3163 428.959 98.0996 427.868C97.809 426.406 95.0359 426.388 91.6281 424.7C89.2252 423.51 87.7281 422.095 86.4408 420.878C86.0526 420.512 80.2832 414.99 81.5427 412.87H81.5428Z" fill="#F2F2F2"/>
<path d="M179.753 449.846C180.809 449.85 181.151 452.348 182.079 452.3C183.003 452.252 182.985 449.755 184.822 447.243C185.154 446.79 187.242 443.936 188.634 444.324C191.271 445.06 189.086 456.799 192.899 458.22C193.735 458.532 194.95 458.38 197.587 459.262C198.636 459.613 199.174 459.882 199.316 460.364C199.518 461.048 198.747 461.565 197.551 463.128C195.758 465.472 196.234 465.956 194.682 467.619C193.53 468.854 192.662 469.236 192.792 469.817C192.975 470.64 194.83 470.406 195.213 471.36C195.604 472.333 194.197 473.886 193.007 474.815C190.772 476.557 188.65 476.607 186.678 477.102C184.536 477.639 181.57 478.953 178.364 482.499L151.047 515C156.54 508.14 171.354 488.92 176.635 481.397C178.159 479.225 179.655 476.937 179.223 474.297C178.807 471.755 176.653 469.192 175.393 465.053C175.246 464.569 174.854 463.218 175.459 462.664C175.959 462.206 176.685 462.71 177.159 462.289C177.794 461.724 177.002 460.36 176.848 458.203C176.74 456.682 177.003 455.54 177.23 454.557C177.298 454.261 178.347 449.84 179.753 449.846V449.846H179.753Z" fill="#F2F2F2"/>
<path d="M158.687 454.568L159.323 448.897L159.033 448.467C157.688 446.479 157.002 444.537 156.994 442.694C156.992 442.401 157.006 442.108 157.02 441.81C157.075 440.627 157.143 439.156 156.375 437.442C155.945 436.486 154.736 434.273 152.917 434.547C152.428 434.615 152.058 434.84 151.777 435.103C151.736 435.037 151.693 434.971 151.648 434.9C151.082 434.038 150.633 433.668 150.201 433.312C149.87 433.038 149.527 432.756 148.989 432.088C148.753 431.795 148.57 431.537 148.415 431.321C147.944 430.667 147.33 429.886 146.247 429.9C145.09 429.954 144.484 430.91 144.082 431.543C143.365 432.671 143.04 433.484 142.825 434.024C142.747 434.221 142.658 434.443 142.612 434.511C142.239 435.059 139.208 434.547 138.066 434.361C135.5 433.934 133.281 433.564 132.366 435.18C131.711 436.335 132.197 437.863 133.856 439.843C134.373 440.459 134.923 440.928 135.411 441.295C135.007 441.536 134.645 441.905 134.498 442.486C134.153 443.861 135.336 445.238 138.014 446.586C138.679 446.922 139.574 447.372 140.828 447.588C141.419 447.689 141.951 447.714 142.407 447.728C142.416 447.99 142.478 448.275 142.638 448.568C143.109 449.431 144.088 449.842 145.563 449.743C147.186 449.658 148.523 449.349 149.702 449.078C150.732 448.842 151.619 448.642 152.316 448.689C153.607 448.793 154.603 449.825 155.771 451.164L158.687 454.568H158.687H158.687Z" fill="#F2F2F2"/>
<path d="M155.736 420.8L161.068 422.853L161.558 422.682C163.825 421.887 165.879 421.717 167.667 422.176C167.951 422.249 168.231 422.337 168.517 422.426C169.649 422.779 171.056 423.218 172.911 422.911C173.946 422.738 176.396 422.131 176.592 420.305C176.65 419.815 176.526 419.4 176.343 419.062C176.417 419.039 176.491 419.015 176.572 418.989C177.551 418.661 178.023 418.322 178.477 417.995C178.827 417.744 179.187 417.484 179.97 417.134C180.314 416.981 180.61 416.869 180.859 416.774C181.612 416.486 182.524 416.09 182.785 415.04C183.026 413.909 182.254 413.081 181.743 412.532C180.832 411.553 180.126 411.033 179.659 410.688C179.487 410.563 179.295 410.421 179.24 410.359C178.804 409.86 180.069 407.062 180.539 406.006C181.604 403.636 182.525 401.585 181.192 400.292C180.239 399.366 178.635 399.448 176.297 400.549C175.569 400.892 174.976 401.304 174.496 401.683C174.366 401.231 174.099 400.787 173.574 400.498C172.33 399.816 170.696 400.61 168.712 402.855C168.217 403.411 167.555 404.162 167.027 405.319C166.779 405.865 166.62 406.372 166.491 406.809C166.234 406.751 165.943 406.738 165.618 406.819C164.663 407.055 164.017 407.896 163.738 409.346C163.409 410.936 163.37 412.306 163.333 413.514C163.3 414.568 163.269 415.476 163.047 416.137C162.618 417.358 161.366 418.058 159.773 418.846L155.736 420.8L155.736 420.8Z" fill="#F2F2F2"/>
<path d="M158.687 404.092L159.323 398.42L159.033 397.99C157.688 396.002 157.002 394.061 156.994 392.218C156.992 391.925 157.006 391.632 157.02 391.333C157.075 390.15 157.143 388.679 156.375 386.965C155.945 386.009 154.736 383.797 152.917 384.07C152.428 384.139 152.058 384.363 151.777 384.626C151.736 384.561 151.693 384.495 151.648 384.424C151.082 383.561 150.633 383.191 150.201 382.835C149.87 382.562 149.527 382.279 148.989 381.611C148.753 381.318 148.57 381.061 148.415 380.844C147.944 380.19 147.33 379.409 146.247 379.423C145.09 379.478 144.484 380.434 144.082 381.066C143.365 382.195 143.04 383.008 142.825 383.547C142.747 383.745 142.658 383.966 142.612 384.035C142.239 384.583 139.208 384.07 138.066 383.884C135.5 383.457 133.281 383.087 132.366 384.703C131.711 385.859 132.197 387.387 133.856 389.367C134.373 389.983 134.923 390.451 135.411 390.818C135.007 391.059 134.645 391.429 134.498 392.009C134.153 393.384 135.336 394.762 138.014 396.109C138.679 396.446 139.574 396.895 140.828 397.111C141.419 397.213 141.951 397.237 142.407 397.251C142.416 397.514 142.478 397.799 142.638 398.092C143.109 398.954 144.088 399.365 145.563 399.267C147.186 399.182 148.523 398.872 149.702 398.601C150.732 398.366 151.619 398.166 152.316 398.212C153.607 398.316 154.603 399.349 155.771 400.688L158.687 404.092H158.687H158.687Z" fill="#F2F2F2"/>
<path d="M152.876 514.181L154.066 513.436L154.354 512.064L154.066 513.436L155.454 513.595C155.476 513.466 155.551 513.17 155.665 512.707C156.286 510.171 158.18 502.454 159.759 490.301C160.862 481.817 161.486 473.095 161.614 464.372C161.743 455.636 161.329 449.023 160.997 443.707C160.746 439.698 160.442 435.881 160.143 432.162C159.348 422.226 158.598 412.841 159.156 402.451C159.279 400.132 159.539 395.304 162.363 390.166C164.001 387.187 166.258 384.542 169.072 382.307L167.322 380.111C164.217 382.581 161.72 385.511 159.901 388.819C156.769 394.515 156.486 399.776 156.351 402.304C155.783 412.877 156.541 422.352 157.345 432.384C157.641 436.089 157.945 439.89 158.195 443.883C158.524 449.149 158.934 455.705 158.806 464.329C158.68 472.947 158.063 481.562 156.976 489.939C155.416 501.94 153.55 509.542 152.937 512.039C152.61 513.373 152.542 513.652 152.876 514.181V514.181H152.876Z" fill="#F2F2F2"/>
<path d="M174.222 386.762C174.337 386.762 174.453 386.76 174.571 386.752C176.962 386.623 179.177 385.193 181.154 382.504C182.081 381.239 182.555 379.796 183.501 376.917C183.648 376.474 184.361 374.223 184.794 371.125C185.078 369.102 185.042 368.255 184.641 367.508C184.195 366.675 183.474 366.095 182.662 365.703C182.698 365.435 182.669 365.158 182.552 364.876C182.074 363.707 180.802 363.86 180.113 363.934C179.765 363.978 179.33 364.035 178.861 364.011C178.124 363.975 177.728 363.756 177.127 363.427C176.553 363.112 175.838 362.721 174.778 362.505C172.689 362.069 170.938 362.661 170.361 362.855C167.324 363.866 165.826 366.223 164.093 368.954C163.748 369.501 162.562 371.495 161.779 374.228C161.214 376.2 161.294 377.076 161.464 377.728C161.809 379.067 162.625 379.834 164.697 381.526C166.86 383.298 167.946 384.185 168.878 384.725C171.049 385.976 172.412 386.762 174.222 386.762V386.762Z" fill="#F2F2F2"/>
<path d="M54.3628 512.906C54.3628 513.425 54.7843 513.846 55.3041 513.846H533.059C533.579 513.846 534 513.425 534 512.906C534 512.386 533.579 511.966 533.059 511.966H55.3041C54.7843 511.966 54.3628 512.386 54.3628 512.906Z" fill="#E6E6E6"/>
</g>
<defs>
<clipPath id="clip0_3_33">
<rect width="534" height="515" fill="white" transform="matrix(-1 0 0 1 534 0)"/>
</clipPath>
</defs>
</svg>
