<svg width="700" height="420" viewBox="0 0 700 420" fill="none" xmlns="http://www.w3.org/2000/svg">
<g clip-path="url(#clip0_6_236)">
<path d="M191.123 354.54C210.126 354.54 225.532 338.666 225.532 319.086C225.532 299.505 210.126 283.632 191.123 283.632C172.12 283.632 156.714 299.505 156.714 319.086C156.714 338.666 172.12 354.54 191.123 354.54Z" fill="#26548F"/>
<path opacity="0.2" d="M165.717 295.405C162.507 303.141 162.072 311.8 164.488 319.837C166.905 327.873 172.016 334.762 178.908 339.272C185.8 343.783 194.025 345.622 202.111 344.459C210.198 343.297 217.62 339.21 223.052 332.928C221.091 337.655 218.157 341.885 214.452 345.327C210.747 348.769 206.36 351.339 201.595 352.861C196.83 354.382 191.801 354.818 186.857 354.138C181.912 353.458 177.17 351.678 172.96 348.922C168.749 346.167 165.17 342.5 162.471 338.178C159.771 333.856 158.017 328.98 157.328 323.889C156.639 318.799 157.032 313.615 158.481 308.696C159.929 303.778 162.398 299.243 165.717 295.405Z" fill="black"/>
<path d="M191.218 319.085H191.312L193.014 419.603H189.421L191.218 319.085Z" fill="#3F3D56"/>
<path d="M121.504 288.423C159.818 288.423 190.878 256.419 190.878 216.941C190.878 177.463 159.818 145.459 121.504 145.459C83.1897 145.459 52.1298 177.463 52.1298 216.941C52.1298 256.419 83.1897 288.423 121.504 288.423Z" fill="#26548F"/>
<path opacity="0.2" d="M70.2803 169.197C63.8093 184.794 62.9314 202.253 67.8037 218.456C72.6759 234.658 82.9807 248.547 96.8768 257.642C110.773 266.736 127.355 270.443 143.659 268.1C159.963 265.757 174.928 257.516 185.878 244.851C181.925 254.38 176.009 262.91 168.539 269.849C161.069 276.788 152.224 281.971 142.618 285.038C133.011 288.105 122.872 288.984 112.903 287.613C102.934 286.242 93.373 282.654 84.8833 277.098C76.3935 271.542 69.1777 264.15 63.7357 255.435C58.2936 246.72 54.7555 236.89 53.3664 226.627C51.9774 216.363 52.7706 205.911 55.6911 195.994C58.6117 186.078 63.5897 176.934 70.2803 169.197Z" fill="black"/>
<path d="M121.695 216.941H121.885L125.316 419.603H118.074L121.695 216.941Z" fill="#3F3D56"/>
<path d="M578.89 314.707H260.909V411.833H578.89V314.707Z" fill="#F0F0F0"/>
<path d="M438.438 334.779H401.361V411.833H438.438V334.779Z" fill="#CACACA"/>
<path d="M560.352 200.097H279.447V289.453H560.352V200.097Z" fill="#F0F0F0"/>
<path d="M588.831 205.601H250.969C250.405 205.601 249.853 205.427 249.386 205.102C248.919 204.777 248.556 204.315 248.346 203.775C248.135 203.236 248.085 202.645 248.204 202.076C248.322 201.508 248.602 200.989 249.009 200.586L341.347 109.134V69.2998C341.348 68.5272 341.646 67.7866 342.176 67.2404C342.706 66.6941 343.425 66.3868 344.175 66.386H362.399C363.149 66.3868 363.868 66.6941 364.398 67.2403C364.928 67.7866 365.226 68.5272 365.227 69.2998V85.4837L372.201 78.5761C383.614 67.2724 398.757 60.8385 414.585 60.5673C430.413 60.2961 445.755 66.2077 457.526 77.1142L590.721 200.52C591.147 200.914 591.446 201.432 591.58 202.005C591.714 202.578 591.676 203.18 591.471 203.73C591.266 204.281 590.904 204.754 590.433 205.088C589.961 205.422 589.403 205.601 588.831 205.601V205.601Z" fill="#CACACA"/>
<path d="M353.601 222.76C355.953 222.76 358.282 223.237 360.455 224.164C362.628 225.092 364.602 226.451 366.265 228.165C367.929 229.878 369.248 231.913 370.148 234.152C371.048 236.391 371.511 238.79 371.511 241.214V266.143H335.691V241.214C335.691 236.319 337.578 231.626 340.937 228.165C344.296 224.704 348.851 222.76 353.601 222.76Z" fill="white"/>
<path d="M419.9 223.083C422.252 223.083 424.581 223.561 426.754 224.488C428.927 225.416 430.901 226.775 432.564 228.489C434.227 230.202 435.546 232.237 436.446 234.476C437.346 236.714 437.81 239.114 437.81 241.538V266.467H401.99V241.538C401.99 239.114 402.453 236.714 403.353 234.476C404.253 232.237 405.572 230.202 407.235 228.489C408.899 226.775 410.873 225.416 413.046 224.488C415.219 223.561 417.548 223.083 419.9 223.083Z" fill="white"/>
<path d="M486.198 223.407C488.55 223.407 490.879 223.885 493.052 224.812C495.225 225.74 497.199 227.099 498.862 228.813C500.526 230.526 501.845 232.561 502.745 234.799C503.645 237.038 504.108 239.438 504.108 241.862V266.791H468.288V241.862C468.288 239.438 468.751 237.038 469.652 234.799C470.552 232.561 471.871 230.526 473.534 228.813C475.197 227.099 477.171 225.74 479.344 224.812C481.517 223.885 483.846 223.407 486.198 223.407Z" fill="white"/>
<path d="M512.592 333.808C517.342 333.808 521.897 335.752 525.256 339.213C528.615 342.674 530.502 347.368 530.502 352.262V377.191H494.682V352.262C494.682 347.368 496.569 342.674 499.928 339.213C503.286 335.752 507.842 333.808 512.592 333.808Z" fill="white"/>
<path d="M335.377 333.808C340.127 333.808 344.683 335.752 348.041 339.213C351.4 342.674 353.287 347.368 353.287 352.262V377.191H317.467V352.262C317.467 349.839 317.93 347.439 318.83 345.2C319.73 342.961 321.05 340.927 322.713 339.213C324.376 337.5 326.35 336.14 328.523 335.213C330.696 334.285 333.025 333.808 335.377 333.808Z" fill="white"/>
<path d="M625.346 316.223L565.697 289.027C565.376 288.881 565.03 288.806 564.679 288.806H280.399C280.074 288.806 279.753 288.871 279.452 288.997L214.523 316.192C213.983 316.418 213.536 316.831 213.259 317.359C212.982 317.888 212.891 318.499 213.003 319.088C213.115 319.678 213.422 320.209 213.872 320.591C214.322 320.973 214.887 321.181 215.47 321.181H232.316V410.538H230.431V419.603H609.369V410.538H606.227V321.181H624.329C624.906 321.181 625.465 320.977 625.912 320.603C626.36 320.229 626.669 319.708 626.789 319.127C626.908 318.546 626.829 317.94 626.567 317.412C626.304 316.883 625.873 316.463 625.346 316.223ZM601.199 410.538H237.343V321.181H601.199V410.538Z" fill="#CACACA"/>
<path d="M375.91 262.582H330.035V270.352H375.91V262.582Z" fill="#CACACA"/>
<path d="M443.151 262.582H397.277V270.352H443.151V262.582Z" fill="#CACACA"/>
<path d="M510.392 262.582H464.518V270.352H510.392V262.582Z" fill="#CACACA"/>
<path d="M535.529 374.601H489.655V382.371H535.529V374.601Z" fill="#CACACA"/>
<path d="M357.686 374.601H311.811V382.371H357.686V374.601Z" fill="#CACACA"/>
<path d="M699.23 420H0.770077C0.56584 420 0.369967 419.916 0.22555 419.768C0.0811323 419.619 0 419.417 0 419.207C0 418.996 0.0811323 418.794 0.22555 418.645C0.369967 418.497 0.56584 418.413 0.770077 418.413H699.23C699.434 418.413 699.63 418.497 699.774 418.645C699.919 418.794 700 418.996 700 419.207C700 419.417 699.919 419.619 699.774 419.768C699.63 419.916 699.434 420 699.23 420Z" fill="#3F3D56"/>
<path d="M514.402 353.078L514.185 350.289C513.903 349.195 511.251 352.628 510.934 352.703C510.097 352.521 509.237 352.481 508.387 352.585C508.5 347.581 507.753 349.849 505.584 352.108C498.593 355.759 501.157 367.294 509.116 367.353C516.374 367.788 519.984 357.623 514.402 353.078Z" fill="#3F3D56"/>
<path d="M515.385 364.393C518.28 364.346 521.921 374.813 515.062 374.867C511.512 374.895 505.228 375.608 505.228 375.608C505.228 375.608 500.344 368.055 502.522 363.355L515.385 364.393Z" fill="#3F3D56"/>
<path d="M509.018 369.925V375.348H511.478L513.43 369.826" fill="#3F3D56"/>
<path d="M511.478 375.447C511.429 375.39 508.818 375.569 508.922 375.348L508.922 369.925C509.357 369.198 509.008 375.319 509.114 375.249H511.411C511.524 375.181 513.223 369.626 513.463 369.733C513.475 369.738 513.486 369.744 513.495 369.753C513.505 369.762 513.512 369.772 513.518 369.784C513.523 369.796 513.526 369.809 513.527 369.822C513.527 369.835 513.525 369.848 513.521 369.86C513.43 369.927 511.663 375.481 511.478 375.447Z" fill="white"/>
<path d="M517.412 375.015C517.481 375.907 513.313 375.907 513.383 375.015C513.314 374.124 517.482 374.124 517.412 375.015Z" fill="#3F3D56"/>
<path d="M514.39 374.423C514.149 374.483 513.336 370.369 515.809 369.787C513.402 371.109 514.642 374.163 514.39 374.423Z" fill="white"/>
<path d="M517.807 373.519C517.794 373.499 517.784 373.478 517.772 373.458L517.458 373.469L517.807 373.519Z" fill="#3F3D56"/>
<path d="M528.262 370.386C526.845 368.213 524.107 369.201 523.035 371.188C521.765 373.585 516.336 371.802 517.013 375.022C520.403 374.285 530.435 376.807 528.262 370.386Z" fill="#3F3D56"/>
<path d="M508.698 366.638C506.471 367.086 502.546 364.244 502.441 363.407C502.428 363.385 502.425 363.358 502.431 363.333C502.437 363.308 502.452 363.287 502.474 363.274C502.495 363.26 502.52 363.256 502.545 363.261C502.569 363.267 502.59 363.282 502.604 363.304C503.361 364.412 504.404 365.28 505.615 365.81C507.491 366.789 510.918 366.811 515.468 364.344C513.484 365.787 511.126 366.586 508.698 366.638Z" fill="white"/>
<path d="M509.114 361.622C508.611 361.783 508.175 360.533 508.634 360.93C508.634 361.061 508.685 361.186 508.775 361.279C508.865 361.372 508.986 361.424 509.114 361.424C509.524 361.466 509.504 361.004 509.689 360.831C510.009 361.096 509.461 361.672 509.114 361.622Z" fill="white"/>
<path d="M508.202 375.032C508.012 375.059 506.666 370.08 506.576 370.004C506.568 369.979 506.57 369.952 506.582 369.929C506.594 369.905 506.614 369.888 506.638 369.88C506.889 369.777 508.18 374.837 508.294 374.903C508.298 374.918 508.299 374.934 508.297 374.949C508.294 374.964 508.288 374.979 508.279 374.991C508.271 375.004 508.259 375.014 508.246 375.021C508.232 375.028 508.217 375.032 508.202 375.032Z" fill="white"/>
<path d="M512.232 375.707C512.301 376.599 508.133 376.599 508.202 375.707C508.133 374.816 512.301 374.816 512.232 375.707Z" fill="#3F3D56"/>
<path d="M508.97 375.609C509.039 376.5 504.871 376.5 504.941 375.609C504.871 374.717 509.039 374.717 508.97 375.609Z" fill="#3F3D56"/>
<path d="M509.929 359.694C509.954 360.086 508.369 360.086 508.394 359.694C508.37 359.302 509.954 359.302 509.929 359.694Z" fill="white"/>
<path d="M504.001 359.716C504.221 359.446 504.496 359.229 504.807 359.081C505.117 358.932 505.455 358.854 505.797 358.854C506.139 358.854 506.477 358.932 506.788 359.081C507.098 359.229 507.373 359.446 507.593 359.716C510.068 357.352 506.408 353.402 504.001 355.84C503.747 356.09 503.545 356.391 503.407 356.724C503.268 357.057 503.197 357.416 503.197 357.778C503.197 358.14 503.268 358.499 503.407 358.832C503.545 359.165 503.747 359.466 504.001 359.716Z" fill="white"/>
<path d="M511.023 359.716C511.244 359.446 511.518 359.229 511.829 359.081C512.139 358.932 512.477 358.854 512.819 358.854C513.162 358.854 513.5 358.932 513.81 359.081C514.12 359.229 514.395 359.446 514.615 359.716C517.09 357.352 513.43 353.402 511.023 355.84C510.769 356.09 510.567 356.391 510.429 356.724C510.291 357.057 510.219 357.416 510.219 357.778C510.219 358.14 510.291 358.499 510.429 358.832C510.567 359.165 510.769 359.466 511.023 359.716Z" fill="white"/>
<path d="M504.657 357.117C504.89 357.123 505.111 357.223 505.274 357.395C505.437 357.568 505.528 357.798 505.528 358.039C505.528 358.279 505.437 358.51 505.274 358.682C505.111 358.854 504.89 358.954 504.657 358.96C504.424 358.954 504.202 358.854 504.04 358.682C503.877 358.509 503.786 358.279 503.786 358.038C503.786 357.798 503.877 357.567 504.04 357.395C504.202 357.223 504.424 357.123 504.657 357.117Z" fill="#3F3D56"/>
<path d="M511.679 357.117C511.912 357.123 512.133 357.223 512.296 357.395C512.458 357.568 512.549 357.798 512.549 358.039C512.549 358.279 512.458 358.51 512.296 358.682C512.133 358.854 511.912 358.954 511.679 358.96C511.446 358.954 511.224 358.854 511.062 358.682C510.899 358.509 510.808 358.279 510.808 358.038C510.808 357.798 510.899 357.567 511.062 357.395C511.224 357.223 511.446 357.123 511.679 357.117Z" fill="#3F3D56"/>
<path d="M512.903 360.052C513.107 360.057 513.301 360.145 513.444 360.296C513.586 360.447 513.666 360.649 513.666 360.859C513.666 361.07 513.586 361.272 513.444 361.423C513.301 361.574 513.107 361.661 512.903 361.667C512.699 361.661 512.505 361.574 512.362 361.423C512.22 361.272 512.14 361.07 512.14 360.859C512.14 360.649 512.22 360.447 512.362 360.296C512.505 360.145 512.699 360.057 512.903 360.052Z" fill="#FF6584"/>
<path d="M505.818 360.052C506.023 360.057 506.217 360.145 506.359 360.296C506.502 360.447 506.581 360.649 506.581 360.859C506.581 361.07 506.502 361.272 506.359 361.423C506.217 361.574 506.023 361.661 505.818 361.667C505.614 361.661 505.42 361.574 505.278 361.423C505.135 361.272 505.055 361.07 505.055 360.859C505.055 360.649 505.135 360.447 505.278 360.296C505.42 360.145 505.614 360.057 505.818 360.052Z" fill="#FF6584"/>
<path d="M280.839 46.202C280.641 46.2018 280.45 46.1242 280.305 45.9848C280.16 45.8453 280.072 45.6545 280.058 45.4506C279.545 38.2721 276.42 31.5579 271.309 26.6514C266.198 21.745 259.477 19.0082 252.491 18.9889C251.655 18.9889 250.777 19.0327 249.881 19.1191C249.731 19.1336 249.58 19.1033 249.447 19.0319C249.313 18.9604 249.202 18.8508 249.127 18.7162C245.918 12.9289 241.126 8.24351 235.35 5.24467C229.573 2.24584 223.066 1.06642 216.643 1.85359C210.22 2.64076 204.163 5.35965 199.23 9.67098C194.297 13.9823 190.705 19.6951 188.903 26.0965C188.856 26.268 188.754 26.4184 188.615 26.5239C188.475 26.6294 188.305 26.6841 188.132 26.6794L187.924 26.6729C187.815 26.6692 187.707 26.6652 187.598 26.6652C182.299 26.6823 177.165 28.5656 173.049 32.0025C168.932 35.4394 166.079 40.2234 164.964 45.5607C164.927 45.7421 164.83 45.9048 164.691 46.0216C164.551 46.1383 164.377 46.2021 164.197 46.2021H111.659C111.555 46.2024 111.453 46.1817 111.358 46.1413C111.262 46.1008 111.176 46.0414 111.102 45.9663C111.029 45.8912 110.971 45.802 110.932 45.7038C110.892 45.6056 110.872 45.5004 110.872 45.394C110.872 45.2877 110.892 45.1824 110.932 45.0842C110.971 44.986 111.029 44.8968 111.102 44.8218C111.176 44.7467 111.262 44.6872 111.358 44.6468C111.453 44.6063 111.555 44.5857 111.659 44.586H163.569C164.876 39.0345 167.95 34.094 172.3 30.5528C176.65 27.0117 182.027 25.0741 187.571 25.0491C189.544 18.4709 193.329 12.6249 198.466 8.22124C203.603 3.81757 209.871 1.0458 216.508 0.242678C223.144 -0.560446 229.865 0.639639 235.852 3.69713C241.84 6.75463 246.836 11.5379 250.236 17.466C251.007 17.404 251.764 17.3728 252.491 17.3728C259.874 17.3934 266.976 20.2857 272.377 25.4708C277.779 30.6559 281.081 37.7514 281.622 45.3374C281.63 45.4433 281.616 45.5496 281.584 45.6503C281.551 45.7509 281.5 45.8439 281.432 45.9241C281.364 46.0042 281.282 46.0698 281.19 46.1171C281.098 46.1645 280.998 46.1927 280.895 46.2001C280.876 46.2014 280.858 46.202 280.839 46.202Z" fill="#CBCBCB"/>
<path d="M271.508 56.5624H142.898C142.69 56.5624 142.49 56.4772 142.343 56.3257C142.196 56.1742 142.113 55.9686 142.113 55.7543C142.113 55.54 142.196 55.3345 142.343 55.183C142.49 55.0314 142.69 54.9463 142.898 54.9463H271.508C271.716 54.9463 271.916 55.0314 272.063 55.183C272.21 55.3345 272.293 55.54 272.293 55.7543C272.293 55.9686 272.21 56.1742 272.063 56.3257C271.916 56.4772 271.716 56.5624 271.508 56.5624Z" fill="#CBCBCB"/>
<path d="M174.266 68.2789H131.134C130.926 68.2789 130.727 68.1938 130.58 68.0422C130.433 67.8907 130.35 67.6852 130.35 67.4709C130.35 67.2566 130.433 67.0511 130.58 66.8995C130.727 66.748 130.926 66.6628 131.134 66.6628H174.266C174.474 66.6628 174.673 66.748 174.82 66.8995C174.968 67.0511 175.05 67.2566 175.05 67.4709C175.05 67.6852 174.968 67.8907 174.82 68.0422C174.673 68.1938 174.474 68.2789 174.266 68.2789Z" fill="#CBCBCB"/>
<path d="M692.83 106.506C692.632 106.506 692.441 106.428 692.296 106.288C692.151 106.149 692.063 105.958 692.049 105.754C691.536 98.5758 688.412 91.8616 683.3 86.9551C678.189 82.0487 671.468 79.3119 664.483 79.2926C663.646 79.2926 662.768 79.3364 661.872 79.4228C661.722 79.4373 661.571 79.407 661.438 79.3356C661.304 79.2641 661.193 79.1546 661.118 79.0199C657.91 73.2326 653.118 68.5472 647.341 65.5484C641.564 62.5496 635.058 61.3701 628.634 62.1573C622.211 62.9444 616.155 65.6634 611.221 69.9747C606.288 74.286 602.697 79.9988 600.895 86.4002C600.847 86.5717 600.745 86.7221 600.606 86.8276C600.466 86.9331 600.297 86.9878 600.123 86.9831L599.915 86.9766C599.807 86.9728 599.698 86.9689 599.589 86.9689C594.29 86.986 589.157 88.8692 585.04 92.3062C580.923 95.7431 578.07 100.527 576.955 105.864C576.918 106.046 576.822 106.209 576.682 106.325C576.542 106.442 576.368 106.506 576.188 106.506H523.65C523.547 106.506 523.444 106.485 523.349 106.445C523.254 106.405 523.167 106.345 523.094 106.27C523.021 106.195 522.963 106.106 522.923 106.008C522.884 105.909 522.863 105.804 522.863 105.698C522.863 105.591 522.884 105.486 522.923 105.388C522.963 105.29 523.021 105.201 523.094 105.125C523.167 105.05 523.254 104.991 523.349 104.95C523.444 104.91 523.547 104.889 523.65 104.89H575.56C576.867 99.3382 579.941 94.3977 584.291 90.8566C588.642 87.3154 594.018 85.3778 599.562 85.3528C601.535 78.7747 605.321 72.9286 610.458 68.5249C615.595 64.1213 621.862 61.3495 628.499 60.5464C635.136 59.7433 641.856 60.9433 647.843 64.0008C653.831 67.0583 658.828 71.8416 662.227 77.7697C662.998 77.7077 663.755 77.6765 664.483 77.6765C671.865 77.6971 678.967 80.5894 684.369 85.7745C689.77 90.9596 693.072 98.0551 693.614 105.641C693.621 105.747 693.608 105.853 693.575 105.954C693.542 106.055 693.491 106.148 693.423 106.228C693.356 106.308 693.273 106.373 693.181 106.421C693.089 106.468 692.989 106.496 692.886 106.504C692.867 106.505 692.849 106.506 692.83 106.506Z" fill="#CBCBCB"/>
<path d="M683.5 116.866H554.889C554.681 116.866 554.481 116.781 554.334 116.629C554.187 116.478 554.104 116.272 554.104 116.058C554.104 115.844 554.187 115.638 554.334 115.487C554.481 115.335 554.681 115.25 554.889 115.25H683.5C683.708 115.25 683.907 115.335 684.054 115.487C684.201 115.638 684.284 115.844 684.284 116.058C684.284 116.272 684.201 116.478 684.054 116.629C683.907 116.781 683.708 116.866 683.5 116.866Z" fill="#CBCBCB"/>
<path d="M586.257 128.583H543.125C542.917 128.583 542.718 128.497 542.571 128.346C542.424 128.194 542.341 127.989 542.341 127.775C542.341 127.56 542.424 127.355 542.571 127.203C542.718 127.052 542.917 126.967 543.125 126.967H586.257C586.465 126.967 586.665 127.052 586.812 127.203C586.959 127.355 587.041 127.56 587.041 127.775C587.041 127.989 586.959 128.194 586.812 128.346C586.665 128.497 586.465 128.583 586.257 128.583Z" fill="#CBCBCB"/>
<path d="M138.228 405.742C148.167 408.682 148.285 394.209 149.866 387.696C144.248 391.638 134.776 397.257 138.264 405.565" fill="#26548F"/>
<path d="M138.776 416.97C137.47 409.362 137.388 399.725 144.634 395.228C144.98 395.003 145.299 395.568 144.954 395.793C137.958 400.152 138.166 409.462 139.388 416.796C139.408 416.879 139.395 416.966 139.353 417.039C139.311 417.112 139.243 417.165 139.164 417.188C139.084 417.21 138.999 417.2 138.927 417.159C138.855 417.119 138.801 417.051 138.776 416.97L138.776 416.97Z" fill="#3F3D56"/>
<path d="M141.992 411.588C146.541 417.878 152.874 409.455 156.62 406.368C151.624 406.094 143.644 405.033 142.091 411.502" fill="#26548F"/>
<path d="M137.513 418.899C140.084 413.827 144.189 408.092 150.448 408.816C150.855 408.852 150.753 409.498 150.348 409.462C144.402 408.828 140.534 414.338 138.093 419.165C137.894 419.528 137.311 419.266 137.513 418.899Z" fill="#3F3D56"/>
<path d="M643.219 405.742C633.279 408.682 633.162 394.209 631.58 387.696C637.198 391.638 646.67 397.257 643.182 405.565" fill="#26548F"/>
<path d="M642.67 416.97C643.976 409.362 644.058 399.725 636.813 395.228C636.467 395.003 636.148 395.568 636.493 395.793C643.488 400.152 643.28 409.462 642.058 416.796C642.039 416.879 642.051 416.966 642.093 417.039C642.135 417.112 642.203 417.165 642.283 417.188C642.362 417.21 642.447 417.2 642.519 417.159C642.591 417.119 642.645 417.051 642.67 416.97L642.67 416.97Z" fill="#3F3D56"/>
<path d="M639.454 411.588C634.906 417.878 628.572 409.455 624.827 406.368C629.822 406.094 637.803 405.033 639.355 411.502" fill="#26548F"/>
<path d="M643.934 418.899C641.363 413.827 637.257 408.092 630.998 408.816C630.591 408.852 630.693 409.498 631.099 409.462C637.044 408.828 640.912 414.338 643.353 419.165C643.553 419.528 644.135 419.266 643.934 418.899Z" fill="#3F3D56"/>
<path d="M685.01 395.636C667.684 400.761 667.479 375.532 664.722 364.179C674.516 371.05 691.028 380.846 684.947 395.329" fill="#26548F"/>
<path d="M684.055 415.21C686.331 401.946 686.474 385.148 673.844 377.309C673.24 376.916 672.684 377.902 673.286 378.293C685.48 385.893 685.118 402.121 682.987 414.906C682.954 415.05 682.976 415.202 683.049 415.329C683.122 415.456 683.24 415.549 683.379 415.589C683.517 415.628 683.665 415.61 683.791 415.539C683.917 415.469 684.011 415.35 684.054 415.209L684.055 415.21Z" fill="#3F3D56"/>
<path d="M678.448 405.826C670.519 416.793 659.478 402.109 652.949 396.727C661.658 396.25 675.569 394.4 678.276 405.676" fill="#26548F"/>
<path d="M686.257 418.571C681.775 409.731 674.618 399.734 663.707 400.996C662.999 401.059 663.176 402.184 663.883 402.122C674.247 401.017 680.99 410.62 685.246 419.036C685.593 419.669 686.608 419.212 686.257 418.571Z" fill="#3F3D56"/>
<path d="M61.5276 416.667H64.4539L65.8462 405.036H61.5276V416.667Z" fill="#FFB6B6"/>
<path d="M60.7814 415.682L66.5446 415.682H66.5449C67.5189 415.682 68.4531 416.081 69.1418 416.79C69.8306 417.5 70.2176 418.463 70.2176 419.466V419.589L60.7816 419.59L60.7814 415.682Z" fill="#2F2E41"/>
<path d="M75.3728 416.667H78.2991L79.6914 405.036H75.3721L75.3728 416.667Z" fill="#FFB6B6"/>
<path d="M74.626 415.682L80.3892 415.682H80.3895C81.3635 415.682 82.2977 416.081 82.9864 416.79C83.6752 417.5 84.0622 418.463 84.0622 419.466V419.589L74.6262 419.59L74.626 415.682Z" fill="#2F2E41"/>
<path d="M80.834 363.496C81.0813 363.205 81.2639 362.863 81.3689 362.492C81.4738 362.121 81.4985 361.731 81.4414 361.349C81.3842 360.968 81.2465 360.603 81.0379 360.282C80.8294 359.961 80.5551 359.692 80.2343 359.492L75.4719 335.932L70.2835 338.038L76.5962 360.534C76.3061 361.112 76.2316 361.779 76.3869 362.409C76.5421 363.039 76.9164 363.589 77.4387 363.954C77.961 364.319 78.5951 364.474 79.2209 364.39C79.8466 364.305 80.4206 363.987 80.834 363.496H80.834Z" fill="#FFB6B6"/>
<path d="M58.3894 358.959L56.2324 361.215C56.2324 361.215 53.9198 369.947 58.3451 380.716L61.305 411.94L66.6304 412.353L68.2202 376.027L75.5554 388.085L74.2742 412.224L80.1608 412.084L82.8213 385.336L75.5554 357.425L58.3894 358.959Z" fill="#2F2E41"/>
<path d="M65.9314 361.998C62.6834 361.975 59.4395 361.754 56.2167 361.337L56.087 361.319L59.3014 346.762L58.1946 328.033L68.6467 327.664C69.5929 327.628 70.5184 327.954 71.2456 328.579C71.9727 329.204 72.4503 330.083 72.5865 331.049L74.7257 345.992L76.7046 359.249L76.6781 359.289C75.256 361.438 70.5014 361.998 65.9314 361.998Z" fill="#26548F"/>
<path d="M67.6957 330.762L69.8194 328.018C69.8194 328.018 73.5424 325.395 74.7206 331.017C75.8989 336.638 78.0881 345.764 78.0881 345.764L70.8082 346.371L67.6957 330.762Z" fill="#26548F"/>
<path d="M47.5712 363.742C47.3239 363.451 47.1413 363.109 47.0364 362.738C46.9314 362.367 46.9067 361.977 46.9638 361.595C47.021 361.214 47.1587 360.849 47.3673 360.528C47.5758 360.207 47.8502 359.937 48.1709 359.737L52.9333 336.178L58.1217 338.284L51.809 360.78C52.0991 361.358 52.1736 362.025 52.0183 362.655C51.8631 363.285 51.4888 363.835 50.9665 364.2C50.4442 364.565 49.8101 364.72 49.1843 364.635C48.5586 364.551 47.9846 364.233 47.5712 363.742Z" fill="#FFB6B6"/>
<path d="M60.7095 331.007L58.5858 328.264C58.5858 328.264 54.8628 325.641 53.6845 331.262C52.5062 336.884 50.3171 346.01 50.3171 346.01L57.597 346.617L60.7095 331.007Z" fill="#26548F"/>
<path d="M69.6593 324.925H55.8147C55.5299 324.924 55.2569 324.808 55.0555 324.6C54.8541 324.393 54.7409 324.111 54.7405 323.818V317.669C54.7405 315.484 55.583 313.388 57.0827 311.843C58.5823 310.298 60.6162 309.43 62.737 309.43C64.8578 309.43 66.8918 310.298 68.3914 311.843C69.891 313.388 70.7335 315.484 70.7335 317.669V323.818C70.7332 324.111 70.6199 324.393 70.4185 324.6C70.2172 324.808 69.9441 324.924 69.6593 324.925Z" fill="#2F2E41"/>
<path d="M64.2656 324.554C67.5035 324.554 70.1283 321.85 70.1283 318.513C70.1283 315.177 67.5035 312.473 64.2656 312.473C61.0277 312.473 58.4028 315.177 58.4028 318.513C58.4028 321.85 61.0277 324.554 64.2656 324.554Z" fill="#FFB6B6"/>
<path d="M72.6253 318.284H64.1596L64.0728 317.032L63.6387 318.284H62.3352L62.1632 315.802L61.3029 318.284H58.7806V318.161C58.7825 316.433 59.4495 314.776 60.6354 313.554C61.8213 312.333 63.4291 311.645 65.1061 311.643H66.2997C67.9768 311.645 69.5846 312.333 70.7705 313.554C71.9563 314.776 72.6234 316.433 72.6253 318.161V318.284Z" fill="#2F2E41"/>
<path d="M64.0903 326.073C64.0266 326.072 63.963 326.067 63.9002 326.055L57.7013 324.928V314.372H64.5251L64.3562 314.575C62.0057 317.4 63.7765 321.98 65.0413 324.458C65.1345 324.64 65.1761 324.845 65.1612 325.05C65.1463 325.255 65.0756 325.451 64.9572 325.616C64.858 325.757 64.7278 325.872 64.5771 325.952C64.4264 326.031 64.2596 326.073 64.0903 326.073Z" fill="#2F2E41"/>
</g>
<defs>
<clipPath id="clip0_6_236">
<rect width="700" height="420" fill="white"/>
</clipPath>
</defs>
</svg>
