<svg width="719" height="680" viewBox="0 0 719 680" fill="none" xmlns="http://www.w3.org/2000/svg">
<path fill-rule="evenodd" clip-rule="evenodd" d="M-0.00592041 0H166.102C179.449 37.6422 222.684 62.2233 296.322 69.3836C462.943 85.568 367.388 204.7 534.249 160.469C695.364 117.771 806.235 297.576 627.081 399.098C532.401 452.744 546.504 481.888 521.847 544.07C498.205 603.687 435.089 630.21 206.141 605.652C109.134 595.244 41.279 631.631 -0.00592041 680V0Z" fill="url(#paint0_linear_3_25)"/>
<path fill-rule="evenodd" clip-rule="evenodd" d="M135.724 0H140.265C148.229 12.8627 160.395 23.8199 176.792 32.6365C198.671 44.3965 228.034 52.3549 265.018 55.9812C346.285 63.9442 367.36 95.8379 384.942 122.495C404 151.367 418.865 173.881 507.81 150.094C564.533 134.929 615.276 146.67 650.253 172.954C667.759 186.112 681.327 202.914 689.713 221.821C698.339 241.142 701.255 262.454 698.128 283.324C692.13 323.79 663.528 366.134 604.295 399.997C529.66 442.668 521.697 470.124 510.118 510.096C506.761 521.68 503.104 534.303 497.425 548.725C485.099 580.098 462.529 602.736 413.276 614.284C364.591 625.712 289.637 626.233 172.261 613.528C126.66 608.591 87.3731 613.924 54.2069 625.984C34.7896 633.029 16.5171 642.802 -0.038866 654.999V650.229C16.1979 638.591 33.9994 629.218 52.8577 622.376C86.5551 610.114 126.411 604.693 172.688 609.703C289.651 622.372 364.168 621.91 412.406 610.566C460.098 599.378 481.926 577.551 493.791 547.36C499.357 533.201 503.005 520.601 506.352 509.067C518.18 468.218 526.318 440.135 602.334 396.685C660.43 363.467 688.411 322.166 694.255 282.785C697.278 262.618 694.463 242.024 686.131 223.353C678.008 205.051 664.859 188.751 647.874 176.003C613.796 150.393 564.27 138.97 508.839 153.794C417.14 178.315 401.593 154.776 381.666 124.567C364.54 98.6291 344.024 67.5797 264.632 59.7966C227.141 56.1057 197.256 48.0043 174.921 36.0044C157.048 26.3943 143.993 14.3021 135.724 0Z" fill="#1E3462"/>
<path fill-rule="evenodd" clip-rule="evenodd" d="M283.883 613.385H505.511C506.066 611.867 506.573 610.367 507.053 608.896H281.725C282.331 610.442 283.052 611.942 283.883 613.385ZM280.122 601.851H509.102C509.497 600.323 509.859 598.824 510.165 597.357H280.282C280.048 598.843 279.983 600.35 280.089 601.851H280.122ZM282.872 590.317H511.345C511.533 588.79 511.679 587.286 511.773 585.828H286.064C284.846 587.218 283.769 588.721 282.849 590.317H282.872ZM294.056 578.783H511.815C511.735 577.242 511.585 575.742 511.378 574.294H301.188C298.72 575.66 296.332 577.158 294.033 578.783H294.056ZM316.222 567.249H509.747C509.254 565.718 508.665 564.219 507.984 562.76H328.449C324.138 564.208 320.044 565.703 316.198 567.249H316.222ZM352.368 555.715H503.612C502.325 554.1 500.9 552.597 499.352 551.221H370.651C364.351 552.679 358.231 554.169 352.317 555.715H352.368ZM403.963 544.181H488.314C483.745 542.14 478.946 540.634 474.018 539.692H428.568C425.121 540.187 421.608 540.773 418.028 541.45C413.299 542.354 408.598 543.264 403.925 544.181H403.963ZM502.751 620.443H288.462C289.571 621.975 290.742 623.465 291.955 624.932H500.824C501.496 623.419 502.154 621.92 502.765 620.443H502.751ZM497.453 631.977H298.4C299.967 633.515 301.575 635.013 303.223 636.471H494.901C495.841 635.022 496.668 633.518 497.467 631.977H497.453ZM489.626 643.511H312.146C314.312 645.067 316.545 646.564 318.845 648H485.357C486.852 646.57 488.272 645.074 489.616 643.511H489.626ZM476.717 655.045H331.528C334.76 656.641 338.065 658.138 341.443 659.534H469.444C471.954 658.168 474.386 656.669 476.731 655.045H476.717ZM362.311 666.579C369.457 668.508 376.717 670.007 384.049 671.068H434.083C440.479 670.064 446.784 668.562 452.939 666.579H362.311Z" fill="#AED6F2"/>
<path fill-rule="evenodd" clip-rule="evenodd" d="M273.132 96.9359C271.776 96.9359 270.451 97.3304 269.324 98.0695C268.196 98.8086 267.318 99.8592 266.799 101.088C266.28 102.317 266.145 103.67 266.409 104.975C266.674 106.28 267.326 107.478 268.285 108.419C269.244 109.36 270.465 110 271.794 110.26C273.124 110.519 274.502 110.386 275.755 109.877C277.007 109.368 278.077 108.506 278.831 107.4C279.584 106.293 279.986 104.993 279.986 103.662C279.986 102.779 279.808 101.904 279.464 101.088C279.12 100.272 278.615 99.5307 277.978 98.9061C277.342 98.2814 276.586 97.786 275.755 97.4479C274.923 97.1099 274.032 96.9359 273.132 96.9359ZM229.604 96.9359C228.249 96.9359 226.923 97.3304 225.796 98.0695C224.669 98.8086 223.791 99.8592 223.272 101.088C222.753 102.317 222.617 103.67 222.882 104.975C223.146 106.28 223.799 107.478 224.758 108.419C225.716 109.36 226.938 110 228.267 110.26C229.597 110.519 230.975 110.386 232.227 109.877C233.48 109.368 234.55 108.506 235.303 107.4C236.056 106.293 236.458 104.993 236.458 103.662C236.46 101.881 235.74 100.171 234.457 98.9096C233.175 97.6483 231.434 96.9383 229.618 96.9359H229.604ZM316.654 96.9359C315.299 96.9359 313.973 97.3304 312.846 98.0695C311.719 98.8086 310.841 99.8592 310.322 101.088C309.803 102.317 309.667 103.67 309.932 104.975C310.196 106.28 310.849 107.478 311.808 108.419C312.766 109.36 313.987 110 315.317 110.26C316.647 110.519 318.025 110.386 319.277 109.877C320.53 109.368 321.6 108.506 322.353 107.4C323.106 106.293 323.508 104.993 323.508 103.662C323.508 101.878 322.786 100.168 321.501 98.9061C320.215 97.6446 318.472 96.9359 316.654 96.9359ZM360.182 96.9359C358.826 96.9359 357.501 97.3304 356.374 98.0695C355.246 98.8086 354.368 99.8592 353.849 101.088C353.33 102.317 353.195 103.67 353.459 104.975C353.724 106.28 354.376 107.478 355.335 108.419C356.294 109.36 357.515 110 358.844 110.26C360.174 110.519 361.552 110.386 362.805 109.877C364.057 109.368 365.127 108.506 365.881 107.4C366.634 106.293 367.036 104.993 367.036 103.662C367.036 102.779 366.858 101.904 366.514 101.088C366.17 100.272 365.665 99.5307 365.028 98.9061C364.392 98.2814 363.636 97.786 362.805 97.4479C361.973 97.1099 361.082 96.9359 360.182 96.9359ZM403.704 96.9359C402.348 96.935 401.023 97.3287 399.895 98.0673C398.767 98.8059 397.888 99.8561 397.368 101.085C396.849 102.314 396.713 103.667 396.976 104.972C397.24 106.277 397.893 107.476 398.851 108.417C399.81 109.358 401.031 110 402.361 110.259C403.69 110.519 405.069 110.386 406.321 109.877C407.574 109.369 408.645 108.506 409.398 107.4C410.152 106.294 410.554 104.993 410.554 103.662C410.554 101.879 409.832 100.169 408.548 98.9077C407.263 97.6463 405.521 96.9371 403.704 96.9359ZM447.227 96.9359C445.871 96.9359 444.546 97.3304 443.419 98.0695C442.292 98.8086 441.413 99.8592 440.894 101.088C440.376 102.317 440.24 103.67 440.504 104.975C440.769 106.28 441.422 107.478 442.38 108.419C443.339 109.36 444.56 110 445.89 110.26C447.219 110.519 448.597 110.386 449.85 109.877C451.102 109.368 452.173 108.506 452.926 107.4C453.679 106.293 454.081 104.993 454.081 103.662C454.081 102.779 453.904 101.904 453.559 101.088C453.215 100.272 452.71 99.5307 452.073 98.9061C451.437 98.2814 450.681 97.786 449.85 97.4479C449.018 97.1099 448.127 96.9359 447.227 96.9359ZM483.895 103.662C483.895 104.993 484.297 106.293 485.05 107.4C485.804 108.506 486.874 109.368 488.126 109.877C489.379 110.386 490.757 110.519 492.087 110.26C493.416 110 494.637 109.36 495.596 108.419C496.555 107.478 497.207 106.28 497.472 104.975C497.736 103.67 497.601 102.317 497.082 101.088C496.563 99.8592 495.685 98.8086 494.557 98.0695C493.43 97.3304 492.105 96.9359 490.749 96.9359C488.932 96.9371 487.19 97.6463 485.906 98.9077C484.621 100.169 483.9 101.879 483.9 103.662H483.895Z" fill="#AED6F2"/>
<path fill-rule="evenodd" clip-rule="evenodd" d="M229.618 137.291C228.263 137.29 226.937 137.684 225.809 138.422C224.681 139.161 223.802 140.211 223.283 141.44C222.763 142.669 222.627 144.022 222.891 145.327C223.155 146.632 223.807 147.831 224.765 148.772C225.724 149.713 226.945 150.355 228.275 150.614C229.604 150.874 230.983 150.741 232.236 150.232C233.488 149.723 234.559 148.861 235.312 147.755C236.066 146.649 236.468 145.348 236.468 144.017C236.468 142.234 235.746 140.524 234.462 139.263C233.178 138.001 231.435 137.292 229.618 137.291ZM186.091 137.291C184.736 137.292 183.411 137.687 182.284 138.427C181.158 139.166 180.28 140.217 179.762 141.447C179.244 142.676 179.109 144.028 179.374 145.333C179.639 146.637 180.292 147.835 181.251 148.776C182.21 149.716 183.431 150.356 184.76 150.615C186.09 150.874 187.468 150.741 188.72 150.232C189.972 149.722 191.042 148.86 191.795 147.754C192.548 146.648 192.95 145.348 192.95 144.017C192.951 143.134 192.774 142.259 192.429 141.443C192.085 140.626 191.58 139.884 190.944 139.26C190.307 138.635 189.551 138.14 188.719 137.802C187.888 137.464 186.996 137.29 186.096 137.291H186.091ZM273.141 137.291C271.785 137.291 270.46 137.685 269.333 138.425C268.206 139.164 267.327 140.214 266.809 141.443C266.29 142.672 266.154 144.025 266.419 145.33C266.683 146.635 267.336 147.833 268.294 148.774C269.253 149.715 270.474 150.355 271.804 150.615C273.133 150.874 274.512 150.741 275.764 150.232C277.016 149.723 278.087 148.861 278.84 147.755C279.593 146.648 279.995 145.348 279.995 144.017C279.995 142.233 279.273 140.523 277.988 139.261C276.702 138 274.959 137.291 273.141 137.291ZM316.664 137.291C315.308 137.291 313.983 137.685 312.856 138.425C311.729 139.164 310.85 140.214 310.331 141.443C309.812 142.672 309.677 144.025 309.941 145.33C310.206 146.635 310.858 147.833 311.817 148.774C312.776 149.715 313.997 150.355 315.326 150.615C316.656 150.874 318.034 150.741 319.287 150.232C320.539 149.723 321.61 148.861 322.363 147.755C323.116 146.648 323.518 145.348 323.518 144.017C323.518 142.233 322.796 140.523 321.51 139.261C320.225 138 318.481 137.291 316.664 137.291ZM360.191 137.291C358.835 137.291 357.51 137.685 356.383 138.425C355.256 139.164 354.377 140.214 353.859 141.443C353.34 142.672 353.204 144.025 353.468 145.33C353.733 146.635 354.386 147.833 355.344 148.774C356.303 149.715 357.524 150.355 358.854 150.615C360.183 150.874 361.562 150.741 362.814 150.232C364.066 149.723 365.137 148.861 365.89 147.755C366.643 146.648 367.045 145.348 367.045 144.017C367.045 142.233 366.323 140.523 365.038 139.261C363.752 138 362.009 137.291 360.191 137.291ZM403.714 137.291C402.358 137.291 401.033 137.685 399.906 138.425C398.778 139.164 397.9 140.214 397.381 141.443C396.862 142.672 396.727 144.025 396.991 145.33C397.256 146.635 397.908 147.833 398.867 148.774C399.826 149.715 401.047 150.355 402.376 150.615C403.706 150.874 405.084 150.741 406.337 150.232C407.589 149.723 408.659 148.861 409.413 147.755C410.166 146.648 410.568 145.348 410.568 144.017C410.568 142.233 409.846 140.523 408.56 139.261C407.275 138 405.531 137.291 403.714 137.291ZM440.382 144.017C440.382 145.348 440.784 146.648 441.537 147.755C442.29 148.861 443.361 149.723 444.613 150.232C445.866 150.741 447.244 150.874 448.573 150.615C449.903 150.355 451.124 149.715 452.083 148.774C453.041 147.833 453.694 146.635 453.959 145.33C454.223 144.025 454.087 142.672 453.569 141.443C453.05 140.214 452.171 139.164 451.044 138.425C449.917 137.685 448.592 137.291 447.236 137.291C446.335 137.29 445.443 137.463 444.61 137.8C443.778 138.138 443.021 138.633 442.384 139.258C441.746 139.883 441.24 140.624 440.895 141.441C440.55 142.258 440.373 143.133 440.373 144.017H440.382Z" fill="#AED6F2"/>
<defs>
<linearGradient id="paint0_linear_3_25" x1="-0.00592041" y1="339.998" x2="719.001" y2="339.998" gradientUnits="userSpaceOnUse">
<stop stop-color="#001D43"/>
<stop offset="1" stop-color="#0F6AC9"/>
</linearGradient>
</defs>
</svg>
