<svg width="600" height="500" viewBox="0 0 600 500" fill="none" xmlns="http://www.w3.org/2000/svg">
<g clip-path="url(#clip0_6_179)">
<path d="M200.272 500C307.782 500 394.935 483.349 394.935 462.81C394.935 442.27 307.782 425.62 200.272 425.62C92.7619 425.62 5.608 442.27 5.608 462.81C5.608 483.349 92.7619 500 200.272 500Z" fill="#3F3D56"/>
<path d="M44.4494 453.857C44.4494 453.857 8.35578 444.346 1.54607 445.048C-5.26365 445.751 11.8625 412.431 23.2683 416.494C34.674 420.558 49.8817 431.246 58.5748 416.15C67.2679 401.054 72.1451 392.927 82.7356 393.74C93.3261 394.552 107.993 387.245 118.576 393.74C129.16 400.234 136.595 408.244 151.212 407.899C165.83 407.555 179.688 375.055 191.073 388.058C202.457 401.061 216.112 412.954 226.815 408.629C237.518 404.304 249.732 410.806 259.507 418.12C269.282 425.434 286.395 422.183 292.909 416.494C299.424 410.806 304.322 406.742 318.166 407.541C332.011 408.34 376.01 418.106 392.307 430.269C408.604 442.431 371.126 457.899 353.199 457.899C335.271 457.899 332.018 462.775 316.536 470.089C301.054 477.403 275.776 466.026 257.877 478.216C239.978 490.406 217.117 471.715 186.196 478.216C155.274 484.718 161.754 493.65 143.826 487.169C125.899 480.689 132.421 478.216 106.348 476.605C80.2759 474.993 51.7651 480.668 49.3195 470.103C46.8739 459.538 30.598 457.1 20.8157 453.85C11.0333 450.599 44.4494 453.857 44.4494 453.857Z" fill="#3F3D56"/>
<path d="M494.017 366.198L495.423 365.317L495.837 365.055C492.76 364.543 489.952 363.02 487.876 360.735C485.8 358.451 484.58 355.541 484.417 352.487C484.253 349.432 485.156 346.414 486.976 343.929C488.796 341.444 491.426 339.64 494.432 338.815L494.362 344.366L497.475 338.327C499.278 338.244 501.08 338.511 502.778 339.111C504.477 339.711 506.038 340.633 507.372 341.825C508.707 343.016 509.789 344.453 510.556 346.055C511.324 347.656 511.762 349.39 511.846 351.157C511.846 351.419 511.846 351.667 511.846 351.922C512.944 350.752 513.858 349.429 514.559 347.996C515.88 345.11 515.901 341.853 515.803 337.886C515.592 330.034 515.247 322.121 514.798 314.229C511.547 313.876 508.532 312.399 506.294 310.062C504.057 307.725 502.743 304.682 502.591 301.481C502.57 301.075 502.57 300.668 502.591 300.262C502.591 300.158 502.591 300.055 502.591 299.959C502.591 299.566 502.654 299.18 502.717 298.795C502.714 298.733 502.714 298.671 502.717 298.609C502.766 298.285 502.837 297.968 502.914 297.652C502.914 297.534 502.977 297.417 503.005 297.3C503.104 296.956 503.209 296.612 503.336 296.281C503.378 296.171 503.42 296.068 503.469 295.957C503.568 295.709 503.673 295.468 503.785 295.227C503.842 295.103 503.898 294.973 503.961 294.849L504.01 294.752C505.464 291.941 507.878 289.718 510.831 288.47C513.784 287.222 517.09 287.027 520.174 287.92L520.082 295.145L523.16 289.181C525.155 290.306 526.828 291.906 528.027 293.831C529.225 295.757 529.911 297.947 530.019 300.2C530.076 301.367 529.975 302.537 529.717 303.678C529.717 303.774 529.661 303.864 529.64 303.96C529.619 304.057 529.549 304.318 529.499 304.49C529.45 304.663 529.366 304.938 529.289 305.179C529.211 305.42 529.176 305.51 529.113 305.675C529.05 305.84 528.909 306.143 528.804 306.364C528.74 306.495 528.684 306.632 528.621 306.77C528.445 307.114 528.255 307.459 528.052 307.789C527.981 307.906 527.897 308.017 527.827 308.127C527.679 308.347 527.532 308.574 527.37 308.815C527.208 309.057 527.166 309.077 527.061 309.201C526.955 309.325 526.759 309.573 526.597 309.752C526.435 309.931 526.365 310 526.246 310.124C526.126 310.248 525.908 310.468 525.726 310.634L525.367 310.964L524.742 311.474L524.418 311.722C524.088 311.956 523.758 312.176 523.406 312.411L523.21 312.521C522.921 312.694 522.623 312.853 522.317 312.996L521.924 313.168C521.678 313.278 521.425 313.388 521.165 313.478L520.715 313.636C520.462 313.726 520.209 313.802 519.949 313.871L519.485 313.988C519.204 314.057 518.916 314.112 518.628 314.16H518.571C518.759 317.493 518.928 320.824 519.077 324.153C519.896 322.504 521.05 321.036 522.469 319.839C523.887 318.643 525.54 317.743 527.326 317.196C529.112 316.648 530.994 316.464 532.855 316.655C534.717 316.846 536.519 317.408 538.15 318.306L535.726 324.835L540.722 320.131C543.401 322.531 544.999 325.875 545.164 329.428C545.226 330.676 545.108 331.926 544.812 333.141C544.19 335.776 542.773 338.167 540.744 340.001C538.715 341.836 536.17 343.029 533.439 343.425C530.709 343.821 527.92 343.402 525.436 342.222C522.952 341.043 520.888 339.157 519.513 336.811C519.513 337.149 519.513 337.5 519.513 337.824C519.605 341.322 519.717 345.675 517.939 349.532C516.667 352.037 514.954 354.304 512.879 356.226C511.628 357.473 510.335 358.678 509.014 359.849C507.707 361.562 506.004 362.947 504.045 363.891C501.867 365.535 499.613 367.075 497.285 368.512L496.069 369.38C494.762 370.179 493.42 370.992 492.106 371.839L492.808 371.784C495.721 371.65 498.601 372.428 501.032 374.004C503.464 375.58 505.322 377.873 506.336 380.551L497.749 387.438L507.201 385.289C507.192 387.562 506.598 389.796 505.473 391.783C504.348 393.771 502.729 395.448 500.766 396.658C498.803 397.869 496.56 398.573 494.245 398.707C491.93 398.841 489.618 398.4 487.524 397.424C487.742 397.679 487.952 397.941 488.163 398.203L489.414 399.731C495.036 406.674 496.561 413.258 493.792 418.278L490.426 416.495C493.118 411.605 489.07 405.351 486.413 402.032C486.013 401.529 485.598 401.026 485.183 400.523C481.613 396.178 477.566 391.247 477.664 385.2C477.734 376.081 486.765 370.599 494.017 366.198Z" fill="#F1F1F1"/>
<path d="M426.096 357.018L423.938 355.696C423.727 355.572 423.524 355.441 423.32 355.31C427.923 354.537 432.122 352.252 435.225 348.831C438.328 345.411 440.153 341.058 440.398 336.487C440.643 331.916 439.295 327.399 436.574 323.678C433.854 319.958 429.923 317.254 425.428 316.012L425.534 324.325L420.874 315.282H420.818C418.118 315.159 415.419 315.559 412.876 316.458C410.333 317.357 407.996 318.738 405.998 320.522C404 322.306 402.38 324.459 401.23 326.857C400.081 329.255 399.425 331.851 399.3 334.497C399.3 334.883 399.3 335.262 399.3 335.64C397.654 333.886 396.282 331.901 395.231 329.752C393.256 325.441 393.221 320.558 393.375 314.601C393.685 302.837 394.205 290.985 394.879 279.174C399.744 278.643 404.256 276.43 407.605 272.932C410.954 269.434 412.92 264.881 413.151 260.09C413.151 259.47 413.151 258.864 413.151 258.258V257.803C413.109 257.218 413.053 256.639 412.961 256.067C412.961 255.971 412.961 255.882 412.912 255.785C412.828 255.303 412.722 254.828 412.603 254.353C412.561 254.174 412.518 254.001 412.469 253.822C412.322 253.306 412.167 252.803 411.977 252.3C411.921 252.135 411.851 251.977 411.781 251.811C411.633 251.439 411.478 251.081 411.31 250.723C411.218 250.53 411.134 250.344 411.043 250.158C411.016 250.112 410.993 250.063 410.972 250.014C409.327 246.834 406.85 244.138 403.794 242.202C400.739 240.266 397.214 239.16 393.579 238.994C391.291 238.894 389.003 239.164 386.805 239.793L386.938 250.613L382.335 241.66C378.543 243.78 375.543 247.033 373.773 250.944C372.002 254.855 371.555 259.218 372.496 263.395C372.496 263.533 372.574 263.671 372.609 263.815C372.672 264.084 372.742 264.346 372.813 264.607C372.883 264.869 373.023 265.296 373.136 265.606C373.248 265.916 373.305 266.102 373.403 266.343C373.537 266.701 373.698 267.032 373.86 267.397C373.951 267.603 374.035 267.81 374.134 268.01C374.394 268.526 374.675 269.036 374.984 269.532C375.09 269.711 375.209 269.876 375.322 270.041C375.546 270.379 375.764 270.73 376.024 271.033C376.172 271.233 376.333 271.419 376.488 271.612C376.643 271.804 376.945 272.169 377.191 272.438L377.711 272.996C377.964 273.258 378.224 273.512 378.491 273.76L379.032 274.249C379.334 274.511 379.65 274.766 379.974 275.007C380.135 275.131 380.29 275.262 380.459 275.386C380.944 275.737 381.443 276.074 381.963 276.377C382.061 276.439 382.166 276.488 382.265 276.543C382.7 276.791 383.143 277.032 383.593 277.231L384.19 277.493C384.563 277.658 384.935 277.817 385.322 277.955C385.547 278.044 385.771 278.12 386.024 278.196C386.404 278.32 386.79 278.437 387.177 278.54L387.88 278.719C388.308 278.815 388.737 278.898 389.166 278.974H389.25C388.96 283.96 388.707 288.946 388.491 293.932C387.264 291.463 385.534 289.266 383.409 287.475C381.284 285.685 378.808 284.339 376.133 283.52C373.458 282.701 370.64 282.426 367.853 282.712C365.066 282.999 362.368 283.841 359.924 285.186L363.564 294.952L356.08 287.913C354.092 289.692 352.482 291.838 351.341 294.227C350.2 296.617 349.551 299.203 349.432 301.839C349.337 303.706 349.512 305.577 349.952 307.397C350.888 311.334 353.011 314.904 356.044 317.644C359.078 320.384 362.882 322.167 366.962 322.761C371.043 323.355 375.211 322.733 378.926 320.976C382.641 319.218 385.732 316.407 387.795 312.906C387.795 313.416 387.795 313.926 387.746 314.428C387.613 319.669 387.437 326.185 390.101 332.004C391.907 335.95 394.816 339.146 397.683 342.018C399.557 343.891 401.487 345.7 403.474 347.445C405.424 350.014 407.971 352.091 410.902 353.505C414.182 355.962 417.56 358.258 421.036 360.393L423.214 361.715C425.168 362.906 427.178 364.132 429.146 365.399C428.801 365.399 428.443 365.331 428.106 365.317C423.744 365.115 419.43 366.278 415.788 368.638C412.146 370.998 409.364 374.432 407.845 378.444L420.699 388.698L406.552 385.489C406.559 388.9 407.447 392.253 409.133 395.236C410.82 398.22 413.25 400.736 416.197 402.55C419.145 404.364 422.513 405.417 425.987 405.61C429.462 405.804 432.93 405.132 436.068 403.657C435.745 404.043 435.428 404.428 435.112 404.821C434.48 405.592 433.847 406.357 433.236 407.114C424.866 417.507 422.54 427.362 426.679 434.883L431.725 432.218C427.691 424.897 433.756 415.53 437.733 410.599C438.331 409.848 438.949 409.098 439.575 408.34C444.923 401.832 450.98 394.449 450.819 385.399C450.474 371.825 436.96 363.636 426.096 357.018Z" fill="#F1F1F1"/>
<path d="M321.842 461.129C321.842 461.129 297.519 454.821 292.937 455.282C288.355 455.744 299.888 433.698 307.569 436.384C315.25 439.07 325.503 446.15 331.357 436.157C337.211 426.164 340.493 420.785 347.64 421.322C354.787 421.86 364.654 417.018 371.787 421.322C378.92 425.627 383.923 430.923 393.776 430.696C403.629 430.468 412.954 408.953 420.635 417.555C428.316 426.157 437.501 434.043 444.712 431.178C451.922 428.313 460.172 432.617 466.743 437.459C473.314 442.3 484.853 440.152 489.231 436.384C493.61 432.617 496.92 429.931 506.252 430.468C515.585 431.005 545.22 437.459 556.197 445.53C567.174 453.602 541.924 463.815 529.851 463.815C517.777 463.815 515.578 467.045 505.149 471.887C494.72 476.729 477.706 469.194 465.633 477.266C453.559 485.337 438.19 472.961 417.332 477.266C396.475 481.57 400.867 487.486 388.786 483.182C376.706 478.877 381.105 477.266 363.543 476.191C345.981 475.117 326.768 478.877 325.117 471.887C323.465 464.897 312.467 463.278 305.91 461.129C299.353 458.981 321.842 461.129 321.842 461.129Z" fill="#3F3D56"/>
<path d="M523.28 386.763L513.863 415.048L513.455 416.281L497.693 463.636L470.707 481.508L339.664 427.507L352.081 378.292L352.742 375.702L359.39 349.359L359.404 349.297L399.742 344.353L523.28 386.763Z" fill="#F8CE6D"/>
<path opacity="0.1" d="M523.28 386.763L497.693 463.636L470.707 481.508L495.479 397.617L359.39 349.359L359.404 349.297L399.742 344.353L523.28 386.763Z" fill="black"/>
<path opacity="0.1" d="M388.793 354.635L386.622 353.34L408.393 351.102L501.663 383.416L499.035 384.766L407.023 352.968L388.793 354.635Z" fill="black"/>
<path opacity="0.1" d="M513.863 415.048L486.624 427.603L352.742 375.702L352.081 378.292L486.083 429.449L513.455 416.281" fill="black"/>
<path d="M368.912 367.94C369.679 365.517 368.138 362.895 365.47 362.083C362.801 361.271 360.015 362.577 359.247 364.999C358.48 367.422 360.021 370.045 362.69 370.857C365.358 371.669 368.144 370.363 368.912 367.94Z" fill="#3F3D56"/>
<path d="M486.912 412.716C487.68 410.293 486.139 407.671 483.47 406.859C480.801 406.046 478.015 407.352 477.248 409.775C476.48 412.198 478.021 414.82 480.69 415.633C483.359 416.445 486.145 415.139 486.912 412.716Z" fill="#3F3D56"/>
<path d="M468.264 468.325C469.032 465.902 467.491 463.28 464.822 462.468C462.153 461.655 459.367 462.961 458.599 465.384C457.832 467.807 459.373 470.43 462.042 471.242C464.711 472.054 467.496 470.748 468.264 468.325Z" fill="#3F3D56"/>
<path d="M354.475 421.668C355.243 419.245 353.701 416.622 351.033 415.81C348.364 414.998 345.578 416.304 344.81 418.727C344.043 421.15 345.584 423.772 348.253 424.584C350.921 425.396 353.707 424.091 354.475 421.668Z" fill="#3F3D56"/>
<path d="M375.35 352.19C375.068 353.085 372.813 352.19 369.945 351.309C367.078 350.427 364.843 349.463 365.124 348.554C365.406 347.645 368.104 347.176 370.971 348.051C373.839 348.926 375.638 351.295 375.35 352.19Z" fill="#3F3D56"/>
<path d="M389.786 348.963C390.069 348.07 388.189 346.703 385.587 345.912C382.985 345.12 380.646 345.202 380.363 346.096C380.08 346.989 381.959 348.356 384.562 349.148C387.164 349.939 389.503 349.857 389.786 348.963Z" fill="#3F3D56"/>
<path d="M436.04 373.967C435.759 374.862 432.941 374.036 430.207 373.202C427.473 372.369 425.344 371.439 425.625 370.544C425.906 369.649 428.499 369.167 431.247 369.972C433.995 370.778 436.335 373.058 436.04 373.967Z" fill="#3F3D56"/>
<path d="M494.34 394.483C494.024 395.489 491.03 394.614 488.128 393.733C485.226 392.851 482.97 391.839 483.286 390.833C483.602 389.828 486.378 389.215 489.281 390.096C492.183 390.978 494.664 393.478 494.34 394.483Z" fill="#3F3D56"/>
<path d="M511.389 392.073C511.066 393.079 508.079 392.204 505.177 391.322C502.275 390.441 500.012 389.428 500.335 388.423C500.658 387.417 503.427 386.804 506.329 387.686C509.232 388.567 511.706 391.067 511.389 392.073Z" fill="#3F3D56"/>
<path d="M519.794 387.163C519.471 388.168 516.983 387.452 514.608 386.722C512.233 385.992 510.391 385.11 510.68 384.105C510.968 383.099 513.364 382.355 515.76 383.085C518.157 383.815 520.111 386.157 519.794 387.163Z" fill="#3F3D56"/>
<path d="M463.496 367.038C463.243 367.837 460.685 367.1 458.254 366.35C455.822 365.599 453.876 364.759 454.136 363.96C454.396 363.161 456.715 362.7 459.174 363.443C461.634 364.187 463.742 366.233 463.496 367.038Z" fill="#3F3D56"/>
<path d="M408.782 348.159C409.065 347.265 407.474 345.986 405.227 345.303C402.981 344.619 400.931 344.79 400.648 345.683C400.365 346.577 401.956 347.855 404.202 348.539C406.448 349.222 408.499 349.052 408.782 348.159Z" fill="#3F3D56"/>
<path opacity="0.1" d="M434.227 400.999C434.526 400.053 434.487 399.035 434.117 398.113C433.746 397.192 433.066 396.421 432.189 395.93C432.607 395.464 432.92 394.917 433.109 394.325C433.337 393.606 433.371 392.842 433.207 392.106C433.044 391.371 432.688 390.689 432.176 390.129C431.663 389.568 431.011 389.147 430.283 388.907C429.555 388.668 428.775 388.617 428.021 388.76C428.318 387.761 428.238 386.69 427.798 385.743C427.358 384.795 426.586 384.034 425.622 383.597C424.658 383.159 423.566 383.075 422.544 383.359C421.522 383.643 420.638 384.277 420.052 385.145C419.481 384.74 418.819 384.474 418.122 384.369C417.425 384.265 416.713 384.324 416.044 384.543C415.375 384.762 414.769 385.133 414.275 385.627C413.782 386.121 413.416 386.723 413.207 387.383C413.207 387.479 413.158 387.569 413.137 387.659L412.982 387.734C412.489 387.299 411.902 386.977 411.265 386.794C410.629 386.61 409.958 386.568 409.302 386.672C408.647 386.775 408.024 387.022 407.478 387.393C406.933 387.763 406.479 388.249 406.151 388.815C405.822 389.38 405.627 390.011 405.58 390.66C405.533 391.309 405.635 391.96 405.878 392.565C406.122 393.17 406.5 393.714 406.987 394.157C407.473 394.6 408.055 394.93 408.688 395.124C408.917 395.195 409.153 395.246 409.391 395.276L409.447 396.873L430.713 405.393L430.572 404.015C431.411 403.904 432.2 403.562 432.847 403.028C433.494 402.493 433.973 401.79 434.227 400.999Z" fill="black"/>
<path opacity="0.1" d="M429.258 414.676C428.803 415.561 428.054 416.268 427.134 416.68C426.214 417.092 425.179 417.184 424.198 416.942C424.175 417.561 424.014 418.167 423.727 418.719C423.466 419.23 423.103 419.686 422.662 420.06C422.22 420.434 421.708 420.719 421.154 420.899C420.599 421.078 420.015 421.149 419.432 421.107C418.85 421.065 418.282 420.911 417.761 420.654C417.11 420.331 416.548 419.859 416.124 419.277C415.626 420.193 414.811 420.906 413.826 421.285C412.84 421.665 411.748 421.687 410.747 421.347C409.746 421.007 408.902 420.327 408.368 419.431C407.833 418.535 407.643 417.482 407.831 416.46C407.342 416.394 406.867 416.25 406.426 416.033C405.374 415.515 404.575 414.609 404.205 413.513C403.835 412.418 403.923 411.224 404.451 410.193L404.591 409.938L404.535 409.78C403.892 409.76 403.261 409.603 402.687 409.318C401.631 408.794 400.831 407.88 400.463 406.778C400.094 405.675 400.188 404.475 400.723 403.44C401.258 402.405 402.19 401.621 403.315 401.26C404.44 400.899 405.665 400.991 406.721 401.515C406.929 401.617 407.128 401.735 407.318 401.866L408.485 400.758L429.877 409.139L428.801 410.034C429.319 410.686 429.637 411.468 429.718 412.29C429.798 413.112 429.639 413.94 429.258 414.676Z" fill="black"/>
<path opacity="0.1" d="M416.201 391.625L411.036 408.03C410.654 409.233 410.757 410.533 411.323 411.664C411.889 412.795 412.875 413.67 414.079 414.111C414.719 414.345 415.401 414.448 416.083 414.414C416.765 414.38 417.433 414.211 418.046 413.915C418.659 413.62 419.204 413.206 419.648 412.697C420.092 412.188 420.426 411.596 420.628 410.957L425.794 394.545C425.991 393.909 426.055 393.239 425.981 392.578C425.907 391.917 425.696 391.277 425.363 390.697C425.029 390.118 424.579 389.611 424.039 389.207C423.499 388.803 422.882 388.51 422.224 388.347C420.982 388.037 419.667 388.204 418.547 388.813C417.428 389.423 416.588 390.429 416.201 391.625Z" fill="black"/>
<path d="M416.426 392.624L411.738 407.335C411.395 408.413 411.487 409.579 411.996 410.593C412.504 411.607 413.391 412.39 414.472 412.782C415.046 412.991 415.657 413.082 416.268 413.052C416.88 413.021 417.478 412.869 418.027 412.604C418.576 412.339 419.065 411.967 419.462 411.511C419.86 411.055 420.159 410.524 420.34 409.952L424.999 395.234C425.18 394.661 425.24 394.057 425.175 393.461C425.111 392.864 424.923 392.287 424.623 391.763C424.323 391.24 423.918 390.782 423.431 390.417C422.945 390.053 422.388 389.789 421.795 389.642C420.681 389.377 419.506 389.539 418.509 390.092C417.511 390.646 416.767 391.551 416.426 392.624Z" fill="#3F3D56"/>
<path d="M355.321 468.657C355.321 468.657 330.999 462.348 326.417 462.817C321.835 463.285 333.367 441.226 341.048 443.919C348.729 446.612 358.982 453.678 364.836 443.685C370.69 433.691 373.972 428.32 381.119 428.857C388.266 429.394 398.133 424.552 405.266 428.857C412.399 433.161 417.403 438.45 427.255 438.223C437.108 437.996 446.433 416.481 454.122 425.089C461.81 433.698 470.988 441.57 478.198 438.712C485.408 435.854 493.659 440.151 500.223 444.993C506.786 449.835 518.34 447.679 522.711 443.919C527.082 440.158 530.392 437.459 539.725 437.996C549.057 438.533 578.692 444.993 589.669 453.058C600.647 461.123 575.404 471.35 563.323 471.35C551.243 471.35 549.057 474.573 538.628 479.415C528.199 484.256 511.179 476.729 499.105 484.793C487.032 492.858 471.662 480.496 450.805 484.793C429.947 489.091 434.339 495.014 422.266 490.716C410.192 486.419 414.578 484.793 397.016 483.719C379.454 482.645 360.24 486.412 358.596 479.415C356.951 472.417 345.981 470.813 339.39 468.657C332.798 466.501 355.321 468.657 355.321 468.657Z" fill="#3F3D56"/>
<path d="M561.77 450.53C563.878 446.736 561.489 442.08 558.762 438.698C556.036 435.317 552.704 431.811 552.775 427.479C552.88 421.281 559.591 417.624 564.954 414.332C568.935 411.896 572.606 409.004 575.888 405.716C577.266 404.454 578.404 402.962 579.248 401.309C580.358 398.884 580.33 396.13 580.26 393.478C580.03 384.635 579.583 375.799 578.917 366.97" stroke="#3F3D56" stroke-width="4" stroke-miterlimit="10"/>
<path d="M589.114 366.488C589.04 364.869 588.55 363.294 587.69 361.91C586.83 360.526 585.628 359.376 584.195 358.567L581.988 362.851L582.059 357.665C581.003 357.362 579.904 357.231 578.805 357.28C576.864 357.374 574.995 358.029 573.433 359.164C571.872 360.298 570.688 361.86 570.032 363.652C569.375 365.445 569.275 367.388 569.744 369.236C570.213 371.085 571.23 372.756 572.667 374.038C574.104 375.32 575.896 376.157 577.818 376.443C579.74 376.728 581.704 376.449 583.464 375.642C585.224 374.834 586.701 373.533 587.708 371.904C588.715 370.275 589.206 368.39 589.121 366.488H589.114Z" fill="#57B793"/>
<path d="M571.524 431.908C570.49 433.873 568.797 435.43 566.731 436.318C564.664 437.205 562.349 437.37 560.174 436.784C557.998 436.198 556.094 434.897 554.78 433.099C553.467 431.301 552.824 429.115 552.96 426.908C553.096 424.7 554.001 422.606 555.525 420.975C557.049 419.344 559.098 418.276 561.33 417.95C563.562 417.624 565.84 418.06 567.783 419.184C569.726 420.308 571.216 422.053 572.002 424.125L565.839 429.063L572.621 427.528C572.614 429.052 572.238 430.553 571.524 431.908Z" fill="#57B793"/>
<path d="M566.654 413.14C564.204 413.308 561.779 412.571 559.856 411.075C557.932 409.58 556.648 407.433 556.257 405.057C555.867 402.681 556.396 400.248 557.743 398.235C559.089 396.223 561.155 394.776 563.534 394.18L563.485 398.161L565.712 393.829C567.008 393.764 568.304 393.951 569.526 394.379C570.748 394.807 571.871 395.468 572.831 396.323C573.791 397.178 574.57 398.211 575.121 399.362C575.672 400.513 575.985 401.76 576.043 403.03C576.101 404.146 575.958 405.262 575.621 406.329C575.027 408.233 573.846 409.91 572.24 411.129C570.635 412.349 568.683 413.051 566.654 413.14Z" fill="#57B793"/>
<path d="M590.597 397.527C589.083 397.582 587.577 397.293 586.195 396.683C584.814 396.074 583.595 395.16 582.633 394.012C581.672 392.865 580.993 391.516 580.651 390.069C580.309 388.623 580.313 387.119 580.661 385.674C581.01 384.229 581.694 382.883 582.661 381.739C583.627 380.596 584.85 379.687 586.234 379.084C587.618 378.48 589.126 378.197 590.64 378.258C592.154 378.319 593.632 378.722 594.961 379.435L593.218 384.118L596.802 380.744C598.723 382.468 599.868 384.868 599.986 387.417C600.033 388.313 599.95 389.21 599.74 390.083C599.253 392.131 598.096 393.967 596.446 395.311C594.795 396.655 592.741 397.434 590.597 397.527Z" fill="#57B793"/>
<path opacity="0.1" d="M587.786 369.063C585.509 369.304 583.295 370 581.012 370.138C578.728 370.276 576.219 369.745 574.778 368.003C573.998 367.066 573.604 365.882 572.951 364.855C572.327 363.902 571.472 363.114 570.463 362.562C569.868 363.781 569.541 365.109 569.503 366.46C569.466 367.811 569.718 369.154 570.245 370.403C570.771 371.652 571.56 372.779 572.559 373.71C573.558 374.642 574.746 375.356 576.045 375.809C577.345 376.261 578.727 376.441 580.102 376.336C581.476 376.231 582.813 375.844 584.026 375.2C585.238 374.556 586.299 373.67 587.139 372.599C587.98 371.527 588.581 370.295 588.903 368.981C588.533 368.995 588.161 369.022 587.786 369.063Z" fill="black"/>
<path opacity="0.1" d="M590.597 397.528C588.899 397.602 587.211 397.246 585.695 396.494C584.179 395.741 582.886 394.618 581.943 393.233C581 391.848 580.437 390.247 580.309 388.587C580.182 386.926 580.494 385.261 581.215 383.753C582.001 384.262 582.679 384.914 583.211 385.675C583.914 386.715 584.343 387.92 585.172 388.87C586.704 390.64 589.325 391.219 591.707 391.116C594.09 391.012 596.388 390.344 598.735 390.131C599.065 390.131 599.438 390.083 599.733 390.076C599.248 392.124 598.092 393.961 596.443 395.306C594.794 396.652 592.741 397.432 590.597 397.528Z" fill="black"/>
<path opacity="0.1" d="M566.654 413.141C564.97 413.222 563.293 412.877 561.784 412.141C560.275 411.404 558.984 410.299 558.036 408.933C557.088 407.567 556.514 405.984 556.369 404.338C556.224 402.692 556.513 401.037 557.209 399.532C558.029 400.054 558.744 400.719 559.317 401.495C560.083 402.555 560.561 403.781 561.426 404.759C563.091 406.57 565.888 407.211 568.411 407.156C570.934 407.101 573.204 406.515 575.628 406.329C575.034 408.234 573.852 409.911 572.245 411.131C570.638 412.351 568.685 413.053 566.654 413.141Z" fill="black"/>
<path opacity="0.1" d="M571.524 431.908C570.457 434.244 568.487 436.069 566.047 436.981C563.607 437.894 560.897 437.819 558.513 436.773C556.129 435.728 554.267 433.797 553.335 431.405C552.404 429.014 552.481 426.358 553.548 424.022C554.358 424.546 555.085 425.184 555.705 425.916C556.647 427.032 557.265 428.306 558.348 429.359C560.364 431.302 563.618 432.114 566.521 432.176C568.192 432.184 569.863 432.094 571.524 431.908Z" fill="black"/>
<path d="M546.893 446.157C546.893 446.157 554.679 445.923 557.026 444.284C559.374 442.645 568.973 440.696 569.585 443.32C570.196 445.944 581.279 456.405 572.494 456.446C563.71 456.488 552.072 455.11 549.732 453.692C547.392 452.273 546.893 446.157 546.893 446.157Z" fill="#656380"/>
<path opacity="0.2" d="M572.67 455.537C563.878 455.606 552.248 454.16 549.907 452.782C548.122 451.715 547.413 447.899 547.174 446.136H546.914C546.914 446.136 547.406 452.293 549.725 453.712C552.044 455.131 563.696 456.515 572.487 456.467C575.024 456.467 575.895 455.565 575.853 454.256C575.481 455.027 574.539 455.516 572.67 455.537Z" fill="black"/>
<path d="M144.206 123.402C144.155 122.901 144.23 122.395 144.424 121.928C144.993 120.937 146.483 121.205 147.607 121.488C152.133 122.603 156.898 121.591 161.55 121.853C166.202 122.114 171.452 124.394 172.386 128.871C175.767 126.524 178.68 123.589 180.981 120.213C182.274 118.32 183.399 116.15 183.223 113.877C182.97 110.599 180.166 108.147 177.566 106.067L169.835 99.8691C168.819 98.9514 167.643 98.2191 166.364 97.7066C164.579 97.1074 162.625 97.3898 160.742 97.3898C155.12 97.3898 149.097 94.8829 144.079 97.3898C141.971 98.4435 140.411 100.248 138.893 102.011L131.978 110.034C131.455 110.545 131.076 111.178 130.874 111.873C130.678 112.851 131.191 113.815 131.366 114.8C131.697 116.591 130.903 118.499 131.514 120.22C132.519 123.079 136.054 123.485 138.218 125.117C139.026 125.73 140.291 127.796 141.247 127.775C142.962 127.755 144.157 124.718 144.206 123.402Z" fill="#3F3D56"/>
<path d="M145.344 142.562C145.267 144.793 143.939 146.777 142.66 148.629C140.952 151.095 139.146 153.657 136.447 155.034C150.01 162.052 165.808 163.685 180.566 159.594C182.935 158.905 185.732 157.472 185.591 155.055C182.78 154.304 179.871 153.526 177.481 151.866C174.628 149.883 172.745 146.797 171.529 143.602C170.313 140.406 169.695 136.99 168.844 133.664C168.789 133.323 168.638 133.003 168.409 132.741C168.022 132.47 167.547 132.347 167.073 132.397L157.713 132.231C153.869 132.231 149.694 132.142 146.124 133.74C141.683 135.737 145.471 138.857 145.344 142.562Z" fill="#FFC0C6"/>
<path opacity="0.1" d="M145.344 142.562C145.267 144.793 143.939 146.777 142.66 148.629C140.952 151.095 139.146 153.657 136.447 155.034C150.01 162.052 165.808 163.685 180.566 159.594C182.935 158.905 185.732 157.472 185.591 155.055C182.78 154.304 179.871 153.526 177.481 151.866C174.628 149.883 172.745 146.797 171.529 143.602C170.313 140.406 169.695 136.99 168.844 133.664C168.789 133.323 168.638 133.003 168.409 132.741C168.022 132.47 167.547 132.347 167.073 132.397L157.713 132.231C153.869 132.231 149.694 132.142 146.124 133.74C141.683 135.737 145.471 138.857 145.344 142.562Z" fill="black"/>
<path d="M137.199 456.777C134.894 460.22 131.879 463.134 129.349 466.419C126.82 469.704 124.704 473.533 124.676 477.645C124.643 477.906 124.669 478.171 124.753 478.421C124.836 478.671 124.976 478.9 125.161 479.091C125.449 479.273 125.781 479.375 126.124 479.387L135.892 480.613C137.377 480.866 138.891 480.917 140.39 480.765C142.004 480.452 143.559 479.897 145 479.119C146.101 478.696 147.06 477.98 147.769 477.052C148.24 476.295 148.366 475.365 148.816 474.594C150.172 472.259 153.588 472.362 156.3 472.769C157.08 465.668 155.077 458.588 153.089 451.715C153.003 451.293 152.818 450.897 152.547 450.558C152.192 450.223 151.754 449.986 151.275 449.869C148.935 449.119 143.278 446.178 141.31 447.555C139.87 448.574 138.366 454.952 137.199 456.777Z" fill="#575A88"/>
<path d="M184.298 470.778C186.174 469.917 188.177 468.808 190.201 469.263C193.054 469.89 194.326 473.195 196.751 474.773C198.241 475.757 200.082 476.047 201.86 476.274C207.336 476.968 212.854 477.288 218.375 477.231C220.139 477.231 222.359 476.818 222.788 475.165C223.217 473.512 221.593 472.197 220.153 471.336C217.026 469.456 213.766 467.797 210.398 466.37C208.743 465.772 207.178 464.956 205.746 463.946C203.336 462.038 202.162 459.049 201.087 456.205C200.223 453.919 199.428 448.981 197.657 447.252C195.718 445.386 193.111 446.625 190.679 447.149C186.898 447.961 182.471 448.526 180.039 451.853C176.483 456.722 173.75 475.565 184.298 470.778Z" fill="#575A88"/>
<path d="M128.422 251.006C125.194 258.791 123.418 267.082 123.179 275.482C123.011 281.756 123.699 288.01 124.395 294.249C125.505 304.35 126.62 314.451 127.74 324.552C128.098 328.753 128.772 332.922 129.757 337.025C130.973 341.605 132.948 345.978 134.36 350.482C138.731 364.518 137.487 379.656 134.599 394.057C134.215 395.636 134.012 397.253 133.995 398.877C134.079 401.309 135.035 403.623 135.653 405.978C139.434 420.338 130.734 436.281 136.412 450.055C136.556 450.547 136.872 450.974 137.305 451.26C137.59 451.365 137.894 451.413 138.198 451.4C138.502 451.387 138.801 451.313 139.076 451.185C140.693 450.633 142.246 449.912 143.707 449.036C146.766 452.664 150.718 455.468 155.19 457.183C158.521 456.378 159.146 452.411 160.236 449.222C161.066 446.957 161.742 444.64 162.26 442.287C162.741 439.399 162.988 436.479 162.997 433.554L165.879 334.139L165.668 364.477C165.567 366.933 165.725 369.393 166.139 371.818C166.56 373.836 167.334 375.771 167.776 377.789C168.402 380.675 168.324 383.664 168.296 386.619C168.121 404.141 169.757 421.637 173.18 438.836C174.305 444.47 175.654 450.158 178.528 455.152C178.623 455.381 178.765 455.588 178.945 455.761C179.125 455.934 179.34 456.069 179.576 456.157C180.187 456.288 180.749 455.813 181.213 455.393C183.989 452.987 187.459 451.485 191.143 451.093C194.827 450.701 198.544 451.438 201.783 453.203C201.164 450.282 204.003 446.887 201.972 444.669C201.389 444.029 200.518 443.719 199.864 443.161C198.571 442.08 198.262 440.262 198.079 438.602C197.281 431.214 197.281 423.765 198.079 416.378C199.07 407.142 201.298 397.831 199.653 388.692C198.459 382.059 195.24 375.606 195.879 368.933C196.301 364.456 198.423 360.331 199.885 356.068C206.266 337.431 199.885 316.66 204.502 297.528C205.563 293.134 207.166 288.382 205.24 284.284L208.171 283.409L202.085 269.793C200.792 266.894 199.442 263.912 197.166 261.681C193.343 257.955 187.629 256.956 182.295 256.171L138.907 249.539C135.063 248.926 129.877 247.507 128.422 251.006Z" fill="#3C354C"/>
<path d="M155.738 142.466C165.996 142.466 174.312 134.316 174.312 124.263C174.312 114.21 165.996 106.061 155.738 106.061C145.48 106.061 137.164 114.21 137.164 124.263C137.164 134.316 145.48 142.466 155.738 142.466Z" fill="#FFC0C6"/>
<path d="M145.611 145.937C144.71 145.414 143.646 145.231 142.618 145.42C142.112 145.596 141.637 145.85 141.212 146.171L132.428 152.204C131.168 152.97 130.045 153.933 129.104 155.055C127.6 157.059 127.361 159.724 127.557 162.204C127.993 167.796 130.298 173.072 131.549 178.54C132.8 184.008 132.8 190.248 129.202 194.628C128.583 195.256 128.066 195.974 127.67 196.756C127.455 197.424 127.358 198.123 127.382 198.822C127.252 201.44 127.308 204.063 127.55 206.673C127.944 210.041 128.956 213.313 129.504 216.653C130.467 222.342 130.207 228.175 130.952 233.87C130.919 234.251 130.967 234.635 131.093 234.997C131.219 235.358 131.421 235.69 131.686 235.972C131.95 236.253 132.271 236.477 132.629 236.63C132.986 236.783 133.373 236.861 133.763 236.859C138.106 237.482 142.494 237.766 146.883 237.707C151.964 237.707 157.038 237.431 162.112 237.169L185.205 235.978C185.534 236.019 185.868 235.99 186.184 235.891C186.5 235.793 186.79 235.628 187.034 235.409C187.279 235.189 187.471 234.92 187.598 234.619C187.725 234.319 187.784 233.995 187.77 233.671C189.794 224.153 191.832 214.463 190.876 204.793C190.257 198.547 188.402 192.493 186.659 186.46C185.254 181.57 183.905 176.439 184.959 171.46C185.661 168.175 187.369 165.138 187.812 161.818C188.068 160.091 187.914 158.328 187.363 156.668C186.813 155.008 185.879 153.495 184.635 152.245C182.049 149.814 178.275 148.891 175.696 146.453C174.988 145.665 174.217 144.932 173.391 144.263C172.97 143.934 172.463 143.727 171.927 143.666C171.392 143.605 170.85 143.693 170.362 143.919C169.887 144.249 169.493 144.68 169.21 145.179C166.961 148.526 163.588 154.043 158.844 153.175C153.714 152.273 150.13 148.072 145.611 145.937Z" fill="#26548F"/>
<path d="M192.021 268.994C190.377 270.2 189.154 272.342 189.913 274.208C192.147 274.599 194.45 274.285 196.491 273.313C197.805 272.686 199.442 271.804 200.581 272.714C200.95 273.061 201.235 273.484 201.417 273.953C202.649 276.512 204.141 278.942 205.873 281.205C207.124 280.627 208.438 279.993 209.19 278.857C209.644 278.083 209.937 277.228 210.054 276.343C210.495 274.127 210.821 271.89 211.031 269.642C211.179 268.01 211.207 266.198 210.068 264.986C205.184 259.821 196.076 266.026 192.021 268.994Z" fill="#FFC0C6"/>
<path d="M143.046 116.57C142.996 116.071 143.071 115.568 143.264 115.103C143.833 114.112 145.323 114.415 146.448 114.656C150.973 115.778 155.738 114.766 160.39 115.028C165.042 115.289 170.292 117.569 171.227 122.046C174.608 119.697 177.523 116.764 179.829 113.389C181.122 111.495 182.246 109.325 182.07 107.052C181.817 103.774 179.013 101.322 176.413 99.2425L168.683 93.0442C167.666 92.1285 166.49 91.3985 165.211 90.8885C163.426 90.2893 161.473 90.5717 159.589 90.5717C153.967 90.5717 147.944 88.0648 142.927 90.5717C140.818 91.6323 139.258 93.4367 137.733 95.1998L130.825 103.223C130.303 103.732 129.921 104.362 129.715 105.055C129.518 106.033 130.031 107.004 130.214 107.982C130.537 109.773 129.75 111.687 130.354 113.409C131.359 116.267 134.901 116.667 137.066 118.306C137.874 118.919 139.132 120.985 140.095 120.957C141.802 120.93 142.997 117.893 143.046 116.57Z" fill="#3F3D56"/>
<path d="M188.915 153.492C190.86 153.042 192.878 152.993 194.843 153.349C196.808 153.704 198.676 154.457 200.328 155.558C205.641 159.125 207.826 165.64 209.675 171.687L213.814 185.248C215.627 191.191 217.454 197.19 217.876 203.382C218.262 209.008 217.475 214.642 216.688 220.227C215.599 227.961 218.164 236.439 218.199 244.242C218.199 253.196 218.143 262.693 213.491 270.413C213.298 269.738 212.941 269.118 212.452 268.606C211.963 268.094 211.355 267.705 210.68 267.472C209.333 267.022 207.921 266.789 206.498 266.784L194.13 266.005C195.184 264.26 196.091 262.434 196.842 260.544C201.586 248.602 199.766 235.255 197.875 222.583C197.726 221.374 197.492 220.178 197.173 219.001C195.926 214.481 195.641 209.757 196.336 205.124C196.619 203.029 196.692 200.911 196.554 198.802C196.533 197.911 196.34 197.032 195.985 196.212C195.621 195.537 195.162 194.916 194.622 194.366L192.12 191.612C191.916 183.278 190.581 174.883 189.26 166.646C188.618 162.29 188.503 157.875 188.915 153.492Z" fill="#26548F"/>
<path d="M164.614 190.289C152.6 181.154 144.597 167.869 142.238 153.147C141.83 150.537 140.769 147.128 138.078 147.218C137.262 147.302 136.478 147.571 135.787 148.003L126.032 153.127C125.335 153.404 124.741 153.885 124.332 154.504C123.692 155.73 124.599 157.142 125.379 158.285C130.628 166.068 131.001 175.95 131.212 185.276C131.275 188.03 131.296 190.93 129.94 193.34C128.836 195.289 126.918 196.722 125.906 198.726C124.957 200.606 124.915 202.782 124.887 204.883C124.69 219.869 124.493 234.876 125.295 249.849C125.414 252.108 125.597 254.477 126.827 256.391C127.972 258.161 129.862 259.304 131.69 260.386L146.483 269.146C149.294 270.82 152.217 272.521 155.471 273.058C158.725 273.595 162.442 272.686 164.312 270.021C165.218 268.726 165.619 267.149 166.49 265.833C167.362 264.518 169.027 263.451 170.51 264.036C171.564 264.449 172.14 265.53 172.618 266.529C173.56 268.437 174.544 270.393 176.083 271.887C177.622 273.382 179.85 274.387 181.965 273.953C183.792 273.561 185.219 272.204 186.533 270.909C190.595 266.922 194.699 262.879 197.686 258.051C198.115 257.49 198.338 256.803 198.318 256.102C198.126 255.42 197.75 254.801 197.229 254.311C195.359 252.066 194.622 249.125 194.066 246.274C188.508 217.624 196.357 187.844 192.035 158.988C191.543 155.682 190.461 152.645 187.931 150.406C185.401 148.168 182.253 146.742 179.154 145.351C178.135 144.897 176.968 144.428 175.928 144.842C174.206 145.53 174.199 147.851 174.326 149.663C174.472 153.375 174.284 157.092 173.764 160.771L172.253 174.401C172.108 176.483 171.712 178.54 171.072 180.53C169.743 184.241 167.529 187.587 164.614 190.289Z" fill="#575A88"/>
<path d="M78.4488 82.0041C78.4488 82.0041 73.0867 86.2741 66.7549 75.0758C60.4231 63.8774 29.8461 36.9628 29.8461 36.9628C29.8461 36.9628 25.8896 33.416 40.9215 27.5069C55.9535 21.5978 76.4811 0 76.4811 0C76.4811 0 110.733 29.8416 114.086 44.6212C117.438 59.4008 110.101 61.9077 97.5075 69.7589C84.9141 77.6102 78.4488 82.0041 78.4488 82.0041Z" fill="#3F3D56"/>
<path d="M176.617 224.924L90.1778 72.259L97.5146 69.759L182.492 221.763C182.706 222.148 182.839 222.572 182.884 223.008C182.929 223.444 182.885 223.885 182.754 224.304C182.623 224.724 182.408 225.113 182.122 225.45C181.836 225.787 181.484 226.065 181.086 226.267C180.31 226.658 179.408 226.736 178.573 226.485C177.739 226.235 177.037 225.674 176.617 224.924Z" fill="#656380"/>
<path d="M141.121 185.95C143.384 181.205 141.064 175.73 139.518 170.716C138.287 166.732 137.553 162.615 137.333 158.457C137.185 157.149 137.334 155.825 137.769 154.58C137.998 153.962 138.404 153.422 138.937 153.023C139.47 152.624 140.108 152.383 140.776 152.328C142.794 155.286 143.6 158.882 143.032 162.397C144.342 162.066 145.67 161.811 147.01 161.632C148.747 161.403 150.511 161.783 151.991 162.704C153.471 163.625 154.571 165.028 155.099 166.667C157.326 173.664 158.085 181.13 154.979 187.672C153.989 189.609 152.84 191.463 151.543 193.216L144.768 202.913C144.304 203.602 143.735 204.291 142.92 204.408C142.105 204.525 141.254 203.802 140.657 203.134C138.598 200.854 134.943 197.535 135.344 194.394C135.745 191.254 139.771 188.74 141.121 185.95Z" fill="#FFC0C6"/>
<path d="M125.463 156.701C118.583 155.937 110.705 157.762 107.107 163.588C105.301 166.529 104.851 170.055 104.535 173.471C104.092 178.258 103.832 183.058 103.586 187.851L102.258 213.085C102.097 216.102 101.942 219.125 101.886 222.142C101.726 224.5 101.985 226.868 102.652 229.139C103.502 231.584 105.189 233.65 106.868 235.661C108.548 237.672 110.649 239.745 113.116 239.16C114.125 238.833 115.042 238.279 115.793 237.541L121.415 232.775C125.238 229.559 129.104 226.295 132.013 222.259C133.418 220.317 134.571 218.216 135.991 216.288C140.165 210.613 146.588 206.309 148.788 199.656C146.679 199.545 143.615 198.864 142.646 197.032C142.133 196.061 142.062 194.904 141.493 193.974C140.629 192.555 138.682 191.784 138.394 190.158C132.87 194.518 128.246 199.58 123.833 205.014L125.625 198.189C125.75 197.548 126.022 196.943 126.419 196.419C127.048 195.879 127.759 195.44 128.527 195.117C130.713 193.822 131.542 191.143 131.985 188.678C133.961 177.595 131.634 166.188 125.463 156.701Z" fill="#26548F"/>
</g>
<defs>
<clipPath id="clip0_6_179">
<rect width="600" height="500" fill="white"/>
</clipPath>
</defs>
</svg>
