<svg width="600" height="400" viewBox="0 0 600 400" fill="none" xmlns="http://www.w3.org/2000/svg">
<g clip-path="url(#clip0_3_140)">
<path d="M139.594 349.733L121.973 343.436C120.033 333.606 120.468 323.441 123.24 313.822C129.925 330.285 150.774 334.888 162.35 348.213C165.93 352.397 168.543 357.351 169.996 362.709C171.449 368.067 171.705 373.69 170.745 379.163L174.119 392.258C165.401 391.235 157.005 388.291 149.507 383.629C142.009 378.967 135.588 372.698 130.687 365.253C127.977 361.049 125.797 356.512 124.196 351.75C131.802 351.198 139.594 349.733 139.594 349.733Z" fill="#F2F2F2"/>
<path d="M344.198 232.691H251.929C250.623 232.693 249.372 233.226 248.451 234.171C247.529 235.116 247.012 236.397 247.013 237.733V386.835H349.126V237.733C349.126 237.071 348.999 236.415 348.751 235.803C348.504 235.191 348.141 234.635 347.683 234.167C347.225 233.699 346.682 233.328 346.084 233.074C345.486 232.821 344.845 232.691 344.198 232.691ZM298.374 317.41C295.488 317.396 292.725 316.217 290.684 314.13C288.644 312.043 287.492 309.216 287.478 306.264V289.066C287.478 286.11 288.626 283.276 290.669 281.185C292.713 279.095 295.484 277.921 298.374 277.921C301.263 277.921 304.035 279.095 306.078 281.185C308.121 283.276 309.269 286.11 309.269 289.066V306.264C309.256 309.216 308.103 312.043 306.063 314.13C304.023 316.217 301.259 317.396 298.374 317.41Z" fill="#E6E6E6"/>
<path d="M246.696 382.066V396.451C246.698 397.197 246.988 397.911 247.503 398.438C248.019 398.965 248.717 399.262 249.446 399.264H346.693C347.421 399.26 348.119 398.962 348.633 398.436C349.148 397.909 349.439 397.196 349.443 396.451V382.066H246.696Z" fill="#CCCCCC"/>
<path d="M496.986 0H102.573C99.1846 0.00551464 95.9363 1.38498 93.5402 3.83608C91.1441 6.28718 89.7955 9.61002 89.7901 13.0764V285.336C89.7934 288.803 91.1412 292.127 93.5378 294.579C95.9344 297.03 99.1839 298.409 102.573 298.412H496.986C500.376 298.409 503.625 297.03 506.022 294.579C508.418 292.127 509.766 288.803 509.77 285.336V13.0764C509.764 9.61002 508.416 6.28718 506.019 3.83608C503.623 1.38498 500.375 0.00551464 496.986 0Z" fill="#E6E6E6"/>
<path d="M493.693 9.44116H105.87C104.055 9.44557 102.316 10.1862 101.034 11.5005C99.7521 12.8148 99.0322 14.5955 99.0321 16.4521V281.961C99.0342 283.815 99.7552 285.593 101.037 286.905C102.319 288.216 104.057 288.954 105.87 288.956H493.693C495.506 288.954 497.244 288.216 498.525 286.905C499.807 285.593 500.528 283.815 500.53 281.961V16.4521C500.53 14.5955 499.81 12.8148 498.529 11.5005C497.247 10.1861 495.508 9.44556 493.693 9.44116Z" fill="white"/>
<path d="M502.862 15.4481V246.548C473.022 255.445 441.16 254.155 412.101 242.873C383.041 231.59 358.366 210.93 341.812 184.019C325.258 157.108 317.725 125.413 320.355 93.7311C322.985 62.0496 335.634 32.1072 356.387 8.43713H496.025C497.84 8.44154 499.579 9.18212 500.861 10.4964C502.143 11.8108 502.862 13.5915 502.862 15.4481Z" fill="#26548F"/>
<path d="M474.199 46.0264H111.312C110.934 46.0182 110.575 45.859 110.311 45.5831C110.047 45.3071 109.899 44.9363 109.899 44.5502C109.899 44.164 110.047 43.7932 110.311 43.5173C110.575 43.2413 110.934 43.0822 111.312 43.074H474.199C474.576 43.0822 474.936 43.2413 475.2 43.5173C475.464 43.7932 475.612 44.164 475.612 44.5502C475.612 44.9363 475.464 45.3071 475.2 45.5831C474.936 45.859 474.576 46.0182 474.199 46.0264Z" fill="#CACACA"/>
<path d="M136.014 35.5368C140.685 35.5368 144.471 31.5771 144.471 26.6926C144.471 21.8082 140.685 17.8485 136.014 17.8485C131.343 17.8485 127.557 21.8082 127.557 26.6926C127.557 31.5771 131.343 35.5368 136.014 35.5368Z" fill="#3F3D56"/>
<path d="M165.23 35.5368C169.901 35.5368 173.687 31.5771 173.687 26.6926C173.687 21.8082 169.901 17.8485 165.23 17.8485C160.559 17.8485 156.773 21.8082 156.773 26.6926C156.773 31.5771 160.559 35.5368 165.23 35.5368Z" fill="#3F3D56"/>
<path d="M194.446 35.5368C199.117 35.5368 202.903 31.5771 202.903 26.6926C202.903 21.8082 199.117 17.8485 194.446 17.8485C189.775 17.8485 185.989 21.8082 185.989 26.6926C185.989 31.5771 189.775 35.5368 194.446 35.5368Z" fill="#3F3D56"/>
<path d="M456.608 20.0405H435.855C435.444 20.0489 435.052 20.222 434.764 20.5225C434.476 20.8231 434.315 21.2271 434.315 21.648C434.315 22.0689 434.476 22.473 434.764 22.7735C435.052 23.0741 435.444 23.2471 435.855 23.2555H456.608C457.02 23.2471 457.412 23.0741 457.7 22.7735C457.988 22.473 458.149 22.0689 458.149 21.648C458.149 21.2271 457.988 20.8231 457.7 20.5225C457.412 20.222 457.02 20.0489 456.608 20.0405Z" fill="#3F3D56"/>
<path d="M456.608 26.0746H435.855C435.444 26.083 435.052 26.256 434.764 26.5565C434.476 26.8571 434.315 27.2612 434.315 27.6821C434.315 28.1029 434.476 28.507 434.764 28.8076C435.052 29.1081 435.444 29.2811 435.855 29.2895H456.608C457.02 29.2811 457.412 29.1081 457.7 28.8076C457.988 28.507 458.149 28.1029 458.149 27.6821C458.149 27.2612 457.988 26.8571 457.7 26.5565C457.412 26.256 457.02 26.083 456.608 26.0746Z" fill="#3F3D56"/>
<path d="M456.608 32.1006H435.855C435.444 32.109 435.052 32.282 434.764 32.5826C434.476 32.8831 434.315 33.2872 434.315 33.7081C434.315 34.1289 434.476 34.533 434.764 34.8336C435.052 35.1341 435.444 35.3072 435.855 35.3155H456.608C457.02 35.3072 457.412 35.1341 457.7 34.8336C457.988 34.533 458.149 34.1289 458.149 33.7081C458.149 33.2872 457.988 32.8831 457.7 32.5826C457.412 32.282 457.02 32.109 456.608 32.1006Z" fill="#3F3D56"/>
<path d="M202.862 207.781C203.396 207.187 203.796 206.48 204.034 205.71C204.272 204.94 204.342 204.126 204.24 203.325C204.137 202.525 203.864 201.757 203.44 201.076C203.016 200.394 202.451 199.817 201.785 199.383L206.21 180.283L196.844 183.783L194.078 201.385C193.44 202.578 193.252 203.968 193.549 205.293C193.847 206.618 194.609 207.786 195.692 208.574C196.775 209.363 198.103 209.717 199.424 209.571C200.745 209.425 201.969 208.788 202.862 207.781H202.862Z" fill="#9E616A"/>
<path d="M225.385 127.741L221.626 137.629C221.626 137.629 223.237 147.516 220.552 149.714C217.867 151.911 218.941 151.911 218.941 153.559C218.849 154.741 218.514 155.89 217.959 156.931C217.404 157.972 216.641 158.882 215.719 159.601C213.571 161.249 203.906 194.757 203.906 194.757H194.24C194.552 192.203 194.552 189.62 194.24 187.066C193.703 183.221 195.851 173.334 196.925 171.686C197.999 170.038 196.925 167.841 196.925 164.545C196.925 161.249 199.073 159.601 199.073 154.108C199.073 148.615 205.517 105.769 204.98 100.825C204.443 95.8816 210.349 91.4872 210.349 91.4872H215.719L225.385 127.741Z" fill="#E6E6E6"/>
<path d="M260.257 385.309H267.698L271.239 355.949H260.257V385.309Z" fill="#9E616A"/>
<path d="M257.829 380.095L269.716 379.369V384.579L281.018 392.564C281.576 392.958 281.997 393.525 282.218 394.181C282.439 394.837 282.45 395.548 282.248 396.211C282.046 396.873 281.642 397.452 281.096 397.864C280.549 398.275 279.889 398.497 279.21 398.496H265.058L262.618 393.343L261.666 398.496H256.33L257.829 380.095Z" fill="#2F2E41"/>
<path d="M166.998 378.842L173.912 381.657L187.817 355.72L177.614 351.565L166.998 378.842Z" fill="#9E616A"/>
<path d="M166.627 373.08L177.934 376.903L176.051 381.743L183.664 393.438C184.041 394.015 184.226 394.701 184.195 395.394C184.163 396.087 183.916 396.752 183.489 397.291C183.061 397.83 182.477 398.215 181.821 398.391C181.164 398.566 180.47 398.522 179.84 398.265L166.691 392.911L166.288 387.2L163.54 391.628L158.582 389.609L166.627 373.08Z" fill="#2F2E41"/>
<path d="M245.259 297.947L232.851 238.715L213.476 304.527L182.796 366.933L182.634 367.264L172.915 361.912C171.544 336.572 174.801 312.827 186.715 292.063L192.357 235.072C192.53 233.125 196.738 187.408 210.063 179.301L213.965 170.198L252.779 160.392L252.92 160.555C256.652 164.846 259.118 170.132 260.03 175.8L271.628 247.672L271.634 247.712L268.524 297.851L272.778 371.822H257.387C247.865 353.495 243.822 328.87 245.259 297.947Z" fill="#2F2E41"/>
<path d="M281.959 100.686L305.488 92.2652C306.218 92.007 307.018 92.0552 307.713 92.3991C308.407 92.7429 308.941 93.3545 309.196 94.0998C309.45 94.8452 309.406 95.6634 309.072 96.3754C308.739 97.0874 308.143 97.6351 307.415 97.8984L283.885 106.319C283.156 106.577 282.356 106.529 281.661 106.185C280.966 105.841 280.433 105.23 280.178 104.484C279.923 103.739 279.968 102.921 280.301 102.209C280.635 101.497 281.231 100.949 281.959 100.686Z" fill="#2F2E41"/>
<path d="M307.241 97.1319C307.701 98.7619 309.687 99.5536 311.291 99.1191C312.877 98.5631 314.196 97.4088 314.978 95.8917C315.84 94.442 316.432 92.8361 317.318 91.4018C319.019 88.6767 321.68 86.7253 324.749 85.9519C322.014 85.5833 319.236 86.1216 316.822 87.4877C315.973 88.084 315.035 88.5361 314.045 88.8266C312.989 88.8839 311.93 88.8698 310.876 88.7843C309.945 88.8328 309.046 89.1527 308.287 89.7062C307.527 90.2596 306.938 91.0236 306.589 91.9082C306.24 92.7927 306.146 93.7608 306.317 94.6985C306.488 95.6363 306.917 96.5044 307.555 97.2007" fill="#26548F"/>
<path d="M304.164 99.7244C304.065 100.526 303.795 101.295 303.374 101.978C302.953 102.661 302.391 103.241 301.727 103.678C301.063 104.115 300.314 104.397 299.531 104.506C298.749 104.614 297.953 104.546 297.199 104.305L285.798 120.094L282.364 110.517L293.717 96.9923C294.196 95.724 295.113 94.6793 296.294 94.0563C297.476 93.4333 298.839 93.2752 300.127 93.6119C301.415 93.9487 302.537 94.757 303.281 95.8835C304.025 97.0101 304.339 98.3767 304.164 99.7244Z" fill="#9E616A"/>
<path d="M202.525 189.482C201.48 189.482 200.886 189.272 200.656 188.823C200.319 188.163 200.904 187.301 201.582 186.302C202.055 185.606 203.436 184.222 202.757 184.138C192.46 182.851 197.403 117.915 201.865 109.331C202.772 107.587 201.812 104.911 202.833 101.951C205.622 93.8685 209.429 91.3843 217.013 86.436C217.628 86.0343 218.269 85.6147 218.936 85.1773C219.798 84.6105 219.75 82.7315 219.699 80.7416C219.643 78.53 219.584 76.243 220.643 74.8135L220.712 74.7203L220.823 74.6939C223.385 74.0881 232.001 72.9634 237.104 74.702L237.174 74.7266L237.227 74.7801C238.439 76.02 238.549 78.4217 238.656 80.7441C238.743 82.6509 238.826 84.4512 239.512 85.2333C244.755 91.2111 250.701 91.0946 250.761 91.0933L251.055 91.0845L251.085 91.3843C254.76 98.5408 251.882 125.119 254.437 141.629C257.033 158.402 279.2 172.68 260.219 175.215C260.26 175.279 260.283 175.354 260.285 175.431C260.287 175.507 260.269 175.583 260.232 175.65C259.085 177.842 206.465 189.482 202.525 189.482Z" fill="#E6E6E6"/>
<path d="M262.61 140.634L252.36 134.736C234.487 122.063 230.084 111.999 229.534 105.785C228.947 99.155 232.4 95.5285 232.547 95.378L232.627 95.3182L241.867 90.489C243.04 89.8756 244.328 89.5245 245.644 89.4588C246.961 89.3931 248.276 89.6144 249.502 90.1081C250.729 90.6017 251.838 91.3563 252.758 92.322C253.678 93.2876 254.386 94.4423 254.837 95.7093L263.383 119.753L272.858 112.604L276.899 110.975L280.16 106.515L289.116 101.172L295.768 107.297L287.402 124.414L282.754 125.625L281.768 128.222L281.68 128.28L262.61 140.634Z" fill="#E6E6E6"/>
<path d="M244.265 63.7067C242.362 67.2652 239.332 70.0548 235.673 71.6162C232.013 73.1776 227.943 73.4176 224.133 72.2967C220.322 71.1758 216.999 68.7609 214.709 65.4496C212.42 62.1383 211.301 58.1281 211.537 54.0794C211.773 50.0307 213.35 46.185 216.008 43.1756C218.666 40.1661 222.247 38.1724 226.16 37.5228C230.074 36.8732 234.087 37.6064 237.539 39.6017C240.991 41.597 243.676 44.7353 245.151 48.4999C245.231 48.7042 245.303 48.9085 245.375 49.121C246.209 51.4942 246.542 54.0214 246.35 56.5357C246.159 59.05 245.448 61.4942 244.265 63.7067Z" fill="#9E616A"/>
<path d="M246.773 49.1209C246.022 46.9719 246.35 48.0913 245.591 45.9505C245.835 47.0052 245.76 48.1109 245.375 49.1209H224.598V36.766C230.685 34.2982 236.636 32.1982 240.231 36.766C243.434 36.7661 246.506 38.0678 248.771 40.3848C251.036 42.7018 252.308 45.8442 252.309 49.1209H246.773Z" fill="#2F2E41"/>
<path d="M239.408 83.4647C239.392 83.2359 239.368 82.9989 239.336 82.7701C239.057 81.0916 238.605 79.4482 237.986 77.8674C237.387 76.1432 236.78 74.4109 236.173 72.6868C236.955 75.8165 236.716 79.1217 235.494 82.1001C231.987 79.3055 234.2 72.9156 229.615 72.9156C218.591 72.9156 207.249 63.7719 207.249 52.4874C207.249 41.211 211.977 32.7783 223.001 32.7783C234.032 32.7783 242.979 37.9425 243.194 49.2189C229.615 52.4874 241.972 82.3207 239.408 83.4647Z" fill="#2F2E41"/>
<path d="M208.626 50.7591C215.685 50.7591 221.407 44.9057 221.407 37.6851C221.407 30.4645 215.685 24.6111 208.626 24.6111C201.567 24.6111 195.845 30.4645 195.845 37.6851C195.845 44.9057 201.567 50.7591 208.626 50.7591Z" fill="#2F2E41"/>
<path d="M212.912 38.1931C210.723 40.7997 207.296 41.8129 204.205 43.1693C198.749 45.6177 193.959 49.3905 190.251 54.1606C186.543 58.9307 184.028 64.554 182.925 70.5431C182.07 75.4213 182.182 80.4712 180.832 85.2269C179.49 89.9825 176.167 94.6483 171.398 95.4736C168.171 96.0374 164.936 94.7627 161.901 93.5043C160.231 92.818 158.562 92.1289 156.892 91.437C158.634 86.9673 160.372 82.4977 162.108 78.028C159.318 82.2462 156.073 86.1301 152.435 89.6067C146.452 87.1389 140.464 84.6712 134.47 82.2034C149.216 82.2607 146.7 67.6177 149.999 52.9258C151.812 44.8526 167.253 39.3861 170.28 31.7051C171.916 27.5389 174.684 23.9394 178.258 21.3325C181.831 18.7257 186.06 17.2205 190.443 16.9953C194.826 16.7701 199.181 17.8341 202.992 20.0616C206.802 22.2891 209.909 25.5867 211.945 29.5642C214.973 30.7981 215.061 35.6191 212.912 38.1931Z" fill="#2F2E41"/>
<path d="M599.049 399.749L0.951104 400C0.698855 400 0.456939 399.897 0.278571 399.715C0.100204 399.533 0 399.285 0 399.027C0 398.769 0.100204 398.522 0.278571 398.339C0.456939 398.157 0.698855 398.054 0.951104 398.054L599.049 397.803C599.301 397.803 599.543 397.905 599.721 398.088C599.9 398.27 600 398.518 600 398.776C600 399.034 599.9 399.281 599.721 399.464C599.543 399.646 599.301 399.749 599.049 399.749Z" fill="#CACACA"/>
</g>
<defs>
<clipPath id="clip0_3_140">
<rect width="600" height="400" fill="white"/>
</clipPath>
</defs>
</svg>
