<svg width="500" height="711" viewBox="0 0 500 711" fill="none" xmlns="http://www.w3.org/2000/svg">
<g clip-path="url(#clip0_11_88)">
<path d="M395.196 571.941C394.814 572.348 394.433 572.766 394.063 573.185C388.902 578.834 384.238 584.873 380.121 591.239C379.788 591.727 379.468 592.227 379.172 592.715C369.424 608.097 362.787 625.052 359.601 642.72C358.886 646.716 358.349 650.736 357.987 654.779C357.729 657.893 357.573 661.011 357.519 664.132C357.322 677.237 358.554 691.818 349.6 701.833C347.206 704.468 344.284 706.632 341.002 708.2C338.53 709.407 335.918 710.338 333.218 710.977H305.296C303.892 710.779 302.488 710.57 301.084 710.361C301.047 710.361 301.01 710.349 300.973 710.349L300.689 710.442L299.002 710.977L298.928 711V710.977C298.93 710.93 298.926 710.883 298.916 710.837C298.918 710.752 298.914 710.666 298.903 710.582V710.57C298.891 710.338 298.879 710.117 298.879 709.884L298.842 709.269C298.842 709.269 298.83 709.257 298.842 709.257C298.83 708.909 298.805 708.56 298.793 708.2C297.499 677.876 300.652 646.542 315.827 619.843C321.03 610.696 327.731 602.379 335.681 595.201C335.728 595.155 335.777 595.113 335.829 595.073C351.607 580.876 372.004 571.593 393.534 571.907C394.088 571.907 394.642 571.918 395.196 571.941Z" fill="#F0F0F0"/>
<path d="M395.259 572.597C370.875 584.401 351.054 603.152 338.61 626.187C335.838 631.101 333.905 636.396 332.881 641.878C332.066 647.249 332.791 652.727 334.981 657.744C336.922 662.46 339.487 667.073 340.179 672.152C340.493 674.757 340.219 677.395 339.376 679.894C338.533 682.392 337.139 684.694 335.287 686.648C330.805 691.632 324.693 694.799 318.601 697.7C311.837 700.922 304.758 704.167 300.062 709.991C299.493 710.696 298.366 709.822 298.934 709.118C307.104 698.985 321.493 696.775 331.292 688.536C335.865 684.691 339.237 679.524 338.856 673.572C338.524 668.367 335.883 663.608 333.873 658.849C331.662 653.984 330.747 648.683 331.208 643.408C331.932 637.894 333.646 632.538 336.276 627.567C342.008 616.286 349.585 605.926 358.728 596.866C369.103 586.471 381.287 577.826 394.752 571.306C395.585 570.903 396.087 572.197 395.259 572.597H395.259Z" fill="white"/>
<path d="M342.154 618.548C338.341 616.054 335.591 612.362 334.396 608.132C333.201 603.903 333.64 599.41 335.632 595.457C336.038 594.658 337.373 595.216 336.966 596.016C335.104 599.694 334.696 603.879 335.817 607.815C336.938 611.752 339.514 615.181 343.08 617.483C343.854 617.984 342.924 619.046 342.154 618.548Z" fill="white"/>
<path d="M333.662 655.475C343.011 653.959 351.411 649.175 357.186 642.076C357.758 641.372 358.886 642.246 358.315 642.949C352.29 650.325 343.538 655.288 333.806 656.845C332.878 656.993 332.739 655.622 333.662 655.475V655.475Z" fill="white"/>
<path d="M369.869 588.147C371.131 589.402 372.705 590.341 374.447 590.881C376.19 591.421 378.047 591.544 379.853 591.239C380.778 591.081 380.915 592.451 379.996 592.609C378 592.937 375.949 592.799 374.022 592.207C372.095 591.614 370.352 590.586 368.944 589.211C368.799 589.092 368.709 588.926 368.69 588.746C368.671 588.566 368.725 588.386 368.842 588.243C368.965 588.102 369.142 588.013 369.335 587.996C369.527 587.978 369.719 588.032 369.869 588.147Z" fill="white"/>
<path d="M463.197 656.011C462.631 656.127 462.064 656.243 461.485 656.371H461.473C453.754 657.953 446.183 660.121 438.835 662.854C438.268 663.063 437.702 663.272 437.135 663.493H437.123C419.605 670.221 403.554 679.942 389.777 692.167C389.728 692.213 389.678 692.248 389.629 692.295C389.599 692.328 389.566 692.359 389.531 692.387L389.469 692.446C384.003 697.33 378.934 702.597 374.307 708.2C374.307 708.212 374.295 708.223 374.282 708.235C373.543 709.141 372.792 710.047 372.053 710.977H299.002L298.928 711V710.977H298.62C298.62 710.965 298.633 710.953 298.645 710.942C298.645 710.93 298.657 710.93 298.657 710.919C298.743 710.802 298.83 710.686 298.903 710.582V710.57C298.922 710.535 298.947 710.504 298.977 710.477C299.051 710.361 299.137 710.268 299.199 710.163C299.692 709.513 300.172 708.851 300.665 708.2C301.465 707.119 302.278 706.039 303.104 704.97C303.104 704.968 303.104 704.967 303.104 704.966C303.105 704.964 303.106 704.963 303.107 704.962C303.108 704.961 303.11 704.96 303.111 704.959C303.113 704.959 303.114 704.958 303.116 704.958V704.947C303.128 704.935 303.128 704.924 303.14 704.912L303.165 704.889C313.326 691.621 324.756 679.027 337.849 668.477C338.243 668.152 338.638 667.827 339.056 667.525C344.985 662.793 351.317 658.53 357.987 654.779C361.633 652.746 365.39 650.879 369.257 649.179C379.233 644.843 389.869 642.013 400.776 640.791H400.8C400.825 640.791 400.85 640.779 400.887 640.779C400.924 640.779 400.948 640.768 400.973 640.768C422.663 638.398 444.895 642.569 461.904 655.047C462.348 655.372 462.766 655.686 463.197 656.011Z" fill="#F0F0F0"/>
<path d="M298.62 710.977H298.928V711L299.002 710.977H318.549C312.723 710.036 306.909 709.304 301.084 710.361C300.948 710.384 300.825 710.408 300.689 710.443C300.098 710.547 299.507 710.686 298.916 710.837C298.879 710.849 298.83 710.861 298.793 710.872C298.739 710.886 298.689 710.91 298.645 710.942C298.613 710.946 298.584 710.958 298.559 710.977H298.62Z" fill="white"/>
<path d="M462.84 656.581C462.384 656.511 461.941 656.43 461.485 656.371H461.473C451.97 654.91 442.324 654.45 432.713 655C432.233 655.024 431.74 655.059 431.248 655.082C417.907 655.959 404.791 658.777 392.363 663.435C392.351 663.435 392.351 663.435 392.351 663.447C392.216 663.493 392.08 663.54 391.957 663.586C389.062 664.69 386.205 665.898 383.409 667.2C378.059 669.549 373.134 672.678 368.814 676.471C365.355 679.691 362.737 683.624 361.165 687.961C361.005 688.403 360.845 688.833 360.697 689.274C360.586 689.623 360.475 689.983 360.364 690.332C358.911 695.2 358.012 700.335 355.327 704.785C354.579 706.026 353.669 707.173 352.617 708.2C351.531 709.267 350.306 710.2 348.971 710.977H345.867C347.566 710.285 349.141 709.348 350.536 708.2C351.62 707.318 352.569 706.297 353.356 705.168C356.411 700.823 357.347 695.525 358.775 690.587C359.009 689.785 359.256 689.007 359.527 688.229C360.949 683.968 363.331 680.048 366.511 676.738C370.607 672.748 375.392 669.444 380.663 666.967C383.988 665.318 387.404 663.823 390.91 662.483C391.366 662.297 391.822 662.134 392.277 661.971C414.415 653.844 438.456 651.454 461.904 655.047C462.36 655.105 462.803 655.186 463.259 655.256C464.183 655.407 463.764 656.732 462.84 656.581Z" fill="white"/>
<path d="M391.114 663.107C389.661 658.95 389.821 654.441 391.567 650.385C393.313 646.329 396.53 642.991 400.645 640.966C401.479 640.559 402.188 641.763 401.353 642.17C397.518 644.049 394.522 647.159 392.904 650.939C391.286 654.718 391.155 658.919 392.532 662.783C392.83 663.622 391.41 663.942 391.114 663.107H391.114Z" fill="white"/>
<path d="M360.764 687.768C369.196 691.867 378.956 692.818 388.099 690.43C389.004 690.193 389.347 691.531 388.442 691.768C378.924 694.236 368.769 693.227 360.004 688.944C359.169 688.535 359.933 687.362 360.764 687.768Z" fill="white"/>
<path d="M432.646 654.573C432.853 656.292 433.51 657.936 434.556 659.357C435.603 660.777 437.008 661.93 438.644 662.712C439.484 663.111 438.719 664.284 437.884 663.888C436.081 663.016 434.531 661.74 433.371 660.173C432.211 658.606 431.475 656.795 431.228 654.898C431.189 654.721 431.223 654.536 431.322 654.382C431.422 654.227 431.58 654.115 431.765 654.067C431.953 654.024 432.151 654.054 432.316 654.149C432.481 654.244 432.6 654.396 432.646 654.573Z" fill="white"/>
<path d="M390.528 193.199C390.861 154.731 392.519 115.892 395.504 76.6802C395.553 75.9018 395.615 75.135 395.677 74.3566C397.253 53.9434 399.183 33.4566 401.466 12.8962V12.78C401.463 9.39118 400.035 6.14171 397.495 3.74543C394.955 1.34914 391.51 0.00202226 387.917 0H24.5713C20.9908 0.00663588 17.5581 1.34727 15.0205 3.73C12.483 6.11274 11.0461 9.34462 11.0228 12.7219C7.86968 41.0355 5.39808 69.2097 3.60804 97.2445C3.53413 98.1623 3.48489 99.0685 3.43562 99.9864C2.54881 113.847 1.84264 127.673 1.31713 141.463C1.28018 142.277 1.24322 143.09 1.2309 143.903C-2.13181 228.519 1.14108 313.253 11.0228 397.413C11.0487 400.788 12.4867 404.017 15.0241 406.398C17.5614 408.778 20.9927 410.117 24.5713 410.123H387.917C391.51 410.121 394.955 408.774 397.495 406.378C400.035 403.981 401.463 400.732 401.466 397.343V397.215C399.68 382.263 398.111 367.213 396.761 352.067C396.563 349.848 396.371 347.629 396.182 345.41C395.246 334.5 394.429 323.548 393.731 312.553C393.583 310.334 393.447 308.115 393.324 305.896C392.006 283.891 391.144 261.716 390.738 239.37C390.688 237.151 390.651 234.944 390.614 232.713C390.467 221.803 390.422 210.851 390.479 199.857C390.479 197.637 390.491 195.418 390.528 193.199Z" fill="#F0F0F0"/>
<path d="M500 87.1367C499.998 83.7479 498.57 80.4984 496.029 78.1021C493.489 75.7058 490.044 74.3587 486.452 74.3567H123.106C119.525 74.3633 116.093 75.704 113.555 78.0867C111.017 80.4694 109.581 83.7013 109.557 87.0786C97.2897 197.417 95.2574 305.803 103.473 410.123C104.47 423.031 105.636 435.873 106.971 448.649C107.685 455.492 108.445 462.316 109.249 469.12C109.348 470.003 109.446 470.886 109.557 471.769C109.583 475.145 111.021 478.374 113.559 480.755C116.096 483.135 119.527 484.474 123.106 484.48H486.452C490.044 484.478 493.489 483.131 496.029 480.734C498.57 478.338 499.998 475.089 500 471.7V471.572C485.306 348.686 485.306 219.387 500 87.2529V87.1367Z" fill="white"/>
<path d="M500 87.1367C499.998 83.7479 498.57 80.4984 496.029 78.1021C493.489 75.7058 490.044 74.3587 486.452 74.3567H123.106C119.525 74.3633 116.093 75.704 113.555 78.0867C111.017 80.4694 109.581 83.7013 109.557 87.0786C97.2897 197.417 95.2574 305.803 103.473 410.123C104.47 423.031 105.636 435.873 106.971 448.649C107.685 455.492 108.445 462.316 109.249 469.12C109.348 470.003 109.446 470.886 109.557 471.769C109.583 475.145 111.021 478.374 113.559 480.755C116.096 483.135 119.527 484.474 123.106 484.48H486.452C490.044 484.478 493.489 483.131 496.029 480.734C498.57 478.338 499.998 475.089 500 471.7V471.572C485.306 348.686 485.306 219.387 500 87.2529V87.1367ZM497.537 471.769C497.515 474.53 496.337 477.17 494.261 479.116C492.185 481.061 489.378 482.154 486.452 482.156H123.106C120.167 482.152 117.35 481.049 115.272 479.089C113.194 477.129 112.025 474.472 112.021 471.7V471.572C111.934 470.828 111.848 470.073 111.762 469.33C110.912 462.219 110.12 455.09 109.385 447.94C108.092 435.404 106.946 422.799 105.948 410.123C97.7331 305.861 99.7531 197.545 112.021 87.2529V87.1367C112.025 84.3648 113.194 81.7076 115.272 79.7475C117.35 77.7875 120.167 76.6845 123.106 76.6803H486.452C489.381 76.6812 492.19 77.7752 494.267 79.7234C496.344 81.6716 497.519 84.3158 497.537 87.0786C482.843 219.317 482.843 348.756 497.537 471.769Z" fill="#E4E4E4"/>
<path d="M148.151 193.2C147.216 193.202 146.321 193.554 145.66 194.178C145 194.802 144.63 195.648 144.63 196.53C144.63 197.412 145 198.257 145.66 198.882C146.321 199.506 147.216 199.858 148.151 199.86H443.423C444.358 199.858 445.253 199.506 445.913 198.882C446.573 198.257 446.944 197.412 446.944 196.53C446.944 195.648 446.573 194.802 445.913 194.178C445.253 193.554 444.358 193.202 443.423 193.2H148.151Z" fill="#E6E6E6"/>
<path d="M148.151 213.183C147.216 213.184 146.319 213.536 145.659 214.16C144.998 214.785 144.627 215.631 144.627 216.513C144.627 217.395 144.998 218.241 145.659 218.865C146.319 219.49 147.216 219.841 148.151 219.843H348.6C349.536 219.841 350.432 219.49 351.092 218.865C351.753 218.241 352.124 217.395 352.124 216.513C352.124 215.631 351.753 214.785 351.092 214.16C350.432 213.536 349.536 213.184 348.6 213.183H148.151Z" fill="#E6E6E6"/>
<path d="M148.151 232.713C147.216 232.715 146.319 233.067 145.659 233.691C144.998 234.315 144.627 235.161 144.627 236.044C144.627 236.926 144.998 237.772 145.659 238.396C146.319 239.021 147.216 239.372 148.151 239.374H443.423C444.358 239.372 445.255 239.021 445.915 238.396C446.576 237.772 446.947 236.926 446.947 236.044C446.947 235.161 446.576 234.315 445.915 233.691C445.255 233.067 444.358 232.715 443.423 232.713H148.151Z" fill="#E6E6E6"/>
<path d="M148.151 252.696C147.216 252.699 146.321 253.05 145.66 253.675C145 254.299 144.63 255.145 144.63 256.026C144.63 256.908 145 257.754 145.66 258.378C146.321 259.002 147.216 259.354 148.151 259.357H348.6C349.535 259.354 350.431 259.002 351.091 258.378C351.751 257.754 352.121 256.908 352.121 256.026C352.121 255.145 351.751 254.299 351.091 253.675C350.431 253.05 349.535 252.699 348.6 252.696H148.151Z" fill="#E6E6E6"/>
<path d="M148.151 305.896C147.216 305.899 146.321 306.251 145.66 306.875C145 307.499 144.63 308.345 144.63 309.227C144.63 310.108 145 310.954 145.66 311.578C146.321 312.203 147.216 312.554 148.151 312.557H443.423C444.358 312.554 445.253 312.203 445.913 311.578C446.573 310.954 446.944 310.108 446.944 309.227C446.944 308.345 446.573 307.499 445.913 306.875C445.253 306.251 444.358 305.899 443.423 305.896H148.151Z" fill="#E6E6E6"/>
<path d="M148.151 325.879C147.216 325.881 146.319 326.233 145.659 326.857C144.998 327.481 144.627 328.327 144.627 329.21C144.627 330.092 144.998 330.938 145.659 331.562C146.319 332.187 147.216 332.538 148.151 332.54H348.6C349.536 332.538 350.432 332.187 351.092 331.562C351.753 330.938 352.124 330.092 352.124 329.21C352.124 328.327 351.753 327.481 351.092 326.857C350.432 326.233 349.536 325.881 348.6 325.879H148.151Z" fill="#E6E6E6"/>
<path d="M148.151 345.41C147.216 345.412 146.319 345.763 145.659 346.388C144.998 347.012 144.627 347.858 144.627 348.74C144.627 349.622 144.998 350.469 145.659 351.093C146.319 351.717 147.216 352.069 148.151 352.07H443.423C444.358 352.069 445.255 351.717 445.915 351.093C446.576 350.469 446.947 349.622 446.947 348.74C446.947 347.858 446.576 347.012 445.915 346.388C445.255 345.763 444.358 345.412 443.423 345.41H148.151Z" fill="#E6E6E6"/>
<path d="M148.151 365.393C147.216 365.395 146.321 365.747 145.66 366.372C145 366.996 144.63 367.842 144.63 368.723C144.63 369.605 145 370.451 145.66 371.075C146.321 371.699 147.216 372.051 148.151 372.053H348.6C349.535 372.051 350.431 371.699 351.091 371.075C351.751 370.451 352.121 369.605 352.121 368.723C352.121 367.842 351.751 366.996 351.091 366.372C350.431 365.747 349.535 365.395 348.6 365.393H148.151Z" fill="#E6E6E6"/>
<path d="M206.574 151.85H150.178C149.447 151.849 148.747 151.575 148.231 151.088C147.714 150.601 147.424 149.94 147.423 149.251V140.728C147.424 140.039 147.714 139.378 148.231 138.891C148.747 138.404 149.447 138.13 150.178 138.129H206.574C207.305 138.13 208.005 138.404 208.521 138.891C209.038 139.378 209.328 140.039 209.329 140.728V149.251C209.328 149.94 209.038 150.601 208.521 151.088C208.005 151.575 207.305 151.849 206.574 151.85Z" fill="#26548F"/>
<path d="M402.495 426.012L385.221 431.398C382.341 432.295 379.462 433.193 376.583 434.09C373.917 434.918 371.031 435.903 368.177 435.547C366.204 435.301 363.955 434.23 363.341 432.315C362.759 430.504 363.992 428.608 365.485 427.537C369.608 424.579 374.82 427.59 377.741 430.653C381.314 434.4 383.335 439.237 386.686 443.16C389.669 446.677 393.451 449.517 397.752 451.473C406.302 455.281 416.73 454.876 424.355 449.327C433.461 442.702 434.39 431.218 434.438 421.199C434.422 420.748 434.22 420.32 433.875 420.006C433.53 419.692 433.07 419.516 432.591 419.516C432.111 419.516 431.651 419.692 431.306 420.006C430.962 420.32 430.76 420.748 430.743 421.199C430.699 430.279 430.152 441.41 421.375 447.092C412.967 452.534 401.918 451.091 394.177 445.292C389.864 442.06 387.211 437.846 384.379 433.483C381.614 429.224 378.182 425.095 372.979 423.438C370.748 422.674 368.306 422.659 366.064 423.397C363.823 424.135 361.921 425.581 360.68 427.489C360.112 428.39 359.755 429.394 359.631 430.435C359.508 431.476 359.621 432.53 359.963 433.526C360.305 434.523 360.868 435.439 361.615 436.215C362.361 436.99 363.275 437.606 364.294 438.022C370.326 440.734 377.227 437.556 383.036 435.746L403.477 429.374C405.725 428.673 404.762 425.306 402.495 426.013L402.495 426.012Z" fill="#26548F"/>
<path d="M351.305 682.194L339.191 685.958L318.034 643.679L335.911 638.124L351.305 682.194Z" fill="#9F616A"/>
<path d="M359.946 691.795L359.12 689.436L356.953 683.221L355.475 678.992L351.435 680.246L350.597 680.188L339.5 679.48L338.022 679.387L335.829 679.247L333.563 679.096L327.232 687.775H327.22C324.853 688.502 322.664 689.665 320.778 691.197C318.892 692.729 317.347 694.598 316.233 696.698C316.098 696.953 315.975 697.209 315.851 697.465C315.546 698.09 315.287 698.734 315.075 699.393C314.117 702.24 313.939 705.27 314.558 708.2C314.717 708.926 314.919 709.644 315.162 710.349L315.199 710.465L315.346 710.895L316.233 710.616L324.017 708.2L351.287 699.73L356.694 698.045L358.357 697.523H358.369L361.596 696.523L359.946 691.795Z" fill="#2F2E41"/>
<path d="M236.488 692.133L223.735 692.132L217.668 645.731L236.49 645.732L236.488 692.133Z" fill="#9F616A"/>
<path d="M216.078 488.723L210.425 497.948C210.425 497.948 204.213 499.549 206.243 518.65C207.677 532.138 208.141 592.53 211.751 631.764C213.253 648.093 215.3 660.757 218.188 664.849L219.966 666.351L238.524 668.024L238.991 667.87L245.806 622.47C247.029 614.32 246.846 606.037 245.264 597.943L244.032 585.163L261.119 520.453C261.119 520.453 278.519 561.927 289.604 601.428C292.273 610.937 302.409 616.985 306.251 625.145C307.539 627.879 308.804 630.528 310.038 633.069C318.166 649.807 322.24 661.992 325.323 663.005H327.786L342.567 658.358L345.474 651.462L322.86 588.648L305.925 487.228C273.658 470.862 243.391 469.041 216.078 488.723Z" fill="#2F2E41"/>
<path d="M308.511 352.067C307.396 349.752 306.087 347.526 304.594 345.41C301.181 340.393 296.439 336.304 290.836 333.548L285.983 332.537L277.287 330.724L272.706 325.88L265.192 317.944H239.327L235.866 325.88L232.959 332.537L231.715 335.372L209.57 345.816C209.557 345.816 209.557 345.816 209.545 345.828C209.841 347.919 210.132 349.999 210.42 352.067C211.048 356.563 211.639 361.005 212.193 365.393C212.476 367.624 212.747 369.843 213.006 372.05C213.831 378.975 214.542 385.779 215.137 392.464C215.666 398.435 216.089 404.322 216.405 410.123C217.176 423.299 217.233 436.502 216.578 449.683C216.406 452.785 219.669 456.317 219.411 459.35C218.98 464.299 214.927 468.691 214.213 473.419C213.77 476.324 213.967 479.414 213.191 482.156C212.975 482.958 212.652 483.731 212.23 484.457C212.23 484.468 212.218 484.468 212.218 484.48C203.35 499.421 210.309 492.287 209.483 495.645L209.878 495.738C210.062 495.784 210.629 495.924 211.54 496.121C216.75 497.295 238.231 478.276 252.654 478.276C261.313 478.276 284.234 491.706 291.908 492.682C297.98 493.449 303.399 494.146 306.626 491.462C307.563 490.68 308.278 489.689 308.708 488.581L308.745 488.477L308.732 488.372L308.424 484.48L308.24 482.156L305.604 448.812C304.132 447.09 303.202 445.014 302.919 442.818C302.635 440.623 303.011 438.396 304.003 436.392L304.545 435.312L302.549 410.123L302.18 405.418L302.044 403.826V403.815L301.084 391.65L303.399 385.005V384.993L307.907 372.05L310.223 365.393L311.676 361.211L311.775 360.932C310.999 357.883 309.906 354.913 308.511 352.067Z" fill="#26548F"/>
<path d="M330.981 472.21L306.151 411.677L294.618 389.573L316.794 378.017L334.655 407.701L346.627 469.72C348.512 470.934 349.969 472.651 350.811 474.652C351.653 476.652 351.841 478.845 351.353 480.947C350.864 483.05 349.719 484.966 348.067 486.451C346.415 487.935 344.329 488.92 342.079 489.278C339.829 489.636 337.517 489.351 335.44 488.46C333.362 487.569 331.615 486.113 330.422 484.278C329.229 482.443 328.645 480.314 328.744 478.163C328.844 476.013 329.623 473.94 330.981 472.21H330.981Z" fill="#9F616A"/>
<path d="M331.481 388.815L325.126 384.935L317.822 372.05L314.053 365.393L311.676 361.21L310.666 359.421L299.248 352.067L291.538 347.094L285.256 352.067L282.263 354.437L285.195 365.393L286.968 372.05L290.836 386.492L302.18 405.418L305 410.123L306.614 412.83L306.626 412.853L306.848 413.214L335.509 412.087L336.408 412.052L336.457 410.123L336.482 409.426C336.494 409.077 336.494 408.729 336.494 408.38C336.491 401.576 334.772 394.87 331.481 388.815Z" fill="#26548F"/>
<path d="M114.551 448.137L165.347 404.353L183.001 386.198L202.462 401.5L179.615 427.967L122.687 460.988C122.171 463.084 121.003 464.988 119.332 466.454C117.661 467.92 115.564 468.881 113.309 469.213C111.055 469.546 108.746 469.236 106.68 468.322C104.615 467.408 102.886 465.932 101.716 464.084C100.546 462.236 99.9883 460.1 100.115 457.951C100.242 455.802 101.047 453.737 102.426 452.023C103.806 450.309 105.698 449.023 107.859 448.33C110.019 447.638 112.35 447.57 114.551 448.137H114.551Z" fill="#9F616A"/>
<path d="M219.411 372.05L219.312 365.393L219.128 352.067L219.054 346.897L218.844 346.757C217.697 346.048 216.397 345.587 215.038 345.41C213.843 345.223 212.624 345.223 211.429 345.41C210.8 345.502 210.178 345.638 209.57 345.816C209.557 345.816 209.557 345.816 209.545 345.828C205.894 347.064 202.67 349.218 200.221 352.055L200.209 352.067C196.515 356.211 193.241 360.673 190.429 365.393C189.037 367.624 187.707 369.878 186.463 372.05C181.758 380.311 178.371 387.468 178.31 387.595L164.244 404.825L164.441 405.139L167.532 410.123L178.864 428.399L180.662 431.303L185.256 428.991C190.612 426.296 194.834 421.96 197.228 416.699L198.866 410.797L199.47 410.123L215.137 392.463L219.62 387.398L219.411 372.05Z" fill="#26548F"/>
<path d="M273.094 295.207C275.191 283.014 266.413 271.526 253.487 269.548C240.561 267.569 228.382 275.849 226.284 288.042C224.187 300.235 232.965 311.723 245.891 313.702C258.817 315.68 270.996 307.4 273.094 295.207Z" fill="#9F616A"/>
<path d="M226.769 276.962C225.715 273.483 223.607 270.501 224.661 270.501C225.715 270.501 226.242 268.016 226.242 268.016C226.242 268.016 227.295 267.519 227.822 268.016C228.349 268.513 228.876 264.537 228.876 264.537C228.876 264.537 229.403 263.046 229.93 264.04C230.457 265.034 230.457 264.537 230.984 263.046C231.511 261.555 234.145 260.561 234.145 260.561C234.145 260.561 244.157 261.058 245.737 259.07C247.318 257.082 265.233 258.573 268.921 261.058C272.609 263.543 287.141 267.986 278.519 281.928C283.446 290.06 276.091 304.566 274.19 306.287C271.185 309.008 269.104 309.989 254.884 312.658C252.102 313.181 245.264 291.222 245.264 291.222C245.264 291.222 227.822 280.442 226.769 276.962Z" fill="#2F2E41"/>
<path d="M237.258 690.319L236.494 690.029L222.773 684.754L220.667 683.953L211.774 690.319H211.762C206.738 690.325 201.921 692.211 198.369 695.563C194.818 698.916 192.821 703.46 192.819 708.2V708.781H241.507V690.319H237.258Z" fill="#2F2E41"/>
<path d="M380.367 709.583C380.368 709.765 380.33 709.946 380.257 710.114C380.184 710.283 380.076 710.437 379.94 710.566C379.804 710.696 379.642 710.799 379.464 710.869C379.286 710.94 379.094 710.976 378.901 710.977H128.5C128.11 710.977 127.736 710.831 127.46 710.57C127.184 710.31 127.029 709.957 127.029 709.589C127.029 709.22 127.184 708.867 127.46 708.607C127.736 708.346 128.11 708.2 128.5 708.2H378.901C379.29 708.201 379.662 708.347 379.937 708.606C380.211 708.865 380.366 709.216 380.367 709.583Z" fill="#CCCCCC"/>
<path d="M121.849 0C119.912 32.4927 107.249 63.6002 85.6361 88.9668C64.0228 114.333 34.5404 132.689 1.31712 141.463C1.28017 142.277 1.24321 143.09 1.2309 143.903C35.1424 135.103 65.267 116.478 87.3516 90.6578C109.436 64.8372 122.365 33.1255 124.313 0H121.849Z" fill="white"/>
<path d="M84.123 0C78.3992 20.514 68.3091 39.7145 54.4672 56.4325C40.6252 73.1506 23.321 87.0363 3.60804 97.2445C3.53414 98.1623 3.48489 99.0685 3.43562 99.9864C23.8655 89.6307 41.8055 75.4033 56.1294 58.197C70.4534 40.9907 80.852 21.1771 86.6726 0H84.123Z" fill="white"/>
</g>
<defs>
<clipPath id="clip0_11_88">
<rect width="500" height="711" fill="white"/>
</clipPath>
</defs>
</svg>
