<svg width="650" height="536" viewBox="0 0 650 536" fill="none" xmlns="http://www.w3.org/2000/svg">
<g clip-path="url(#clip0_11_133)">
<path d="M518.911 97.634C515.535 135.459 505.915 175.344 490.829 213.827C472.172 261.417 446.683 303.334 417.116 335.046L415.475 333.592C444.899 302.032 470.273 260.3 488.851 212.907C505.641 170.079 515.628 125.51 517.745 84.0376L519.841 84.3945C519.619 88.7745 519.309 93.1876 518.911 97.634Z" fill="#F2F2F2"/>
<path d="M532.36 317.316C490.83 384.49 440.446 432.487 390.488 452.463L389.478 450.579C439.09 430.741 489.179 382.99 530.518 316.123L532.36 317.316Z" fill="#F2F2F2"/>
<path d="M517.903 144.728C514.527 182.553 504.907 222.438 489.821 260.921C471.164 308.511 445.675 350.428 416.108 382.14L414.467 380.686C443.891 349.126 469.265 307.394 487.843 260.001C504.633 217.173 514.62 172.604 516.737 131.131L518.833 131.488C518.611 135.868 518.301 140.281 517.903 144.728Z" fill="#F2F2F2"/>
<path d="M51.6848 241.837H24.4366C23.8545 241.838 23.2796 241.705 22.7551 241.448C22.2306 241.192 21.7701 240.817 21.4082 240.354C21.0507 239.902 20.7985 239.374 20.6704 238.809C20.5424 238.243 20.5419 237.656 20.669 237.091C23.2641 225.449 23.1011 213.346 20.1934 201.781C20.0094 201.019 20.0539 200.219 20.3211 199.484C20.5882 198.748 21.0658 198.11 21.6923 197.653C35.7034 187.408 46.7375 187.705 54.4885 198.538C54.838 199.032 55.0701 199.601 55.1667 200.202C57.2377 212.86 57.3523 225.77 55.5064 238.464C55.3781 239.401 54.9202 240.259 54.2176 240.879C53.515 241.499 52.6152 241.839 51.6848 241.837Z" fill="#E6E6E6"/>
<path d="M43.2372 214.094H33.8638C33.3455 214.094 32.8483 213.884 32.4818 213.512C32.1153 213.139 31.9094 212.634 31.9094 212.107C31.9094 211.58 32.1153 211.074 32.4818 210.702C32.8483 210.329 33.3455 210.12 33.8638 210.12H43.2372C43.7548 210.121 44.2509 210.331 44.6165 210.703C44.9821 211.076 45.1875 211.58 45.1875 212.107C45.1875 212.633 44.9821 213.138 44.6165 213.51C44.2509 213.883 43.7548 214.093 43.2372 214.094Z" fill="white"/>
<path d="M43.2372 221.062H33.8638C33.3455 221.062 32.8483 220.853 32.4818 220.48C32.1153 220.108 31.9094 219.602 31.9094 219.075C31.9094 218.548 32.1153 218.043 32.4818 217.67C32.8483 217.298 33.3455 217.088 33.8638 217.088H43.2372C43.7548 217.089 44.2509 217.299 44.6165 217.672C44.9821 218.044 45.1875 218.549 45.1875 219.075C45.1875 219.602 44.9821 220.106 44.6165 220.479C44.2509 220.851 43.7548 221.061 43.2372 221.062Z" fill="white"/>
<path d="M43.2372 228.031H33.8638C33.3455 228.031 32.8483 227.822 32.4818 227.449C32.1153 227.077 31.9094 226.571 31.9094 226.044C31.9094 225.517 32.1153 225.012 32.4818 224.639C32.8483 224.266 33.3455 224.057 33.8638 224.057H43.2372C43.7548 224.058 44.2509 224.268 44.6165 224.641C44.9821 225.013 45.1875 225.518 45.1875 226.044C45.1875 226.57 44.9821 227.075 44.6165 227.448C44.2509 227.82 43.7548 228.03 43.2372 228.031Z" fill="white"/>
<path d="M546.894 365.531H519.645C519.063 365.532 518.488 365.399 517.964 365.142C517.439 364.885 516.979 364.511 516.617 364.048C516.259 363.596 516.007 363.067 515.879 362.502C515.751 361.937 515.751 361.35 515.878 360.785C518.473 349.143 518.31 337.04 515.402 325.474C515.218 324.713 515.263 323.913 515.53 323.177C515.797 322.442 516.275 321.804 516.901 321.347C530.912 311.102 541.946 311.399 549.697 322.232C550.047 322.726 550.279 323.295 550.375 323.896C552.446 336.554 552.561 349.464 550.715 362.158C550.587 363.095 550.129 363.953 549.426 364.573C548.724 365.193 547.824 365.533 546.894 365.531Z" fill="#E6E6E6"/>
<path d="M538.446 337.788H529.072C528.555 337.786 528.059 337.577 527.693 337.204C527.328 336.832 527.122 336.327 527.122 335.801C527.122 335.274 527.328 334.769 527.693 334.397C528.059 334.024 528.555 333.815 529.072 333.813H538.446C538.964 333.813 539.461 334.023 539.828 334.395C540.194 334.768 540.4 335.274 540.4 335.801C540.4 336.328 540.194 336.833 539.828 337.206C539.461 337.578 538.964 337.788 538.446 337.788Z" fill="white"/>
<path d="M538.446 344.756H529.072C528.555 344.755 528.059 344.545 527.693 344.173C527.328 343.8 527.122 343.296 527.122 342.769C527.122 342.243 527.328 341.738 527.693 341.366C528.059 340.993 528.555 340.783 529.072 340.782H538.446C538.964 340.782 539.461 340.992 539.828 341.364C540.194 341.737 540.4 342.242 540.4 342.769C540.4 343.296 540.194 343.802 539.828 344.174C539.461 344.547 538.964 344.756 538.446 344.756Z" fill="white"/>
<path d="M538.446 351.725H529.072C528.555 351.724 528.059 351.514 527.693 351.142C527.328 350.769 527.122 350.264 527.122 349.738C527.122 349.212 527.328 348.707 527.693 348.334C528.059 347.962 528.555 347.752 529.072 347.751H538.446C538.964 347.751 539.461 347.96 539.828 348.333C540.194 348.706 540.4 349.211 540.4 349.738C540.4 350.265 540.194 350.77 539.828 351.143C539.461 351.516 538.964 351.725 538.446 351.725Z" fill="white"/>
<path d="M650 534.963C650 535.1 649.974 535.235 649.923 535.361C649.872 535.486 649.797 535.601 649.702 535.697C649.607 535.794 649.495 535.87 649.371 535.922C649.247 535.974 649.114 536 648.98 536H1.01955C0.749149 536 0.489832 535.891 0.29863 535.696C0.107428 535.502 0 535.238 0 534.963C0 534.688 0.107428 534.425 0.29863 534.23C0.489832 534.036 0.749149 533.927 1.01955 533.927H648.98C649.114 533.926 649.247 533.953 649.371 534.005C649.495 534.057 649.607 534.133 649.702 534.229C649.797 534.326 649.872 534.44 649.923 534.566C649.974 534.692 650 534.827 650 534.963Z" fill="#CCCCCC"/>
<path d="M170.927 471.496L169.228 447.464C158.095 441.806 145.773 438.997 133.33 439.28C150.835 453.037 149.433 480.532 161.557 499.349C165.382 505.189 170.451 510.078 176.387 513.655C182.324 517.232 188.976 519.405 195.851 520.013L210.419 528.534C212.086 517.335 211.345 505.902 208.247 495.023C205.149 484.144 199.768 474.076 192.475 465.515C188.337 460.753 183.625 456.54 178.452 452.975C175.267 462.271 170.927 471.496 170.927 471.496Z" fill="#F2F2F2"/>
<path d="M479.073 474.98L480.772 450.949C491.905 445.291 504.227 442.481 516.67 442.764C499.165 456.521 500.567 484.016 488.444 502.834C484.618 508.673 479.549 513.562 473.613 517.139C467.676 520.716 461.024 522.889 454.149 523.497L439.581 532.018C437.914 520.82 438.655 509.387 441.753 498.507C444.851 487.628 450.232 477.561 457.525 468.999C461.663 464.237 466.375 460.024 471.548 456.46C474.733 465.755 479.073 474.98 479.073 474.98Z" fill="#F2F2F2"/>
<path d="M317.289 203.783C326.279 203.783 333.568 196.373 333.568 187.233C333.568 178.092 326.279 170.682 317.289 170.682C308.299 170.682 301.011 178.092 301.011 187.233C301.011 196.373 308.299 203.783 317.289 203.783Z" fill="#26548F"/>
<path d="M325.646 180.335C325.401 180.097 325.075 179.965 324.737 179.965C324.398 179.965 324.073 180.097 323.828 180.335C320.374 183.136 317.272 186.358 314.591 189.928C313.932 188.633 313.274 187.338 312.616 186.044C311.856 184.549 309.638 185.869 310.397 187.363C311.359 189.256 312.322 191.15 313.285 193.044C313.401 193.237 313.564 193.397 313.758 193.508C313.953 193.619 314.172 193.677 314.394 193.677C314.617 193.677 314.836 193.619 315.031 193.508C315.225 193.397 315.388 193.237 315.504 193.044C318.361 188.953 321.776 185.296 325.646 182.183C325.885 181.937 326.019 181.605 326.019 181.259C326.019 180.913 325.885 180.581 325.646 180.335Z" fill="white"/>
<path d="M244.451 234.164L219.904 194.969L248.329 179.491L255.79 209.395L308.357 238.276C310.432 237.516 312.68 237.387 314.826 237.904C316.972 238.421 318.924 239.562 320.444 241.188C321.964 242.813 322.985 244.853 323.384 247.059C323.783 249.264 323.542 251.54 322.691 253.609C321.84 255.678 320.415 257.45 318.59 258.71C316.766 259.969 314.62 260.662 312.414 260.703C310.209 260.744 308.04 260.132 306.171 258.942C304.302 257.751 302.814 256.033 301.888 253.997L244.451 234.164Z" fill="#A0616A"/>
<path d="M201.969 147.959C194.256 159.472 221.666 201.323 221.666 201.323C223.001 198.397 235.766 231.259 237.904 229.318C243.98 223.801 253.492 208.432 258.779 207.747C261.802 207.356 251.766 185.554 251.766 185.554C251.766 185.554 247.18 172.679 240.955 156.234C239.281 151.552 236.468 147.376 232.779 144.096C229.09 140.816 224.645 138.538 219.857 137.475C219.857 137.475 209.682 136.445 201.969 147.959Z" fill="#3F3D56"/>
<path d="M202.346 523.077L214.004 523.076L219.55 477.357L202.343 477.358L202.346 523.077Z" fill="#A0616A"/>
<path d="M199.372 519.207L202.653 519.207L215.464 513.91L222.331 519.206H222.332C226.212 519.207 229.933 520.774 232.677 523.564C235.421 526.353 236.963 530.137 236.963 534.082V534.566L199.372 534.567L199.372 519.207Z" fill="#2F2E41"/>
<path d="M256.507 523.077L268.165 523.076L273.712 477.357L256.505 477.358L256.507 523.077Z" fill="#A0616A"/>
<path d="M253.533 519.207L256.815 519.207L269.626 513.91L276.492 519.206H276.493C280.374 519.207 284.095 520.774 286.839 523.564C289.583 526.353 291.124 530.137 291.125 534.082V534.566L253.534 534.567L253.533 519.207Z" fill="#2F2E41"/>
<path d="M261.553 273.129L185.724 275.057C171.322 283.01 171.103 300.223 175.822 320.66C175.822 320.66 174.229 332.807 177.415 336.046C180.601 339.286 182.194 339.286 180.601 344.954C179.008 350.623 187.425 359.881 186.402 360.921C185.38 361.96 182.991 367.629 182.991 367.629L190.955 413.788C190.955 413.788 196.531 493.959 198.124 495.578C199.717 497.198 201.31 495.578 199.717 499.627C198.124 503.676 196.531 502.057 198.124 503.676C199.535 505.223 200.864 506.845 202.106 508.535H221.363C221.363 508.535 222.815 500.437 222.815 499.627C222.815 498.818 224.408 493.959 224.408 493.149C224.408 492.339 223 490.908 223 490.908C222.514 489.261 222.185 487.571 222.019 485.861C222.019 484.241 217.24 421.886 217.24 421.886L226.798 340.905L249.896 420.266C249.896 420.266 249.896 489.91 251.489 491.529C253.082 493.149 253.082 492.339 252.285 495.578C251.489 498.818 248.303 498.008 250.692 500.437C253.082 502.867 253.878 498.818 253.082 502.867L252.285 506.916L276.18 507.263C276.18 507.263 279.366 500.437 277.773 498.008C276.18 495.578 276.276 496.242 278.219 492.266C280.163 488.29 280.959 487.48 280.163 486.67C279.366 485.861 279.366 481.553 279.366 481.553L275.384 404.07C275.384 404.07 274.587 322.28 274.587 319.85C274.527 318.6 274.754 317.353 275.249 316.207V312.909L272.198 301.225L261.553 273.129Z" fill="#2F2E41"/>
<path d="M216.001 112.818C229.014 112.818 239.562 102.093 239.562 88.8637C239.562 75.634 229.014 64.9092 216.001 64.9092C202.989 64.9092 192.441 75.634 192.441 88.8637C192.441 102.093 202.989 112.818 216.001 112.818Z" fill="#A0616A"/>
<path d="M227.782 128.65C232.858 131.718 235.894 137.356 237.637 143.092C240.864 153.712 242.806 164.692 243.421 175.79L245.262 209.014L268.063 279.758C248.302 296.758 174.025 283.621 174.025 283.621C174.025 283.621 171.745 282.849 174.025 280.531C176.305 278.212 178.525 280.266 176.245 277.948C173.965 275.63 175.537 278.212 176.297 275.894C177.057 273.576 176.297 275.122 175.537 274.349C174.777 273.576 181.42 266.621 181.42 266.621L175.34 226.014L167.74 144.105C176.86 132.514 195.202 125.681 195.202 125.681L199.942 117.008L223.638 118.935L227.782 128.65Z" fill="#3F3D56"/>
<path d="M235.423 76.1368C237.255 77.5254 238.611 79.463 239.302 81.6767C239.568 78.059 239.585 74.4269 239.353 70.8067C239.075 68.2629 237.314 67.6907 235.274 67.0276C233.432 66.4286 231.349 65.752 230.788 63.2824C223.382 55.9572 210.49 56.3266 201.666 58.8817C196.811 60.2878 194.018 62.0943 193.768 63.1526L193.716 63.3704L193.519 63.4707C189.776 65.3731 189.048 71.3808 189.096 76.0855C189.187 84.9495 192.197 95.0168 193.893 95.8346C193.983 95.8779 194.006 95.8609 194.044 95.828C196.598 93.7533 199.713 95.9857 201.082 97.1992C201.89 91.6901 204.49 86.615 208.467 82.7845C212.444 78.9539 217.569 76.5889 223.023 76.0672C224.805 75.8922 226.572 75.5909 228.312 75.1656C229.194 74.9335 230.102 74.8124 231.013 74.8052C232.582 74.781 234.122 75.2456 235.423 76.1368Z" fill="#2F2E41"/>
<path d="M381.685 292.217L427.008 245.424L438.948 207.999L419.733 200.097C410.214 209.859 400.415 239.744 400.415 239.744L369.481 281.956C369.234 282.049 368.988 282.148 368.745 282.264C367.321 282.948 366.094 283.994 365.184 285.3C364.273 286.607 363.71 288.13 363.547 289.723C363.385 291.316 363.629 292.924 364.257 294.393C364.885 295.861 365.875 297.14 367.131 298.106C368.387 299.072 369.867 299.693 371.427 299.907C372.988 300.122 374.577 299.924 376.04 299.332C377.504 298.739 378.792 297.774 379.781 296.527C380.77 295.281 381.426 293.796 381.685 292.217Z" fill="#FFB8B8"/>
<path d="M414.491 204.378L438.792 211.525L438.882 211.508C447.814 209.744 454.88 194.652 459.235 182.302C460.667 178.228 460.525 173.753 458.837 169.782C457.148 165.811 454.04 162.64 450.14 160.91C447.255 159.653 444.081 159.242 440.978 159.723C437.875 160.204 434.967 161.558 432.581 163.632L420.465 174.24L414.491 204.378Z" fill="#26548F"/>
<path d="M393.7 521.687L380.631 521.686L374.415 470.436L393.702 470.437L393.7 521.687Z" fill="#FFB8B8"/>
<path d="M397.034 517.349L393.356 517.349L378.994 511.411L371.297 517.348H371.296C366.946 517.348 362.774 519.105 359.699 522.232C356.623 525.359 354.895 529.601 354.894 534.023V534.565L397.033 534.567L397.034 517.349Z" fill="#2F2E41"/>
<path d="M451.689 521.687L438.62 521.686L432.403 470.436L451.691 470.437L451.689 521.687Z" fill="#FFB8B8"/>
<path d="M455.022 517.349L451.344 517.349L436.983 511.411L429.285 517.348H429.284C424.934 517.348 420.763 519.105 417.687 522.232C414.611 525.359 412.883 529.601 412.883 534.023V534.565L455.022 534.567L455.022 517.349Z" fill="#2F2E41"/>
<path d="M471.616 300.932C471.616 300.932 473.142 319.55 469.327 337.393C465.512 355.235 465.512 405.485 465.512 405.485L457.119 503.405L431.94 501.078L425.073 337.393L400.657 392.472L402.946 400.229L399.897 402.169C399.897 402.169 402.183 417.296 400.657 417.296C399.13 417.296 395.315 419.623 395.315 419.623L398.367 499.526L372.425 498.751L363.269 386.266L373.188 321.878L373.951 309.466L377.385 309.609L379.133 304.423L382.344 295.502L471.616 300.932Z" fill="#2F2E41"/>
<path d="M472.935 304.843L473.071 304.649C480.333 294.311 469.41 269.47 467.763 265.869L474.702 263.579L473.139 250.075L472.399 244.055L477.702 238.663L477.717 238.528L480.769 211.377L485.207 193.343C486.879 186.525 486.736 179.378 484.794 172.636C482.852 165.893 479.179 159.797 474.154 154.974L463.897 145.141L451.431 126.387H431.328L424.436 139.624C417.753 141.195 411.824 145.099 407.681 150.657C403.539 156.214 401.445 163.074 401.765 170.039L403.327 204.757L397.212 247.982L397.208 255.805L390.326 263.582L391.829 271.221L386.591 273.504L384.278 284.476C383.321 285.76 377.003 294.325 377.003 296.666C377.003 297.018 377.259 297.357 377.806 297.734C382.112 300.698 405.908 306.741 416.44 302.456C427.658 297.896 472.254 304.737 472.703 304.807L472.935 304.843Z" fill="#26548F"/>
<path d="M438.783 120.333C453.487 120.333 465.406 108.214 465.406 93.2647C465.406 78.3152 453.487 66.1963 438.783 66.1963C424.079 66.1963 412.159 78.3152 412.159 93.2647C412.159 108.214 424.079 120.333 438.783 120.333Z" fill="#FFB8B8"/>
<path d="M436.232 120.771C440.355 120.728 444.467 120.328 448.523 119.573C452.539 118.633 461.398 111.668 463.813 107.553C465.607 104.496 466.684 99.7668 467.271 96.3384C468.064 91.8011 467.911 87.145 466.822 82.6716C465.733 78.1982 463.732 74.0073 460.949 70.3702C459.876 68.8465 458.418 67.6459 456.729 66.8956C456.579 66.8406 456.426 66.7925 456.271 66.752C453.823 66.1653 451.603 64.8481 449.896 62.9694C449.565 62.589 449.207 62.2334 448.826 61.9054C446.911 60.347 444.661 59.2713 442.26 58.7664C438.38 57.819 432.83 59.0062 425.764 62.2978C422.214 63.9516 418.274 63.4902 415.238 62.9035C415.068 62.8747 414.893 62.8917 414.731 62.9528C414.569 63.014 414.426 63.1171 414.316 63.252C413.062 64.512 411.386 65.243 409.624 65.2978C408.545 65.3743 407.452 66.9236 406.133 68.941C405.834 69.3989 405.485 69.9334 405.232 70.2596L405.181 69.647L404.588 70.3474C403.655 71.4481 403.012 72.7709 402.718 74.1924C402.423 75.614 402.488 77.0882 402.905 78.4776C403.322 79.8671 404.078 81.1267 405.103 82.1391C406.127 83.1515 407.387 83.8838 408.765 84.2679C409.858 84.5331 410.975 84.6841 412.099 84.7186C412.78 84.7629 413.484 84.8088 414.161 84.9099C416.334 85.3033 418.37 86.2628 420.07 87.6949C421.769 89.127 423.074 90.9826 423.858 93.0808C424.043 93.5656 424.335 94.0008 424.712 94.3526C425.089 94.7045 425.54 94.9636 426.031 95.11C426.521 95.2565 427.039 95.2863 427.543 95.1971C428.047 95.108 428.524 94.9023 428.937 94.5959C429.625 94.022 430.439 93.6256 431.309 93.4407C432.18 93.2558 433.082 93.2877 433.938 93.5338C434.683 93.9294 435.27 94.5732 435.603 95.3573C436.006 96.2299 436.655 96.9609 437.468 97.4569C440.24 98.819 440.59 105.166 439.742 110.488C438.924 115.617 437.146 119.358 435.418 119.586C434.087 119.762 433.937 119.862 433.846 120.105L433.765 120.322L433.92 120.519C434.664 120.771 435.453 120.857 436.232 120.771Z" fill="#2F2E41"/>
<path d="M414.144 207.273L401.347 190.695C388.312 194.344 365.182 215.305 365.182 215.305L317.682 236.263C316.096 235.992 314.469 236.151 312.963 236.723C311.457 237.295 310.126 238.26 309.103 239.521C308.081 240.783 307.403 242.295 307.139 243.908C306.874 245.52 307.032 247.175 307.597 248.705C308.161 250.235 309.112 251.588 310.354 252.626C311.596 253.664 313.084 254.351 314.67 254.618C316.256 254.885 317.884 254.722 319.388 254.147C320.893 253.571 322.222 252.602 323.241 251.339L385.465 233.689L414.144 207.273Z" fill="#FFB8B8"/>
<path d="M411.077 211.063L431.269 188.178L432.39 171.962C432.599 168.778 431.927 165.597 430.452 162.781C428.976 159.964 426.755 157.623 424.039 156.023C420.344 153.878 415.985 153.24 411.845 154.238C407.704 155.236 404.091 157.795 401.736 161.398C394.601 172.331 386.926 187.112 390.875 195.446L390.915 195.53L411.077 211.063Z" fill="#26548F"/>
<path d="M224.968 297.082L172.488 269.756C168.755 267.812 167.518 262.656 169.731 258.263L203.95 190.332C206.163 185.939 211 183.946 214.733 185.89L267.214 213.217C270.947 215.161 272.183 220.316 269.97 224.71L235.752 292.64C233.538 297.033 228.701 299.026 224.968 297.082Z" fill="#E6E6E6"/>
<path d="M216.001 284.52L180.345 265.954C176.849 264.133 175.691 259.305 177.764 255.19L206.192 198.755C208.264 194.64 212.795 192.774 216.291 194.595L259.356 217.019C262.852 218.839 264.01 223.668 261.938 227.782L246.494 258.441C237.262 276.769 231.574 292.629 216.001 284.52Z" fill="white"/>
<path d="M233.63 253.701L202.049 237.256C201.663 236.976 201.388 236.565 201.276 236.096C201.164 235.628 201.221 235.134 201.437 234.705C201.653 234.276 202.014 233.94 202.453 233.759C202.893 233.578 203.382 233.564 203.831 233.719L235.412 250.164C235.798 250.444 236.072 250.855 236.185 251.324C236.297 251.792 236.24 252.286 236.024 252.715C235.808 253.144 235.447 253.48 235.008 253.661C234.568 253.842 234.079 253.856 233.63 253.701Z" fill="#26548F"/>
<path d="M205.736 247.997L198.529 244.244C198.143 243.965 197.868 243.553 197.756 243.085C197.644 242.616 197.701 242.123 197.917 241.693C198.133 241.264 198.494 240.929 198.933 240.748C199.373 240.567 199.862 240.552 200.311 240.707L207.518 244.46C207.904 244.74 208.178 245.152 208.29 245.62C208.403 246.088 208.346 246.582 208.13 247.011C207.913 247.44 207.553 247.776 207.113 247.957C206.674 248.138 206.185 248.152 205.736 247.997Z" fill="#26548F"/>
<path d="M214.981 261.632L195.009 251.233C194.622 250.953 194.348 250.541 194.236 250.073C194.123 249.605 194.181 249.111 194.397 248.682C194.613 248.253 194.974 247.917 195.413 247.736C195.853 247.555 196.341 247.541 196.79 247.696L216.762 258.095C217.149 258.375 217.423 258.787 217.535 259.255C217.648 259.723 217.59 260.217 217.374 260.646C217.158 261.075 216.797 261.411 216.358 261.592C215.918 261.773 215.43 261.787 214.981 261.632V261.632Z" fill="#26548F"/>
<path d="M246.128 228.891L214.546 212.446C214.16 212.166 213.886 211.755 213.774 211.286C213.661 210.818 213.718 210.324 213.935 209.895C214.151 209.466 214.511 209.13 214.951 208.949C215.39 208.768 215.879 208.754 216.328 208.909L247.91 225.354C248.296 225.633 248.57 226.045 248.682 226.513C248.795 226.982 248.738 227.476 248.521 227.905C248.305 228.334 247.945 228.669 247.505 228.851C247.066 229.032 246.577 229.046 246.128 228.891Z" fill="#26548F"/>
<path d="M218.233 223.187L211.026 219.434C210.64 219.155 210.366 218.743 210.253 218.275C210.141 217.806 210.198 217.312 210.414 216.883C210.631 216.454 210.991 216.119 211.431 215.938C211.87 215.756 212.359 215.742 212.808 215.897L220.015 219.65C220.401 219.93 220.676 220.342 220.788 220.81C220.9 221.278 220.843 221.772 220.627 222.201C220.411 222.63 220.05 222.966 219.611 223.147C219.171 223.328 218.682 223.342 218.233 223.187Z" fill="#26548F"/>
<path d="M227.478 236.822L207.506 226.422C207.12 226.142 206.846 225.731 206.733 225.262C206.621 224.794 206.678 224.3 206.894 223.871C207.11 223.442 207.471 223.106 207.911 222.925C208.35 222.744 208.839 222.73 209.288 222.885L229.26 233.285C229.646 233.564 229.92 233.976 230.033 234.444C230.145 234.913 230.088 235.407 229.872 235.836C229.656 236.265 229.295 236.601 228.856 236.782C228.416 236.963 227.927 236.977 227.478 236.822L227.478 236.822Z" fill="#26548F"/>
<path d="M181.48 237.943L169.624 193.067L201.306 186.969L199.603 217.772L241.231 261.351C243.435 261.26 245.617 261.822 247.512 262.97C249.407 264.118 250.932 265.801 251.902 267.815C252.873 269.829 253.245 272.086 252.976 274.312C252.706 276.538 251.805 278.635 250.382 280.349C248.96 282.063 247.078 283.32 244.966 283.965C242.853 284.61 240.602 284.617 238.486 283.984C236.37 283.351 234.481 282.105 233.049 280.399C231.617 278.694 230.705 276.601 230.422 274.377L181.48 237.943Z" fill="#A0616A"/>
<path d="M166.382 142.752C155.627 151.384 169.431 199.666 169.431 199.666C171.568 197.282 174.051 232.523 176.663 231.323C184.087 227.913 197.694 216.152 202.94 217.111C205.94 217.659 202.797 193.8 202.797 193.8C202.797 193.8 202.219 180.12 201.132 162.534C200.916 157.557 199.464 152.715 196.913 148.462C194.361 144.208 190.792 140.679 186.538 138.205C186.538 138.205 177.136 134.12 166.382 142.752Z" fill="#3F3D56"/>
<path d="M345.321 337.548L316.683 323.799C316.071 323.506 315.531 323.077 315.105 322.542C314.68 322.008 314.378 321.382 314.224 320.712C314.069 320.057 314.062 319.374 314.203 318.716C314.344 318.057 314.631 317.44 315.04 316.91C323.336 306.13 329.032 293.525 331.672 280.103C331.872 279.076 332.416 278.15 333.211 277.484C334.007 276.819 335.005 276.454 336.035 276.453C350.641 276.504 361.557 281.926 368.479 292.567C368.844 293.121 369.086 293.749 369.188 294.407C369.29 295.065 369.249 295.738 369.069 296.379C365.061 310.424 358.962 323.763 350.984 335.932C350.392 336.852 349.492 337.522 348.451 337.82C347.41 338.117 346.298 338.02 345.321 337.548Z" fill="#E6E6E6"/>
<path d="M353.746 318.264L331.849 307.751C331.304 307.489 330.884 307.019 330.681 306.442C330.477 305.865 330.508 305.23 330.765 304.676C331.022 304.123 331.485 303.695 332.052 303.489C332.619 303.282 333.244 303.313 333.789 303.574L355.686 314.087C355.956 314.217 356.198 314.399 356.398 314.623C356.599 314.848 356.754 315.111 356.854 315.396C356.955 315.682 356.999 315.984 356.985 316.287C356.97 316.59 356.897 316.887 356.77 317.162C356.643 317.436 356.463 317.682 356.243 317.886C356.022 318.09 355.763 318.247 355.483 318.35C355.202 318.452 354.904 318.497 354.606 318.482C354.308 318.468 354.016 318.393 353.746 318.264H353.746Z" fill="white"/>
<path d="M357.148 310.94L335.251 300.427C334.706 300.165 334.286 299.694 334.082 299.118C333.879 298.541 333.909 297.906 334.166 297.352C334.424 296.798 334.887 296.371 335.454 296.164C336.021 295.958 336.646 295.988 337.19 296.25L359.088 306.763C359.632 307.024 360.053 307.495 360.256 308.072C360.459 308.648 360.429 309.284 360.172 309.837C359.915 310.391 359.451 310.819 358.884 311.025C358.317 311.232 357.693 311.201 357.148 310.94V310.94Z" fill="white"/>
<path d="M327.888 81.0238L325.85 81.2508C316.762 44.9403 299.146 19.7848 274.905 8.50325C244.09 -5.83757 205.985 3.79256 167.61 35.62C129.04 67.61 94.8948 118.14 71.4661 177.905L69.4883 176.985C93.0199 116.959 127.34 66.1846 166.126 34.0168C205.107 1.68638 243.99 -8.01435 275.611 6.70195C300.547 18.3067 318.624 44.0069 327.888 81.0238Z" fill="#F2F2F2"/>
<path d="M103.01 128.313C97.6798 139.73 92.6097 151.558 87.9405 163.469C61.072 232.007 47.4562 302.003 48.5689 365.894L46.469 365.666C45.3552 301.538 59.0102 231.301 85.9628 162.548C90.6453 150.605 95.7299 138.743 101.076 127.294L103.01 128.313Z" fill="#F2F2F2"/>
<path d="M102.002 175.408C96.6719 186.825 91.6017 198.653 86.9326 210.563C60.0641 279.102 46.4483 349.098 47.5609 412.988L45.461 412.76C44.3472 348.632 58.0022 278.395 84.9548 209.643C89.6374 197.699 94.7219 185.837 100.068 174.388L102.002 175.408Z" fill="#F2F2F2"/>
<path d="M45.562 192.535C47.8834 188.987 46.5094 183.909 42.4932 181.193C38.4769 178.476 33.3393 179.149 31.018 182.697C28.6966 186.244 30.0706 191.322 34.0868 194.039C38.1031 196.756 43.2407 196.082 45.562 192.535Z" fill="#CCCCCC"/>
<path d="M539.864 320.644C542.186 317.097 540.812 312.019 536.795 309.302C532.779 306.585 527.641 307.259 525.32 310.806C522.999 314.354 524.373 319.432 528.389 322.148C532.405 324.865 537.543 324.192 539.864 320.644Z" fill="#CCCCCC"/>
</g>
<defs>
<clipPath id="clip0_11_133">
<rect width="650" height="536" fill="white"/>
</clipPath>
</defs>
</svg>
