<svg id="Layer_1" data-name="Layer 1" xmlns="http://www.w3.org/2000/svg" viewBox="0 0 484.84 99.68"><defs><style>.cls-1{fill:#fff;}.cls-2{fill:#fff;}</style></defs><path class="cls-1" d="M88.22,392c.83.54,1.64,1.1,2.49,1.59a43.26,43.26,0,0,0,13.17,4.95,52.76,52.76,0,0,0,14,.94c9.24-.63,18.16-2.6,26.19-7.46a46.57,46.57,0,0,0,5.57-4.49c.7-.6,2.25-.76,2.84-.07.15.18,0,.73-.13,1-1.57,2.48-3.34,4.84-4.73,7.41a7.15,7.15,0,0,1-5.8,4c-3.85.56-7.66,1.38-11.45,2.27-8,1.87-16.16,1.94-24.3,1.65-8.74-.32-17.33-1.63-25.46-5.15a39.16,39.16,0,0,1-15.4-11.79,46.34,46.34,0,0,1-9.77-21.75,53.12,53.12,0,0,1-.64-12.48,53.74,53.74,0,0,1,4.69-18.26,48.48,48.48,0,0,1,12.77-17.14,52.63,52.63,0,0,1,21.44-11,67.19,67.19,0,0,1,22.33-1.7c6.52.56,12.67,2.57,18.84,4.67a7,7,0,0,1,5,5.48c.53,2.14,1.45,4.18,2.19,6.27.13.36.23.73.35,1.08a2.66,2.66,0,0,1-3.27-.44,45.21,45.21,0,0,0-18.76-11.23A48.35,48.35,0,0,0,101,309a43.86,43.86,0,0,0-13.06,3.54,39,39,0,0,0-13.58,10.25,35.75,35.75,0,0,0-7.46,13.61,31.32,31.32,0,0,0-1.19,11.26c.41-1.3.82-2.6,1.25-3.89a42.63,42.63,0,0,1,11.33-18.17,39.89,39.89,0,0,1,12.94-8.25,34.8,34.8,0,0,1,10.7-2.46c2.52-.13,5.06-.44,7.58-.32,12.62.58,22.79,5.71,29.75,16.5a27.2,27.2,0,0,1,4.2,11.26,47.89,47.89,0,0,1,.7,7.43c-.3,10.55-3.14,20.26-9.9,28.62a39.2,39.2,0,0,1-20,13.43,49.13,49.13,0,0,1-15.36,1.73A38.56,38.56,0,0,1,89.14,392c-.27-.08-.55-.13-.82-.19ZM71.77,349c.31,2.39.59,4.79.93,7.19a32.52,32.52,0,0,0,3.4,10.21,43.85,43.85,0,0,0,12.84,15.18,28.94,28.94,0,0,0,11.22,5.4c10.11,2.27,19.2-.22,26.89-6.89,8.66-7.51,12-17.19,9.89-28.56a36.25,36.25,0,0,0-9.57-18.36,42.42,42.42,0,0,0-15.66-10.45c-5.15-2.07-10.48-3.09-16-2a30.2,30.2,0,0,0-18,11.16C73.61,336.79,71.93,342.6,71.77,349Z" transform="translate(-54.62 -304.19)"/><path class="cls-2" d="M213.17,369.74l-.41-.13a.91.91,0,0,0-1,.27,16.17,16.17,0,0,1-7.23,4.35,32.19,32.19,0,0,1-10.16,1.67,21.91,21.91,0,0,1-13.31-4A23.85,23.85,0,0,1,173,361.47a30.69,30.69,0,0,1-2.58-11.26A17.85,17.85,0,0,1,176.13,337c3.78-3.65,8.82-5.49,15-5.49A21.4,21.4,0,0,1,206.65,338a.91.91,0,0,0,.65.27h.47a.92.92,0,0,0,.74-.39.94.94,0,0,0,.12-.83l-1.77-5a.89.89,0,0,0-.23-.35,1.14,1.14,0,0,0-.44-.26l-2.1-.8a40.28,40.28,0,0,0-5-1.53A32.4,32.4,0,0,0,177.42,332a24.83,24.83,0,0,0-9.85,9.8,26.69,26.69,0,0,0-3.4,12.92,24.37,24.37,0,0,0,6.65,17.11c4.43,4.76,11.82,7.18,22,7.18a51.35,51.35,0,0,0,6.53-.33c1.61-.22,5.14-.91,10.49-2.07a.92.92,0,0,0,.57-.39l3.31-5.08a.91.91,0,0,0-.5-1.36Z" transform="translate(-54.62 -304.19)"/><path class="cls-2" d="M262.3,328.39a26,26,0,0,0-24.3,15,29.94,29.94,0,0,0-3.11,12.85,22.26,22.26,0,0,0,6.52,16c4.33,4.45,10,6.7,16.74,6.7,8.3,0,15.07-2.78,20.11-8.26a28.92,28.92,0,0,0,7.56-20.24,21,21,0,0,0-6.61-15.77C274.84,330.51,269.15,328.39,262.3,328.39Zm9,43.75a19,19,0,0,1-9.2,2.5c-5.51,0-10.56-2.46-15-7.31a24.52,24.52,0,0,1-6.76-17.05,16.38,16.38,0,0,1,5.44-12.5,17.56,17.56,0,0,1,12.15-5.06,22.14,22.14,0,0,1,10.4,3.07,25.12,25.12,0,0,1,9.21,8.5,21.46,21.46,0,0,1,3.53,12,17.44,17.44,0,0,1-2.6,9A18.66,18.66,0,0,1,271.3,372.14Z" transform="translate(-54.62 -304.19)"/><path class="cls-2" d="M321,365h-.48a.91.91,0,0,0-.91.87c-.14,3.55-.78,6-1.91,7.16s-3,1.77-5.45,1.77h-5.78c-3.07,0-5.24-.52-6.43-1.54s-1.73-2.77-1.73-5.33V334.76a9.16,9.16,0,0,1,.17-2.45,1.25,1.25,0,0,1,.56-.6,4,4,0,0,1,2-.31.91.91,0,0,0,.91-.91V330a.91.91,0,0,0-.91-.91H288.36a.91.91,0,0,0-.91.91v.48a.91.91,0,0,0,.89.91c2,.05,2.31.51,2.31.52a5.4,5.4,0,0,1,.4,2.52v38.71a3.72,3.72,0,0,1-.47,2.29c-.09.11-.51.49-2.16.49a.91.91,0,0,0-.91.91v.48a.91.91,0,0,0,.91.91H321a.91.91,0,0,0,.91-.91V366A.91.91,0,0,0,321,365Z" transform="translate(-54.62 -304.19)"/><path class="cls-2" d="M338.67,329.1H326.05a.91.91,0,0,0-.91.91v.48a.91.91,0,0,0,.28.66.92.92,0,0,0,.68.25c1.1-.06,1.83.11,2.06.48s.51,1.23.51,3.94v35.95c0,2.69-.31,3.46-.44,3.67s-.4.49-2.18.49a.91.91,0,0,0-.91.91v.48a.91.91,0,0,0,.91.91h12.62a.91.91,0,0,0,.91-.91v-.48a.91.91,0,0,0-.91-.91,4,4,0,0,1-2-.3,1.24,1.24,0,0,1-.56-.63,13.53,13.53,0,0,1-.19-3.3V335.4a15,15,0,0,1,.18-3.25c0-.17.33-.36.76-.51a4.11,4.11,0,0,1,1.69-.24,1,1,0,0,0,.7-.23.93.93,0,0,0,.3-.68V330A.91.91,0,0,0,338.67,329.1Z" transform="translate(-54.62 -304.19)"/><path class="cls-2" d="M386.38,329.1h-7.1a.91.91,0,0,0-.91.91v.48a.88.88,0,0,0,.29.66.92.92,0,0,0,.67.25,1.58,1.58,0,0,1,.7.06v0a2.4,2.4,0,0,1-.23.84l-13.71,34.29-13.83-34.27a2.34,2.34,0,0,1-.14-.73c0-.11,0-.17,0-.17a.83.83,0,0,1,.46,0,1,1,0,0,0,.69-.24,1,1,0,0,0,.28-.67V330a.91.91,0,0,0-.91-.91H341.73a.91.91,0,0,0-.91.91v.48a.91.91,0,0,0,.91.91,3.36,3.36,0,0,1,1.88.61c.28.18,1.09,1,2.61,4.73l16.85,41.66a.91.91,0,0,0,.84.57h.61a.93.93,0,0,0,.85-.57l17.7-44.15.85-1.43c.62-1,1-1.21,1.13-1.24a5.43,5.43,0,0,1,1.33-.18.91.91,0,0,0,.91-.91V330A.91.91,0,0,0,386.38,329.1Z" transform="translate(-54.62 -304.19)"/><path class="cls-2" d="M422.11,369.92h-.48a.91.91,0,0,0-.9.78c-.34,2.22-.78,2.88-1,3.06a2.84,2.84,0,0,1-1.43.83,26.15,26.15,0,0,1-4.87.25h-8.34a15.54,15.54,0,0,1-3.78-.34,2,2,0,0,1-1.35-1.3,13,13,0,0,1-.53-4.42V355.07h14a4.47,4.47,0,0,1,1.76.21.89.89,0,0,1,.29.61.92.92,0,0,0,.9.76h.48a.91.91,0,0,0,.91-.91v-4.47a.91.91,0,0,0-.91-.91h-.48a.91.91,0,0,0-.91.87.51.51,0,0,1-.22.47,5.5,5.5,0,0,1-2.21.23H399.48v-19.4h14.69c2.18,0,2.58.36,2.6.38s.52.64,1.38,3.85a.9.9,0,0,0,.87.68h.49a.91.91,0,0,0,.91-.91V330a.91.91,0,0,0-.91-.91H389.76a.91.91,0,0,0-.91.91v.54a.92.92,0,0,0,.91.92c1.36,0,2,.27,2.06.5a9.43,9.43,0,0,1,.37,3.3v38.2c0,1.35-.26,1.87-.42,2a4.41,4.41,0,0,1-2.06.49.92.92,0,0,0-.86.91v.48a.91.91,0,0,0,.91.91h32.35a.91.91,0,0,0,.91-.91v-6.49A.91.91,0,0,0,422.11,369.92Z" transform="translate(-54.62 -304.19)"/><path class="cls-2" d="M438.24,329.1H425.62a.91.91,0,0,0-.91.91v.48a.88.88,0,0,0,.29.66.89.89,0,0,0,.67.25c1.11-.06,1.84.11,2.07.48s.5,1.23.5,3.94v35.95c0,2.69-.3,3.46-.43,3.67s-.4.49-2.19.49a.91.91,0,0,0-.91.91v.48a.91.91,0,0,0,.91.91h12.62a.91.91,0,0,0,.91-.91v-.48a.91.91,0,0,0-.91-.91,4,4,0,0,1-2-.3,1.24,1.24,0,0,1-.56-.63,14.13,14.13,0,0,1-.18-3.3V335.4a15.49,15.49,0,0,1,.17-3.25c.05-.17.33-.36.76-.51a4.13,4.13,0,0,1,1.69-.24.93.93,0,0,0,.7-.23.9.9,0,0,0,.3-.68V330A.91.91,0,0,0,438.24,329.1Z" transform="translate(-54.62 -304.19)"/><path class="cls-2" d="M493.51,374.36l-.2-.64a.91.91,0,0,0-.54-.59.88.88,0,0,0-.79.07,10.26,10.26,0,0,1-5,1.7,9.36,9.36,0,0,1-4.53-1.31c-1.59-.89-3.94-3.47-7-7.68s-5-7.11-5.75-8.36l0-.05-2.82-4.34a18.32,18.32,0,0,0,5.6-5.31,13.12,13.12,0,0,0,2.32-7.36,11.64,11.64,0,0,0-1.34-5.77,9.74,9.74,0,0,0-4-3.8,13.7,13.7,0,0,0-5-1.59c-1.55-.15-4.06-.23-7.48-.23H443.56a.91.91,0,0,0-.91.91v.48a.91.91,0,0,0,.89.91c1.17,0,1.93.26,2.09.66a7.36,7.36,0,0,1,.42,2.7v37.58c0,2.17-.29,2.85-.42,3s-.39.48-2.11.55a.91.91,0,0,0-.87.91v.48a.91.91,0,0,0,.91.91h12.2a.91.91,0,0,0,.91-.91v-.48a.91.91,0,0,0-.91-.91c-1.56,0-1.92-.39-2-.51a5.37,5.37,0,0,1-.44-2.65V355.59h2.95l3.7-.12,4.4,6.78a1.49,1.49,0,0,0,.18.3c5,7.39,8.37,11.8,10.42,13.49a11.71,11.71,0,0,0,7.64,2.64,16.28,16.28,0,0,0,10.59-3.35A.92.92,0,0,0,493.51,374.36Zm-40.18-42.19h3c4.35,0,7.4,1.19,9.06,3.52a13.15,13.15,0,0,1,2.62,7.74,8.75,8.75,0,0,1-2.56,6.61c-1.7,1.66-4.41,2.51-8.05,2.51h-4.05Z" transform="translate(-54.62 -304.19)"/><path class="cls-2" d="M538.54,375.93a3.29,3.29,0,0,1-3.13-2.2h0A23.8,23.8,0,0,1,534.2,371a1,1,0,0,0-.06-.25L517.27,329a.93.93,0,0,0-.85-.57h-.85a.9.9,0,0,0-.84.58l-17.15,43.26c-1,2.38-1.58,3-1.81,3.18a3,3,0,0,1-1.84.52.91.91,0,0,0-.91.91v.48a.91.91,0,0,0,.91.91h7a.91.91,0,0,0,.91-.91v-.48a.91.91,0,0,0-.91-.91,1.93,1.93,0,0,1-.66-.09.2.2,0,0,1,0,0,11.11,11.11,0,0,1,.68-2.05l6.93-17.29h12.65l6.54,16.23,0,.06a.36.36,0,0,0,0,.1l0,.11a2.31,2.31,0,0,0,.3.61,6.62,6.62,0,0,1,.62,2.09.31.31,0,0,1,0,.17,1,1,0,0,1-.57.11.91.91,0,0,0-.91.91v.492-.91v-.48A.92.92,0,0,0,538.54,375.93Zm-29.45-22.61,5.06-12.75,5.05,12.75Z" transform="translate(-54.62 -304.19)" fill="#ffffff"/></svg>