<?xml version="1.0" encoding="utf-8"?>
<!-- Generator: Adobe Illustrator 24.0.1, SVG Export Plug-In . SVG Version: 6.00 Build 0)  -->
<svg version="1.1" xmlns="http://www.w3.org/2000/svg" xmlns:xlink="http://www.w3.org/1999/xlink" x="0px" y="0px"
	 viewBox="0 0 500 500" style="enable-background:new 0 0 500 500;" xml:space="preserve">
<style type="text/css">
	.st0{fill:#F5F5F5;}
	.st1{fill:#E0E0E0;}
	.st2{fill:#B16668;}
	.st3{fill:#263238;}
	.st4{fill:#455A64;}
	.st5{fill:#37474F;}
	.st6{fill:#9A4A4D;}
	.st7{fill:#001935;}
	.st8{fill:#123C73;}
	.st9{opacity:0.2;}
	.st10{opacity:0.74;}
	.st11{opacity:0.6;}
	.st12{fill:#FFA8A7;}
	.st13{fill:#F28F8F;}
	.st14{opacity:0.96;fill:#001935;}
	.st15{fill:#27DEBF;}
	.st16{opacity:0.96;fill:#123C73;}
	.st17{opacity:0.87;fill:#001935;}
	.st18{opacity:0.55;fill:#123C73;}
	.st19{opacity:0.89;fill:#001935;}
	.st20{opacity:0.61;fill:#123C73;}
</style>
<g id="Floor">
</g>
<g id="Shadows">
</g>
<g id="Plants">
</g>
<g id="Character_2">
</g>
<g id="Character_1">
</g>
<g id="Question_Mark">
	<g>
		<ellipse id="Floor_2_" class="st0" cx="250" cy="355.2" rx="223.4" ry="121.5"/>
		<ellipse id="Shadow_31_" class="st1" cx="250" cy="329.4" rx="33.7" ry="19.4"/>
		<ellipse id="Shadow_27_" class="st1" cx="375.5" cy="370.1" rx="53.2" ry="30.7"/>
		<ellipse id="Shadow_26_" class="st1" cx="114.4" cy="373.4" rx="53.2" ry="30.7"/>
		<g id="XMLID_2639_">
			<g>
				<polygon id="XMLID_2815_" class="st2" points="401.8,363.8 392.5,362.7 390.1,343.9 401.5,347.3 				"/>
				<g>
					<path id="XMLID_2813_" class="st3" d="M381.4,379.1c-0.3,0.3-0.2,1.8,0.2,2.3c1,1.2,3.6,2.5,7.1,2.8c3.4,0.2,6.4-0.2,8.3-1.5
						c2-1.3,2.9-2.6,3.1-4.6c0.2-1.9,0-3.8,0.9-5.2c0.8-1.4,2.2-2.9,2.5-3.6c0.6-1.6,0-3.9,0-3.9L381.4,379.1z"/>
					<path id="XMLID_2812_" class="st4" d="M390.6,362.4c0,0.7-0.2,1.4-0.4,2.1c-0.5,1.5-1.2,2.9-2.1,4.2c-0.4,0.7-0.9,1.4-1.4,2
						c-1,1.2-2.3,2.2-3.4,3.4c-1.1,1.2-2,2.6-2.1,4.1c-0.1,2.6,4.1,3.5,6.3,3.9c2.4,0.4,4.9,0.3,7.2-0.4c2.6-0.7,4.4-2.7,4.8-5.3
						c0.1-0.7,0.1-1.5,0.2-2.2c0.2-1.7,1.1-3.2,2.1-4.6c0.6-0.8,1.2-1.6,1.6-2.5c0.7-1.6,0.1-3.5-0.3-5.1c-0.4-1.4-0.8-3-1.3-2.9
						c0,0.7,0,0.8-0.5,1.3c-0.7,0.6-0.7,1.6-1.4,2.1c0.3-0.9,0.3-1.2,0.5-1.9c0-0.2,0-0.6-0.1-0.7c-0.2-0.2-0.5-0.3-0.8-0.4
						c-1-0.4-2.1-0.6-3.2-0.7c-1-0.1-3.5-0.2-4.5,0c-0.3,0.1-0.6,0.2-0.8,0.5c-0.2,0.3-0.2,0.5-0.3,0.9
						C390.6,360.6,390.6,361.7,390.6,362.4z"/>
					<path id="XMLID_2811_" class="st0" d="M387.8,369.3c1-0.7,4.5-0.7,5.7-0.6c1.5,0.2,2.7,0.7,3.4,1.2c0.3,0.2,0.7,0.2,1-0.1l0,0
						c0.3-0.3,0.3-0.8-0.1-1.1c-0.7-0.5-2.1-1.3-3.8-1.4c-3-0.2-5.2,0.3-5.2,0.3S387.5,368.4,387.8,369.3z"/>
					<path id="XMLID_2810_" class="st0" d="M385.6,372c1.2-0.7,5-0.6,6.2-0.5c1.5,0.2,2.6,0.8,3.3,1.3c0.3,0.2,0.7,0.2,1-0.1l0,0
						c0.3-0.3,0.3-0.8-0.1-1.1c-0.7-0.5-3.5-1.4-5.3-1.5c-3-0.2-3.7,0.4-3.7,0.4S385.8,370.9,385.6,372z"/>
					<path id="XMLID_2792_" class="st0" d="M395.2,364.4c-2-0.2-4.3,0-5.1,0.3c-0.5,0.3-0.9,1.1-0.5,1.3c0.7-0.4,3.2-0.5,4.6-0.5
						c1,0,2.2,0.4,3.2,0.9c0.3,0.1,0.6,0.3,0.8,0.4c0.4,0.2,0.8,0.1,1-0.3l0,0c0.1-0.3,0-0.7-0.3-0.8
						C398.3,365.3,396.9,364.6,395.2,364.4z"/>
				</g>
			</g>
			<g>
				<polygon id="XMLID_2814_" class="st2" points="367.1,355.2 358.2,352.7 358.2,334.8 369.2,335.3 				"/>
				<g>
					<path id="XMLID_2786_" class="st3" d="M339.5,364.8c-0.3,0.6-0.2,1.7,0.1,2.3c0.3,0.7,3.9,2.7,8.8,2.4c4.8-0.3,8.2-2.3,10-3.5
						c1.8-1.2,3.8-1.4,6.2-1.6c2.4-0.1,5.5-1.3,6.1-2.5c0.5-1.1-0.1-3.1-0.1-3.1L339.5,364.8z"/>
					<path id="XMLID_2785_" class="st4" d="M359,349.7c-0.1,0-0.3-0.1-0.4-0.1c-0.2,0-0.4-0.1-0.6,0c-0.2,0.1-0.4,0.2-0.6,0.4
						c-0.5,0.6-0.8,1.3-1.2,1.9c-1,1.7-3.1,3-5.5,4.3c-1.6,0.9-3.1,1.5-4.8,2.2c-1.7,0.7-3.9,1.2-5.2,2.1c-1.9,1.3-2.1,4.5,0,5.8
						c1.9,1.1,6.8,2.3,11.9,0.8c2.8-0.8,5.9-3.8,9.6-4.1c2.3-0.2,6.8-0.8,8.3-2.6c0.6-0.8-0.2-3.3-0.8-5.4c-0.7-2.4-1.3-6-2.1-5.8
						c0,0.5-0.1,0.6-0.4,0.9c-0.3,0.3-0.7,0.5-1,0.8c-0.6,0.5-0.9,1.2-1.3,1.9c-0.2,0.3-0.3,0.6-0.7,0.7c-0.4,0.1-0.7-0.1-1-0.3
						c-0.4-0.2-0.9-0.2-1.4-0.1c0-0.5,0.1-0.9,0.2-1.4c0-0.1,0.1-0.3,0-0.4c0-0.1-0.2-0.2-0.3-0.3C361,350.2,360.1,349.9,359,349.7z
						"/>
					<path id="XMLID_2783_" class="st0" d="M352.9,354.9c0,0,0.3-0.9,1.7-1.2c1.1-0.2,2.9,0.6,4.1,1.6c0.5,0.4,0.4,1.1-0.1,1.4l0,0
						c-0.3,0.2-0.7,0.1-1-0.1C356.9,356,355.1,354.8,352.9,354.9z"/>
					<path id="XMLID_2779_" class="st0" d="M349.6,356.8c0,0,0.7-1.1,2-1.1c0,0,2.8,0.1,4.5,1.7c0.4,0.4,0.4,1.1-0.1,1.4l0,0
						c-0.3,0.2-0.7,0.1-1-0.1C354.3,358,352.7,356.6,349.6,356.8z"/>
					<path id="XMLID_2775_" class="st0" d="M345.9,358.5c0,0,0.8-1,2.1-1c0,0,2.6,0.1,4.3,1.7c0.4,0.4,0.4,1.1-0.1,1.4l0,0
						c-0.3,0.2-0.7,0.1-1-0.1C350.5,359.8,349.1,358.2,345.9,358.5z"/>
				</g>
			</g>
			<g>
				<path id="XMLID_2742_" class="st4" d="M399.8,238.4c0.6,18.5,0.7,58.5,0.7,58.5c0.2,2.3,0.4,6.4,0.6,14.7
					c0.2,12,0.8,41.6,0.8,41.6s-5.7,2.7-11,0.5c0,0-7.3-41.7-8.8-53.5c-1.3-10.4-3.8-34.7-3.8-34.7l-3.5,30.9c0,0,0,8-0.5,15.1
					c-0.4,5.5-5.7,33.8-5.7,33.8s-4.9,1.6-10.6-0.4c0,0-0.5-43.5-0.6-48.5c-0.1-5.7,1.4-67.8,1.4-67.8L399.8,238.4z"/>
				<path class="st5" d="M378.2,265.4l-1.3-10.5c0,0-5.5-1.1-11.9-5.5c0,0,2.5,3.4,10,7l1.7,9.5l-1.9,30.3L378.2,265.4z"/>
			</g>
		</g>
		<path class="st2" d="M358.3,186.5c-2.7,3.5-16.6,22.6-16.6,22.6l-12.8-9.9c-3-2.4-3.9-5.4-5.8-7.6c-1.9-2.1-3.9-2.6-6-4.4
			c-2.1-1.8-2.9-3.1-3.6-1.6c-0.7,1.5,1.6,4.2,2,4.8c0.4,0.6,2.8,2.2-0.4,2c-3.2-0.1-9.3-3.8-10.8-4.5c-1.5-0.7-1.5,1.2-0.8,2.4
			c0.7,1.2,0.4,4.5,1.2,6.7c0.8,2.2,2.3,3.5,5.2,4.9c2.7,1.4,9.4,2.2,11.5,3.6c0,0,0,0,0,0c4.7,4.9,13.7,13.9,15.9,15.6
			c3.1,2.3,6.1,4.4,10.9-0.1c4.8-4.6,18.6-22.6,18.6-22.6l2.9-17.1C364.8,181.1,361.5,182.3,358.3,186.5z"/>
		<path class="st6" d="M341.7,209.1c1.8,1.3,3.6,4.2,3.8,5.5c0,0,0.2-3.5-3-6.6L341.7,209.1z"/>
		<g id="XMLID_2816_">
			<path class="st7" d="M370.6,180.9c0,0-6.6-0.1-9.5,1.9c-2.9,2-5,5-9.8,11.9c-4.1,6-6.1,8.9-6.1,8.9s3.5,5.8,11.2,8.6l12.3-15.3
				L370.6,180.9z"/>
		</g>
		<path id="XMLID_2635_" class="st8" d="M383.4,180.6c3.7,0.4,9,0.4,12.7,0.8c2.6,1.1,7.5,5.4,7.2,8.5c-1.4,11.5-4.2,30.4-4.2,30.4
			l0.9,20c-5.1,5.1-29.3,7.1-41.7-1.1c0,0,0.4-35.9,1.3-42c1.5-10.9,2.9-14.9,8.5-15.9S383.4,180.6,383.4,180.6z"/>
		<path class="st2" d="M404.6,186.8c2.7,3.5,16.6,22.6,16.6,22.6l12.8-9.9c3-2.4,3.9-5.4,5.8-7.6c1.9-2.1,3.9-2.6,6-4.4
			c2.1-1.8,2.9-3.1,3.6-1.6c0.7,1.5-1.6,4.2-2,4.8c-0.4,0.6-2.8,2.2,0.4,2c3.2-0.1,9.3-3.8,10.8-4.5c1.5-0.7,1.5,1.2,0.8,2.4
			c-0.7,1.2-0.4,4.5-1.2,6.7c-0.8,2.2-2.3,3.5-5.2,4.9c-2.7,1.4-9.4,2.2-11.5,3.6c0,0,0,0,0,0c-4.7,4.9-13.7,13.9-15.9,15.6
			c-3.1,2.3-6.1,4.4-10.9-0.1c-4.8-4.6-15.6-18.8-15.6-18.8l-5.8-20.8C398,181.4,401.3,182.6,404.6,186.8z"/>
		<path class="st6" d="M421.2,209.4c-1.8,1.3-3.6,4.2-3.8,5.5c0,0-0.2-3.5,3-6.6L421.2,209.4z"/>
		<g id="XMLID_2342_">
			<path class="st7" d="M392.7,181.1c0,0,5.9-0.4,9,2c2.8,2.2,5,5,9.8,11.9c4.1,6,6.1,8.9,6.1,8.9s-3.5,5.8-11.2,8.6l-8.4-10.4
				C393.6,196.5,389.3,188.1,392.7,181.1z"/>
		</g>
		<g id="XMLID_2401_">
			<g id="XMLID_2437_">
				<path id="XMLID_2633_" class="st3" d="M384.3,153.5c0.1,6.4-5.1,11.6-11.5,11.7c-6.4,0.1-11.6-5.1-11.7-11.5
					c-0.1-6.4,5.1-11.6,11.5-11.7C379,141.9,384.3,147.1,384.3,153.5z"/>
				<path id="XMLID_2562_" class="st3" d="M392.8,161.7c0,0-1.8,8.8-2.5,10.3c-0.7,1.5-2.3,1.9-2.3,1.9l0.1-6.2L392.8,161.7z"/>
				<path id="XMLID_2462_" class="st3" d="M390.4,149c0,0,2-0.4,3.6,1.2c1.6,1.6,0.7,6.5-1.1,11.4l-3.5,0.4L390.4,149z"/>
				<path id="XMLID_2460_" class="st2" d="M388.2,162.1c0.7,0.4,1.7-1,2.6-1.9c0.9-0.9,3.7-2.2,5.2,0.8c1.5,3-1.2,7.1-3.4,7.8
					c-3.9,1.3-4.5-1.2-4.5-1.2l-0.2,14.4l0,0c-4.8,6.2-18.2,5.8-12.6-0.7l0-4.3c0,0-3.5,0.6-5.2,0.3c-2.9-0.4-4.7-2.7-5.6-5.7
					c-1.4-4.9-2-8.9-0.9-18.7c1.2-10.7,13.6-10.9,20.4-6.8S388.2,162.1,388.2,162.1z"/>
				<path id="XMLID_2459_" class="st3" d="M388.2,163.3c0.4,0,1.7-2.3,2.6-3.1c1.2-1.1-0.5-11.2-0.5-11.2s1.5-2.9-0.9-5.4
					c-1.7-1.8-4.1-4.1-11.7-3.1c-5.4,0.7-11.3,2.4-16.1,0.1c-0.7,3-0.1,6.3,2.9,8.6c0,0,1.7,1.1,6.3,1.6c4.5,0.5,11.6-0.2,12.6-0.3
					c1.3-0.2,1.6,1.1,2.3,4.6C386.5,158.1,387,163.3,388.2,163.3z"/>
				<path id="XMLID_2442_" class="st3" d="M390.4,149.8l4.3-2.3c-0.6-1.2-2.1-1.7-3.3-1C390.2,147.1,389.7,148.6,390.4,149.8z"/>
				<path id="XMLID_2439_" class="st6" d="M375.3,177.1c0,0,6.4-1.3,8.6-2.5c1.5-0.8,2.7-2.2,3.1-3.1c0,0-0.4,1.9-1.7,3.6
					c-1.6,2.1-9.9,3.7-9.9,3.7L375.3,177.1z"/>
			</g>
			<g id="XMLID_2415_">
				<path id="XMLID_2435_" class="st3" d="M374.7,161.1c0,0.7,0.6,1.3,1.3,1.3c0.7,0,1.3-0.6,1.3-1.3c0-0.7-0.6-1.3-1.3-1.3
					C375.3,159.8,374.7,160.4,374.7,161.1z"/>
				<path id="XMLID_2434_" class="st3" d="M378.5,156.7l-2.8-1.3c-0.3,0.8,0,1.8,0.8,2.1C377.3,157.9,378.2,157.5,378.5,156.7z"/>
				<path id="XMLID_2433_" class="st3" d="M366.4,155.1l-2.5,1.9c0.5,0.7,1.5,0.8,2.2,0.3C366.8,156.9,366.9,155.9,366.4,155.1z"/>
				<path id="XMLID_2431_" class="st3" d="M364.9,160.8c0,0.7,0.6,1.3,1.2,1.3c0.7,0,1.2-0.6,1.2-1.3c0-0.7-0.6-1.3-1.2-1.3
					C365.4,159.5,364.9,160.1,364.9,160.8z"/>
				<polygon id="XMLID_2429_" class="st6" points="371.5,159.8 370.8,167.4 366.8,165.9 				"/>
				<path class="st6" d="M373.7,170.3c0,0.7,0.5,1.2,1.2,1.2c0.7,0,1.2-0.5,1.2-1.2c0-0.7-0.5-1.2-1.2-1.2
					C374.2,169.1,373.7,169.6,373.7,170.3z"/>
			</g>
		</g>
		<g>
			<path class="st8" d="M404.9,88.8c1.9,0.4,3.8,1.1,5.5,2c1.7,0.9,3.2,2.1,4.3,3.5c1.2,1.4,2,2.9,2.6,4.6c0.5,1.7,0.6,3.6,0.1,5.6
				c-0.4,1.6-0.9,3-1.7,4.1c-0.8,1.1-1.7,2-2.7,2.8c-1,0.8-2.1,1.5-3.2,2.1c-1.1,0.6-2.2,1.2-3.2,1.7c-1,0.5-1.9,1.1-2.7,1.8
				c-0.8,0.6-1.4,1.4-1.7,2.3c-0.2,0.4-0.5,0.8-0.8,1c-0.4,0.3-0.8,0.3-1.2,0.2l-4.7-1c-0.5-0.1-0.8-0.4-1.1-0.8
				c-0.3-0.4-0.3-0.8-0.2-1.3c0.4-1.6,1.1-2.9,2-4c0.9-1.1,1.8-2,2.9-2.8c1.1-0.8,2.2-1.5,3.3-2c1.1-0.6,2.2-1.1,3.2-1.7
				c1-0.5,1.8-1.1,2.5-1.7c0.7-0.6,1.1-1.3,1.3-2.2c0.3-1.6,0-3-1.1-4.3c-1.1-1.3-2.7-2.2-4.9-2.7c-3.5-0.8-6.4,0.4-8.9,3.5
				c-0.3,0.4-0.6,0.7-0.9,0.9c-0.3,0.2-0.7,0.2-1.2,0.1l-5-1.1c-0.4-0.1-0.7-0.3-0.9-0.6c-0.2-0.3-0.3-0.7-0.2-1.1
				c0.4-1.4,1.1-2.8,2.3-4.1c1.2-1.3,2.6-2.4,4.3-3.3c1.7-0.9,3.6-1.5,5.7-1.9C400.6,88.3,402.7,88.3,404.9,88.8z M399.6,124.4
				c0.5,0.1,0.8,0.4,1.1,0.8c0.3,0.4,0.3,0.8,0.2,1.3l-1.2,5.4c-0.1,0.5-0.4,0.8-0.8,1.1c-0.4,0.3-0.8,0.3-1.3,0.2l-5.3-1.2
				c-0.5-0.1-0.8-0.4-1.1-0.8c-0.3-0.4-0.3-0.8-0.2-1.3l1.2-5.4c0.1-0.5,0.4-0.8,0.8-1.1c0.4-0.3,0.8-0.3,1.3-0.2L399.6,124.4z"/>
		</g>
		<g>
			<g>
				<path class="st7" d="M420.6,139.8c1.3-0.2,2.7-0.2,4-0.1c1.3,0.2,2.6,0.5,3.7,1.1c1.1,0.6,2.1,1.3,2.8,2.3
					c0.8,1,1.3,2.2,1.5,3.6c0.2,1.1,0.2,2.2,0,3.1c-0.2,0.9-0.6,1.7-1,2.5c-0.4,0.8-1,1.5-1.5,2.1c-0.6,0.7-1.1,1.3-1.6,1.9
					c-0.5,0.6-0.9,1.2-1.3,1.8c-0.4,0.6-0.5,1.2-0.5,1.9c0,0.3-0.1,0.6-0.3,0.9c-0.2,0.3-0.4,0.4-0.7,0.5l-3.3,0.5
					c-0.3,0.1-0.6,0-0.9-0.2c-0.3-0.2-0.4-0.4-0.5-0.8c-0.1-1.1,0-2.1,0.2-3.1c0.3-0.9,0.7-1.8,1.1-2.5c0.5-0.8,1-1.5,1.6-2.1
					c0.6-0.7,1.1-1.3,1.6-1.9c0.5-0.6,0.9-1.2,1.2-1.7c0.3-0.6,0.4-1.1,0.3-1.7c-0.2-1.1-0.8-1.9-1.8-2.5c-1-0.6-2.3-0.7-3.8-0.5
					c-2.4,0.4-4,1.9-4.8,4.5c-0.1,0.3-0.2,0.6-0.3,0.8c-0.1,0.2-0.4,0.3-0.8,0.4l-3.5,0.6c-0.3,0-0.5,0-0.7-0.1
					c-0.2-0.1-0.3-0.4-0.4-0.6c-0.1-1,0-2.1,0.4-3.2c0.4-1.1,1-2.2,1.9-3.2c0.9-1,1.9-1.9,3.1-2.7
					C417.7,140.6,419.1,140.1,420.6,139.8z M426.3,163.9c0.3-0.1,0.6,0,0.9,0.2c0.3,0.2,0.4,0.4,0.5,0.8l0.6,3.8
					c0.1,0.3,0,0.6-0.2,0.9c-0.2,0.3-0.4,0.4-0.8,0.5l-3.7,0.6c-0.3,0.1-0.6,0-0.9-0.2c-0.3-0.2-0.4-0.4-0.5-0.8l-0.6-3.8
					c-0.1-0.3,0-0.6,0.2-0.9c0.2-0.3,0.4-0.4,0.8-0.5L426.3,163.9z"/>
			</g>
			<g class="st9">
				<path class="st7" d="M420.6,139.8c1.3-0.2,2.7-0.2,4-0.1c1.3,0.2,2.6,0.5,3.7,1.1c1.1,0.6,2.1,1.3,2.8,2.3
					c0.8,1,1.3,2.2,1.5,3.6c0.2,1.1,0.2,2.2,0,3.1c-0.2,0.9-0.6,1.7-1,2.5c-0.4,0.8-1,1.5-1.5,2.1c-0.6,0.7-1.1,1.3-1.6,1.9
					c-0.5,0.6-0.9,1.2-1.3,1.8c-0.4,0.6-0.5,1.2-0.5,1.9c0,0.3-0.1,0.6-0.3,0.9c-0.2,0.3-0.4,0.4-0.7,0.5l-3.3,0.5
					c-0.3,0.1-0.6,0-0.9-0.2c-0.3-0.2-0.4-0.4-0.5-0.8c-0.1-1.1,0-2.1,0.2-3.1c0.3-0.9,0.7-1.8,1.1-2.5c0.5-0.8,1-1.5,1.6-2.1
					c0.6-0.7,1.1-1.3,1.6-1.9c0.5-0.6,0.9-1.2,1.2-1.7c0.3-0.6,0.4-1.1,0.3-1.7c-0.2-1.1-0.8-1.9-1.8-2.5c-1-0.6-2.3-0.7-3.8-0.5
					c-2.4,0.4-4,1.9-4.8,4.5c-0.1,0.3-0.2,0.6-0.3,0.8c-0.1,0.2-0.4,0.3-0.8,0.4l-3.5,0.6c-0.3,0-0.5,0-0.7-0.1
					c-0.2-0.1-0.3-0.4-0.4-0.6c-0.1-1,0-2.1,0.4-3.2c0.4-1.1,1-2.2,1.9-3.2c0.9-1,1.9-1.9,3.1-2.7
					C417.7,140.6,419.1,140.1,420.6,139.8z M426.3,163.9c0.3-0.1,0.6,0,0.9,0.2c0.3,0.2,0.4,0.4,0.5,0.8l0.6,3.8
					c0.1,0.3,0,0.6-0.2,0.9c-0.2,0.3-0.4,0.4-0.8,0.5l-3.7,0.6c-0.3,0.1-0.6,0-0.9-0.2c-0.3-0.2-0.4-0.4-0.5-0.8l-0.6-3.8
					c-0.1-0.3,0-0.6,0.2-0.9c0.2-0.3,0.4-0.4,0.8-0.5L426.3,163.9z"/>
			</g>
		</g>
		<g class="st10">
			<g>
				<path class="st8" d="M454.7,150.5c0.3,0.2,0.5,0.5,0.6,0.9c0.1,0.4,0,0.7-0.2,1l-2.6,3.7c-0.2,0.3-0.5,0.5-0.9,0.6
					c-0.4,0.1-0.7,0-1-0.2l-3.6-2.6c-0.3-0.2-0.5-0.5-0.6-0.9c-0.1-0.4,0-0.7,0.2-1l2.6-3.7c0.2-0.3,0.5-0.5,0.9-0.6
					c0.4-0.1,0.7,0,1,0.2L454.7,150.5z M470,125.4c1.3,0.9,2.5,2,3.5,3.3c1,1.3,1.7,2.6,2.2,4c0.5,1.4,0.6,2.8,0.5,4.3
					c-0.2,1.5-0.7,2.9-1.7,4.3c-0.8,1.1-1.7,2-2.6,2.5c-0.9,0.6-1.9,1-2.9,1.3c-1,0.3-2,0.4-3.1,0.5c-1,0.1-2,0.2-2.9,0.3
					c-0.9,0.1-1.8,0.2-2.6,0.5c-0.8,0.2-1.5,0.6-2,1.2c-0.3,0.3-0.6,0.4-0.9,0.5c-0.4,0.1-0.7,0-1-0.2l-3.2-2.3
					c-0.3-0.2-0.5-0.5-0.6-0.9c-0.1-0.4,0-0.7,0.3-1c0.8-1.1,1.7-1.9,2.7-2.4c1-0.5,2-0.9,3.1-1.2c1-0.3,2.1-0.4,3.1-0.5
					c1-0.1,2-0.1,2.9-0.2c0.9-0.1,1.7-0.3,2.4-0.5c0.7-0.2,1.3-0.6,1.7-1.2c0.8-1.1,0.9-2.3,0.5-3.6c-0.4-1.3-1.4-2.5-2.8-3.6
					c-2.4-1.7-5-1.7-7.8-0.2c-0.4,0.2-0.7,0.3-0.9,0.4c-0.3,0-0.6-0.1-0.9-0.3l-3.4-2.4c-0.3-0.2-0.4-0.4-0.5-0.7
					c-0.1-0.3,0-0.6,0.2-0.9c0.7-1,1.7-1.8,3-2.4c1.3-0.6,2.7-1,4.3-1.1c1.6-0.1,3.2,0,4.9,0.4C466.9,123.7,468.5,124.4,470,125.4z"
					/>
			</g>
			<g class="st11">
				<path class="st8" d="M454.7,150.5c0.3,0.2,0.5,0.5,0.6,0.9c0.1,0.4,0,0.7-0.2,1l-2.6,3.7c-0.2,0.3-0.5,0.5-0.9,0.6
					c-0.4,0.1-0.7,0-1-0.2l-3.6-2.6c-0.3-0.2-0.5-0.5-0.6-0.9c-0.1-0.4,0-0.7,0.2-1l2.6-3.7c0.2-0.3,0.5-0.5,0.9-0.6
					c0.4-0.1,0.7,0,1,0.2L454.7,150.5z M470,125.4c1.3,0.9,2.5,2,3.5,3.3c1,1.3,1.7,2.6,2.2,4c0.5,1.4,0.6,2.8,0.5,4.3
					c-0.2,1.5-0.7,2.9-1.7,4.3c-0.8,1.1-1.7,2-2.6,2.5c-0.9,0.6-1.9,1-2.9,1.3c-1,0.3-2,0.4-3.1,0.5c-1,0.1-2,0.2-2.9,0.3
					c-0.9,0.1-1.8,0.2-2.6,0.5c-0.8,0.2-1.5,0.6-2,1.2c-0.3,0.3-0.6,0.4-0.9,0.5c-0.4,0.1-0.7,0-1-0.2l-3.2-2.3
					c-0.3-0.2-0.5-0.5-0.6-0.9c-0.1-0.4,0-0.7,0.3-1c0.8-1.1,1.7-1.9,2.7-2.4c1-0.5,2-0.9,3.1-1.2c1-0.3,2.1-0.4,3.1-0.5
					c1-0.1,2-0.1,2.9-0.2c0.9-0.1,1.7-0.3,2.4-0.5c0.7-0.2,1.3-0.6,1.7-1.2c0.8-1.1,0.9-2.3,0.5-3.6c-0.4-1.3-1.4-2.5-2.8-3.6
					c-2.4-1.7-5-1.7-7.8-0.2c-0.4,0.2-0.7,0.3-0.9,0.4c-0.3,0-0.6-0.1-0.9-0.3l-3.4-2.4c-0.3-0.2-0.4-0.4-0.5-0.7
					c-0.1-0.3,0-0.6,0.2-0.9c0.7-1,1.7-1.8,3-2.4c1.3-0.6,2.7-1,4.3-1.1c1.6-0.1,3.2,0,4.9,0.4C466.9,123.7,468.5,124.4,470,125.4z"
					/>
			</g>
		</g>
		<g>
			<g>
				<g id="XMLID_1054_">
					<path id="XMLID_1055_" class="st12" d="M132.5,348.5c-0.1-3,2.1-32.3,2.1-32.3l-14.3,10.4c2.9,17.5,3.6,21.6,3.6,24.5l0,0
						c0,0.1-0.1,0.3-0.1,0.7c0,3.4,3.8,5.2,6.8,7.5c1.2,0.9,4.6,3.5,8.1,5.3c2.2,1.1,6.6,1.2,7.1-0.2c-3.6-2.8-8.9-6.9-11.8-10.1
						C132.6,352.7,132.6,351.5,132.5,348.5z"/>
				</g>
				<g>
					<path class="st3" d="M152.1,368c0.2,0,0.4,1.9-0.6,2.7c-1.2,1-4.5,2.7-9.1,2.2c-4.5-0.6-7-1.9-8.8-3.4
						c-1.8-1.5-4.4-3.7-6.4-4.1c-1.9-0.4-4-1.3-4.6-1.9c-0.6-0.6-0.5-3.2-0.5-3.2L152.1,368z"/>
					<path id="XMLID_1052_" class="st4" d="M123.8,350.2c0,0-0.6,0-0.7,0.6c-0.1,0.7-0.3,2.8-0.6,4c-0.4,1.6-0.7,5-0.4,6.4
						c0.2,1.3,3.4,2.3,5.3,3c2,0.8,4.4,2.4,6.4,4.1c2.1,1.8,6.6,3.6,9.6,3.6c3.5,0,7.4-1.2,8.3-2.8c1.1-2,0.2-3.2-4.9-5.6
						c-1-0.5-4.4-2.5-5.6-3.2c-3.2-2-6.3-4.8-7.8-8.3c-0.2-0.4-0.4-0.9-0.7-1.1c-0.3-0.2-0.7-0.1-1-0.1c-0.9,0.1-1.7,0.4-2.5,0.8
						c-0.7,0.3-1.7,0.7-1.7,1.6c0,0.3,0.1,0.6,0.2,0.9c0.1,0.2,0.1,0.4,0,0.5c-0.2,0.1-0.4,0-0.5-0.1c-0.5-0.5-0.9-1.1-1.4-1.7
						c-0.2-0.3-0.5-0.6-0.8-0.8c-0.3-0.2-0.6-0.3-0.9-0.6C123.8,351,123.9,350.6,123.8,350.2z"/>
					<path class="st5" d="M133.9,368.3c-0.9-0.7-1.9-1.5-2.8-2.1v0c0,0,6.1,3.7,8.6,2c1.6-1.1,0.8-2.4,0.8-2.8
						c0-0.4,3.9-2.2,5.4-2.4v0c0.4,0.2,0.8,0.4,1,0.5c5.2,2.4,6.1,3.6,4.9,5.6c-0.9,1.6-3.8,2.9-8.3,2.9
						C140.6,372,136,370,133.9,368.3z"/>
					<path class="st3" d="M140,364.1c3.2,1.3,1.8,1.9,0.9,2c-0.9,0.1-6.3-3-9.6-5.7c-3.5-2.7-5.6-5.7-6.9-6.7
						c-0.5-0.4-1-0.8-1.5-1.3c0.1-0.7,0.2-1.4,0.2-1.7c0.1-0.6,0.7-0.6,0.7-0.6c0,0.4-0.1,0.8,0.3,1.1c0.2,0.2,0.6,0.4,0.9,0.6
						c0.3,0.2,0.6,0.5,0.8,0.8c0.5,0.6,0.9,1.2,1.4,1.7C130,358,136.8,362.8,140,364.1z"/>
					<g>
						<g>
							<path class="st0" d="M140.7,365.7c-0.1,0-0.1,0-0.2-0.1c-0.1-0.1-0.2-0.3,0-0.4c0.9-1.1,3.5-2.6,5.9-2.3
								c0.2,0,0.3,0.2,0.3,0.4c0,0.2-0.2,0.3-0.4,0.3c-2.2-0.2-4.6,1.2-5.3,2.1C140.9,365.6,140.8,365.7,140.7,365.7z"/>
						</g>
						<g>
							<path class="st0" d="M137.9,364c-0.1,0-0.1,0-0.2-0.1c-0.1-0.1-0.2-0.3,0-0.4c0.9-1.1,3.5-2.6,5.9-2.3c0.2,0,0.3,0.2,0.3,0.4
								c0,0.2-0.2,0.3-0.4,0.3c-2.2-0.2-4.6,1.2-5.3,2.1C138.1,363.9,138,364,137.9,364z"/>
						</g>
						<g>
							<path class="st0" d="M135.1,362.3c-0.1,0-0.1,0-0.2-0.1c-0.1-0.1-0.2-0.3,0-0.4c0.9-1.1,3.5-2.6,5.9-2.3
								c0.2,0,0.3,0.2,0.3,0.4c0,0.2-0.2,0.3-0.4,0.3c-2.2-0.2-4.6,1.2-5.3,2.1C135.3,362.3,135.2,362.3,135.1,362.3z"/>
						</g>
						<g>
							<path class="st0" d="M132.5,360.4c-0.1,0-0.1,0-0.2-0.1c-0.1-0.1-0.2-0.3,0-0.4c0.9-1.1,3.5-2.6,5.9-2.3
								c0.2,0,0.3,0.2,0.3,0.4c0,0.2-0.2,0.3-0.4,0.3c-2.2-0.2-4.6,1.2-5.3,2.1C132.7,360.4,132.6,360.4,132.5,360.4z"/>
						</g>
						<g>
							<path class="st0" d="M129.9,358.6c-0.1,0-0.1,0-0.2-0.1c-0.1-0.1-0.2-0.3-0.1-0.4c1.3-1.6,4.1-2.6,6.5-2.4
								c0.2,0,0.3,0.2,0.3,0.4c0,0.2-0.2,0.3-0.4,0.3c-2.1-0.2-4.8,0.7-5.9,2.1C130.1,358.5,130,358.6,129.9,358.6z"/>
						</g>
					</g>
				</g>
			</g>
			<g>
				<g id="XMLID_1058_">
					<path id="XMLID_1059_" class="st12" d="M105.6,329.5l-14.4-0.3c0.2,9.6,1.7,20.3,2,29.3c0,1.7,0,13.2,0.6,16.7
						c1,5.3,7.2,4.5,7.5,1.4c0.3-3.1-0.4-16.6-0.4-18c-0.1-5.8,2.7-15.6,4.1-25.9C105.1,332.3,105.5,330,105.6,329.5z"/>
				</g>
				<g>
					<path class="st3" d="M103.6,378.9c0.1,3.1-0.1,5.2-1,7.1s-2.9,2.7-5,2.4c-2.1-0.3-4.9-1.5-5.8-4c-0.9-2.6-0.9-4.4-0.7-7.3
						L103.6,378.9z"/>
					<path id="XMLID_1056_" class="st4" d="M93.1,357.5c-0.9,0.2-0.7,4.3-0.8,8.5c-0.1,4.5-1.2,6.4-1.3,10.1c-0.1,4.2,0.3,6,2,8.4
						c1.7,2.4,7.1,4.3,9.3,0.5c1.8-3.1,1.5-6.4,0.9-10.5c-0.6-4.3-1.1-7.2-1.2-10.5c-0.1-3.1-0.2-6.1-1-6.4c0,0.5,0,1,0,1.5
						c0,0.3,0.1,2-0.4,2.1c-0.1-0.4-0.1-0.8-0.1-1.2c0-0.4-0.1-0.7-0.3-1c-0.3-0.2-0.6-0.3-1-0.3c-0.9-0.1-1.7-0.1-2.6-0.1
						c-0.4,0-0.9,0-1.3,0.1c-0.3,0-0.8,0.1-1.1,0.3c-0.2,0.1-0.4,0.3-0.4,0.5c0,0.2,0,0.3,0,0.5c0,0.3,0,0.6,0,0.9
						c0,0.1-0.1,0.3-0.2,0.3c-0.1,0-0.2-0.1-0.2-0.2c-0.1-0.5,0-0.9-0.1-1.5c0-0.3,0-0.6,0-0.9C93.2,358,93.1,357.8,93.1,357.5z"/>
					<path class="st5" d="M91.1,374.9c0,0.6-0.1,4.6,1,5.2c1.2,0.7,1.6-2.5,1.6-2.5s2.7-1.1,6.8,0.2c-0.1,0.7,0.7,2.7,1.7,2.2
						c1-0.6,1-5.1,1-5.2c0.6,3.9,0.7,7.1-1,10.1c-2.2,3.8-7.6,1.9-9.3-0.5c-1.7-2.4-2.1-4.2-2-8.4C91,375.7,91.1,375.3,91.1,374.9z"
						/>
					<path class="st3" d="M94,377.8c0.1,1.5-1.4,1.1-1.7-1c-0.3-2.1,0.4-7.2,0-10.9c0.1-4.2-0.1-8.3,0.8-8.5c0,0.1,0,0.1,0,0.2
						l0.1,2.1c0,0.3,0,0.6,0,0.9c0.3,3.1,0.4,9,0.5,11.8C93.8,375.3,93.9,376.3,94,377.8z"/>
					<path class="st3" d="M100,377.8c0.1-1.5,0.3-2.5,0.3-5.3c0-2.8,0.2-8.7,0.5-11.7c0.2-0.5,0.1-1.5,0.1-1.7c0-0.4,0-1,0-1.4
						c0,0,0-0.1,0-0.1c0.6,0.2,0.8,1.9,0.9,3.9c0,1.2,0,2.7-0.1,4.5c-0.4,3.6,0.3,8.8,0,10.9C101.4,379,99.9,379.3,100,377.8z"/>
					<g>
						<g>
							<path class="st0" d="M100.6,377.9c0,0-0.1,0-0.1,0c0,0-3.3-1.3-6.7,0c-0.2,0.1-0.3,0-0.4-0.2c-0.1-0.2,0-0.3,0.2-0.4
								c3.6-1.4,7,0,7.1,0c0.2,0.1,0.2,0.3,0.2,0.4C100.8,377.8,100.7,377.9,100.6,377.9z"/>
						</g>
						<g>
							<path class="st0" d="M101,374.6c0,0-0.1,0-0.1,0c0,0-3.7-1.3-7.5,0c-0.2,0.1-0.3,0-0.4-0.2c-0.1-0.2,0-0.3,0.2-0.4
								c4-1.4,7.7,0,7.9,0c0.2,0.1,0.3,0.2,0.2,0.4C101.2,374.5,101.1,374.6,101,374.6z"/>
						</g>
						<g>
							<path class="st0" d="M93.3,371.5c-0.1,0-0.2-0.1-0.3-0.2c-0.1-0.2,0-0.4,0.2-0.4c3.7-1.7,7.7-0.1,7.9,0
								c0.2,0.1,0.2,0.3,0.2,0.4c-0.1,0.2-0.3,0.2-0.4,0.2c0,0-3.9-1.5-7.4,0C93.4,371.4,93.3,371.5,93.3,371.5z"/>
						</g>
						<g>
							<path class="st0" d="M93.2,368.5c-0.1,0-0.2-0.1-0.3-0.2c-0.1-0.2,0-0.4,0.2-0.4c4.1-1.9,7.9-0.2,8-0.1
								c0.2,0.1,0.2,0.3,0.2,0.4c-0.1,0.2-0.3,0.2-0.4,0.2c0,0-3.7-1.7-7.5,0.1C93.3,368.5,93.3,368.5,93.2,368.5z"/>
						</g>
						<g>
							<path class="st0" d="M93.2,365.2c-0.1,0-0.2-0.1-0.3-0.2c-0.1-0.2,0-0.3,0.1-0.4c3.8-1.9,7.9-0.1,8.1,0
								c0.2,0.1,0.2,0.3,0.2,0.4c-0.1,0.2-0.3,0.2-0.4,0.2c0,0-4-1.8-7.5,0C93.3,365.2,93.2,365.2,93.2,365.2z"/>
						</g>
					</g>
				</g>
			</g>
			<g>
				<path id="XMLID_1407_" class="st4" d="M95.9,236c-5.1,14.1-4.2,22.9-3.3,37.6c0.8,13.5,2.1,25.4,2.1,25.4
					c-0.2,2.4-3.5,7.1-4,17.7c-0.4,9.9,1,22.3,1,22.3s6.7,2.4,12.3,0c0,0,5.8-25.4,7.3-37.8c1.4-10.8,3.7-24.7,3.7-24.7l5,24.6
					c0,0-1.5,4.5-1.5,10.2c0,5.8,2.7,21.9,2.7,21.9s7.4,2.4,12.2-1.8c0,0,1.9-23.2,2.5-32c0.9-11.8-0.4-44.1-3.2-60.6L95.9,236z"/>
				<path id="XMLID_2227_" class="st5" d="M115,276.6l2.1-18.5c0,0,9.3-1.2,13.5-5.2c0,0-3.2,5.8-11,6.9l-3,17.2l3.4,24.2L115,276.6
					z"/>
			</g>
		</g>
		<path class="st12" d="M138.1,222.3c-4.5-4.7-12.7-15.2-12.7-15.2l-4.6-16c-0.1,0,2.4,0.1,3.1,0c5,0.3,6.5,0.8,9.6,4.2
			c2.5,2.7,11.9,15.6,15.2,19.9l8.7-11.1c2.1-3.2,1.7-6.7,2.8-9.2c1.1-2.6,2.8-3.7,4.2-6c1.4-2.3,1.7-3.8,2.9-2.7
			c1.1,1.2-0.2,4.4-0.3,5.1c-0.2,0.7-1.9,2.9,1,1.8c2.9-1.1,7.4-6.5,8.6-7.6c1.2-1.1,1.8,0.6,1.5,1.9c-0.3,1.3,1,4.4,0.5,6.6
			c-0.5,2.4-0.8,3.4-3.1,5.7c-2.1,2.1-7.3,4.7-9.3,7.5c-2,2.8-6.3,11.5-9,16.7c-3.3,6.6-6.2,8.8-10,6.6
			C143.4,228.2,139.7,224,138.1,222.3z"/>
		<path class="st7" d="M122.2,190.9c3.2-0.2,5.8,0.2,7.5,1c2.7,1.2,4.6,3.8,7.2,7.4c2.6,3.6,7.4,9.8,7.4,9.8s-1.3,5.4-9.7,10.2
			l-13.8-14.2L122.2,190.9z"/>
		<path class="st13" d="M148.6,215.1c-2.1,2-3,4.5-3.2,5.8c0,0-1-3.2,2.4-6.8L148.6,215.1z"/>
		<path class="st8" d="M132.2,219.3c6.1-5.1,4.1-11.6,1.9-16.1c-4.5-8.9-9.2-12.4-11.1-12.3l-12.2,0.1c-5.8,0.8-10.4,0.4-11.8,0.7
			c-3.6,0.9-3.7,3.8-3.8,7.6c-0.2,4.2-2.3,3.5-1.2,10.4c0,0,2.7,5.6,3.4,8c0.7,2.4,2.5,6.2,1.5,10.1c-0.4,1.5-1.4,3-2.9,7.1
			c-1.4,3.9-2.6,7.6-3.8,14.3c0,0,3.6-0.8,7.6-5.1c0,0,5.5,7.4,18.9,6.7c13.8-0.8,15.1-8,15.1-8l-2.1-13
			C131.9,224.5,131.9,222.6,132.2,219.3z"/>
		<path class="st14" d="M124.2,218c0,0-5,4-10.9,2.1c-5.8-2-6.8-7-6.8-7s-0.5,6.7,6.9,8.8C120.5,223.9,124.2,218,124.2,218z"/>
		<path class="st5" d="M89.2,185.2c-1.8-1.3-11.6,11.7-7,15.1c4.6,3.3,9.4-6,8.4-10.4C89.7,185.5,89.2,185.2,89.2,185.2z"/>
		<path class="st12" d="M80.3,178.7c2.4-3.4,4.1-5.9,6.3-8.8c1.3-1.6,2.1-2.8,3.3-4.5c0.8-1.2,1.3-2.1,2.3-2.5
			c1.1-0.4,2.1-1.2,2.8-2c0.5-0.5,0.9-1.1,1.3-1.7c1.4-1.9,3.1-3.7,5-5.2c2-1.5,4.2-2.7,6.2-4.2c1.2-0.9,2.5-2.3,1-3.6
			c-0.5-0.4-1-0.6-1.6-0.7c-3.6-0.7-6.8,0.6-10.3,1.5c-1.5,0.4-3,0.9-4.5,1.6c-0.7,0.3-1.4,0.7-2,1.2c-0.9,0.8-1.4,1.9-2,3
			c-1.5,2.8-4.8,5.4-7.1,7.6c-2.7,2.6-5.1,5-8.2,7.9c-2.8,2.6-5.5,5-8,7.8c-2.1,2.3-1.3,4.1-1,4.8c1.8,3.5,3.8,4.8,6.1,7
			c0.8,0.7,1.6,1.4,2.4,2.1c3.1,2.8,6.1,5.3,9.3,8c3.4,2.8,4.8,4.2,7.8,6.9c1.8,1.6,3.2,3.5,4.7,6.1c5.3,0.9,10.4-7.2,5.9-16.6
			c-0.7-1.5-1.9-2.8-3.3-3.8C91.2,186.7,80.3,178.7,80.3,178.7z"/>
		<path class="st13" d="M80.3,178.7c0,0-2.3,3.2-6.3,4.5c0,0,3.4,0.8,7.9-3.4L80.3,178.7z"/>
		<path class="st7" d="M99.4,191.7c-1.2-0.9-4.2-2.7-10.2-6.5c0,0,0.9,1.9-0.5,6.8c-1.5,4.8-4.5,7.9-6.4,8.3c0,0,3.3,2.6,6.4,5.6
			c3.1,3,5.6,5.1,7.4,8.6c0,0,4.4-1.1,5.4-8.6C102.1,200.6,101.7,194.4,99.4,191.7z"/>
		<g id="XMLID_1394_">
			<path class="st3" d="M132.8,167.6c1.8-3.5,1.5-8.5-0.8-11.7c-3.8-5.4-10.2-8-17.2-7.9c0,0-2.2,0-2.2,0
				c-9.5,0.2-18.2,8.3-18.4,17.6c0,0,0,0,0,0c0,6.5,0,12.5,3.6,16.9c3.3,4.1,8.4,5.5,12.8,6.1c8.3,1.3,17.6,0.3,21.3-5.3
				c0,0-4.9,1-4.4-4.2c0.1-0.8-0.7-1.7-2.1-2.6c1-1.6,2.1-3.3,3.4-4.6C130.2,170.3,131.8,169.5,132.8,167.6z"/>
			<g id="XMLID_2195_">
				<g id="XMLID_1403_">
					<path class="st12" d="M130.3,172.4c-0.1,9.6-3.1,12.1-4.7,12.8c-1.6,0.7-4.6,0.3-7.5-0.1l0.1,5.8c0,0,3.5,3.5,3.2,6.1
						c-0.2,2.7-5.3,3-9.1,0.5c-2.8-1.8-4.8-4-5.7-5c-0.3-0.4-0.5-0.8-0.5-1.3l-0.2-13.6c0,0-1.6,1.7-4.5-0.2
						c-2.9-1.9-3.2-5.5-1.5-7.6c1.2-1.5,4.4-1.6,5.9,0.6c0.9,1.6,0.8,2.8,2,2.6c1.1-0.2,1.2-1.5,1.3-2.4c0.1-0.9,0-1.2,0.1-2.4
						c2.9-0.6,5.8-4.6,6.1-7.5c2,0.9,4.2,1.5,6.2,1.4c3.2-0.2,4.8-0.9,6.4-3.2c0.4,0.4,0.7,1.2,0.9,1.7c0.5,1.5,0.8,2.5,1,3.8
						C130.3,167.1,130.3,169.7,130.3,172.4z"/>
				</g>
				<g id="XMLID_1397_">
					<path id="XMLID_1398_" class="st13" d="M118.1,185.1c-3.1-0.4-9.5-2.1-10.6-4.6c0,0,0.4,1.6,2.3,3.2c1.9,1.6,8.3,3.3,8.3,3.3
						L118.1,185.1z"/>
				</g>
				<g>
					<path class="st2" d="M121.2,179.9c0,0.7-0.5,1.3-1.2,1.3c-0.7,0-1.3-0.5-1.3-1.2c0-0.7,0.5-1.3,1.2-1.3
						C120.6,178.6,121.2,179.2,121.2,179.9z"/>
					<g id="XMLID_1401_">
						<path id="XMLID_1402_" class="st3" d="M119.6,170.4c0.1,0.8-0.5,1.4-1.2,1.5c-0.7,0-1.4-0.5-1.4-1.3c-0.1-0.8,0.5-1.4,1.2-1.5
							C118.9,169,119.5,169.6,119.6,170.4z"/>
					</g>
					<g id="XMLID_2200_">
						<path id="XMLID_2201_" class="st3" d="M128.6,169.8c0,0.7-0.5,1.3-1.1,1.3c-0.7,0-1.2-0.4-1.3-1.2c0-0.7,0.5-1.3,1.1-1.3
							C128,168.6,128.5,169.1,128.6,169.8z"/>
					</g>
					<g id="XMLID_1399_">
						<polygon id="XMLID_1400_" class="st13" points="122.4,168.6 123.3,176.6 127.5,174.9 						"/>
					</g>
					<path id="XMLID_1396_" class="st3" d="M114.8,166.9l2.4-2.3c0.6,0.7,0.6,1.8-0.1,2.4C116.4,167.7,115.4,167.6,114.8,166.9z"/>
					<path id="XMLID_1395_" class="st3" d="M126.8,163.9l2.7,2c-0.5,0.8-1.6,0.9-2.3,0.4C126.4,165.7,126.2,164.6,126.8,163.9z"/>
				</g>
			</g>
		</g>
		<g>
			<path class="st8" d="M88.4,90.6c1.9-0.4,3.9-0.5,5.8-0.3c1.9,0.2,3.7,0.7,5.3,1.5c1.6,0.8,3,1.9,4.2,3.3c1.2,1.4,1.9,3.1,2.3,5.1
				c0.3,1.7,0.3,3.1,0,4.5c-0.3,1.3-0.7,2.5-1.4,3.7c-0.6,1.1-1.3,2.2-2.1,3.2c-0.8,1-1.6,1.9-2.3,2.8c-0.7,0.9-1.3,1.8-1.8,2.7
				c-0.5,0.9-0.7,1.8-0.7,2.8c0,0.5-0.1,0.9-0.3,1.3c-0.2,0.4-0.6,0.6-1,0.7l-4.7,0.9c-0.5,0.1-0.9,0-1.3-0.3
				c-0.4-0.3-0.6-0.6-0.7-1.1c-0.2-1.6-0.1-3.1,0.2-4.4c0.4-1.3,0.9-2.6,1.5-3.7c0.7-1.1,1.4-2.2,2.2-3.1c0.8-1,1.6-1.9,2.3-2.8
				c0.7-0.9,1.2-1.7,1.6-2.6c0.4-0.8,0.5-1.7,0.4-2.5c-0.3-1.6-1.2-2.7-2.7-3.5c-1.5-0.8-3.4-0.9-5.6-0.5c-3.5,0.7-5.8,2.9-6.8,6.7
				c-0.1,0.5-0.3,0.9-0.5,1.1c-0.2,0.3-0.5,0.5-1.1,0.6l-5,0.9c-0.4,0.1-0.7,0-1-0.2c-0.3-0.2-0.5-0.5-0.6-0.9
				c-0.2-1.5-0.1-3,0.5-4.7c0.6-1.7,1.4-3.2,2.6-4.7c1.2-1.5,2.7-2.8,4.5-4C84.3,91.8,86.2,91,88.4,90.6z M97.6,125.4
				c0.5-0.1,0.9,0,1.3,0.3c0.4,0.3,0.6,0.6,0.7,1.1l1,5.5c0.1,0.5,0,0.9-0.3,1.3c-0.3,0.4-0.6,0.6-1.1,0.7l-5.3,1
				c-0.5,0.1-0.9,0-1.3-0.3c-0.4-0.3-0.6-0.6-0.7-1.1l-1-5.5c-0.1-0.5,0-0.9,0.3-1.3c0.3-0.4,0.6-0.6,1.1-0.7L97.6,125.4z"/>
		</g>
		<g>
			<g>
				<path class="st7" d="M139.2,113.2c1.2,0.7,2.3,1.5,3.2,2.4c0.9,1,1.7,2,2.2,3.1c0.5,1.1,0.8,2.3,0.8,3.6c0,1.2-0.3,2.5-1,3.7
					c-0.6,1-1.2,1.8-2,2.4c-0.7,0.6-1.5,1-2.3,1.3c-0.8,0.3-1.7,0.6-2.5,0.7c-0.9,0.2-1.7,0.3-2.4,0.5c-0.8,0.2-1.5,0.4-2.1,0.6
					c-0.7,0.3-1.2,0.7-1.6,1.2c-0.2,0.3-0.5,0.4-0.7,0.5c-0.3,0.1-0.6,0.1-0.9-0.1l-2.9-1.6c-0.3-0.2-0.5-0.4-0.6-0.7
					c-0.1-0.3-0.1-0.6,0.1-0.9c0.6-1,1.3-1.7,2.1-2.3c0.8-0.5,1.6-1,2.5-1.3c0.9-0.3,1.7-0.5,2.6-0.7c0.9-0.1,1.7-0.3,2.4-0.5
					c0.8-0.2,1.4-0.4,2-0.6c0.6-0.3,1-0.7,1.3-1.2c0.5-1,0.6-2,0.1-3.1c-0.5-1.1-1.4-2-2.7-2.7c-2.2-1.2-4.3-1-6.6,0.6
					c-0.3,0.2-0.5,0.3-0.7,0.4c-0.2,0.1-0.5,0-0.8-0.2l-3.1-1.7c-0.2-0.1-0.4-0.3-0.5-0.6c-0.1-0.2,0-0.5,0.1-0.7
					c0.5-0.9,1.3-1.6,2.3-2.3c1-0.6,2.2-1.1,3.5-1.3c1.3-0.3,2.7-0.3,4.1-0.1C136.5,111.9,137.9,112.4,139.2,113.2z M128.7,135.6
					c0.3,0.2,0.5,0.4,0.6,0.7c0.1,0.3,0.1,0.6-0.1,0.9l-1.9,3.3c-0.2,0.3-0.4,0.5-0.7,0.6c-0.3,0.1-0.6,0.1-0.9-0.1l-3.3-1.8
					c-0.3-0.2-0.5-0.4-0.6-0.7c-0.1-0.3-0.1-0.6,0.1-0.9l1.9-3.3c0.2-0.3,0.4-0.5,0.7-0.6c0.3-0.1,0.6-0.1,0.9,0.1L128.7,135.6z"/>
			</g>
			<g class="st9">
				<path class="st7" d="M139.2,113.2c1.2,0.7,2.3,1.5,3.2,2.4c0.9,1,1.7,2,2.2,3.1c0.5,1.1,0.8,2.3,0.8,3.6c0,1.2-0.3,2.5-1,3.7
					c-0.6,1-1.2,1.8-2,2.4c-0.7,0.6-1.5,1-2.3,1.3c-0.8,0.3-1.7,0.6-2.5,0.7c-0.9,0.2-1.7,0.3-2.4,0.5c-0.8,0.2-1.5,0.4-2.1,0.6
					c-0.7,0.3-1.2,0.7-1.6,1.2c-0.2,0.3-0.5,0.4-0.7,0.5c-0.3,0.1-0.6,0.1-0.9-0.1l-2.9-1.6c-0.3-0.2-0.5-0.4-0.6-0.7
					c-0.1-0.3-0.1-0.6,0.1-0.9c0.6-1,1.3-1.7,2.1-2.3c0.8-0.5,1.6-1,2.5-1.3c0.9-0.3,1.7-0.5,2.6-0.7c0.9-0.1,1.7-0.3,2.4-0.5
					c0.8-0.2,1.4-0.4,2-0.6c0.6-0.3,1-0.7,1.3-1.2c0.5-1,0.6-2,0.1-3.1c-0.5-1.1-1.4-2-2.7-2.7c-2.2-1.2-4.3-1-6.6,0.6
					c-0.3,0.2-0.5,0.3-0.7,0.4c-0.2,0.1-0.5,0-0.8-0.2l-3.1-1.7c-0.2-0.1-0.4-0.3-0.5-0.6c-0.1-0.2,0-0.5,0.1-0.7
					c0.5-0.9,1.3-1.6,2.3-2.3c1-0.6,2.2-1.1,3.5-1.3c1.3-0.3,2.7-0.3,4.1-0.1C136.5,111.9,137.9,112.4,139.2,113.2z M128.7,135.6
					c0.3,0.2,0.5,0.4,0.6,0.7c0.1,0.3,0.1,0.6-0.1,0.9l-1.9,3.3c-0.2,0.3-0.4,0.5-0.7,0.6c-0.3,0.1-0.6,0.1-0.9-0.1l-3.3-1.8
					c-0.3-0.2-0.5-0.4-0.6-0.7c-0.1-0.3-0.1-0.6,0.1-0.9l1.9-3.3c0.2-0.3,0.4-0.5,0.7-0.6c0.3-0.1,0.6-0.1,0.9,0.1L128.7,135.6z"/>
			</g>
		</g>
		<g class="st10">
			<g>
				<path class="st8" d="M68.8,149.9c0.3-0.3,0.6-0.4,1-0.4c0.4,0,0.7,0.2,1,0.4l3.1,3.3c0.3,0.3,0.4,0.6,0.4,1c0,0.4-0.2,0.7-0.4,1
					l-3.3,3c-0.3,0.3-0.6,0.4-1,0.4c-0.4,0-0.7-0.2-1-0.4l-3.1-3.3c-0.3-0.3-0.4-0.6-0.4-1c0-0.4,0.2-0.7,0.4-1L68.8,149.9z
					 M47.4,129.7c1.2-1.1,2.5-2,3.9-2.7c1.4-0.7,2.9-1.1,4.3-1.3c1.5-0.2,2.9,0,4.3,0.4c1.4,0.5,2.7,1.3,3.8,2.5c0.9,1,1.6,2,2,3.1
					c0.4,1,0.6,2.1,0.6,3.1c0.1,1.1,0,2.1-0.1,3.1c-0.1,1-0.2,2-0.4,2.9c-0.1,0.9-0.1,1.8-0.1,2.6c0.1,0.8,0.3,1.6,0.7,2.2
					c0.2,0.3,0.3,0.7,0.3,1c0,0.4-0.1,0.7-0.4,0.9l-2.9,2.7c-0.3,0.3-0.6,0.4-1,0.4c-0.4,0-0.7-0.2-0.9-0.5c-0.9-1-1.5-2.1-1.8-3.2
					c-0.3-1.1-0.5-2.2-0.5-3.2c0-1.1,0-2.1,0.2-3.2c0.2-1,0.3-2,0.4-2.9c0.1-0.9,0.1-1.7,0-2.5c-0.1-0.7-0.4-1.4-0.9-1.9
					c-0.9-1-2-1.4-3.4-1.2c-1.4,0.1-2.7,0.8-4.1,2c-2.1,2-2.7,4.5-1.8,7.6c0.1,0.4,0.2,0.7,0.2,1c0,0.3-0.2,0.6-0.5,0.9l-3.1,2.8
					c-0.2,0.2-0.5,0.3-0.8,0.3c-0.3,0-0.6-0.1-0.8-0.4c-0.8-0.9-1.4-2.1-1.7-3.5c-0.3-1.4-0.4-2.9-0.2-4.4c0.2-1.5,0.6-3.1,1.4-4.7
					C45,132.4,46.1,131,47.4,129.7z"/>
			</g>
			<g class="st11">
				<path class="st8" d="M68.8,149.9c0.3-0.3,0.6-0.4,1-0.4c0.4,0,0.7,0.2,1,0.4l3.1,3.3c0.3,0.3,0.4,0.6,0.4,1c0,0.4-0.2,0.7-0.4,1
					l-3.3,3c-0.3,0.3-0.6,0.4-1,0.4c-0.4,0-0.7-0.2-1-0.4l-3.1-3.3c-0.3-0.3-0.4-0.6-0.4-1c0-0.4,0.2-0.7,0.4-1L68.8,149.9z
					 M47.4,129.7c1.2-1.1,2.5-2,3.9-2.7c1.4-0.7,2.9-1.1,4.3-1.3c1.5-0.2,2.9,0,4.3,0.4c1.4,0.5,2.7,1.3,3.8,2.5c0.9,1,1.6,2,2,3.1
					c0.4,1,0.6,2.1,0.6,3.1c0.1,1.1,0,2.1-0.1,3.1c-0.1,1-0.2,2-0.4,2.9c-0.1,0.9-0.1,1.8-0.1,2.6c0.1,0.8,0.3,1.6,0.7,2.2
					c0.2,0.3,0.3,0.7,0.3,1c0,0.4-0.1,0.7-0.4,0.9l-2.9,2.7c-0.3,0.3-0.6,0.4-1,0.4c-0.4,0-0.7-0.2-0.9-0.5c-0.9-1-1.5-2.1-1.8-3.2
					c-0.3-1.1-0.5-2.2-0.5-3.2c0-1.1,0-2.1,0.2-3.2c0.2-1,0.3-2,0.4-2.9c0.1-0.9,0.1-1.7,0-2.5c-0.1-0.7-0.4-1.4-0.9-1.9
					c-0.9-1-2-1.4-3.4-1.2c-1.4,0.1-2.7,0.8-4.1,2c-2.1,2-2.7,4.5-1.8,7.6c0.1,0.4,0.2,0.7,0.2,1c0,0.3-0.2,0.6-0.5,0.9l-3.1,2.8
					c-0.2,0.2-0.5,0.3-0.8,0.3c-0.3,0-0.6-0.1-0.8-0.4c-0.8-0.9-1.4-2.1-1.7-3.5c-0.3-1.4-0.4-2.9-0.2-4.4c0.2-1.5,0.6-3.1,1.4-4.7
					C45,132.4,46.1,131,47.4,129.7z"/>
			</g>
		</g>
		<path class="st15" d="M272.4,219.6c-2.9-1.6-14.9-8.6-18.9-10.9c-0.8-0.5-1.3-0.8-1.4-0.8c-2-1.2-4.2-1.5-6.7-1
			c-1.7,0.3-3.6,1-5.5,2.1c-0.3,0.2-0.6,0.4-0.8,0.5c-4.6,2.9-8.6,7.5-11.9,13.8c-3.5,6.7-5.2,13.3-5.2,20c0,6.6,1.8,11.3,5.3,13.9
			c0.4,0.3,0.7,0.5,1.1,0.7c3.3,1.9,19.9,11.5,20.3,11.7c0,0,0.1,0,0.1,0c-0.4-0.2-0.8-0.5-1.2-0.8c-3.5-2.7-5.3-7.3-5.3-13.9
			c0-6.6,1.7-13.3,5.2-20c3.5-6.7,7.7-11.5,12.7-14.3C265,218,269.1,217.7,272.4,219.6C272.5,219.7,272.5,219.7,272.4,219.6z"/>
		<path class="st14" d="M272.5,219.7c-3.4-2-7.5-1.7-12.3,1.1c-4.6,2.7-8.6,7-11.9,13L228,222c3.1-5.6,6.8-9.7,11.1-12.4
			c0.3-0.2,0.6-0.4,0.8-0.5c1.9-1.1,3.8-1.8,5.5-2.1c2.4-0.5,4.7-0.1,6.7,1c0.1,0,0.6,0.3,1.4,0.8
			C257.6,211.1,269.6,218,272.5,219.7C272.5,219.7,272.5,219.7,272.5,219.7z"/>
		<path class="st16" d="M248.8,269.8C248.8,269.7,248.7,269.7,248.8,269.8c-0.5-0.3-17.1-9.9-20.4-11.8c-0.4-0.2-0.8-0.5-1.1-0.7
			c-3.5-2.7-5.3-7.3-5.3-13.9c0-6.6,1.8-13.3,5.3-20c0.2-0.5,0.5-0.9,0.8-1.4l20.3,11.7c-0.3,0.4-0.5,0.9-0.7,1.4
			c-3.5,6.7-5.3,13.3-5.3,20c0,6.6,1.8,11.3,5.3,13.9C248,269.3,248.4,269.5,248.8,269.8z"/>
		<path class="st7" d="M263.6,48c9.9-5.7,18.3-8.1,25.2-7.3c2.9,0.4,5.6,1.3,8,2.7c-0.1,0-0.1-0.1-0.2-0.1
			c-2.4-1.3-16.7-9.6-20-11.5c-2.5-1.5-5.2-2.4-8.2-2.7c-6.9-0.9-15.3,1.6-25.2,7.3c-15.3,8.8-27.7,21.8-37,39
			c-9.4,17.1-14,34.7-13.9,52.5l20.3,11.7c-0.1-17.9,4.5-35.4,13.9-52.5C235.9,69.9,248.3,56.9,263.6,48z"/>
		<path class="st17" d="M225.4,89.2c-8.6,16.5-12.8,33.3-12.7,50.4l-20.3-11.7c-0.1-17.1,4.1-33.9,12.7-50.4L225.4,89.2z"/>
		<path class="st7" d="M277.4,81.3c-3.7-2-8.6-1.2-14.8,2.3c-0.2,3.7-1,7.2-2.2,10.7c-1.5,4.2-6,12.7-13.4,25.7
			c-7.7,13.4-13.3,26.2-16.7,38.4c-3.4,12.2-5.1,24.5-5.1,37l0.1,6.2l13.9,8l6.5,3.7l-0.1-6.2c0-0.1,0-0.1,0-0.2
			c0-12.4,1.7-24.7,5.1-36.9c3.4-12.2,9-25,16.7-38.4c7.4-13,11.9-21.5,13.4-25.7c1.5-4.2,2.3-8.4,2.3-12.8
			C283,87.3,281.1,83.3,277.4,81.3z"/>
		<path class="st18" d="M278.7,110.6c-2.3,4.8-6.1,11.8-11.4,21.1c-7.7,13.4-13.3,26.2-16.7,38.4c-3.4,12.1-5.1,24.4-5.1,36.9v0.2
			l0.1,6.2l-6.5-3.7l-13.9-8l-0.1-6.2c0-12.5,1.7-24.8,5.1-37c3.4-12.2,9-25,16.7-38.4c5.3-9.3,9.2-16.4,11.5-21.1L278.7,110.6z"/>
		<path class="st8" d="M240.2,123.7l-27.5,15.9c-0.1-17.9,4.5-35.4,13.9-52.5c9.4-17.1,21.7-30.1,37-39c9.9-5.7,18.3-8.1,25.2-7.3
			c6.9,0.9,12.5,4.6,16.6,11.4c4.2,6.7,6.2,15.1,6.2,25.2c0,5.5-0.7,11.3-2,17.4c-1.3,6.1-3.4,12.8-6.3,20
			c-1.7,4.2-5.7,12.1-12.1,23.5c-6.1,10.9-9.9,18.3-11.4,22.2c-1.5,3.9-2.8,8.7-3.9,14.3c-1,5.6-1.7,13-2,22.1l-28.4,16.4l-0.1-6.2
			c0-12.5,1.7-24.8,5.1-37c3.4-12.2,9-25,16.7-38.4c7.4-13,11.9-21.5,13.4-25.7c1.5-4.2,2.3-8.4,2.3-12.8c0-6-1.9-9.9-5.6-11.9
			c-3.7-2-8.8-1.2-15.1,2.5c-6.4,3.7-11.7,9.3-15.8,16.7C242.3,107.9,240.2,115.7,240.2,123.7z"/>
		<path class="st8" d="M260.2,220.8c5.1-2.9,9.5-3.1,13.1-0.5c3.6,2.6,5.4,7.2,5.4,13.8c0,6.6-1.8,13.3-5.4,20.1
			c-3.6,6.8-7.9,11.6-12.9,14.5c-5,2.9-9.3,3-12.9,0.4c-3.5-2.7-5.3-7.3-5.3-13.9c0-6.6,1.7-13.3,5.2-20
			C251,228.5,255.2,223.7,260.2,220.8z"/>
		<path class="st19" d="M283,93.2c0,4.4-0.8,8.7-2.3,12.8c-0.4,1.2-1.1,2.7-2,4.5l-20.3-11.7c0.9-1.8,1.6-3.4,2-4.5
			c1.3-3.5,2-7.1,2.2-10.7c6.2-3.5,11.1-4.3,14.8-2.3C281.1,83.3,283,87.3,283,93.2z"/>
		<path class="st20" d="M297.6,43.3c-2.4-1.3-5-2.2-7.8-2.5c-6.9-0.8-15.3,1.6-25.2,7.3c-15.3,8.8-27.7,21.8-37.1,39
			c-0.4,0.7-0.8,1.4-1.1,2.1l-20.3-11.7c0.4-0.7,0.8-1.4,1.1-2.1c9.4-17.1,21.7-30.1,37-39c9.9-5.7,18.3-8.1,25.2-7.3
			c3,0.4,5.7,1.3,8.2,2.7C280.9,33.7,295.2,42,297.6,43.3z"/>
	</g>
</g>
</svg>
