<svg id="Camada_1" data-name="Camada 1" xmlns="http://www.w3.org/2000/svg" viewBox="0 0 312.92 371.61"><defs><style>.cls-1{fill:#003;}.cls-2{fill:#f1c438;}.cls-3{fill:#020234;}.cls-4{fill:#010134;}.cls-5{fill:#010133;}.cls-6{fill:#fed442;}.cls-7{fill:#2dcdf5;}.cls-8{fill:#2dccf4;}.cls-9{fill:#fdd342;}.cls-10{fill:#fdd442;}.cls-11{fill:#0e4a76;}</style></defs><title>lampada-de-ideia</title><path class="cls-1" d="M273.09,294.7c.37-5,1.67-6.36,6.75-7.27a110.31,110.31,0,0,1,116.34,55.88A109.2,109.2,0,0,1,375,475.22c-8,7.49-14.63,15.61-17,26.57a51,51,0,0,0-1.15,10c-.07,3.91-1.59,5.73-5.5,6.12-2,.19-2.63.9-2.43,2.75.09.86,0,1.74,0,2.62,0,2.36-.72,5.15.28,7,1.22,2.26,4.3.52,6.53.93,2.78.5,4.54,2,4.9,4.81.38,3-1,5-3.82,6.08a10.94,10.94,0,0,1-1.45.31c-2.1.44-5.46-1.23-6.12.87-1,3.06-.3,6.65-.25,10,0,1.3,1.11,1.09,1.95,1.1,1.37,0,2.74,0,4.11,0,3.37.16,5.49,2.17,5.64,5.25s-1.95,6.1-5,5.77c-5.31-.57-6.72,1.53-7.84,6.49-1.83,8.12-7.8,12.78-16.1,14a4.06,4.06,0,0,0-3.55,2.6C322.44,600.4,313,607,299.79,607c-13.35.05-22.92-6.54-28.71-18.52a3.82,3.82,0,0,0-3.22-2.51c-10-1.6-16.33-8.19-17.33-18.12-.18-1.77-.63-2.39-2.4-2.27a18.2,18.2,0,0,1-4.84-.12c-3-.62-4.9-2.58-4.72-5.78s2-5,5.23-5.3c2.08-.22,4.84.92,6.09-.49,1.48-1.68.18-4.55.56-6.85.67-4-1-5-4.81-4.74-4.59.31-7.2-2.07-7.12-5.7s2.54-5.4,7-5.44c4.88,0,4.88,0,4.88-5a33.14,33.14,0,0,1,0-4.11c.33-2.74-.16-4.28-3.53-4.4-3-.11-4.54-2.61-4.52-5.5.13-15.37-7.16-26.81-18.06-37-56.44-52.73-41.13-147,28.95-179.32,4.83-2.22,6.53-1.87,9.68,2,1.75,3.14,1.18,5.57-2.09,7.79s-6.91,3.4-10.23,5.4a98.83,98.83,0,0,0-37,38.64,96.18,96.18,0,0,0-11.48,48.92,77,77,0,0,0,2,16.26A96.77,96.77,0,0,0,223,455.62a86.06,86.06,0,0,0,10.17,10.92c10.5,9.42,18,20.66,20.52,34.76.58,3.2,2.14,4.36,5.34,4.25,5.23-.19,10.47,0,15.71-.06,4.25,0,4.58-.3,4.58-4.38q0-38.33,0-76.67c0-3.9-.42-4.4-4.3-4.31-5.63.13-10.88-.73-15.54-4.22-7.52-5.61-9.6-15.11-6.75-23.51,2.77-8.16,11.8-13.87,20.16-13.21,9.68.75,17.21,7.19,19,16.28a28.18,28.18,0,0,1,.79,7.42c-.19,3,1.19,4,4,3.86,2-.13,4,0,6,0,3.95-.07,4.36-.37,4.31-4.27-.06-4.55.29-8.94,2.64-13a20.6,20.6,0,0,1,24.57-9.09c8.82,2.92,14.88,12.39,13.65,21.31-1.42,10.19-9.32,17.76-19.19,18.36a48,48,0,0,1-5.23.05c-2.71-.14-3.84,1.05-3.81,3.76.06,4.48,0,9,0,13.46a6.8,6.8,0,0,1-3.34,6.28c-4.12,2.46-8.77.1-9.71-5.05-.63-3.45-.21-7-.29-10.45,0-1.5-.06-3,0-4.49.08-2.29-.83-3.49-3.26-3.49-12.41,0-10.24-1.14-10.29,9.52-.1,23.56,0,47.12,0,70.69,0,5.05.14,5.19,5.28,5.18,9.06,0,8.26.78,8.28-8.24,0-12,0-23.93,0-35.9a21.19,21.19,0,0,1,.3-4.84c.85-3.59,3.54-5.7,7-5.5,3.59.22,5.84,2.39,6,6.35.27,7.22.07,14.46.09,21.69s0,14.71,0,22.06c0,4,.34,4.33,4.21,4.37,5.61,0,11.23-.06,16.83,0,2.83.05,4.22-.85,4.75-3.87,2.34-13.39,9.12-24.19,19.08-33.41,21-19.4,32.12-43.3,32.35-72.18.19-23.87-7.63-44.68-22.61-63-17.7-21-40.35-32.43-67.56-34.85a100.91,100.91,0,0,0-26.06,1.51C276.33,300.46,274,298.76,273.09,294.7Z" transform="translate(-141.17 -235.43)"/><path class="cls-2" d="M273.09,294.7c1.65,3.52,4.2,4.68,8.16,4q49.08-8.34,85.92,25.28a45.61,45.61,0,0,1,7.53,8.23c-1.95,1.06-3-.61-4.18-1.51-13.64-10.32-28.7-17.62-45.67-20.15-34-5.07-63.91,3.65-88.94,27.59-16.89,16.14-26.86,36-30.44,59a80.42,80.42,0,0,0-1.15,13c0,1.57.36,3.28-1,4.56a86.8,86.8,0,0,1,.54-41.8c7.62-30.62,25.8-52.83,54.16-66.68,4.86-2.37,5.49-3.37,5-8.29Z" transform="translate(-141.17 -235.43)"/><path class="cls-1" d="M379.94,260.47a13,13,0,0,1-1.73,5.25c-3.48,6.31-7,12.61-10.66,18.83-1.85,3.16-4.78,4.05-7.6,2.67s-3.84-4.28-2.43-7.67c3.31-7.95,8-15.19,12.47-22.48,1.42-2.29,3.91-2.65,6.34-1.81A5.33,5.33,0,0,1,379.94,260.47Z" transform="translate(-141.17 -235.43)"/><path class="cls-1" d="M238.47,282.07c-.3,2.57-1.31,4.45-3.7,5.31s-5,.41-6.31-1.8c-4.59-7.51-9.45-14.91-12.7-23.16a5.07,5.07,0,0,1,2.68-6.91c2.6-1.3,5.36-.83,6.94,1.72,4.44,7.19,8.9,14.37,12.31,22.13A19.15,19.15,0,0,1,238.47,282.07Z" transform="translate(-141.17 -235.43)"/><path class="cls-3" d="M303.28,252.19c0,3.61.09,7.23,0,10.84-.13,4-2.43,6.44-5.82,6.33s-5.38-2.43-5.43-6.33q-.17-10.65,0-21.3c.05-4,2.13-6.2,5.42-6.3,3.47-.11,5.69,2.21,5.83,6.29C303.37,245.21,303.28,248.7,303.28,252.19Z" transform="translate(-141.17 -235.43)"/><path class="cls-1" d="M432.59,472.16a5.41,5.41,0,0,1-7.9,4.95c-7-3.7-13.84-7.74-20.58-11.91-2.62-1.62-3.17-4.36-1.64-7.2a5.28,5.28,0,0,1,7.35-2.23c6.84,3.76,13.56,7.73,20.29,11.68A5.1,5.1,0,0,1,432.59,472.16Z" transform="translate(-141.17 -235.43)"/><path class="cls-1" d="M409.54,336.1a5.23,5.23,0,0,1-5.4-3.52c-.89-2.41-.54-4.95,1.73-6.32q10.49-6.36,21.25-12.24c2.53-1.38,4.92-.23,6.5,2s1.76,5.14-.46,6.76c-7,5.13-14.69,9.15-22.37,13.15A3.29,3.29,0,0,1,409.54,336.1Z" transform="translate(-141.17 -235.43)"/><path class="cls-1" d="M191.45,330.37a5.43,5.43,0,0,1-8,5.13c-6.89-3.66-13.62-7.64-20.28-11.69a5.54,5.54,0,0,1,5.65-9.53c6.72,3.7,13.35,7.59,20,11.47A5.08,5.08,0,0,1,191.45,330.37Z" transform="translate(-141.17 -235.43)"/><path class="cls-1" d="M168.53,477.61c-2.65.06-4.56-1-5.46-3.33s-.73-5,1.54-6.37q10.62-6.46,21.56-12.41c2.54-1.38,4.9-.05,6.43,2.2s1.56,5.17-.68,6.74a165.88,165.88,0,0,1-22.44,13A2.7,2.7,0,0,1,168.53,477.61Z" transform="translate(-141.17 -235.43)"/><path class="cls-4" d="M157.9,401.56c-3.49,0-7,.08-10.46,0-4.09-.12-6.37-2.32-6.27-5.83s2.27-5.32,6.28-5.35c7.09-.07,14.2-.07,21.29,0,4,0,6.18,2,6.27,5.36s-2.2,5.71-6.28,5.82C165.12,401.64,161.51,401.56,157.9,401.56Z" transform="translate(-141.17 -235.43)"/><path class="cls-5" d="M437.25,390.34c3.61,0,7.22-.08,10.83,0s5.86,2.07,6,5.28c.14,3.36-2,5.84-5.81,5.92q-11.2.24-22.41,0a5.38,5.38,0,0,1-5.62-5.71c0-3.26,2.12-5.33,5.8-5.45S433.51,390.35,437.25,390.34Z" transform="translate(-141.17 -235.43)"/><path class="cls-6" d="M203.27,414.68c-.13-16.63,2.89-32.64,10.37-47.53,15-29.83,38.61-49.22,71.32-56.53,26.64-6,52-1.85,75.62,12.14,4.91,2.9,9.11,6.76,14.12,9.46a90.23,90.23,0,0,1,22.37,49.2c4.46,35-6.58,64.53-32.66,88.38C354.31,479,348,490.33,346.19,504c-.29,2.27-1.17,2.85-3.34,2.81-7-.13-14-.18-20.94,0-2.76.08-3.25-.93-3.24-3.43.11-15,.07-29.92,0-44.89,0-4.32-1.87-6.56-5.34-6.68-3.73-.13-5.88,2.34-5.9,7,0,12,.06,23.95-.05,35.92,0,3.93,1.75,9.2-.78,11.43-2.2,1.94-7.37.33-11.19.67-3.21.29-3.85-.87-3.84-3.92q.19-40,0-80.05c0-3.11.73-4.14,3.87-3.86a75.06,75.06,0,0,0,9.72,0c1.86-.08,2.32.63,2.29,2.37-.09,5.11-.07,10.22,0,15.34,0,4.32,2.22,6.92,5.66,6.94s5.55-2.6,5.59-6.92c0-4.86.12-9.73,0-14.59-.09-2.38.53-3.26,3.07-3.17,3.47.11,7,.38,10.41-.54,9.66-2.59,16.11-12,14.56-21.47-1.72-10.44-10.36-17.47-20.54-16.72A19.18,19.18,0,0,0,308,399c-.11,2.83,1.25,6.67-.65,8.2s-5.45.55-8.29.56c-7.42,0-7.43,0-7.61-7.44-.27-11-6.86-18.57-17.39-20A19.41,19.41,0,1,0,271,419c.62,0,1.24,0,1.87,0,7.58,0,7.58,0,7.58,7.46,0,25.57-.05,51.13.08,76.69,0,3-.87,3.71-3.72,3.62-6.86-.2-13.72-.09-20.58,0-1.6,0-2.68,0-3-2.18-2-15.16-9.69-27.1-20.87-37.28-14.88-13.55-24.2-30.5-28.83-50A22.28,22.28,0,0,1,203.27,414.68Z" transform="translate(-141.17 -235.43)"/><path class="cls-7" d="M299.46,531.2c-11.57,0-23.15-.06-34.72.06-2.43,0-3.31-.63-3.11-3.11.26-3.2-1-7.38.62-9.4s6.07-.69,9.25-.7c20.79-.06,41.57,0,62.36-.09,2.91,0,3.8.73,3.77,3.72-.12,9.52,0,9.52-9.42,9.52Z" transform="translate(-141.17 -235.43)"/><path class="cls-7" d="M299.48,554.4c-11.47,0-23-.06-34.42.05-2.42,0-3.48-.33-3.46-3.16.06-8.86-.07-8.86,8.91-8.86,21.2,0,42.4.05,63.6-.07,2.81,0,3.55.72,3.51,3.52-.11,8.52,0,8.52-8.58,8.52Z" transform="translate(-141.17 -235.43)"/><path class="cls-8" d="M299.74,565.65h34.35c3.66,0,4.11.7,2.68,4.09a7.76,7.76,0,0,1-6.4,5.06,33.19,33.19,0,0,1-4.46.3q-26.68,0-53.38,0c-5.9,0-9.32-2.18-10.56-6.42-.62-2.14-.3-3.11,2.31-3.08C276.1,565.72,287.92,565.65,299.74,565.65Z" transform="translate(-141.17 -235.43)"/><path class="cls-9" d="M274.49,407.79c-7.08,0-10.8-2.89-10.76-8.34a8.14,8.14,0,0,1,16-2.08c.78,2.92.31,5.92.42,8.88,0,1.08-.47,1.58-1.56,1.55C277.21,407.76,275.85,407.79,274.49,407.79Z" transform="translate(-141.17 -235.43)"/><path class="cls-10" d="M324.22,407.76c-5,0-5,0-5-5.14,0-1.12,0-2.24,0-3.36a8.06,8.06,0,0,1,8.31-7.83,8.23,8.23,0,0,1,8.08,7.77,8.33,8.33,0,0,1-7.69,8.55C326.72,407.86,325.47,407.76,324.22,407.76Z" transform="translate(-141.17 -235.43)"/><path class="cls-11" d="M282.84,586.72h33.31a16.84,16.84,0,0,1-12.38,8.73C295.46,596.78,288.33,594.37,282.84,586.72Z" transform="translate(-141.17 -235.43)"/></svg>