<svg width="105" height="75" viewBox="0 0 105 75" fill="none" xmlns="http://www.w3.org/2000/svg">
<path d="M68.9062 37.5C68.9062 42.0207 67.1777 46.3563 64.101 49.5529C61.0242 52.7496 56.8512 54.5454 52.5 54.5454C48.1488 54.5454 43.9758 52.7496 40.899 49.5529C37.8223 46.3563 36.0938 42.0207 36.0938 37.5C36.0938 32.9792 37.8223 28.6437 40.899 25.447C43.9758 22.2504 48.1488 20.4545 52.5 20.4545C56.8512 20.4545 61.0242 22.2504 64.101 25.447C67.1777 28.6437 68.9062 32.9792 68.9062 37.5Z" fill="white"/>
<path d="M0 37.5C0 37.5 19.6875 0 52.5 0C85.3125 0 105 37.5 105 37.5C105 37.5 85.3125 75 52.5 75C19.6875 75 0 37.5 0 37.5ZM52.5 61.3636C58.5917 61.3636 64.4339 58.8494 68.7414 54.3741C73.0488 49.8988 75.4688 43.829 75.4688 37.5C75.4688 31.171 73.0488 25.1012 68.7414 20.6259C64.4339 16.1506 58.5917 13.6364 52.5 13.6364C46.4083 13.6364 40.5661 16.1506 36.2586 20.6259C31.9512 25.1012 29.5312 31.171 29.5312 37.5C29.5312 43.829 31.9512 49.8988 36.2586 54.3741C40.5661 58.8494 46.4083 61.3636 52.5 61.3636Z" fill="white"/>
</svg>
