<svg width="85" height="85" viewBox="0 0 85 85" fill="none" xmlns="http://www.w3.org/2000/svg">
<path fill-rule="evenodd" clip-rule="evenodd" d="M34 5.3125H68V42.5C68.0001 42.97 67.8672 43.4316 67.6149 43.8377C67.3625 44.2437 66.9998 44.5798 66.5636 44.8115C66.1275 45.0432 65.6336 45.1623 65.1323 45.1566C64.631 45.1509 64.1404 45.0206 63.7103 44.7791L51 37.6284L38.2897 44.7844C37.8592 45.0262 37.368 45.1565 36.8663 45.1619C36.3645 45.1674 35.8702 45.0479 35.4339 44.8155C34.9976 44.5832 34.6349 44.2464 34.383 43.8395C34.1311 43.4327 33.9989 42.9704 34 42.5V5.3125Z" fill="white"/>
<path d="M17.0001 0H73.6667C76.6725 0 79.5552 1.11942 81.6806 3.11199C83.806 5.10456 85.0001 7.80707 85.0001 10.625V74.375C85.0001 77.1929 83.806 79.8954 81.6806 81.888C79.5552 83.8806 76.6725 85 73.6667 85H17.0001C13.9943 85 11.1116 83.8806 8.9862 81.888C6.86079 79.8954 5.66675 77.1929 5.66675 74.375V69.0625H11.3334V74.375C11.3334 75.784 11.9304 77.1352 12.9931 78.1315C14.0558 79.1278 15.4972 79.6875 17.0001 79.6875H73.6667C75.1696 79.6875 76.611 79.1278 77.6737 78.1315C78.7364 77.1352 79.3334 75.784 79.3334 74.375V10.625C79.3334 9.21604 78.7364 7.86478 77.6737 6.86849C76.611 5.87221 75.1696 5.3125 73.6667 5.3125H17.0001C15.4972 5.3125 14.0558 5.87221 12.9931 6.86849C11.9304 7.86478 11.3334 9.21604 11.3334 10.625V15.9375H5.66675V10.625C5.66675 7.80707 6.86079 5.10456 8.9862 3.11199C11.1116 1.11942 13.9943 0 17.0001 0V0Z" fill="white"/>
<path d="M5.66667 26.5625V23.9062C5.66667 23.2018 5.96518 22.5261 6.49653 22.028C7.02788 21.5299 7.74855 21.25 8.5 21.25C9.25145 21.25 9.97212 21.5299 10.5035 22.028C11.0348 22.5261 11.3333 23.2018 11.3333 23.9062V26.5625H14.1667C14.9181 26.5625 15.6388 26.8424 16.1701 27.3405C16.7015 27.8386 17 28.5143 17 29.2188C17 29.9232 16.7015 30.5989 16.1701 31.097C15.6388 31.5951 14.9181 31.875 14.1667 31.875H2.83333C2.08189 31.875 1.36122 31.5951 0.829864 31.097C0.298511 30.5989 0 29.9232 0 29.2188C0 28.5143 0.298511 27.8386 0.829864 27.3405C1.36122 26.8424 2.08189 26.5625 2.83333 26.5625H5.66667ZM5.66667 42.5V39.8438C5.66667 39.1393 5.96518 38.4636 6.49653 37.9655C7.02788 37.4674 7.74855 37.1875 8.5 37.1875C9.25145 37.1875 9.97212 37.4674 10.5035 37.9655C11.0348 38.4636 11.3333 39.1393 11.3333 39.8438V42.5H14.1667C14.9181 42.5 15.6388 42.7799 16.1701 43.278C16.7015 43.7761 17 44.4518 17 45.1562C17 45.8607 16.7015 46.5364 16.1701 47.0345C15.6388 47.5326 14.9181 47.8125 14.1667 47.8125H2.83333C2.08189 47.8125 1.36122 47.5326 0.829864 47.0345C0.298511 46.5364 0 45.8607 0 45.1562C0 44.4518 0.298511 43.7761 0.829864 43.278C1.36122 42.7799 2.08189 42.5 2.83333 42.5H5.66667ZM5.66667 58.4375V55.7812C5.66667 55.0768 5.96518 54.4011 6.49653 53.903C7.02788 53.4049 7.74855 53.125 8.5 53.125C9.25145 53.125 9.97212 53.4049 10.5035 53.903C11.0348 54.4011 11.3333 55.0768 11.3333 55.7812V58.4375H14.1667C14.9181 58.4375 15.6388 58.7174 16.1701 59.2155C16.7015 59.7136 17 60.3893 17 61.0938C17 61.7982 16.7015 62.4739 16.1701 62.972C15.6388 63.4701 14.9181 63.75 14.1667 63.75H2.83333C2.08189 63.75 1.36122 63.4701 0.829864 62.972C0.298511 62.4739 0 61.7982 0 61.0938C0 60.3893 0.298511 59.7136 0.829864 59.2155C1.36122 58.7174 2.08189 58.4375 2.83333 58.4375H5.66667Z" fill="white"/>
</svg>
