<?xml version="1.0" encoding="UTF-8" standalone="no"?>
<!-- Created with Inkscape (http://www.inkscape.org/) -->

<svg
   xmlns:dc="http://purl.org/dc/elements/1.1/"
   xmlns:cc="http://creativecommons.org/ns#"
   xmlns:rdf="http://www.w3.org/1999/02/22-rdf-syntax-ns#"
   xmlns:svg="http://www.w3.org/2000/svg"
   xmlns="http://www.w3.org/2000/svg"
   xmlns:sodipodi="http://sodipodi.sourceforge.net/DTD/sodipodi-0.dtd"
   xmlns:inkscape="http://www.inkscape.org/namespaces/inkscape"
   version="1.1"
   id="svg2"
   xml:space="preserve"
   width="4096"
   height="4096"
   viewBox="0 0 4096.0001 4096"
   sodipodi:docname="mrv-logo-2019.svg"
   inkscape:version="0.92.2 (5c3e80d, 2017-08-06)"
   inkscape:export-filename="G:\Users\suitedoalex\sites\mrv-logo-0.png"
   inkscape:export-xdpi="96"
   inkscape:export-ydpi="96"><metadata
     id="metadata8"><rdf:RDF><cc:Work
         rdf:about=""><dc:format>image/svg+xml</dc:format><dc:type
           rdf:resource="http://purl.org/dc/dcmitype/StillImage" /><dc:title></dc:title></cc:Work></rdf:RDF></metadata><defs
     id="defs6"><clipPath
       clipPathUnits="userSpaceOnUse"
       id="clipPath20"><path
         d="M 0,768 H 1366 V 0 H 0 Z"
         id="path18"
         inkscape:connector-curvature="0" /></clipPath><clipPath
       clipPathUnits="userSpaceOnUse"
       id="clipPath38"><path
         d="M 0,768 H 1366 V 0 H 0 Z"
         id="path36"
         inkscape:connector-curvature="0" /></clipPath><clipPath
       clipPathUnits="userSpaceOnUse"
       id="clipPath174"><path
         d="M 0,0 H 1366 V 768 H 0 Z"
         id="path172"
         inkscape:connector-curvature="0" /></clipPath><linearGradient
       x1="0"
       y1="0"
       x2="1"
       y2="0"
       gradientUnits="userSpaceOnUse"
       gradientTransform="matrix(86.307152,86.307152,86.307152,-86.307152,345.08731,309.8739)"
       spreadMethod="pad"
       id="linearGradient210"><stop
         style="stop-opacity:1;stop-color:#f58521"
         offset="0"
         id="stop200" /><stop
         style="stop-opacity:1;stop-color:#f58521"
         offset="0.313136"
         id="stop202" /><stop
         style="stop-opacity:1;stop-color:#ffb819"
         offset="0.759091"
         id="stop204" /><stop
         style="stop-opacity:1;stop-color:#ffb819"
         offset="0.77691842"
         id="stop206" /><stop
         style="stop-opacity:1;stop-color:#ffb819"
         offset="1"
         id="stop208" /></linearGradient><linearGradient
       x1="0"
       y1="0"
       x2="1"
       y2="0"
       gradientUnits="userSpaceOnUse"
       gradientTransform="matrix(0,69.501572,69.501572,0,325.78262,318.24329)"
       spreadMethod="pad"
       id="linearGradient236"><stop
         style="stop-opacity:1;stop-color:#00d48c"
         offset="0"
         id="stop226" /><stop
         style="stop-opacity:1;stop-color:#00d48c"
         offset="0.05377478"
         id="stop228" /><stop
         style="stop-opacity:1;stop-color:#82eb5c"
         offset="0.970182"
         id="stop230" /><stop
         style="stop-opacity:1;stop-color:#82eb5c"
         offset="0.97238855"
         id="stop232" /><stop
         style="stop-opacity:1;stop-color:#82eb5c"
         offset="1"
         id="stop234" /></linearGradient><linearGradient
       x1="0"
       y1="0"
       x2="1"
       y2="0"
       gradientUnits="userSpaceOnUse"
       gradientTransform="matrix(0,-34.98962,-34.98962,0,387.80527,353.23303)"
       spreadMethod="pad"
       id="linearGradient262"><stop
         style="stop-opacity:1;stop-color:#006b40"
         offset="0"
         id="stop252" /><stop
         style="stop-opacity:1;stop-color:#006b40"
         offset="0.0298636"
         id="stop254" /><stop
         style="stop-opacity:1;stop-color:#089e57"
         offset="0.980136"
         id="stop256" /><stop
         style="stop-opacity:1;stop-color:#089e57"
         offset="0.98160595"
         id="stop258" /><stop
         style="stop-opacity:1;stop-color:#089e57"
         offset="1"
         id="stop260" /></linearGradient><linearGradient
       x1="0"
       y1="0"
       x2="1"
       y2="0"
       gradientUnits="userSpaceOnUse"
       gradientTransform="matrix(419.59454,484.39319,484.39319,-419.59454,794.93549,110.48438)"
       spreadMethod="pad"
       id="linearGradient306"><stop
         style="stop-opacity:1;stop-color:#006b40"
         offset="0"
         id="stop296" /><stop
         style="stop-opacity:1;stop-color:#006b40"
         offset="0.0298636"
         id="stop298" /><stop
         style="stop-opacity:1;stop-color:#089e57"
         offset="0.980136"
         id="stop300" /><stop
         style="stop-opacity:1;stop-color:#089e57"
         offset="0.98160595"
         id="stop302" /><stop
         style="stop-opacity:1;stop-color:#089e57"
         offset="1"
         id="stop304" /></linearGradient><clipPath
       clipPathUnits="userSpaceOnUse"
       id="clipPath316"><path
         d="M 0,0 H 1366 V 768 H 0 Z"
         id="path314"
         inkscape:connector-curvature="0" /></clipPath><linearGradient
       x1="0"
       y1="0"
       x2="1"
       y2="0"
       gradientUnits="userSpaceOnUse"
       gradientTransform="matrix(86.307152,86.307152,86.307152,-86.307152,848.80472,309.8739)"
       spreadMethod="pad"
       id="linearGradient352"><stop
         style="stop-opacity:1;stop-color:#f58521"
         offset="0"
         id="stop342" /><stop
         style="stop-opacity:1;stop-color:#f58521"
         offset="0.313136"
         id="stop344" /><stop
         style="stop-opacity:1;stop-color:#ffb819"
         offset="0.759091"
         id="stop346" /><stop
         style="stop-opacity:1;stop-color:#ffb819"
         offset="0.77691842"
         id="stop348" /><stop
         style="stop-opacity:1;stop-color:#ffb819"
         offset="1"
         id="stop350" /></linearGradient><linearGradient
       x1="0"
       y1="0"
       x2="1"
       y2="0"
       gradientUnits="userSpaceOnUse"
       gradientTransform="matrix(0,69.501572,69.501572,0,829.50003,318.24329)"
       spreadMethod="pad"
       id="linearGradient378"><stop
         style="stop-opacity:1;stop-color:#00d48c"
         offset="0"
         id="stop368" /><stop
         style="stop-opacity:1;stop-color:#00d48c"
         offset="0.05377478"
         id="stop370" /><stop
         style="stop-opacity:1;stop-color:#82eb5c"
         offset="0.970182"
         id="stop372" /><stop
         style="stop-opacity:1;stop-color:#82eb5c"
         offset="0.97238855"
         id="stop374" /><stop
         style="stop-opacity:1;stop-color:#82eb5c"
         offset="1"
         id="stop376" /></linearGradient><linearGradient
       x1="0"
       y1="0"
       x2="1"
       y2="0"
       gradientUnits="userSpaceOnUse"
       gradientTransform="matrix(0,-34.98962,-34.98962,0,891.52267,353.23303)"
       spreadMethod="pad"
       id="linearGradient404"><stop
         style="stop-opacity:1;stop-color:#006b40"
         offset="0"
         id="stop394" /><stop
         style="stop-opacity:1;stop-color:#006b40"
         offset="0.0298636"
         id="stop396" /><stop
         style="stop-opacity:1;stop-color:#089e57"
         offset="0.980136"
         id="stop398" /><stop
         style="stop-opacity:1;stop-color:#089e57"
         offset="0.98160595"
         id="stop400" /><stop
         style="stop-opacity:1;stop-color:#089e57"
         offset="1"
         id="stop402" /></linearGradient></defs><sodipodi:namedview
     pagecolor="#ffffff"
     bordercolor="#666666"
     borderopacity="1"
     objecttolerance="10"
     gridtolerance="10"
     guidetolerance="10"
     inkscape:pageopacity="0"
     inkscape:pageshadow="2"
     inkscape:window-width="1600"
     inkscape:window-height="837"
     id="namedview4"
     showgrid="false"
     inkscape:zoom="0.053806737"
     inkscape:cx="2130.3923"
     inkscape:cy="1902.7664"
     inkscape:window-x="-8"
     inkscape:window-y="-8"
     inkscape:window-maximized="1"
     inkscape:current-layer="g10" /><g
     id="g10"
     inkscape:groupmode="layer"
     inkscape:label="mrv-logo-2019"
     transform="matrix(1.3333333,0,0,-1.3333333,0,4096)"><path
       d="M 263.652,143 H 737.913 V 563 H 263.652 Z"
       style="fill:none;stroke:#f6f6f6;stroke-width:2;stroke-linecap:butt;stroke-linejoin:miter;stroke-miterlimit:4;stroke-dasharray:none;stroke-opacity:1"
       id="path156"
       inkscape:connector-curvature="0" /><g
       id="g168"
       transform="matrix(6.8784653,0,0,6.8784653,-1908.6179,-892.09821)"
       inkscape:export-filename="G:\Users\suitedoalex\sites\mrv-logo-8.png"
       inkscape:export-xdpi="11.962808"
       inkscape:export-ydpi="11.962808"><g
         id="g170"
         clip-path="url(#clipPath174)"><g
           id="g176"
           transform="translate(593.8615,344.4276)"><path
             d="m 0,0 c 5.248,4.119 8.38,11.023 8.38,18.468 0,6.972 -2.371,12.733 -7.249,17.612 -4.8,4.802 -10.701,7.237 -17.541,7.237 h -28.756 c -2.938,0 -5.328,-2.508 -5.328,-5.592 v -62.922 c 0,-0.545 0.443,-0.987 0.989,-0.987 h 16.65 c 0.545,0 0.988,0.442 0.988,0.987 v 50.89 h 14.958 c 3.88,0 6.724,-3.263 6.762,-7.759 0.02,-2.381 -0.882,-4.612 -2.541,-6.283 -1.595,-1.606 -3.697,-2.491 -5.919,-2.491 h -6.431 c -0.375,0 -0.709,-0.195 -0.892,-0.521 -0.183,-0.327 -0.176,-0.712 0.02,-1.032 l 21.152,-33.319 c 0.18,-0.294 0.499,-0.472 0.843,-0.472 h 18.029 c 0.783,0 1.255,0.867 0.829,1.524 L -0.59,-0.464 Z"
             style="fill:#006b40;fill-opacity:1;fill-rule:nonzero;stroke:none"
             id="path178"
             inkscape:connector-curvature="0" /></g><g
           id="g180"
           transform="translate(638.0706,352.475)"><path
             d="m 0,0 -17.175,34.692 c -0.163,0.352 -0.516,0.578 -0.906,0.578 h -18.436 c -0.738,0 -1.221,-0.771 -0.895,-1.431 l 32.466,-65.136 c 0.935,-1.791 2.838,-2.921 4.946,-2.934 2.085,-0.033 3.969,1.075 4.969,2.934 l 32.639,65.134 c 0.327,0.66 -0.155,1.433 -0.894,1.433 H 18.065 c -0.39,0 -0.744,-0.226 -0.906,-0.578 z"
             style="fill:#006b40;fill-opacity:1;fill-rule:nonzero;stroke:none"
             id="path182"
             inkscape:connector-curvature="0" /></g><g
           id="g184"
           transform="translate(528.6666,387.2943)"><path
             d="m 0,0 c -2.162,0.882 -4.233,0.471 -6.186,-1.255 l -29.56,-31.048 -29.396,30.883 c -1.998,1.731 -4.119,2.298 -6.282,1.445 -2.242,-0.883 -3.638,-2.942 -3.638,-5.355 v -62.741 c 0,-0.541 0.442,-0.98 0.988,-0.98 h 16.562 c 0.546,0 0.988,0.439 0.988,0.98 v 30.674 l 17.027,-17.536 c 2.02,-2.053 5.501,-2.039 7.49,-0.014 l 17.038,17.551 v -30.675 c 0,-0.541 0.442,-0.98 0.988,-0.98 H 2.581 c 0.546,0 0.989,0.439 0.989,0.98 V -5.329 C 3.57,-2.941 2.202,-0.899 0,0"
             style="fill:#006b40;fill-opacity:1;fill-rule:nonzero;stroke:none"
             id="path186"
             inkscape:connector-curvature="0" /></g></g></g><g
       id="g188"
       transform="matrix(6.8784653,0,0,6.8784653,-1908.6179,-892.09821)"
       inkscape:export-filename="G:\Users\suitedoalex\sites\mrv-logo-8.png"
       inkscape:export-xdpi="11.962808"
       inkscape:export-ydpi="11.962808"><g
         id="g190"><g
           id="g196"><g
             id="g198"><path
               d="m 415.987,399.919 -46.767,-46.686 17.991,-17.967 c 0.38,-0.381 0.594,-0.896 0.594,-1.434 v 0 -12.686 c 0,-1.603 -1.301,-2.902 -2.907,-2.902 v 0 h -34.292 l -0.007,-8.062 c 0,-3.213 2.609,-5.817 5.826,-5.817 v 0 h 63.687 c 3.217,0 5.826,2.604 5.826,5.817 v 0 85.634 c -0.01,3.503 -2.88,5.819 -5.872,5.819 v 0 c -1.432,0 -2.892,-0.53 -4.079,-1.716"
               style="fill:url(#linearGradient210);stroke:none"
               id="path212"
               inkscape:connector-curvature="0" /></g></g></g></g><g
       id="g214"
       transform="matrix(6.8784653,0,0,6.8784653,-1908.6179,-892.09821)"
       inkscape:export-filename="G:\Users\suitedoalex\sites\mrv-logo-8.png"
       inkscape:export-xdpi="11.962808"
       inkscape:export-ydpi="11.962808"><g
         id="g216"><g
           id="g222"><g
             id="g224"><path
               d="m 325.783,381.452 v -56.927 c 0,-3.469 2.815,-6.281 6.289,-6.281 v 0 h 18.534 l 0.013,15.581 c 0,0.538 0.214,1.053 0.595,1.433 v 0 l 18.006,17.975 -32.701,32.66 c -1.281,1.279 -2.856,1.852 -4.401,1.852 v 0 c -3.234,0 -6.335,-2.507 -6.335,-6.293"
               style="fill:url(#linearGradient236);stroke:none"
               id="path238"
               inkscape:connector-curvature="0" /></g></g></g></g><g
       id="g240"
       transform="matrix(6.8784653,0,0,6.8784653,-1908.6179,-892.09821)"
       inkscape:export-filename="G:\Users\suitedoalex\sites\mrv-logo-8.png"
       inkscape:export-xdpi="11.962808"
       inkscape:export-ydpi="11.962808"><g
         id="g242"><g
           id="g248"><g
             id="g250"><path
               d="m 351.214,335.258 c -0.381,-0.38 -0.595,-0.895 -0.595,-1.433 v 0 l -0.013,-15.581 h 34.292 c 1.606,0 2.907,1.299 2.907,2.902 v 0 12.686 c 0,0.538 -0.214,1.053 -0.594,1.434 v 0 l -17.991,17.967 z"
               style="fill:url(#linearGradient262);stroke:none"
               id="path264"
               inkscape:connector-curvature="0" /></g></g></g></g><g
       id="g310"
       transform="matrix(10.750594,0,0,10.750594,-4584.9277,-2341.3737)"
       inkscape:export-filename="G:\Users\suitedoalex\sites\mrv-logo-5.png"
       inkscape:export-xdpi="7.654057"
       inkscape:export-ydpi="7.654057"><g
         id="g312"
         clip-path="url(#clipPath316)"><g
           id="g318"
           transform="translate(1097.579,344.4276)"><path
             d="M 0,0 C 5.248,4.119 8.38,11.023 8.38,18.468 8.38,25.44 6.009,31.201 1.131,36.08 -3.67,40.882 -9.57,43.317 -16.41,43.317 h -28.756 c -2.938,0 -5.328,-2.508 -5.328,-5.592 v -62.922 c 0,-0.545 0.443,-0.987 0.989,-0.987 h 16.65 c 0.545,0 0.988,0.442 0.988,0.987 v 50.89 h 14.958 c 3.88,0 6.724,-3.263 6.762,-7.759 0.02,-2.381 -0.882,-4.612 -2.541,-6.283 -1.595,-1.606 -3.697,-2.491 -5.919,-2.491 h -6.431 c -0.375,0 -0.709,-0.195 -0.892,-0.521 -0.183,-0.327 -0.176,-0.712 0.02,-1.032 l 21.152,-33.319 c 0.18,-0.294 0.499,-0.472 0.843,-0.472 h 18.029 c 0.783,0 1.255,0.867 0.829,1.524 L -0.59,-0.464 Z"
             style="fill:#ffffff;fill-opacity:1;fill-rule:nonzero;stroke:none"
             id="path320"
             inkscape:connector-curvature="0" /></g><g
           id="g322"
           transform="translate(1141.788,352.475)"><path
             d="m 0,0 -17.175,34.692 c -0.163,0.352 -0.516,0.578 -0.906,0.578 h -18.436 c -0.738,0 -1.221,-0.771 -0.895,-1.431 l 32.466,-65.136 c 0.935,-1.791 2.838,-2.921 4.946,-2.934 2.085,-0.033 3.969,1.075 4.969,2.934 l 32.639,65.134 c 0.327,0.66 -0.155,1.433 -0.894,1.433 H 18.065 c -0.39,0 -0.744,-0.226 -0.906,-0.578 z"
             style="fill:#ffffff;fill-opacity:1;fill-rule:nonzero;stroke:none"
             id="path324"
             inkscape:connector-curvature="0" /></g><g
           id="g326"
           transform="translate(1032.384,387.2943)"><path
             d="m 0,0 c -2.162,0.882 -4.233,0.471 -6.186,-1.255 l -29.56,-31.048 -29.396,30.883 c -1.998,1.731 -4.119,2.298 -6.282,1.445 -2.242,-0.883 -3.639,-2.942 -3.639,-5.355 v -62.741 c 0,-0.541 0.443,-0.98 0.989,-0.98 h 16.562 c 0.546,0 0.988,0.439 0.988,0.98 v 30.674 l 17.027,-17.536 c 2.02,-2.053 5.501,-2.039 7.49,-0.014 l 17.038,17.551 v -30.675 c 0,-0.541 0.442,-0.98 0.988,-0.98 H 2.581 c 0.546,0 0.989,0.439 0.989,0.98 V -5.329 C 3.57,-2.941 2.202,-0.899 0,0"
             style="fill:#ffffff;fill-opacity:1;fill-rule:nonzero;stroke:none"
             id="path328"
             inkscape:connector-curvature="0" /></g></g></g><g
       id="g330"
       transform="matrix(10.750594,0,0,10.750594,-4584.9277,-2341.3737)"
       inkscape:export-filename="G:\Users\suitedoalex\sites\mrv-logo-5.png"
       inkscape:export-xdpi="7.654057"
       inkscape:export-ydpi="7.654057"><g
         id="g332"><g
           id="g338"><g
             id="g340"><path
               d="m 919.705,399.919 -46.767,-46.686 17.99,-17.967 c 0.381,-0.381 0.595,-0.896 0.595,-1.434 v 0 -12.686 c 0,-1.603 -1.302,-2.902 -2.907,-2.902 v 0 h -34.293 l -0.006,-8.062 c 0,-3.213 2.608,-5.817 5.826,-5.817 v 0 h 63.686 c 3.218,0 5.826,2.604 5.826,5.817 v 0 85.634 c -0.009,3.503 -2.88,5.819 -5.871,5.819 v 0 c -1.432,0 -2.892,-0.53 -4.079,-1.716"
               style="fill:url(#linearGradient352);stroke:none"
               id="path354"
               inkscape:connector-curvature="0" /></g></g></g></g><g
       id="g356"
       transform="matrix(10.750594,0,0,10.750594,-4584.9277,-2341.3737)"
       inkscape:export-filename="G:\Users\suitedoalex\sites\mrv-logo-5.png"
       inkscape:export-xdpi="7.654057"
       inkscape:export-ydpi="7.654057"><g
         id="g358"><g
           id="g364"><g
             id="g366"><path
               d="m 829.5,381.452 v -56.927 c 0,-3.469 2.815,-6.281 6.289,-6.281 v 0 h 18.534 l 0.014,15.581 c 0,0.538 0.214,1.053 0.595,1.433 v 0 l 18.006,17.975 -32.702,32.66 c -1.28,1.279 -2.856,1.852 -4.401,1.852 v 0 c -3.233,0 -6.335,-2.507 -6.335,-6.293"
               style="fill:url(#linearGradient378);stroke:none"
               id="path380"
               inkscape:connector-curvature="0" /></g></g></g></g><g
       id="g382"
       transform="matrix(10.750594,0,0,10.750594,-4584.9277,-2341.3737)"
       inkscape:export-filename="G:\Users\suitedoalex\sites\mrv-logo-5.png"
       inkscape:export-xdpi="7.654057"
       inkscape:export-ydpi="7.654057"><g
         id="g384"><g
           id="g390"><g
             id="g392"><path
               d="m 854.932,335.258 c -0.381,-0.38 -0.595,-0.895 -0.595,-1.433 v 0 l -0.014,-15.581 h 34.293 c 1.605,0 2.907,1.299 2.907,2.902 v 0 12.686 c 0,0.538 -0.214,1.053 -0.595,1.434 v 0 l -17.99,17.967 z"
               style="fill:url(#linearGradient404);stroke:none"
               id="path406"
               inkscape:connector-curvature="0" /></g></g></g></g></g></svg>