<svg width="628" height="626" viewBox="0 0 628 626" fill="none" xmlns="http://www.w3.org/2000/svg">
<path d="M311.866 625.1C484.105 625.1 623.733 549.161 623.733 455.486C623.733 361.81 484.105 285.872 311.866 285.872C139.627 285.872 0 361.81 0 455.486C0 549.161 139.627 625.1 311.866 625.1Z" fill="#F5F5F5"/>
<path d="M311.866 446.551C337.849 446.551 358.912 434.426 358.912 419.469C358.912 404.512 337.849 392.386 311.866 392.386C285.884 392.386 264.821 404.512 264.821 419.469C264.821 434.426 285.884 446.551 311.866 446.551Z" fill="#E0E0E0"/>
<path d="M487.064 519.143C528.081 519.143 561.332 499.955 561.332 476.286C561.332 452.617 528.081 433.429 487.064 433.429C446.048 433.429 412.797 452.617 412.797 476.286C412.797 499.955 446.048 519.143 487.064 519.143Z" fill="#E0E0E0"/>
<path d="M122.569 523.75C163.585 523.75 196.836 504.562 196.836 480.893C196.836 457.223 163.585 438.036 122.569 438.036C81.5522 438.036 48.3016 457.223 48.3016 480.893C48.3016 504.562 81.5522 523.75 122.569 523.75Z" fill="#E0E0E0"/>
<path d="M523.779 467.491L510.796 465.956L507.446 439.711L523.36 444.457L523.779 467.491Z" fill="#B16668"/>
<path d="M495.301 488.85C494.882 489.269 495.022 491.363 495.58 492.061C496.976 493.736 500.606 495.551 505.492 495.97C510.238 496.249 514.426 495.69 517.078 493.876C519.87 492.061 521.127 490.246 521.406 487.454C521.685 484.802 521.406 482.149 522.662 480.195C523.779 478.24 525.734 476.146 526.152 475.169C526.99 472.936 526.152 469.725 526.152 469.725L495.301 488.85Z" fill="#263238"/>
<path d="M508.144 465.537C508.144 466.514 507.865 467.491 507.586 468.468C506.888 470.562 505.91 472.517 504.654 474.332C504.096 475.309 503.398 476.286 502.7 477.124C501.304 478.799 499.489 480.195 497.953 481.87C496.418 483.545 495.161 485.5 495.022 487.594C494.882 491.223 500.745 492.48 503.816 493.038C507.167 493.596 510.657 493.457 513.868 492.48C517.497 491.502 520.01 488.71 520.568 485.081C520.708 484.104 520.708 482.987 520.848 482.01C521.127 479.636 522.383 477.542 523.779 475.588C524.617 474.471 525.454 473.354 526.013 472.098C526.99 469.864 526.152 467.212 525.594 464.978C525.036 463.024 524.477 460.79 523.779 460.93C523.779 461.907 523.779 462.047 523.081 462.745C522.104 463.582 522.104 464.978 521.127 465.676C521.546 464.42 521.546 464.001 521.825 463.024C521.825 462.745 521.825 462.186 521.685 462.047C521.406 461.768 520.987 461.628 520.568 461.488C519.172 460.93 517.637 460.651 516.101 460.511C514.705 460.372 511.215 460.232 509.819 460.511C509.4 460.651 508.982 460.79 508.702 461.209C508.423 461.628 508.423 461.907 508.284 462.466C508.144 463.024 508.144 464.56 508.144 465.537Z" fill="#455A64"/>
<path d="M504.235 475.169C505.631 474.192 510.517 474.192 512.192 474.332C514.286 474.611 515.962 475.309 516.939 476.007C517.358 476.286 517.916 476.286 518.335 475.867C518.754 475.448 518.754 474.75 518.195 474.332C517.218 473.634 515.264 472.517 512.89 472.377C508.702 472.098 505.631 472.796 505.631 472.796C505.631 472.796 503.816 473.913 504.235 475.169Z" fill="#F5F5F5"/>
<path d="M501.164 478.938C502.839 477.961 508.144 478.101 509.819 478.24C511.913 478.52 513.449 479.357 514.426 480.055C514.845 480.334 515.403 480.334 515.822 479.916C516.241 479.497 516.241 478.799 515.682 478.38C514.705 477.682 510.796 476.426 508.284 476.286C504.096 476.007 503.118 476.844 503.118 476.844C503.118 476.844 501.443 477.403 501.164 478.938Z" fill="#F5F5F5"/>
<path d="M514.566 468.329C511.774 468.05 508.563 468.329 507.446 468.748C506.748 469.166 506.19 470.283 506.748 470.562C507.725 470.004 511.215 469.864 513.17 469.864C514.566 469.864 516.241 470.423 517.637 471.121C518.056 471.26 518.474 471.54 518.754 471.679C519.312 471.958 519.87 471.819 520.15 471.26C520.289 470.842 520.15 470.283 519.731 470.144C518.893 469.585 516.939 468.608 514.566 468.329Z" fill="#F5F5F5"/>
<path d="M475.338 455.486L462.914 451.996V427.007L478.27 427.705L475.338 455.486Z" fill="#B16668"/>
<path d="M436.808 468.887C436.39 469.725 436.529 471.26 436.948 472.098C437.367 473.075 442.392 475.867 449.233 475.448C455.934 475.03 460.68 472.238 463.193 470.562C465.706 468.887 468.498 468.608 471.848 468.329C475.198 468.189 479.526 466.514 480.364 464.839C481.062 463.303 480.224 460.511 480.224 460.511L436.808 468.887Z" fill="#263238"/>
<path d="M464.03 447.808C463.891 447.808 463.612 447.668 463.472 447.668C463.193 447.668 462.914 447.528 462.634 447.668C462.355 447.808 462.076 447.947 461.797 448.226C461.099 449.064 460.68 450.041 460.122 450.879C458.726 453.252 455.794 455.067 452.444 456.882C450.21 458.138 448.116 458.976 445.743 459.953C443.37 460.93 440.298 461.628 438.484 462.884C435.831 464.699 435.552 469.166 438.484 470.981C441.136 472.517 447.976 474.192 455.096 472.098C459.005 470.981 463.332 466.793 468.498 466.374C471.708 466.095 477.99 465.258 480.084 462.745C480.922 461.628 479.805 458.138 478.968 455.206C477.99 451.856 477.153 446.83 476.036 447.11C476.036 447.808 475.896 447.947 475.478 448.366C475.059 448.785 474.5 449.064 474.082 449.483C473.244 450.181 472.825 451.158 472.267 452.135C471.988 452.554 471.848 452.973 471.29 453.112C470.731 453.252 470.312 452.973 469.894 452.694C469.335 452.414 468.637 452.414 467.939 452.554C467.939 451.856 468.079 451.298 468.218 450.6C468.218 450.46 468.358 450.181 468.218 450.041C468.218 449.902 467.939 449.762 467.8 449.622C466.822 448.506 465.566 448.087 464.03 447.808Z" fill="#455A64"/>
<path d="M455.515 455.067C455.515 455.067 455.934 453.811 457.888 453.392C459.424 453.113 461.936 454.229 463.612 455.625C464.31 456.184 464.17 457.161 463.472 457.58C463.053 457.859 462.495 457.719 462.076 457.44C461.099 456.602 458.586 454.927 455.515 455.067Z" fill="#F5F5F5"/>
<path d="M450.908 457.719C450.908 457.719 451.885 456.184 453.7 456.184C453.7 456.184 457.609 456.323 459.982 458.557C460.54 459.115 460.54 460.092 459.842 460.511C459.424 460.79 458.865 460.651 458.446 460.372C457.469 459.395 455.236 457.44 450.908 457.719Z" fill="#F5F5F5"/>
<path d="M445.743 460.092C445.743 460.092 446.86 458.696 448.674 458.696C448.674 458.696 452.304 458.836 454.677 461.07C455.236 461.628 455.236 462.605 454.538 463.024C454.119 463.303 453.56 463.164 453.142 462.884C452.164 461.907 450.21 459.674 445.743 460.092Z" fill="#F5F5F5"/>
<path d="M520.987 292.433C521.825 318.259 521.964 374.099 521.964 374.099C522.244 377.31 522.523 383.033 522.802 394.62C523.081 411.372 523.919 452.694 523.919 452.694C523.919 452.694 515.962 456.463 508.563 453.392C508.563 453.392 498.372 395.178 496.278 378.706C494.463 364.187 490.973 330.264 490.973 330.264L486.087 373.401C486.087 373.401 486.087 384.569 485.389 394.48C484.831 402.158 477.432 441.665 477.432 441.665C477.432 441.665 470.592 443.899 462.634 441.107C462.634 441.107 461.936 380.381 461.797 373.401C461.657 365.444 463.751 278.752 463.751 278.752L520.987 292.433Z" fill="#455A64"/>
<path d="M490.834 330.125L489.019 315.467C489.019 315.467 481.341 313.931 472.406 307.789C472.406 307.789 475.896 312.535 486.366 317.561L488.74 330.823L486.087 373.122L490.834 330.125Z" fill="#37474F"/>
<path d="M463.053 219.98C459.284 224.866 439.88 251.53 439.88 251.53L422.011 237.71C417.823 234.359 416.566 230.171 413.914 227.1C411.262 224.168 408.47 223.47 405.538 220.958C402.606 218.445 401.49 216.63 400.512 218.724C399.535 220.818 402.746 224.587 403.304 225.425C403.863 226.262 407.213 228.496 402.746 228.217C398.279 228.077 389.763 222.912 387.669 221.935C385.575 220.958 385.575 223.61 386.552 225.285C387.53 226.96 387.111 231.567 388.228 234.638C389.344 237.71 391.438 239.524 395.487 241.479C399.256 243.433 408.609 244.55 411.541 246.504C418.102 253.345 430.666 265.909 433.737 268.282C438.065 271.493 442.253 274.424 448.954 268.142C455.654 261.721 474.919 236.593 474.919 236.593L478.968 212.721C472.127 212.442 467.52 214.117 463.053 219.98Z" fill="#B16668"/>
<path d="M439.88 251.53C442.392 253.345 444.905 257.393 445.184 259.208C445.184 259.208 445.464 254.322 440.996 249.995L439.88 251.53Z" fill="#9A4A4D"/>
<path d="M480.224 212.163C480.224 212.163 471.01 212.023 466.962 214.815C462.914 217.607 459.982 221.795 453.281 231.428C447.558 239.804 444.766 243.852 444.766 243.852C444.766 243.852 449.652 251.949 460.401 255.858L477.572 234.499L480.224 212.163Z" fill="#001935"/>
<path d="M498.093 211.744C503.258 212.302 510.657 212.302 515.822 212.861C519.452 214.396 526.292 220.399 525.873 224.727C523.919 240.781 520.01 267.165 520.01 267.165L521.266 295.085C514.147 302.205 480.364 304.997 463.053 293.55C463.053 293.55 463.612 243.433 464.868 234.918C466.962 219.701 468.916 214.117 476.734 212.721C484.552 211.325 498.093 211.744 498.093 211.744Z" fill="#123C73"/>
<path d="M527.688 220.399C531.457 225.285 550.862 251.949 550.862 251.949L568.73 238.128C572.918 234.778 574.175 230.59 576.827 227.519C579.48 224.587 582.272 223.889 585.203 221.376C588.135 218.864 589.252 217.049 590.229 219.143C591.206 221.237 587.995 225.006 587.437 225.844C586.878 226.681 583.528 228.915 587.995 228.636C592.462 228.496 600.978 223.331 603.072 222.354C605.166 221.376 605.166 224.029 604.189 225.704C603.212 227.379 603.63 231.986 602.514 235.057C601.397 238.128 599.303 239.943 595.254 241.898C591.485 243.852 582.132 244.969 579.2 246.923C572.639 253.764 560.075 266.328 557.004 268.701C552.676 271.912 548.488 274.843 541.788 268.561C535.087 262.14 520.01 242.316 520.01 242.316L511.913 213.28C518.474 212.861 523.081 214.536 527.688 220.399Z" fill="#B16668"/>
<path d="M550.862 251.949C548.349 253.764 545.836 257.812 545.557 259.627C545.557 259.627 545.278 254.741 549.745 250.413L550.862 251.949Z" fill="#9A4A4D"/>
<path d="M511.076 212.442C511.076 212.442 519.312 211.884 523.64 215.234C527.548 218.305 530.62 222.214 537.32 231.847C543.044 240.223 545.836 244.271 545.836 244.271C545.836 244.271 540.95 252.368 530.201 256.277L518.474 241.758C512.332 233.941 506.329 222.214 511.076 212.442Z" fill="#001935"/>
<path d="M499.349 173.912C499.489 182.847 492.23 190.106 483.295 190.246C474.361 190.385 467.102 183.126 466.962 174.192C466.822 165.257 474.082 157.998 483.016 157.858C491.95 157.719 499.349 164.978 499.349 173.912Z" fill="#263238"/>
<path d="M511.215 185.36C511.215 185.36 508.702 197.644 507.725 199.738C506.748 201.832 504.514 202.391 504.514 202.391L504.654 193.736L511.215 185.36Z" fill="#263238"/>
<path d="M507.865 167.63C507.865 167.63 510.657 167.072 512.89 169.306C515.124 171.539 513.868 178.38 511.355 185.22L506.469 185.778L507.865 167.63Z" fill="#263238"/>
<path d="M504.794 185.918C505.771 186.476 507.167 184.522 508.423 183.266C509.68 182.009 513.588 180.194 515.682 184.382C517.776 188.57 514.007 194.294 510.936 195.271C505.492 197.086 504.654 193.596 504.654 193.596L504.375 213.698C497.674 222.354 478.968 221.795 486.785 212.721V206.718C486.785 206.718 481.899 207.556 479.526 207.137C475.478 206.579 472.965 203.368 471.708 199.18C469.754 192.34 468.916 186.756 470.452 173.075C472.127 158.138 489.438 157.858 498.93 163.582C508.423 169.306 504.794 185.918 504.794 185.918Z" fill="#B16668"/>
<path d="M504.794 187.593C505.352 187.593 507.167 184.382 508.423 183.266C510.098 181.73 507.725 167.63 507.725 167.63C507.725 167.63 509.819 163.582 506.469 160.092C504.096 157.579 500.745 154.368 490.136 155.764C482.597 156.742 474.361 159.115 467.66 155.904C466.683 160.092 467.52 164.699 471.708 167.91C471.708 167.91 474.082 169.445 480.503 170.143C486.785 170.841 496.697 169.864 498.093 169.724C499.908 169.445 500.326 171.26 501.304 176.146C502.42 180.334 503.118 187.593 504.794 187.593Z" fill="#263238"/>
<path d="M507.865 168.747L513.868 165.536C513.03 163.861 510.936 163.163 509.261 164.14C507.586 164.978 506.888 167.072 507.865 168.747Z" fill="#263238"/>
<path d="M486.785 206.858C486.785 206.858 495.72 205.043 498.791 203.368C500.885 202.251 502.56 200.297 503.118 199.04C503.118 199.04 502.56 201.693 500.745 204.066C498.512 206.998 486.925 209.231 486.925 209.231L486.785 206.858Z" fill="#9A4A4D"/>
<path d="M485.948 184.522C485.948 185.499 486.785 186.337 487.762 186.337C488.74 186.337 489.577 185.499 489.577 184.522C489.577 183.545 488.74 182.707 487.762 182.707C486.785 182.707 485.948 183.545 485.948 184.522Z" fill="#263238"/>
<path d="M491.252 178.38L487.344 176.565C486.925 177.682 487.344 179.078 488.46 179.496C489.577 180.055 490.834 179.496 491.252 178.38Z" fill="#263238"/>
<path d="M474.361 176.146L470.871 178.798C471.569 179.776 472.965 179.915 473.942 179.217C474.919 178.659 475.059 177.263 474.361 176.146Z" fill="#263238"/>
<path d="M472.267 184.103C472.267 185.08 473.104 185.918 473.942 185.918C474.919 185.918 475.617 185.08 475.617 184.103C475.617 183.126 474.78 182.288 473.942 182.288C472.965 182.288 472.267 183.126 472.267 184.103Z" fill="#263238"/>
<path d="M481.48 182.707L480.503 193.317L474.919 191.223L481.48 182.707Z" fill="#9A4A4D"/>
<path d="M484.552 197.365C484.552 198.342 485.25 199.04 486.227 199.04C487.204 199.04 487.902 198.342 487.902 197.365C487.902 196.388 487.204 195.69 486.227 195.69C485.25 195.69 484.552 196.388 484.552 197.365Z" fill="#9A4A4D"/>
<path d="M528.107 83.5913C530.759 84.1497 533.412 85.1269 535.785 86.3833C538.158 87.6397 540.252 89.3149 541.788 91.2693C543.463 93.2237 544.58 95.3177 545.417 97.6909C546.115 100.064 546.255 102.717 545.557 105.509C544.998 107.742 544.3 109.697 543.184 111.232C542.067 112.768 540.81 114.024 539.414 115.141C538.018 116.258 536.483 117.235 534.947 118.073C533.412 118.91 531.876 119.748 530.48 120.446C529.084 121.144 527.828 121.981 526.711 122.959C525.594 123.796 524.756 124.913 524.338 126.169C524.058 126.728 523.64 127.286 523.221 127.565C522.662 127.984 522.104 127.984 521.546 127.845L514.984 126.449C514.286 126.309 513.868 125.89 513.449 125.332C513.03 124.773 513.03 124.215 513.17 123.517C513.728 121.283 514.705 119.469 515.962 117.933C517.218 116.397 518.474 115.141 520.01 114.024C521.546 112.907 523.081 111.93 524.617 111.232C526.152 110.395 527.688 109.697 529.084 108.859C530.48 108.161 531.597 107.323 532.574 106.486C533.551 105.648 534.11 104.671 534.389 103.415C534.808 101.181 534.389 99.2265 532.853 97.4117C531.318 95.5969 529.084 94.3405 526.013 93.6425C521.127 92.5257 517.078 94.2009 513.588 98.5285C513.17 99.0869 512.751 99.5057 512.332 99.7849C511.913 100.064 511.355 100.064 510.657 99.9245L503.677 98.3889C503.118 98.2493 502.7 97.9701 502.42 97.5513C502.141 97.1325 502.002 96.5741 502.141 96.0157C502.7 94.0613 503.677 92.1069 505.352 90.2921C507.027 88.4773 508.982 86.9417 511.355 85.6853C513.728 84.4289 516.38 83.5913 519.312 83.0329C522.104 82.8933 525.036 82.8933 528.107 83.5913ZM520.708 133.289C521.406 133.429 521.825 133.847 522.244 134.406C522.662 134.964 522.662 135.523 522.523 136.221L520.848 143.759C520.708 144.457 520.289 144.876 519.731 145.295C519.172 145.713 518.614 145.713 517.916 145.574L510.517 143.899C509.819 143.759 509.4 143.34 508.982 142.782C508.563 142.223 508.563 141.665 508.702 140.967L510.378 133.429C510.517 132.731 510.936 132.312 511.494 131.893C512.053 131.474 512.611 131.474 513.309 131.614L520.708 133.289Z" fill="#123C73"/>
<path d="M550.024 154.787C551.839 154.508 553.793 154.508 555.608 154.648C557.423 154.927 559.238 155.346 560.773 156.183C562.309 157.021 563.705 157.998 564.682 159.394C565.799 160.79 566.497 162.465 566.776 164.42C567.055 165.955 567.055 167.491 566.776 168.747C566.497 170.004 565.938 171.12 565.38 172.237C564.822 173.354 563.984 174.331 563.286 175.169C562.448 176.146 561.75 176.984 561.052 177.821C560.354 178.659 559.796 179.496 559.238 180.334C558.679 181.172 558.54 182.009 558.54 182.986C558.54 183.405 558.4 183.824 558.121 184.243C557.842 184.662 557.562 184.801 557.144 184.941L552.537 185.639C552.118 185.778 551.699 185.639 551.28 185.36C550.862 185.08 550.722 184.801 550.582 184.243C550.443 182.707 550.582 181.311 550.862 179.915C551.28 178.659 551.839 177.402 552.397 176.425C553.095 175.308 553.793 174.331 554.631 173.494C555.468 172.516 556.166 171.679 556.864 170.841C557.562 170.004 558.121 169.166 558.54 168.468C558.958 167.63 559.098 166.932 558.958 166.095C558.679 164.559 557.842 163.442 556.446 162.605C555.05 161.767 553.235 161.628 551.141 161.907C547.79 162.465 545.557 164.559 544.44 168.189C544.3 168.608 544.161 169.026 544.021 169.306C543.882 169.585 543.463 169.724 542.904 169.864L538.018 170.702C537.6 170.702 537.32 170.702 537.041 170.562C536.762 170.422 536.622 170.004 536.483 169.724C536.343 168.328 536.483 166.793 537.041 165.257C537.6 163.722 538.437 162.186 539.694 160.79C540.95 159.394 542.346 158.138 544.021 157.021C545.976 155.904 547.93 155.206 550.024 154.787ZM557.981 188.431C558.4 188.291 558.819 188.431 559.238 188.71C559.656 188.989 559.796 189.268 559.936 189.827L560.773 195.132C560.913 195.55 560.773 195.969 560.494 196.388C560.215 196.807 559.936 196.946 559.377 197.086L554.212 197.924C553.793 198.063 553.374 197.924 552.956 197.644C552.537 197.365 552.397 197.086 552.258 196.528L551.42 191.223C551.28 190.804 551.42 190.385 551.699 189.966C551.978 189.548 552.258 189.408 552.816 189.268L557.981 188.431Z" fill="#001935"/>
<g opacity="0.2">
<path d="M550.024 154.787C551.839 154.508 553.793 154.508 555.608 154.648C557.423 154.927 559.238 155.346 560.773 156.183C562.309 157.021 563.705 157.998 564.682 159.394C565.799 160.79 566.497 162.465 566.776 164.42C567.055 165.955 567.055 167.491 566.776 168.747C566.497 170.004 565.938 171.12 565.38 172.237C564.822 173.354 563.984 174.331 563.286 175.169C562.448 176.146 561.75 176.984 561.052 177.821C560.354 178.659 559.796 179.496 559.238 180.334C558.679 181.172 558.54 182.009 558.54 182.986C558.54 183.405 558.4 183.824 558.121 184.243C557.842 184.662 557.562 184.801 557.144 184.941L552.537 185.639C552.118 185.778 551.699 185.639 551.28 185.36C550.862 185.08 550.722 184.801 550.582 184.243C550.443 182.707 550.582 181.311 550.862 179.915C551.28 178.659 551.839 177.402 552.397 176.425C553.095 175.308 553.793 174.331 554.631 173.494C555.468 172.516 556.166 171.679 556.864 170.841C557.562 170.004 558.121 169.166 558.54 168.468C558.958 167.63 559.098 166.932 558.958 166.095C558.679 164.559 557.842 163.442 556.446 162.605C555.05 161.767 553.235 161.628 551.141 161.907C547.79 162.465 545.557 164.559 544.44 168.189C544.3 168.608 544.161 169.026 544.021 169.306C543.882 169.585 543.463 169.724 542.904 169.864L538.018 170.702C537.6 170.702 537.32 170.702 537.041 170.562C536.762 170.422 536.622 170.004 536.483 169.724C536.343 168.328 536.483 166.793 537.041 165.257C537.6 163.722 538.437 162.186 539.694 160.79C540.95 159.394 542.346 158.138 544.021 157.021C545.976 155.904 547.93 155.206 550.024 154.787ZM557.981 188.431C558.4 188.291 558.819 188.431 559.238 188.71C559.656 188.989 559.796 189.268 559.936 189.827L560.773 195.132C560.913 195.55 560.773 195.969 560.494 196.388C560.215 196.807 559.936 196.946 559.377 197.086L554.212 197.924C553.793 198.063 553.374 197.924 552.956 197.644C552.537 197.365 552.397 197.086 552.258 196.528L551.42 191.223C551.28 190.804 551.42 190.385 551.699 189.966C551.978 189.548 552.258 189.408 552.816 189.268L557.981 188.431Z" fill="#001935"/>
</g>
<g opacity="0.74">
<path d="M597.628 169.724C598.046 170.004 598.326 170.422 598.465 170.981C598.605 171.539 598.465 171.958 598.186 172.377L594.556 177.542C594.277 177.961 593.858 178.24 593.3 178.38C592.742 178.519 592.323 178.38 591.904 178.1L586.878 174.471C586.46 174.192 586.18 173.773 586.041 173.214C585.901 172.656 586.041 172.237 586.32 171.818L589.95 166.653C590.229 166.234 590.648 165.955 591.206 165.816C591.764 165.676 592.183 165.816 592.602 166.095L597.628 169.724ZM618.986 134.685C620.801 135.941 622.476 137.477 623.872 139.292C625.268 141.106 626.246 142.921 626.944 144.876C627.642 146.83 627.781 148.784 627.642 150.878C627.362 152.972 626.664 154.927 625.268 156.881C624.152 158.417 622.895 159.673 621.639 160.371C620.382 161.209 618.986 161.767 617.59 162.186C616.194 162.605 614.798 162.744 613.263 162.884C611.867 163.024 610.471 163.163 609.214 163.303C607.958 163.442 606.702 163.582 605.585 164.001C604.468 164.28 603.491 164.838 602.793 165.676C602.374 166.095 601.955 166.234 601.536 166.374C600.978 166.514 600.559 166.374 600.14 166.095L595.673 162.884C595.254 162.605 594.975 162.186 594.836 161.628C594.696 161.069 594.836 160.65 595.254 160.232C596.371 158.696 597.628 157.579 599.024 156.881C600.42 156.183 601.816 155.625 603.351 155.206C604.747 154.787 606.283 154.648 607.679 154.508C609.075 154.368 610.471 154.368 611.727 154.229C612.984 154.089 614.1 153.81 615.078 153.531C616.055 153.252 616.892 152.693 617.451 151.856C618.568 150.32 618.707 148.645 618.149 146.83C617.59 145.015 616.194 143.34 614.24 141.804C610.89 139.431 607.26 139.431 603.351 141.525C602.793 141.804 602.374 141.944 602.095 142.084C601.676 142.084 601.257 141.944 600.838 141.665L596.092 138.314C595.673 138.035 595.534 137.756 595.394 137.337C595.254 136.918 595.394 136.5 595.673 136.081C596.65 134.685 598.046 133.568 599.861 132.73C601.676 131.893 603.63 131.334 605.864 131.195C608.098 131.055 610.331 131.195 612.704 131.753C614.659 132.312 616.892 133.289 618.986 134.685Z" fill="#123C73"/>
<g opacity="0.6">
<path d="M597.628 169.724C598.046 170.004 598.326 170.422 598.465 170.981C598.605 171.539 598.465 171.958 598.186 172.377L594.556 177.542C594.277 177.961 593.858 178.24 593.3 178.38C592.742 178.519 592.323 178.38 591.904 178.1L586.878 174.471C586.46 174.192 586.18 173.773 586.041 173.214C585.901 172.656 586.041 172.237 586.32 171.818L589.95 166.653C590.229 166.234 590.648 165.955 591.206 165.816C591.764 165.676 592.183 165.816 592.602 166.095L597.628 169.724ZM618.986 134.685C620.801 135.941 622.476 137.477 623.872 139.292C625.268 141.106 626.246 142.921 626.944 144.876C627.642 146.83 627.781 148.784 627.642 150.878C627.362 152.972 626.664 154.927 625.268 156.881C624.152 158.417 622.895 159.673 621.639 160.371C620.382 161.209 618.986 161.767 617.59 162.186C616.194 162.605 614.798 162.744 613.263 162.884C611.867 163.024 610.471 163.163 609.214 163.303C607.958 163.442 606.702 163.582 605.585 164.001C604.468 164.28 603.491 164.838 602.793 165.676C602.374 166.095 601.955 166.234 601.536 166.374C600.978 166.514 600.559 166.374 600.14 166.095L595.673 162.884C595.254 162.605 594.975 162.186 594.836 161.628C594.696 161.069 594.836 160.65 595.254 160.232C596.371 158.696 597.628 157.579 599.024 156.881C600.42 156.183 601.816 155.625 603.351 155.206C604.747 154.787 606.283 154.648 607.679 154.508C609.075 154.368 610.471 154.368 611.727 154.229C612.984 154.089 614.1 153.81 615.078 153.531C616.055 153.252 616.892 152.693 617.451 151.856C618.568 150.32 618.707 148.645 618.149 146.83C617.59 145.015 616.194 143.34 614.24 141.804C610.89 139.431 607.26 139.431 603.351 141.525C602.793 141.804 602.374 141.944 602.095 142.084C601.676 142.084 601.257 141.944 600.838 141.665L596.092 138.314C595.673 138.035 595.534 137.756 595.394 137.337C595.254 136.918 595.394 136.5 595.673 136.081C596.65 134.685 598.046 133.568 599.861 132.73C601.676 131.893 603.63 131.334 605.864 131.195C608.098 131.055 610.331 131.195 612.704 131.753C614.659 132.312 616.892 133.289 618.986 134.685Z" fill="#123C73"/>
</g>
</g>
<path d="M147.836 446.133C147.697 441.945 150.768 401.042 150.768 401.042L130.805 415.56C134.854 439.99 135.831 445.714 135.831 449.762C135.831 449.902 135.691 450.181 135.691 450.739C135.691 455.486 140.996 457.999 145.184 461.209C146.859 462.466 151.606 466.095 156.492 468.608C159.563 470.144 165.705 470.283 166.403 468.329C161.378 464.42 153.979 458.697 149.93 454.229C147.976 451.996 147.976 450.321 147.836 446.133Z" fill="#FFA8A7"/>
<path d="M175.198 473.354C175.477 473.354 175.756 476.007 174.36 477.124C172.685 478.52 168.078 480.893 161.657 480.195C155.375 479.357 151.885 477.542 149.372 475.448C146.859 473.354 143.23 470.283 140.438 469.725C137.785 469.166 134.854 467.91 134.016 467.072C133.178 466.235 133.318 462.605 133.318 462.605L175.198 473.354Z" fill="#263238"/>
<path d="M135.691 448.506C135.691 448.506 134.854 448.506 134.714 449.343C134.574 450.321 134.295 453.252 133.876 454.927C133.318 457.161 132.899 461.907 133.318 463.862C133.597 465.677 138.064 467.073 140.717 468.05C143.509 469.167 146.859 471.4 149.651 473.773C152.583 476.286 158.865 478.799 163.053 478.799C167.939 478.799 173.383 477.124 174.64 474.89C176.175 472.098 174.919 470.423 167.799 467.073C166.403 466.375 161.657 463.583 159.982 462.605C155.514 459.813 151.187 455.905 149.093 451.019C148.814 450.46 148.534 449.762 148.116 449.483C147.697 449.204 147.138 449.343 146.72 449.343C145.463 449.483 144.346 449.902 143.23 450.46C142.252 450.879 140.856 451.437 140.856 452.694C140.856 453.113 140.996 453.531 141.136 453.95C141.275 454.229 141.275 454.509 141.136 454.648C140.856 454.788 140.577 454.648 140.438 454.509C139.74 453.811 139.181 452.973 138.483 452.135C138.204 451.717 137.785 451.298 137.366 451.019C136.948 450.739 136.529 450.6 136.11 450.181C135.691 449.623 135.831 449.064 135.691 448.506Z" fill="#455A64"/>
<path d="M149.791 473.773C148.534 472.796 147.138 471.679 145.882 470.842C145.882 470.842 154.398 476.007 157.888 473.634C160.121 472.098 159.004 470.283 159.004 469.725C159.004 469.167 164.449 466.654 166.543 466.375C167.101 466.654 167.66 466.933 167.939 467.073C175.198 470.423 176.454 472.098 174.779 474.89C173.523 477.124 169.474 478.939 163.192 478.939C159.144 478.939 152.722 476.146 149.791 473.773Z" fill="#37474F"/>
<path d="M158.307 467.91C162.774 469.725 160.819 470.562 159.563 470.702C158.307 470.842 150.768 466.514 146.161 462.745C141.275 458.976 138.344 454.788 136.529 453.392C135.831 452.833 135.133 452.275 134.435 451.577C134.575 450.6 134.714 449.622 134.714 449.204C134.854 448.366 135.691 448.366 135.691 448.366C135.691 448.924 135.552 449.483 136.11 449.902C136.389 450.181 136.948 450.46 137.367 450.739C137.785 451.018 138.204 451.437 138.483 451.856C139.181 452.694 139.74 453.531 140.438 454.229C144.347 459.394 153.839 466.095 158.307 467.91Z" fill="#263238"/>
<path d="M159.284 470.144C159.144 470.144 159.144 470.144 159.004 470.004C158.865 469.865 158.725 469.585 159.004 469.446C160.261 467.91 163.89 465.816 167.241 466.235C167.52 466.235 167.66 466.514 167.66 466.793C167.66 467.073 167.38 467.212 167.101 467.212C164.03 466.933 160.68 468.887 159.702 470.144C159.563 470.004 159.423 470.144 159.284 470.144Z" fill="#F5F5F5"/>
<path d="M155.375 467.771C155.235 467.771 155.235 467.771 155.096 467.631C154.956 467.491 154.816 467.212 155.096 467.073C156.352 465.537 159.982 463.443 163.332 463.862C163.611 463.862 163.751 464.141 163.751 464.42C163.751 464.699 163.472 464.839 163.192 464.839C160.121 464.56 156.771 466.514 155.794 467.771C155.654 467.631 155.514 467.771 155.375 467.771Z" fill="#F5F5F5"/>
<path d="M151.466 465.397C151.326 465.397 151.326 465.397 151.187 465.258C151.047 465.118 150.908 464.839 151.187 464.699C152.443 463.164 156.073 461.07 159.423 461.488C159.702 461.488 159.842 461.768 159.842 462.047C159.842 462.326 159.563 462.466 159.284 462.466C156.212 462.187 152.862 464.141 151.885 465.397C151.745 465.397 151.606 465.397 151.466 465.397Z" fill="#F5F5F5"/>
<path d="M147.837 462.745C147.697 462.745 147.697 462.745 147.557 462.605C147.418 462.466 147.278 462.187 147.557 462.047C148.814 460.511 152.443 458.417 155.794 458.836C156.073 458.836 156.213 459.115 156.213 459.395C156.213 459.674 155.933 459.813 155.654 459.813C152.583 459.534 149.233 461.489 148.255 462.745C148.116 462.745 147.976 462.745 147.837 462.745Z" fill="#F5F5F5"/>
<path d="M144.207 460.232C144.067 460.232 144.067 460.232 143.928 460.092C143.788 459.953 143.648 459.674 143.788 459.534C145.603 457.301 149.512 455.905 152.862 456.184C153.141 456.184 153.281 456.463 153.281 456.742C153.281 457.021 153.002 457.161 152.722 457.161C149.791 456.882 146.022 458.138 144.486 460.092C144.486 460.092 144.346 460.232 144.207 460.232Z" fill="#F5F5F5"/>
<path d="M110.284 419.608L90.1816 419.19C90.4608 432.591 92.5548 447.528 92.9736 460.092C92.9736 462.466 92.9736 478.52 93.8112 483.406C95.2072 490.804 103.862 489.688 104.281 485.36C104.7 481.032 103.723 462.186 103.723 460.232C103.583 452.135 107.492 438.454 109.446 424.076C109.586 423.517 110.144 420.306 110.284 419.608Z" fill="#FFA8A7"/>
<path d="M107.492 488.571C107.632 492.898 107.352 495.83 106.096 498.482C104.84 501.135 102.048 502.252 99.1161 501.833C96.1845 501.414 92.2757 499.739 91.0193 496.249C89.7629 492.619 89.7629 490.107 90.0421 486.058L107.492 488.571Z" fill="#263238"/>
<path d="M92.8341 458.697C91.5777 458.976 91.8569 464.699 91.7173 470.563C91.5777 476.845 90.0421 479.497 89.9025 484.662C89.7629 490.525 90.3213 493.038 92.6945 496.389C95.0677 499.739 102.606 502.391 105.677 497.087C108.19 492.759 107.771 488.152 106.934 482.429C106.096 476.426 105.398 472.377 105.259 467.771C105.119 463.443 104.979 459.255 103.863 458.836C103.863 459.534 103.863 460.232 103.863 460.93C103.863 461.349 104.002 463.722 103.304 463.862C103.165 463.303 103.165 462.745 103.165 462.187C103.165 461.628 103.025 461.209 102.746 460.791C102.327 460.511 101.908 460.372 101.35 460.372C100.093 460.232 98.9765 460.232 97.7201 460.232C97.1617 460.232 96.4637 460.232 95.9053 460.372C95.4865 460.372 94.7885 460.511 94.3697 460.791C94.0905 460.93 93.8113 461.209 93.8113 461.489C93.8113 461.768 93.8113 461.907 93.8113 462.187C93.8113 462.605 93.8113 463.024 93.8113 463.443C93.8113 463.583 93.6717 463.862 93.5321 463.862C93.3925 463.862 93.2529 463.722 93.2529 463.583C93.1133 462.885 93.2529 462.326 93.1133 461.489C93.1133 461.07 93.1133 460.651 93.1133 460.232C92.9737 459.395 92.8341 459.115 92.8341 458.697Z" fill="#455A64"/>
<path d="M90.0421 482.987C90.0421 483.824 89.9025 489.409 91.4381 490.246C93.1133 491.223 93.6717 486.756 93.6717 486.756C93.6717 486.756 97.4409 485.22 103.164 487.035C103.025 488.012 104.142 490.805 105.538 490.107C106.934 489.269 106.934 482.987 106.934 482.847C107.771 488.292 107.911 492.759 105.538 496.947C102.466 502.252 94.9281 499.599 92.5549 496.249C90.1817 492.898 89.6233 490.386 89.7629 484.523C89.9025 484.104 90.0421 483.545 90.0421 482.987Z" fill="#37474F"/>
<path d="M94.0905 487.035C94.2301 489.129 92.1361 488.571 91.7173 485.639C91.2985 482.708 92.2757 475.588 91.7173 470.423C91.8569 464.56 91.5777 458.836 92.8341 458.557C92.8341 458.696 92.8341 458.697 92.8341 458.836L92.9737 461.768C92.9737 462.187 92.9737 462.605 92.9737 463.024C93.3925 467.352 93.5321 475.588 93.6717 479.497C93.8113 483.545 93.9509 484.941 94.0905 487.035Z" fill="#263238"/>
<path d="M102.467 487.035C102.606 484.941 102.885 483.545 102.885 479.636C102.885 475.728 103.165 467.491 103.583 463.303C103.863 462.605 103.723 461.209 103.723 460.93C103.723 460.372 103.723 459.534 103.723 458.976V458.836C104.561 459.115 104.84 461.488 104.979 464.28C104.979 465.956 104.979 468.05 104.84 470.562C104.281 475.588 105.259 482.847 104.84 485.779C104.421 488.71 102.327 489.129 102.467 487.035Z" fill="#263238"/>
<path d="M103.304 487.175H103.164C103.164 487.175 98.5577 485.36 93.8113 487.175C93.5321 487.314 93.3925 487.175 93.2529 486.896C93.1133 486.616 93.2529 486.477 93.5321 486.337C98.5577 484.383 103.304 486.337 103.444 486.337C103.723 486.477 103.723 486.756 103.723 486.896C103.583 487.035 103.444 487.175 103.304 487.175Z" fill="#F5F5F5"/>
<path d="M103.863 482.568H103.723C103.723 482.568 98.5577 480.753 93.2529 482.568C92.9737 482.708 92.8341 482.568 92.6945 482.289C92.5549 482.01 92.6945 481.87 92.9737 481.73C98.5577 479.776 103.723 481.73 104.002 481.73C104.281 481.87 104.421 482.01 104.281 482.289C104.142 482.428 104.002 482.568 103.863 482.568Z" fill="#F5F5F5"/>
<path d="M93.1133 478.24C92.9737 478.24 92.8341 478.101 92.6945 477.961C92.5549 477.682 92.6945 477.403 92.9737 477.403C98.1389 475.03 103.723 477.263 104.002 477.403C104.281 477.542 104.281 477.822 104.281 477.961C104.142 478.24 103.863 478.24 103.723 478.24C103.723 478.24 98.2785 476.146 93.3925 478.24C93.2529 478.101 93.1133 478.24 93.1133 478.24Z" fill="#F5F5F5"/>
<path d="M92.9737 474.052C92.8341 474.052 92.6945 473.913 92.5549 473.773C92.4153 473.494 92.5549 473.215 92.8341 473.215C98.5577 470.562 103.862 472.936 104.002 473.075C104.281 473.215 104.281 473.494 104.281 473.634C104.142 473.913 103.862 473.913 103.723 473.913C103.723 473.913 98.5577 471.54 93.2529 474.052C93.1133 474.052 93.1133 474.052 92.9737 474.052Z" fill="#F5F5F5"/>
<path d="M92.9737 469.446C92.8341 469.446 92.6945 469.306 92.5549 469.166C92.4153 468.887 92.5549 468.748 92.6945 468.608C97.9993 465.956 103.723 468.468 104.002 468.608C104.281 468.748 104.281 469.027 104.281 469.166C104.142 469.446 103.862 469.446 103.723 469.446C103.723 469.446 98.1389 466.933 93.2529 469.446C93.1133 469.446 92.9737 469.446 92.9737 469.446Z" fill="#F5F5F5"/>
<path d="M96.7428 289.083C89.6232 308.766 90.8796 321.051 92.136 341.572C93.2528 360.418 95.0676 377.031 95.0676 377.031C94.7884 380.381 90.1816 386.942 89.4836 401.74C88.9252 415.56 90.8796 432.871 90.8796 432.871C90.8796 432.871 100.233 436.221 108.05 432.871C108.05 432.871 116.147 397.412 118.241 380.102C120.196 365.025 123.406 345.621 123.406 345.621L130.386 379.962C130.386 379.962 128.292 386.244 128.292 394.201C128.292 402.298 132.062 424.774 132.062 424.774C132.062 424.774 142.392 428.124 149.093 422.261C149.093 422.261 151.745 389.874 152.583 377.589C153.839 361.116 152.024 316.025 148.116 292.991L96.7428 289.083Z" fill="#455A64"/>
<path d="M123.406 345.76L126.338 319.934C126.338 319.934 139.321 318.259 145.184 312.675C145.184 312.675 140.717 320.772 129.828 322.307L125.64 346.319L130.386 380.102L123.406 345.76Z" fill="#37474F"/>
<path d="M155.654 269.957C149.372 263.396 137.925 248.738 137.925 248.738L131.503 226.402C131.364 226.402 134.854 226.542 135.831 226.402C142.811 226.821 144.905 227.519 149.232 232.265C152.722 236.034 165.845 254.043 170.452 260.046L182.597 244.55C185.528 240.083 184.97 235.197 186.506 231.707C188.041 228.077 190.414 226.542 192.369 223.331C194.323 220.12 194.742 218.026 196.417 219.562C197.953 221.237 196.138 225.704 195.998 226.681C195.719 227.658 193.346 230.73 197.394 229.194C201.443 227.658 207.725 220.12 209.4 218.584C211.075 217.049 211.913 219.422 211.494 221.237C211.075 223.052 212.89 227.379 212.192 230.45C211.494 233.801 211.075 235.197 207.864 238.408C204.933 241.339 197.674 244.969 194.882 248.878C192.09 252.786 186.087 264.932 182.318 272.191C177.711 281.404 173.662 284.476 168.358 281.404C163.053 278.194 157.888 272.33 155.654 269.957Z" fill="#FFA8A7"/>
<path d="M133.458 226.123C137.925 225.844 141.554 226.402 143.928 227.519C147.697 229.194 150.349 232.824 153.979 237.849C157.608 242.875 164.309 251.53 164.309 251.53C164.309 251.53 162.494 259.069 150.768 265.769L131.503 245.946L133.458 226.123Z" fill="#001935"/>
<path d="M170.312 259.906C167.38 262.698 166.124 266.188 165.845 268.003C165.845 268.003 164.449 263.536 169.195 258.51L170.312 259.906Z" fill="#F28F8F"/>
<path d="M147.418 265.769C155.933 258.65 153.141 249.576 150.07 243.294C143.788 230.869 137.227 225.983 134.574 226.123L117.543 226.263C109.446 227.379 103.025 226.821 101.07 227.24C96.0448 228.496 95.9052 232.545 95.7656 237.849C95.4864 243.713 92.5548 242.735 94.0904 252.368C94.0904 252.368 97.8596 260.185 98.8368 263.536C99.814 266.886 102.327 272.191 100.931 277.635C100.372 279.729 98.9764 281.823 96.8824 287.547C94.928 292.991 93.2528 298.157 91.5776 307.51C91.5776 307.51 96.6032 306.393 102.187 300.39C102.187 300.39 109.865 310.721 128.572 309.743C147.836 308.627 149.651 298.575 149.651 298.575L146.72 280.427C146.999 273.029 146.999 270.376 147.418 265.769Z" fill="#123C73"/>
<path opacity="0.96" d="M136.25 263.955C136.25 263.955 129.27 269.539 121.033 266.886C112.936 264.094 111.54 257.114 111.54 257.114C111.54 257.114 110.842 266.467 121.173 269.399C131.084 272.191 136.25 263.955 136.25 263.955Z" fill="#001935"/>
<path d="M87.3896 218.166C84.8768 216.351 71.196 234.499 77.6176 239.245C84.0392 243.852 90.74 230.869 89.344 224.727C88.0876 218.584 87.3896 218.166 87.3896 218.166Z" fill="#37474F"/>
<path d="M74.9652 209.092C78.3156 204.345 80.6888 200.855 83.76 196.807C85.5748 194.573 86.6916 192.898 88.3668 190.525C89.4836 188.85 90.1816 187.593 91.5776 187.035C93.1132 186.477 94.5092 185.36 95.4864 184.243C96.1844 183.545 96.7428 182.707 97.3012 181.87C99.2556 179.217 101.629 176.705 104.281 174.611C107.073 172.517 110.144 170.841 112.936 168.747C114.612 167.491 116.426 165.537 114.332 163.722C113.634 163.163 112.936 162.884 112.099 162.745C107.073 161.767 102.606 163.582 97.72 164.839C95.626 165.397 93.532 166.095 91.438 167.072C90.4608 167.491 89.4836 168.049 88.646 168.747C87.3896 169.864 86.6916 171.4 85.854 172.935C83.76 176.844 79.1532 180.474 75.9424 183.545C72.1732 187.175 68.8228 190.525 64.4952 194.573C60.5864 198.203 56.8172 201.553 53.3272 205.462C50.3956 208.673 51.5124 211.186 51.9312 212.163C54.444 217.049 57.236 218.864 60.4468 221.935C61.5636 222.912 62.6804 223.889 63.7972 224.867C68.1248 228.775 72.3128 232.265 76.78 236.035C81.5264 239.943 83.4808 241.898 87.6688 245.667C90.1816 247.901 92.136 250.553 94.23 254.183C101.629 255.439 108.748 244.131 102.466 231.009C101.489 228.915 99.814 227.1 97.8596 225.704C90.1816 220.26 74.9652 209.092 74.9652 209.092Z" fill="#FFA8A7"/>
<path d="M74.9652 209.092C74.9652 209.092 71.7544 213.559 66.1704 215.374C66.1704 215.374 70.9168 216.49 77.1988 210.627L74.9652 209.092Z" fill="#F28F8F"/>
<path d="M101.629 227.24C99.9536 225.983 95.7656 223.47 87.3896 218.166C87.3896 218.166 88.646 220.818 86.6916 227.658C84.5976 234.359 80.4096 238.687 77.7572 239.245C77.7572 239.245 82.364 242.875 86.6916 247.063C91.0192 251.251 94.5092 254.182 97.022 259.068C97.022 259.068 103.164 257.533 104.56 247.063C105.398 239.664 104.84 231.009 101.629 227.24Z" fill="#001935"/>
<path d="M148.255 193.596C150.768 188.71 150.349 181.73 147.138 177.263C141.834 169.724 132.899 166.095 123.127 166.234H120.056C106.794 166.514 94.6488 177.821 94.3696 190.804C94.3696 199.878 94.3696 208.254 99.3952 214.396C104.002 220.12 111.122 222.074 117.264 222.912C128.851 224.727 141.834 223.331 146.999 215.513C146.999 215.513 140.158 216.909 140.856 209.65C140.996 208.533 139.879 207.277 137.925 206.02C139.321 203.787 140.856 201.414 142.671 199.599C144.626 197.365 146.859 196.248 148.255 193.596Z" fill="#263238"/>
<path d="M144.765 200.297C144.626 213.698 140.438 217.188 138.204 218.166C135.97 219.143 131.782 218.584 127.734 218.026L127.874 226.123C127.874 226.123 132.76 231.009 132.341 234.638C132.062 238.408 124.942 238.826 119.637 235.336C115.728 232.824 112.936 229.752 111.68 228.356C111.261 227.798 110.982 227.24 110.982 226.542L110.703 207.556C110.703 207.556 108.469 209.929 104.421 207.277C100.372 204.624 99.9537 199.599 102.327 196.667C104.002 194.573 108.469 194.434 110.563 197.505C111.82 199.738 111.68 201.414 113.355 201.134C114.891 200.855 115.03 199.04 115.17 197.784C115.31 196.528 115.17 196.109 115.31 194.434C119.358 193.596 123.406 188.012 123.825 183.964C126.617 185.22 129.688 186.058 132.48 185.918C136.948 185.639 139.181 184.662 141.415 181.451C141.973 182.009 142.392 183.126 142.671 183.824C143.369 185.918 143.788 187.314 144.067 189.129C144.765 192.898 144.765 196.528 144.765 200.297Z" fill="#FFA8A7"/>
<path d="M127.734 218.026C123.407 217.468 114.472 215.094 112.937 211.604C112.937 211.604 113.495 213.838 116.147 216.072C118.8 218.305 127.734 220.678 127.734 220.678V218.026Z" fill="#F28F8F"/>
<path d="M132.062 210.767C132.062 211.744 131.364 212.582 130.386 212.582C129.409 212.582 128.572 211.884 128.572 210.906C128.572 209.929 129.27 209.092 130.247 209.092C131.224 208.952 132.062 209.79 132.062 210.767Z" fill="#B16668"/>
<path d="M129.828 197.505C129.968 198.622 129.13 199.459 128.153 199.599C127.176 199.599 126.199 198.901 126.199 197.784C126.059 196.667 126.897 195.83 127.874 195.69C128.851 195.55 129.689 196.388 129.828 197.505Z" fill="#263238"/>
<path d="M142.392 196.667C142.392 197.644 141.694 198.482 140.857 198.482C139.879 198.482 139.181 197.924 139.042 196.807C139.042 195.83 139.74 194.992 140.577 194.992C141.555 194.992 142.253 195.69 142.392 196.667Z" fill="#263238"/>
<path d="M133.737 194.992L134.993 206.16L140.857 203.787L133.737 194.992Z" fill="#F28F8F"/>
<path d="M123.127 192.619L126.478 189.408C127.315 190.385 127.315 191.921 126.338 192.758C125.361 193.736 123.965 193.596 123.127 192.619Z" fill="#263238"/>
<path d="M139.879 188.431L143.649 191.223C142.951 192.34 141.415 192.479 140.438 191.781C139.321 190.944 139.042 189.408 139.879 188.431Z" fill="#263238"/>
<path d="M86.2728 86.104C88.9252 85.5456 91.7172 85.4061 94.3696 85.6853C97.022 85.9645 99.5348 86.6625 101.768 87.7793C104.002 88.8961 105.956 90.4316 107.632 92.386C109.307 94.3405 110.284 96.7136 110.842 99.5056C111.261 101.879 111.261 103.833 110.842 105.788C110.424 107.602 109.865 109.278 108.888 110.953C108.05 112.488 107.073 114.024 105.956 115.42C104.84 116.816 103.723 118.072 102.746 119.329C101.768 120.585 100.931 121.842 100.233 123.098C99.5348 124.354 99.2556 125.611 99.2556 127.007C99.2556 127.705 99.116 128.263 98.8368 128.822C98.5576 129.38 97.9992 129.659 97.4408 129.799L90.8796 131.055C90.1816 131.195 89.6232 131.055 89.0648 130.636C88.5064 130.218 88.2272 129.799 88.0876 129.101C87.8084 126.867 87.948 124.773 88.3668 122.958C88.9252 121.144 89.6232 119.329 90.4608 117.793C91.438 116.258 92.4152 114.722 93.532 113.466C94.6488 112.07 95.7656 110.813 96.7428 109.557C97.72 108.3 98.418 107.184 98.9764 105.927C99.5348 104.81 99.6744 103.554 99.5348 102.437C99.116 100.204 97.8596 98.6681 95.7656 97.5513C93.6716 96.4345 91.0192 96.2949 87.948 96.8533C83.062 97.8305 79.8512 100.902 78.4552 106.206C78.3156 106.904 78.0364 107.463 77.7572 107.742C77.478 108.161 77.0592 108.44 76.2216 108.58L69.2416 109.836C68.6832 109.976 68.2644 109.836 67.8456 109.557C67.4268 109.278 67.1476 108.859 67.008 108.3C66.7288 106.206 66.8684 104.112 67.706 101.739C68.5436 99.3661 69.6604 97.272 71.3356 95.1781C73.0108 93.084 75.1048 91.2692 77.6176 89.594C80.5492 87.7792 83.2016 86.6624 86.2728 86.104ZM99.116 134.685C99.814 134.545 100.372 134.685 100.931 135.104C101.489 135.522 101.768 135.941 101.908 136.639L103.304 144.317C103.444 145.015 103.304 145.574 102.885 146.132C102.466 146.69 102.048 146.97 101.35 147.109L93.9508 148.505C93.2528 148.645 92.6944 148.505 92.136 148.086C91.5776 147.668 91.2984 147.249 91.1588 146.551L89.7628 138.873C89.6232 138.175 89.7628 137.616 90.1816 137.058C90.6004 136.5 91.0192 136.22 91.7172 136.081L99.116 134.685Z" fill="#123C73"/>
<path d="M157.19 117.654C158.865 118.631 160.4 119.748 161.657 121.004C162.913 122.4 164.03 123.796 164.728 125.332C165.426 126.867 165.845 128.542 165.845 130.357C165.845 132.032 165.426 133.847 164.449 135.522C163.611 136.918 162.774 138.035 161.657 138.873C160.68 139.71 159.563 140.269 158.446 140.688C157.329 141.106 156.073 141.525 154.956 141.665C153.7 141.944 152.583 142.084 151.606 142.363C150.489 142.642 149.512 142.921 148.674 143.2C147.697 143.619 146.999 144.178 146.44 144.876C146.161 145.294 145.742 145.434 145.463 145.574C145.044 145.713 144.626 145.713 144.207 145.434L140.158 143.2C139.74 142.921 139.46 142.642 139.321 142.223C139.181 141.804 139.181 141.386 139.46 140.967C140.298 139.571 141.275 138.594 142.392 137.756C143.509 137.058 144.626 136.36 145.882 135.941C147.138 135.522 148.255 135.243 149.512 134.964C150.768 134.824 151.885 134.545 152.862 134.266C153.979 133.987 154.816 133.708 155.654 133.428C156.492 133.01 157.05 132.451 157.469 131.753C158.167 130.357 158.306 128.961 157.608 127.426C156.91 125.89 155.654 124.634 153.839 123.656C150.768 121.981 147.836 122.26 144.626 124.494C144.207 124.773 143.928 124.913 143.648 125.052C143.369 125.192 142.95 125.052 142.532 124.773L138.204 122.4C137.925 122.26 137.646 121.981 137.506 121.562C137.366 121.283 137.506 120.864 137.646 120.585C138.344 119.329 139.46 118.352 140.856 117.374C142.252 116.537 143.928 115.839 145.742 115.56C147.557 115.141 149.512 115.141 151.466 115.42C153.42 115.839 155.375 116.537 157.19 117.654ZM142.532 148.924C142.95 149.203 143.23 149.482 143.369 149.901C143.509 150.32 143.509 150.739 143.23 151.158L140.577 155.764C140.298 156.183 140.019 156.462 139.6 156.602C139.181 156.742 138.762 156.742 138.344 156.462L133.737 153.95C133.318 153.67 133.039 153.391 132.899 152.972C132.76 152.554 132.76 152.135 133.039 151.716L135.691 147.109C135.97 146.69 136.25 146.411 136.668 146.272C137.087 146.132 137.506 146.132 137.925 146.411L142.532 148.924Z" fill="#001935"/>
<g opacity="0.2">
<path d="M157.19 117.654C158.865 118.631 160.4 119.748 161.657 121.004C162.913 122.4 164.03 123.796 164.728 125.332C165.426 126.867 165.845 128.542 165.845 130.357C165.845 132.032 165.426 133.847 164.449 135.522C163.611 136.918 162.774 138.035 161.657 138.873C160.68 139.71 159.563 140.269 158.446 140.688C157.329 141.106 156.073 141.525 154.956 141.665C153.7 141.944 152.583 142.084 151.606 142.363C150.489 142.642 149.512 142.921 148.674 143.2C147.697 143.619 146.999 144.178 146.44 144.876C146.161 145.294 145.742 145.434 145.463 145.574C145.044 145.713 144.626 145.713 144.207 145.434L140.158 143.2C139.74 142.921 139.46 142.642 139.321 142.223C139.181 141.804 139.181 141.386 139.46 140.967C140.298 139.571 141.275 138.594 142.392 137.756C143.509 137.058 144.626 136.36 145.882 135.941C147.138 135.522 148.255 135.243 149.512 134.964C150.768 134.824 151.885 134.545 152.862 134.266C153.979 133.987 154.816 133.708 155.654 133.428C156.492 133.01 157.05 132.451 157.469 131.753C158.167 130.357 158.306 128.961 157.608 127.426C156.91 125.89 155.654 124.634 153.839 123.656C150.768 121.981 147.836 122.26 144.626 124.494C144.207 124.773 143.928 124.913 143.648 125.052C143.369 125.192 142.95 125.052 142.532 124.773L138.204 122.4C137.925 122.26 137.646 121.981 137.506 121.562C137.366 121.283 137.506 120.864 137.646 120.585C138.344 119.329 139.46 118.352 140.856 117.374C142.252 116.537 143.928 115.839 145.742 115.56C147.557 115.141 149.512 115.141 151.466 115.42C153.42 115.839 155.375 116.537 157.19 117.654ZM142.532 148.924C142.95 149.203 143.23 149.482 143.369 149.901C143.509 150.32 143.509 150.739 143.23 151.158L140.577 155.764C140.298 156.183 140.019 156.462 139.6 156.602C139.181 156.742 138.762 156.742 138.344 156.462L133.737 153.95C133.318 153.67 133.039 153.391 132.899 152.972C132.76 152.554 132.76 152.135 133.039 151.716L135.691 147.109C135.97 146.69 136.25 146.411 136.668 146.272C137.087 146.132 137.506 146.132 137.925 146.411L142.532 148.924Z" fill="#001935"/>
</g>
<g opacity="0.74">
<path d="M58.9112 168.887C59.33 168.468 59.7488 168.328 60.3072 168.328C60.8656 168.328 61.2844 168.608 61.7032 168.887L66.0308 173.494C66.4496 173.912 66.5892 174.331 66.5892 174.89C66.5892 175.448 66.31 175.867 66.0308 176.286L61.424 180.474C61.0052 180.892 60.5864 181.032 60.028 181.032C59.4696 181.032 59.0508 180.753 58.632 180.474L54.3044 175.867C53.8856 175.448 53.746 175.029 53.746 174.471C53.746 173.912 54.0252 173.494 54.3044 173.075L58.9112 168.887ZM29.0368 140.688C30.712 139.152 32.5268 137.896 34.4812 136.918C36.4356 135.941 38.5296 135.383 40.484 135.104C42.578 134.824 44.5324 135.104 46.4868 135.662C48.4412 136.36 50.256 137.477 51.7916 139.152C53.048 140.548 54.0252 141.944 54.5836 143.48C55.142 144.876 55.4212 146.411 55.4212 147.807C55.5608 149.343 55.4212 150.739 55.2816 152.135C55.142 153.531 55.0024 154.927 54.7232 156.183C54.5836 157.44 54.5836 158.696 54.5836 159.813C54.7232 160.93 55.0024 162.046 55.5608 162.884C55.84 163.303 55.9796 163.861 55.9796 164.28C55.9796 164.838 55.84 165.257 55.4212 165.536L51.3728 169.306C50.954 169.724 50.5352 169.864 49.9768 169.864C49.4184 169.864 48.9996 169.585 48.7204 169.166C47.464 167.77 46.6264 166.234 46.2076 164.699C45.7888 163.163 45.5096 161.628 45.5096 160.232C45.5096 158.696 45.5096 157.3 45.7888 155.764C46.068 154.368 46.2076 152.972 46.3472 151.716C46.4868 150.46 46.4868 149.343 46.3472 148.226C46.2076 147.249 45.7888 146.272 45.0908 145.574C43.8344 144.178 42.2988 143.619 40.3444 143.898C38.39 144.038 36.5752 145.015 34.6208 146.69C31.6892 149.482 30.8516 152.972 32.108 157.3C32.2476 157.858 32.3872 158.277 32.3872 158.696C32.3872 159.115 32.108 159.534 31.6892 159.952L27.3616 163.861C27.0824 164.14 26.6636 164.28 26.2448 164.28C25.826 164.28 25.4072 164.14 25.128 163.722C24.0112 162.465 23.1736 160.79 22.7548 158.836C22.336 156.881 22.1964 154.787 22.4756 152.693C22.7548 150.599 23.3132 148.366 24.43 146.132C25.6864 144.457 27.222 142.502 29.0368 140.688Z" fill="#123C73"/>
<g opacity="0.6">
<path d="M58.9112 168.887C59.33 168.468 59.7488 168.328 60.3072 168.328C60.8656 168.328 61.2844 168.608 61.7032 168.887L66.0308 173.494C66.4496 173.912 66.5892 174.331 66.5892 174.89C66.5892 175.448 66.31 175.867 66.0308 176.286L61.424 180.474C61.0052 180.892 60.5864 181.032 60.028 181.032C59.4696 181.032 59.0508 180.753 58.632 180.474L54.3044 175.867C53.8856 175.448 53.746 175.029 53.746 174.471C53.746 173.912 54.0252 173.494 54.3044 173.075L58.9112 168.887ZM29.0368 140.688C30.712 139.152 32.5268 137.896 34.4812 136.918C36.4356 135.941 38.5296 135.383 40.484 135.104C42.578 134.824 44.5324 135.104 46.4868 135.662C48.4412 136.36 50.256 137.477 51.7916 139.152C53.048 140.548 54.0252 141.944 54.5836 143.48C55.142 144.876 55.4212 146.411 55.4212 147.807C55.5608 149.343 55.4212 150.739 55.2816 152.135C55.142 153.531 55.0024 154.927 54.7232 156.183C54.5836 157.44 54.5836 158.696 54.5836 159.813C54.7232 160.93 55.0024 162.046 55.5608 162.884C55.84 163.303 55.9796 163.861 55.9796 164.28C55.9796 164.838 55.84 165.257 55.4212 165.536L51.3728 169.306C50.954 169.724 50.5352 169.864 49.9768 169.864C49.4184 169.864 48.9996 169.585 48.7204 169.166C47.464 167.77 46.6264 166.234 46.2076 164.699C45.7888 163.163 45.5096 161.628 45.5096 160.232C45.5096 158.696 45.5096 157.3 45.7888 155.764C46.068 154.368 46.2076 152.972 46.3472 151.716C46.4868 150.46 46.4868 149.343 46.3472 148.226C46.2076 147.249 45.7888 146.272 45.0908 145.574C43.8344 144.178 42.2988 143.619 40.3444 143.898C38.39 144.038 36.5752 145.015 34.6208 146.69C31.6892 149.482 30.8516 152.972 32.108 157.3C32.2476 157.858 32.3872 158.277 32.3872 158.696C32.3872 159.115 32.108 159.534 31.6892 159.952L27.3616 163.861C27.0824 164.14 26.6636 164.28 26.2448 164.28C25.826 164.28 25.4072 164.14 25.128 163.722C24.0112 162.465 23.1736 160.79 22.7548 158.836C22.336 156.881 22.1964 154.787 22.4756 152.693C22.7548 150.599 23.3132 148.366 24.43 146.132C25.6864 144.457 27.222 142.502 29.0368 140.688Z" fill="#123C73"/>
</g>
</g>
<path d="M343.137 266.188C339.088 263.955 322.336 254.183 316.752 250.972C315.636 250.274 314.938 249.855 314.798 249.855C312.006 248.18 308.935 247.761 305.445 248.459C303.072 248.878 300.419 249.855 297.767 251.391C297.348 251.67 296.929 251.949 296.65 252.089C290.228 256.137 284.644 262.559 280.038 271.353C275.152 280.707 272.778 289.92 272.778 299.273C272.778 308.487 275.291 315.048 280.177 318.678C280.736 319.097 281.154 319.376 281.713 319.655C286.32 322.307 309.493 335.709 310.052 335.988H310.191C309.633 335.709 309.074 335.29 308.516 334.871C303.63 331.102 301.117 324.681 301.117 315.467C301.117 306.253 303.49 296.9 308.376 287.547C313.262 278.194 319.126 271.493 326.106 267.584C332.806 263.955 338.53 263.536 343.137 266.188C343.276 266.328 343.276 266.328 343.137 266.188Z" fill="#27DEBF"/>
<path opacity="0.96" d="M343.276 266.328C338.53 263.536 332.806 263.955 326.106 267.863C319.684 271.633 314.1 277.635 309.493 286.011L281.154 269.539C285.482 261.721 290.647 255.997 296.65 252.228C297.069 251.949 297.488 251.67 297.767 251.53C300.419 249.995 303.072 249.017 305.445 248.599C308.795 247.901 312.006 248.459 314.798 249.995C314.938 249.995 315.636 250.413 316.752 251.111C322.476 254.322 339.228 263.954 343.276 266.328Z" fill="#001935"/>
<path opacity="0.96" d="M310.191 336.267C310.191 336.128 310.052 336.128 310.191 336.267C309.493 335.848 286.32 322.447 281.713 319.794C281.154 319.515 280.596 319.096 280.177 318.817C275.291 315.048 272.778 308.626 272.778 299.413C272.778 290.199 275.291 280.846 280.177 271.493C280.456 270.795 280.875 270.236 281.294 269.538L309.633 285.872C309.214 286.43 308.935 287.128 308.656 287.826C303.77 297.179 301.257 306.393 301.257 315.746C301.257 324.96 303.77 331.521 308.656 335.15C309.074 335.569 309.633 335.848 310.191 336.267Z" fill="#123C73"/>
<path d="M330.852 26.6345C344.672 18.6773 356.399 15.3269 366.031 16.4437C370.08 17.0021 373.849 18.2585 377.199 20.2129C377.06 20.2129 377.06 20.0733 376.92 20.0733C373.57 18.2585 353.607 6.67168 349 4.01928C345.51 1.92528 341.741 0.668883 337.553 0.250083C327.92 -1.00632 316.194 2.48369 302.374 10.4409C281.015 22.7257 263.704 40.8737 250.722 64.8849C237.599 88.7565 231.178 113.326 231.317 138.175L259.656 154.508C259.516 129.52 265.938 105.09 279.06 81.2181C292.183 57.2069 309.493 39.0589 330.852 26.6345Z" fill="#001935"/>
<path opacity="0.87" d="M277.525 84.1497C265.519 107.184 259.656 130.636 259.796 154.508L231.457 138.175C231.317 114.303 237.18 90.8505 249.186 67.8165L277.525 84.1497Z" fill="#001935"/>
<path d="M350.117 73.1213C344.952 70.3293 338.111 71.4461 329.456 76.3321C329.177 81.4973 328.06 86.3833 326.385 91.2693C324.291 97.1325 318.009 108.998 307.678 127.146C296.929 145.853 289.112 163.722 284.365 180.753C279.619 197.784 277.246 214.955 277.246 232.405L277.385 241.06L296.79 252.228L305.864 257.393L305.724 248.738C305.724 248.598 305.724 248.598 305.724 248.459C305.724 231.148 308.097 213.978 312.844 196.946C317.59 179.915 325.408 162.046 336.157 143.34C346.487 125.192 352.769 113.326 354.863 107.463C356.957 101.6 358.074 95.7365 358.074 89.5941C357.934 81.4973 355.282 75.9133 350.117 73.1213Z" fill="#001935"/>
<path opacity="0.55" d="M351.932 114.024C348.721 120.725 343.416 130.497 336.017 143.48C325.268 162.186 317.45 180.055 312.704 197.086C307.958 213.978 305.584 231.148 305.584 248.598V248.878L305.724 257.533L296.65 252.368L277.246 241.2L277.106 232.544C277.106 215.094 279.479 197.924 284.226 180.892C288.972 163.861 296.79 145.992 307.539 127.286C314.938 114.303 320.382 104.392 323.593 97.8304L351.932 114.024Z" fill="#123C73"/>
<path d="M298.186 132.312L259.796 154.508C259.656 129.52 266.078 105.09 279.2 81.2181C292.322 57.3465 309.493 39.1985 330.852 26.7741C344.672 18.8169 356.399 15.4665 366.031 16.5833C375.664 17.8397 383.481 23.0049 389.205 32.4977C395.068 41.8509 397.86 53.5773 397.86 67.6769C397.86 75.3549 396.883 83.4517 395.068 91.9673C393.253 100.483 390.322 109.836 386.273 119.887C383.9 125.75 378.316 136.779 369.382 152.693C360.866 167.91 355.561 178.24 353.467 183.684C351.373 189.129 349.558 195.83 348.023 203.647C346.627 211.465 345.65 221.795 345.231 234.499L305.584 257.393L305.445 248.738C305.445 231.288 307.818 214.117 312.564 197.086C317.311 180.055 325.128 162.186 335.878 143.48C346.208 125.332 352.49 113.466 354.584 107.602C356.678 101.739 357.795 95.8761 357.795 89.7337C357.795 81.3577 355.142 75.9133 349.977 73.1213C344.812 70.3293 337.692 71.4461 328.898 76.6113C319.963 81.7765 312.564 89.5941 306.841 99.9245C301.117 110.255 298.186 121.144 298.186 132.312Z" fill="#123C73"/>
<path d="M326.106 267.863C333.225 263.815 339.368 263.536 344.393 267.165C349.419 270.795 351.932 277.217 351.932 286.43C351.932 295.644 349.419 304.997 344.393 314.49C339.368 323.983 333.365 330.683 326.385 334.732C319.405 338.78 313.402 338.92 308.376 335.29C303.49 331.521 300.978 325.099 300.978 315.886C300.978 306.672 303.351 297.319 308.237 287.966C313.262 278.613 319.126 271.912 326.106 267.863Z" fill="#123C73"/>
<path opacity="0.89" d="M357.934 89.7337C357.934 95.8761 356.818 101.879 354.724 107.602C354.165 109.278 353.188 111.372 351.932 113.884L323.593 97.5513C324.849 95.0385 325.826 92.8049 326.385 91.2693C328.2 86.3833 329.177 81.3577 329.456 76.3321C338.111 71.4461 344.952 70.3293 350.117 73.1213C355.282 75.9133 357.934 81.4973 357.934 89.7337Z" fill="#001935"/>
<path opacity="0.61" d="M378.316 20.0733C374.966 18.2585 371.336 17.0021 367.427 16.5833C357.795 15.4665 346.068 18.8169 332.248 26.7741C310.889 39.0589 293.579 57.2069 280.456 81.2181C279.898 82.1953 279.34 83.1725 278.921 84.1497L250.582 67.8165C251.14 66.8393 251.699 65.8621 252.118 64.8849C265.24 41.0133 282.411 22.8653 303.77 10.4409C317.59 2.48368 329.316 -0.866717 338.949 0.250083C343.137 0.808483 346.906 2.06488 350.396 4.01928C355.003 6.67168 374.966 18.2585 378.316 20.0733Z" fill="#123C73"/>
</svg>
