<svg width="85" height="96" viewBox="0 0 85 96" fill="none" xmlns="http://www.w3.org/2000/svg">
<path fill-rule="evenodd" clip-rule="evenodd" d="M9.48236e-07 92.9979V11.9997C9.48236e-07 8.8172 1.49256 5.76502 4.14932 3.51464C6.80609 1.26425 10.4094 0 14.1667 0L70.8333 0C74.5906 0 78.1939 1.26425 80.8507 3.51464C83.5074 5.76502 85 8.8172 85 11.9997V92.9979C85.0005 93.5188 84.8407 94.0309 84.5366 94.4837C84.2324 94.9365 83.7943 95.3143 83.2654 95.5801C82.7364 95.8459 82.1349 95.9905 81.5199 95.9995C80.905 96.0086 80.2979 95.8819 79.7583 95.6318L42.5 78.4122L5.24167 95.6318C4.70213 95.8819 4.09501 96.0086 3.48008 95.9995C2.86515 95.9905 2.2636 95.8459 1.73465 95.5801C1.2057 95.3143 0.767583 94.9365 0.463424 94.4837C0.159265 94.0309 -0.00044904 93.5188 9.48236e-07 92.9979ZM43.6333 24.5994C43.5298 24.4195 43.3686 24.2679 43.1682 24.1618C42.9679 24.0557 42.7363 23.9995 42.5 23.9995C42.2637 23.9995 42.0321 24.0557 41.8318 24.1618C41.6314 24.2679 41.4702 24.4195 41.3667 24.5994L36.8758 32.3093C36.7859 32.4652 36.6525 32.6003 36.4871 32.7027C36.3217 32.8052 36.1294 32.8719 35.9267 32.8972L25.8683 34.1332C25.6368 34.163 25.4196 34.2468 25.2411 34.3752C25.0626 34.5037 24.9299 34.6717 24.8578 34.8605C24.7858 35.0492 24.7772 35.2512 24.8331 35.4439C24.8889 35.6365 25.007 35.8122 25.1742 35.9512L32.4417 41.957C32.7392 42.203 32.8738 42.557 32.8029 42.905L31.0958 51.3888C31.0573 51.5847 31.0841 51.7858 31.1731 51.9696C31.2621 52.1533 31.4098 52.3124 31.5996 52.4289C31.7894 52.5455 32.0139 52.6149 32.2477 52.6293C32.4816 52.6438 32.7155 52.6027 32.9233 52.5108L41.9192 48.5029C42.0995 48.423 42.3 48.3813 42.5035 48.3813C42.7071 48.3813 42.9076 48.423 43.0879 48.5029L52.0837 52.5108C52.2913 52.6011 52.5245 52.6408 52.7571 52.6256C52.9898 52.6103 53.2129 52.5407 53.4016 52.4244C53.5903 52.3081 53.7372 52.1497 53.8259 51.9669C53.9147 51.784 53.9417 51.5839 53.9042 51.3888L52.19 42.899C52.1538 42.7285 52.1672 42.5531 52.2289 42.388C52.2906 42.2228 52.3988 42.0729 52.5442 41.951L59.8258 35.9452C59.993 35.8062 60.1111 35.6305 60.1669 35.4379C60.2228 35.2452 60.2142 35.0432 60.1422 34.8545C60.0701 34.6657 59.9374 34.4977 59.7589 34.3692C59.5804 34.2408 59.3632 34.157 59.1317 34.1272L49.0733 32.8912C48.8706 32.8659 48.6783 32.7992 48.5129 32.6967C48.3475 32.5943 48.2141 32.4592 48.1242 32.3033L43.6333 24.5994Z" fill="white"/>
</svg>
