<svg version="1.2" xmlns="http://www.w3.org/2000/svg" viewBox="0 0 3600 2600" width="1440" height="1040">
	<title>judge_online_set4-ai</title>
	<style>
		.s0 { fill: #ffffff } 
		.s1 { fill: #e6f1f2 } 
		.s2 { fill: #979998 } 
		.s3 { fill: #cc8e1f } 
		.s4 { fill: #e07165 } 
		.s5 { fill: #ecc887 } 
		.s6 { fill: #a9c1c3 } 
		.s7 { fill: #82acb0 } 
		.s8 { mix-blend-mode: multiply;fill: #9fd0d4 } 
		.s9 { fill: #ffb5ad } 
		.s10 { fill: #f08478 } 
		.s11 { fill: #cc5c50 } 
		.s12 { fill: #363b39 } 
		.s13 { fill: #e9edec } 
		.s14 { fill: #ffe6ba } 
		.s15 { fill: #010705 } 
		.s16 { opacity: .3;mix-blend-mode: screen;fill: #ffffff;stroke: #000000 } 
		.s17 { mix-blend-mode: multiply;fill: #ebd4ab } 
		.s18 { fill: #d5d9d7 } 
		.s19 { fill: #c1c4c3 } 
		.s20 { fill: #ced1d0 } 
		.s21 { fill: #bfc2c1 } 
		.s22 { fill: #eca72c } 
		.s23 { fill: #b98370 } 
		.s24 { mix-blend-mode: multiply;fill: #d5a898 } 
	</style>
	<g id="Layer 1">
		<path id="&lt;Path&gt;" class="s0" d="m3600 2600h-3600v-2600h3600z"/>
		<g id="&lt;Group&gt;">
			<g id="&lt;Group&gt;">
				<path id="&lt;Path&gt;" class="s1" d="m406.5 2400.9c-446-1286.4 435.8-1814.4 1003.9-1949.6 795.2-189.2 278.8 827.5 1310 1015.2 400.1 72.9 634.5 481.1 483 934.4z"/>
				<path id="&lt;Path&gt;" class="s1" d="m2430.6 1241.9c-240.6-122.3-547.2-640.1-201.6-740.4 345.6-100.2 871.5 394.7 800.4 693.9-29.8 125.2-259.3 219.1-598.8 46.5z"/>
				<path id="&lt;Path&gt;" class="s2" d="m3334.3 2372.2c0 24.8-15.7 44.9-35 44.9h-2998.6c-9.7 0-18.4-5-24.7-13.2-6.3-8.1-10.3-19.3-10.3-31.7 0-24.8 15.7-44.9 35-44.9h2998.6c9.7 0 18.5 5 24.8 13.1 6.3 8.2 10.2 19.4 10.2 31.8z"/>
				<path id="&lt;Compound Path&gt;" class="s0" d="m978.9 1710.8v-6.1c12.1 0 24.3-0.5 36.3-1.5l0.5 6.1c-12.1 1-24.5 1.5-36.8 1.5zm-36.7-1.4c-12.3-1-24.5-2.5-36.6-4.4l1-6.1c11.9 2 24 3.5 36.1 4.4zm110-4.7l-1-6c11.9-2 23.8-4.5 35.5-7.5l1.5 5.9c-11.8 3-23.9 5.6-36 7.6zm-182.6-7.2c-11.9-2.9-23.8-6.4-35.3-10.4l1.9-5.7c11.4 3.8 23.1 7.3 34.9 10.2zm253.9-10.9l-2-5.8c11.4-3.9 22.7-8.4 33.7-13.2l2.5 5.6c-11.2 4.9-22.7 9.4-34.2 13.4zm-323.6-12.8c-11.2-4.9-22.3-10.3-33.1-16.1l2.9-5.4c10.6 5.7 21.6 11.1 32.7 15.9zm390.8-16.9l-3-5.3c10.6-5.8 21.1-12 31.2-18.7l3.3 5.1c-10.2 6.7-20.8 13.1-31.5 18.9zm-455.6-18c-10.2-6.7-20.3-13.9-30-21.4l3.8-4.8c9.5 7.4 19.4 14.5 29.5 21.1zm517-22.3l-3.7-4.8c9.5-7.4 18.8-15.4 27.7-23.5l4.1 4.4c-9 8.3-18.4 16.4-28.1 23.9zm-575.1-22.9c-9-8.2-17.8-17-26.1-25.9l4.5-4.2c8.2 8.9 16.9 17.5 25.7 25.7zm629.2-27.1l-4.5-4.1c8.2-8.9 16.1-18.2 23.5-27.8l4.8 3.8c-7.5 9.6-15.5 19.1-23.8 28.1zm-679.1-26.9c-7.5-9.7-14.8-19.7-21.5-29.9l5.1-3.4c6.6 10.1 13.8 20 21.2 29.5zm724.2-31.2l-5.1-3.3c6.6-10.1 12.9-20.6 18.6-31.2l5.4 2.9c-5.8 10.8-12.2 21.4-18.9 31.6zm-764.6-30.2c-5.9-10.8-11.3-21.9-16.3-33l5.6-2.5c4.9 11 10.3 22 16 32.5zm799.7-34.4l-5.6-2.5c4.8-11 9.3-22.4 13.2-33.8l5.7 2c-3.9 11.5-8.4 23.1-13.3 34.3zm-829.4-32.8c-4-11.5-7.5-23.4-10.5-35.2l5.9-1.6c2.9 11.7 6.5 23.4 10.4 34.8zm853.1-36.8l-5.9-1.5c2.9-11.7 5.4-23.6 7.4-35.5l6 0.9c-2 12.1-4.5 24.2-7.5 36.1zm-871.3-34.5c-2-12-3.5-24.3-4.6-36.5l6.1-0.5c1 12.1 2.5 24.2 4.5 36zm883.3-38.1l-6.1-0.5c0.9-11.8 1.4-23.8 1.4-35.7v-0.6h6.1v0.6c0 12.1-0.5 24.2-1.4 36.2zm-889.5-35.1v-1.1c0-12.3 0.5-24.6 1.5-36.8l6.1 0.5c-1 12-1.5 24.2-1.5 36.3v1zm883.3-37.9c-1-12-2.5-24.1-4.5-36l6-1c2 12.1 3.5 24.4 4.6 36.5zm-871.3-35.4l-6-1c2-12.1 4.5-24.2 7.5-36.1l5.9 1.5c-2.9 11.7-5.4 23.7-7.4 35.6zm859.3-36.1c-2.9-11.7-6.4-23.4-10.4-34.8l5.8-2c4 11.6 7.5 23.5 10.5 35.3zm-841.5-34.3l-5.8-1.9c4-11.6 8.5-23.1 13.4-34.4l5.6 2.5c-4.9 11-9.3 22.4-13.2 33.8zm817.9-34.3c-4.8-11-10.2-21.9-16-32.5l5.4-2.9c5.8 10.7 11.3 21.8 16.2 33zm-788.8-32.2l-5.3-2.9c5.8-10.7 12.1-21.4 18.8-31.6l5.1 3.3c-6.6 10.1-12.8 20.6-18.6 31.2zm754.2-31.5c-6.6-10.1-13.8-20-21.2-29.5l4.8-3.8c7.6 9.7 14.8 19.7 21.5 29.9zm-714.5-29.2l-4.8-3.7c7.6-9.6 15.6-19.1 23.8-28.1l4.5 4.1c-8.1 8.9-16 18.2-23.5 27.7zm669.8-28c-8.2-8.8-16.8-17.4-25.7-25.6l4.1-4.5c9 8.3 17.8 17 26.1 26zm-620.6-25.4l-4.2-4.4c9-8.3 18.5-16.3 28.1-23.8l3.8 4.8c-9.6 7.4-18.9 15.3-27.7 23.4zm567.2-23.7c-9.5-7.4-19.5-14.5-29.6-21.1l3.4-5.1c10.2 6.7 20.3 13.9 29.9 21.4zm-510-20.9l-3.3-5.1c10.2-6.7 20.8-13 31.6-18.8l2.9 5.3c-10.6 5.8-21.1 12-31.2 18.6zm449.3-18.8c-10.6-5.7-21.6-11.1-32.7-16l2.5-5.5c11.2 4.9 22.3 10.3 33.1 16.1zm-385.5-15.7l-2.5-5.6c11.2-4.9 22.7-9.4 34.3-13.4l1.9 5.8c-11.4 3.9-22.7 8.3-33.7 13.2zm319-13.4c-11.4-3.9-23.1-7.4-34.8-10.3l1.5-5.9c11.8 3 23.7 6.5 35.3 10.4zm-250.5-10.1l-1.5-6c11.8-2.9 24-5.5 36-7.5l1 6c-11.9 2-23.8 4.5-35.5 7.5zm180.1-7.6c-11.8-1.9-24-3.4-36-4.4l0.5-6.1c12.2 1 24.5 2.5 36.5 4.5zm-108.6-4.3l-0.5-6.1c12.2-1 24.6-1.5 36.8-1.5v6.1c-12.1 0-24.3 0.5-36.3 1.5z"/>
				<g id="&lt;Group&gt;">
					<path id="&lt;Path&gt;" class="s3" d="m746.2 1478.7c93 109.6 62.3 279.6 10.3 268.3-280.7-61.2-200.9-298.2-176.2-404.4 0 0 109.1 69.1 165.9 136.1z"/>
					<path id="&lt;Path&gt;" class="s0" d="m774.4 1743.7c-57.4-55.2-172.2-279.8-195.3-400.9l2.4-0.5c24.6 129.2 142.6 349.8 194.6 399.7z"/>
					<path id="&lt;Path&gt;" class="s0" d="m637.3 1508.5l-1.1-0.3c-2.7-0.5-65.3-13.4-82.8-43l2.1-1.2c15.7 26.6 71.5 39.8 80.1 41.7 2.5-9.5 20.1-76.8 20.2-108.7h2.4c-0.1 34.5-20.4 109.6-20.6 110.4z"/>
					<path id="&lt;Path&gt;" class="s0" d="m703.2 1641c-5.4 0.2-97.1 3.1-136.4-27.7l1.4-1.9c37.8 29.6 125.1 27.5 134.3 27.2 3.9-10.1 45.2-119.3 42.5-159.8l2.4-0.2c2.8 42.8-41 156.8-42.9 161.6l-0.3 0.7h-0.8q0 0-0.2 0.1z"/>
				</g>
				<g id="&lt;Group&gt;">
					<path id="&lt;Path&gt;" class="s4" d="m503.8 1686.2c-20.6-7.5-13.1-29 8.9-31.4 22.1-2.5 59 18 59 18-24.3 0-48.7 20.3-67.9 13.4z"/>
					<path id="&lt;Path&gt;" class="s4" d="m563.4 1635.8c0 0-8.9-41.3-0.2-61.7 8.7-20.4 31.5-21.3 32.6 0.6 1.1 20.4-25.4 37.9-32.4 61.1z"/>
					<path id="&lt;Path&gt;" class="s4" d="m633.8 1708.5c0 0-16.4-19.1-23-34.5-8.8-20.3-2-43 15.2-40.9 13.1 1.6 16.3 19.2 8.7 42.8-6.7 21-0.9 32.6-0.9 32.6z"/>
					<path id="&lt;Path&gt;" class="s4" d="m453 1582.8c-16.4-10.3-15.1-24.2-13.3-28.2 1.9-4 10.3-14.7 27.9-7.7 17.7 7 45.4 38 55.3 48.8 0 0-52.8-2.2-69.9-12.9z"/>
					<path id="&lt;Path&gt;" class="s4" d="m509.8 1544c-7.3-8.1-34.8-40.9-42.3-56-7.5-15.1-5.3-30.1 8.4-35.6 12-4.7 25.2 1.9 30.7 19.7 5.2 16.7 3.2 71.9 3.2 71.9z"/>
					<path id="&lt;Path&gt;" class="s5" d="m702.2 1774.2c-13.4-6.2-82-57.2-115.3-98.3-36.2-44.7-73.2-99.2-98.5-194.7-0.1-0.5 0.1-1 0.6-1.1 0.5-0.1 0.9 0.2 1.1 0.6 25.2 95.2 62.1 149.6 98.2 194.1 31.8 39.2 100.7 91.4 114.7 97.9 0.4 0.2 0.6 0.7 0.4 1.1q-0.1 0.2-0.2 0.3c-0.2 0.2-0.6 0.3-1 0.1z"/>
					<path id="&lt;Path&gt;" class="s5" d="m544.4 1614.6c-0.4 0.3-0.9 0.3-1.2-0.1-16.1-19.8-61.6-43.5-80.1-48.8-0.5-0.1-0.7-0.6-0.6-1.1 0.1-0.4 0.6-0.7 1.1-0.6 18.7 5.4 64.6 29.4 80.9 49.4 0.3 0.4 0.3 0.9 0 1.2q-0.1 0-0.1 0z"/>
					<path id="&lt;Path&gt;" class="s5" d="m570.8 1653.8c-0.4 0.3-0.9 0.3-1.2-0.1-18.5-23.8 1.2-56.3 7.7-65.7 0.3-0.4 0.8-0.5 1.2-0.3 0.4 0.3 0.5 0.8 0.2 1.2-6.3 9.2-25.5 40.9-7.8 63.7 0.3 0.4 0.3 0.9 0 1.2q-0.1 0-0.1 0z"/>
					<path id="&lt;Path&gt;" class="s5" d="m595.3 1685.6c-22.4-18.4-60-19.2-78.5-12.7-0.4 0.1-0.9-0.1-1.1-0.6-0.2-0.4 0.1-0.9 0.5-1.1 18.9-6.6 57.3-5.7 80.2 13.1 0.4 0.3 0.5 0.9 0.1 1.2q0 0.1 0 0.1c-0.3 0.3-0.8 0.3-1.2 0z"/>
					<path id="&lt;Path&gt;" class="s5" d="m654.8 1740.4c-18.7-14.7-37.8-62.9-33.4-84.7 0.1-0.5 0.6-0.8 1-0.7 0.5 0.1 0.8 0.6 0.7 1-4.3 21.4 14.4 68.6 32.8 83 0.4 0.3 0.5 0.8 0.2 1.2q-0.1 0-0.1 0.1c-0.3 0.3-0.8 0.3-1.2 0.1z"/>
				</g>
				<path id="&lt;Compound Path&gt;" class="s6" d="m2527.6 1282.9q-5.5 1.1-11 2.1l-0.7-3.8c7.6-1.3 15.3-2.9 22.7-4.8l1 3.7q-6 1.5-12 2.8zm-34.3 5.2c-7.8 0.7-15.7 1.1-23.5 1.2v-3.9c7.7-0.1 15.5-0.5 23.1-1.2zm68.8-14.7l-1.2-3.6c7.3-2.5 14.6-5.3 21.6-8.4l1.5 3.5c-7.1 3.1-14.5 6-21.9 8.5zm-115.7 15.2c-7.8-0.5-15.7-1.4-23.4-2.6l0.6-3.8c7.6 1.2 15.4 2 23 2.6zm158.9-34l-1.9-3.4c6.8-3.6 13.6-7.6 20-11.7l2.1 3.2c-6.5 4.2-13.4 8.2-20.2 11.9zm-205.3 26.9c-7.6-1.8-15.2-4-22.7-6.4l1.2-3.6c7.4 2.3 14.9 4.5 22.4 6.2zm244.7-52.3l-2.3-3c6.1-4.7 12.1-9.7 17.8-14.9l2.6 2.9c-5.8 5.2-11.9 10.3-18.1 15zm-289.4 37.8c-7.2-3-14.4-6.3-21.3-9.9l1.7-3.4c6.9 3.5 13.9 6.8 21.1 9.8zm324.2-69.3l-2.8-2.6c5.3-5.6 10.4-11.5 15.2-17.5l3 2.4c-4.8 6.1-10 12-15.4 17.7zm-366 47.8c-6.7-4.1-13.2-8.5-19.5-13.1l2.3-3.1c6.2 4.5 12.6 8.9 19.2 12.9zm395.4-84.4l-3.2-2.2c4.3-6.4 8.5-13 12.2-19.7l3.4 1.9c-3.8 6.8-8 13.5-12.4 20zm-433.2 56.6c-5.9-5.1-11.7-10.5-17.1-16.1l2.7-2.7c5.4 5.5 11.1 10.8 16.9 15.9zm456.4-97.5l-3.5-1.6c3.2-7 6.2-14.2 8.9-21.4l3.6 1.3c-2.7 7.3-5.7 14.6-9 21.7zm-489.3 64c-5-6-9.8-12.3-14.3-18.7l3.2-2.2c4.4 6.3 9.1 12.5 14.1 18.4zm505.5-108l-3.7-1.1c2.1-7.4 3.9-15 5.4-22.6l3.8 0.8c-1.5 7.7-3.4 15.3-5.5 22.9zm-532.6 69.7c-4-6.8-7.7-13.7-11.1-20.8l3.5-1.6c3.3 6.9 7 13.8 10.9 20.4zm541.7-115.8l-3.9-0.5c0.9-7.6 1.5-15.4 1.7-23.1l3.8 0.1c-0.2 7.8-0.8 15.7-1.6 23.5zm-562.2 73.5c-2.8-7.2-5.4-14.7-7.6-22.2l3.7-1.1c2.2 7.4 4.7 14.8 7.5 22zm563.6-120.6l-3.8 0.2c-0.4-7.7-1.1-15.4-2.1-23.1l3.8-0.5c1 7.8 1.7 15.6 2.1 23.4zm-573.3 74.8l-3.8 0.8-0.1-0.7c-1.6-7.7-3-15.5-4-23.2l3.8-0.5c1 7.6 2.3 15.3 3.9 22.9zm563.5-120.5c-1.6-7.6-3.6-15.1-5.8-22.5l3.7-1.1c2.3 7.5 4.2 15.1 5.8 22.8zm-569.5 73.8l-3.9 0.2c-0.3-7.8-0.4-15.7-0.2-23.5l3.9 0.1c-0.3 7.7-0.2 15.5 0.2 23.2zm556.3-118.2c-2.8-7.2-5.9-14.4-9.2-21.3l3.4-1.7c3.4 7.1 6.6 14.3 9.4 21.6zm-554.8 71.9l-3.9-0.4c0.9-7.8 2.1-15.6 3.6-23.3l3.8 0.8c-1.5 7.5-2.7 15.3-3.5 22.9zm534.6-113.6c-3.9-6.7-8.1-13.2-12.6-19.5l3.2-2.2c4.5 6.4 8.8 13 12.7 19.7zm-525.7 68.1l-3.7-1c2.1-7.5 4.6-15 7.3-22.4l3.6 1.4c-2.7 7.2-5.1 14.6-7.2 22zm499.1-106c-5-5.9-10.2-11.7-15.6-17.2l2.8-2.7c5.4 5.6 10.7 11.5 15.7 17.5zm-482.9 62.5l-3.5-1.6c3.3-7.1 7-14.1 10.8-20.9l3.4 1.9c-3.8 6.7-7.4 13.6-10.7 20.6zm450.5-95.7c-5.8-5-11.9-9.9-18.1-14.5l2.3-3.1c6.3 4.7 12.4 9.6 18.3 14.7zm-427.6 55.4l-3.1-2.2c4.3-6.4 9-12.8 13.9-18.9l3 2.5c-4.8 6-9.4 12.2-13.8 18.6zm390.3-82.9c-6.5-4-13.3-7.9-20.1-11.4l1.7-3.4c7 3.5 13.8 7.4 20.5 11.6zm-361.3 46.7l-2.8-2.6c5.3-5.7 11-11.2 16.8-16.5l2.6 2.9c-5.7 5.1-11.3 10.6-16.6 16.2zm320.1-68c-7.2-3-14.5-5.7-21.8-8.1l1.2-3.6c7.4 2.4 14.8 5.2 22 8.2zm-285.6 36.9l-2.3-3c6.1-4.8 12.6-9.3 19.2-13.5l2.1 3.2c-6.5 4.2-12.9 8.7-19 13.3zm241.5-51.3c-7.4-1.8-15.1-3.3-22.7-4.5l0.6-3.8c7.7 1.2 15.4 2.8 23 4.6zm-202.6 26.2l-1.8-3.4c6.9-3.7 14-7.1 21.2-10.2l1.5 3.5c-7 3.1-14.1 6.5-20.9 10.1zm156.8-33.3c-7.7-0.6-15.5-0.8-23.2-0.7v-3.9c7.8 0 15.7 0.2 23.5 0.8zm-114.3 14.8l-1.2-3.6c7.4-2.5 14.9-4.8 22.5-6.7l1 3.7c-7.5 1.9-15 4.1-22.3 6.6zm67.9-14.4c-7.6 0.7-15.3 1.7-22.9 3l-0.7-3.8c7.7-1.3 15.5-2.4 23.3-3.1z"/>
				<path id="&lt;Compound Path&gt;" class="s6" d="m2841.5 1624.6c-9.8-0.8-19.6-2.2-29.2-4.4l1.1-4.7c9.3 2.1 18.9 3.5 28.4 4.2zm29.6 0l-0.4-4.9c9.6-0.7 19.1-2.1 28.5-4.3l1 4.8c-9.5 2.2-19.3 3.6-29.1 4.4zm-87-12.9c-9.1-3.6-18.1-7.9-26.6-12.8l2.4-4.2c8.3 4.8 17.1 9 26 12.5zm144.3-0.3l-1.8-4.5c8.9-3.5 17.6-7.7 25.9-12.5l2.4 4.2c-8.5 4.9-17.4 9.2-26.5 12.8zm-195.4-29.1c-7.6-6.2-14.9-12.9-21.6-20.1l3.5-3.3c6.6 7 13.7 13.6 21.2 19.6zm246.2-0.4l-3-3.8c7.4-6 14.5-12.6 21.1-19.6l3.5 3.3c-6.7 7.2-13.9 14-21.6 20.1zm-286.4-42.7c-5.5-8.1-10.5-16.7-14.8-25.5l4.4-2.1c4.1 8.6 9 17 14.4 24.9zm326.4-0.5l-4-2.8c5.4-7.9 10.2-16.3 14.4-24.9l4.4 2.1c-4.3 8.8-9.3 17.4-14.8 25.6zm-352-52.5c-2.9-9.4-5.2-19-6.6-28.8l4.8-0.7c1.4 9.5 3.6 18.9 6.4 28.1zm377.5-0.7l-4.6-1.4c2.8-9.1 4.9-18.6 6.4-28.1l4.7 0.8c-1.4 9.7-3.6 19.4-6.5 28.7zm-381.5-57.5h-4.9v-0.4c0-9.9 0.8-19.8 2.2-29.5l4.8 0.7c-1.4 9.5-2.1 19.1-2.1 28.7zm385.3-0.6c0-9.6-0.7-19.3-2.1-28.7l4.8-0.7c1.4 9.6 2.2 19.6 2.2 29.4zm-376.9-56.6l-4.6-1.4c2.9-9.4 6.5-18.6 10.8-27.5l4.4 2.1c-4.2 8.7-7.7 17.7-10.6 26.8zm368.3-0.2c-2.8-9.1-6.3-18.1-10.5-26.8l4.3-2.1c4.3 8.9 8 18.1 10.9 27.5zm-343.4-51.5l-4-2.8c5.5-8.1 11.7-15.8 18.4-23l3.6 3.2c-6.5 7.1-12.6 14.7-18 22.6zm318.4-0.2c-5.4-7.9-11.5-15.4-18-22.5l3.5-3.3c6.7 7.2 12.9 15 18.5 23.1zm-279.3-42l-3.1-3.8c7.7-6.1 15.9-11.7 24.4-16.6l2.4 4.2c-8.2 4.8-16.2 10.2-23.7 16.2zm240.2-0.1c-7.5-6-15.5-11.4-23.8-16.2l2.4-4.2c8.5 4.9 16.7 10.5 24.4 16.6zm-190.5-28.6l-1.8-4.5c9.1-3.6 18.6-6.5 28.2-8.7l1.1 4.7c-9.4 2.1-18.6 5-27.5 8.5zm140.7-0.1c-8.9-3.5-18.1-6.3-27.5-8.5l1.1-4.7c9.6 2.2 19.1 5.1 28.2 8.7zm-84.8-12.7l-0.3-4.8c4.9-0.4 9.9-0.5 14.8-0.6 4.9 0 9.8 0.2 14.7 0.6l-0.4 4.8c-4.7-0.4-9.6-0.5-14.4-0.5-4.8 0-9.6 0.2-14.4 0.5z"/>
				<g id="&lt;Group&gt;">
					<path id="&lt;Path&gt;" class="s7" d="m894.1 1708.5v607.3c0 6.3-5.1 11.5-11.4 11.5h-486.7c-6.3 0-11.5-5.2-11.5-11.5v-607.3c0-6.4 5.2-11.5 11.5-11.5h486.7c6.3 0 11.4 5.1 11.4 11.5z"/>
					<path id="&lt;Path&gt;" class="s7" d="m528.2 1697v630.3h-132.2c-6.3 0-11.5-5.2-11.5-11.5v-607.3c0-6.4 5.2-11.5 11.5-11.5z"/>
					<path id="&lt;Path&gt;" class="s5" d="m523.7 1822.4h-139.2v-59.5h139.2z"/>
					<path id="&lt;Path&gt;" class="s5" d="m523.7 2261.3h-139.2v-59.5h139.2z"/>
					<path id="&lt;Path&gt;" class="s6" d="m528.2 2327.3h-9v-630.3h9z"/>
					<path id="&lt;Path&gt;" class="s8" d="m547.6 2327.3h-9v-630.3h9z"/>
				</g>
				<g id="&lt;Group&gt;">
					<path id="&lt;Path&gt;" class="s4" d="m958.8 1856.6v461.9c0 4.9-3.9 8.8-8.7 8.8h-370.2c-4.8 0-8.7-3.9-8.7-8.8v-461.9c0-4.8 3.9-8.7 8.7-8.7h370.2c4.8 0 8.7 3.9 8.7 8.7z"/>
					<path id="&lt;Path&gt;" class="s4" d="m680.5 1847.9v479.4h-100.6c-4.8 0-8.7-3.9-8.7-8.8v-461.9c0-4.8 3.9-8.7 8.7-8.7z"/>
					<path id="&lt;Path&gt;" class="s9" d="m678.4 1943.3h-107.2v-45.3h107.2z"/>
					<path id="&lt;Path&gt;" class="s9" d="m678.4 2277.1h-107.2v-45.2h107.2z"/>
					<path id="&lt;Path&gt;" class="s10" d="m680.5 2327.3h-6.9v-479.4h6.9z"/>
					<path id="&lt;Path&gt;" class="s11" d="m695.2 2327.3h-6.8v-479.4h6.8z"/>
				</g>
				<g id="&lt;Group&gt;">
					<path id="&lt;Path&gt;" class="s7" d="m3084 2094.6c-99.3 157.5-225.2 151.2-225.2 151.2 0 0-60.2-178.5 7.7-289.4 100.2-163.6 300.5-259.7 292.1-236.3-36.9 103.1 24.7 216.9-74.6 374.5z"/>
					<path id="&lt;Path&gt;" class="s0" d="m3157.1 1716.3l1.4 1.3c-136.1 150.7-297.2 524.8-298.8 528.6l-1.8-0.8c1.6-3.7 162.8-378.1 299.2-529.1z"/>
					<path id="&lt;Path&gt;" class="s0" d="m3029.7 1902c-0.8-3.2-19.2-80.2-5.1-114.5l1.8 0.7c-13 31.6 2.7 102.9 4.9 112.3 9.9-3.5 89.1-32.3 112.9-62.9l1.5 1.2c-25.6 32.9-111.1 62.7-114.8 63.9l-1 0.4z"/>
					<path id="&lt;Path&gt;" class="s0" d="m2959.2 2031.8c-1.9-4.6-45.4-114.2-41.8-145.6l1.9 0.2c-3.4 29.7 37.9 135.1 41.4 144.1 9.6-0.1 121.5-2.2 172.2-51.8l1.3 1.4c-53.2 52.1-172.9 52.4-174.1 52.4h-0.7z"/>
					<path id="&lt;Path&gt;" class="s0" d="m2894 2166.2c-2.4-4.4-59.2-109.4-51.2-155.8l1.9 0.4c-7.6 44 46.3 145.7 50.7 154 9.5-0.4 127.3-6.1 178.1-55.9l1.3 1.4c-53.2 52.1-178.6 56.4-179.9 56.4h-0.6z"/>
				</g>
				<g id="&lt;Group&gt;">
					<path id="&lt;Path&gt;" class="s9" d="m3129.5 2257c-104.4 98.7-275.9 77.2-267.3 24.6 45.9-283.6 286.9-216.6 394.3-197.6 0 0-63.2 112.7-127 173z"/>
					<path id="&lt;Path&gt;" class="s0" d="m2866.4 2299.4c52-60.4 270.2-187.1 389.8-216.6l0.6 2.3c-127.7 31.5-341.6 161.3-388.6 215.8z"/>
					<path id="&lt;Path&gt;" class="s0" d="m3093.9 2149.8l0.2-1.1c0.4-2.7 9.9-65.9 38.5-85l1.3 2c-25.7 17.2-35.9 73.6-37.3 82.2 9.5 2 77.7 16 109.6 14.4l0.2 2.4c-34.5 1.7-110.6-14.5-111.4-14.7z"/>
					<path id="&lt;Path&gt;" class="s0" d="m2965.1 2222.7c-0.5-5.3-8.4-96.8 20.3-137.7l2 1.4c-27.5 39.2-20.7 126.4-19.9 135.5 10.2 3.3 121.5 38.7 161.9 33.9l0.2 2.4c-42.6 5.1-158.7-32.6-163.6-34.2l-0.8-0.3v-0.7q0-0.1-0.1-0.3z"/>
				</g>
				<g id="&lt;Group&gt;">
					<path id="&lt;Path&gt;" class="s12" d="m2827.7 2208.6h-1983.7c-45.9 0-83.1-37.2-83.1-83.1v-1113.8c0-45.9 37.2-83.1 83.1-83.1h1983.7c45.9 0 83.2 37.2 83.2 83.1v1113.8c0 45.9-37.3 83.1-83.2 83.1z"/>
					<path id="&lt;Path&gt;" class="s13" d="m2830.5 1011.7v1113.8c0 1.5-1.2 2.8-2.8 2.8h-1983.6c-1.6 0-2.8-1.3-2.8-2.8v-1113.8c0-1.5 1.2-2.8 2.8-2.8h1983.6c1.6 0 2.8 1.3 2.8 2.8z"/>
					<path id="&lt;Path&gt;" class="s0" d="m2755.2 1137.4v990.9h-1844.9v-990.9c0-32.2 26-58.2 58.1-58.2h332.8q0.1 0 0 0h1395.8c32.1 0 58.2 26 58.2 58.2z"/>
					<path id="&lt;Path&gt;" class="s12" d="m2873.1 2327.6h-2060.5c-52.3 0-94.6-42.3-94.6-94.6v-17.8c0-3.6 3-6.6 6.6-6.6h2236.5c3.7 0 6.7 3 6.7 6.6v17.8c0 52.3-42.4 94.6-94.7 94.6z"/>
					<path id="&lt;Path&gt;" class="s7" d="m2755.2 1137.4v20.1h-1844.9v-20.1c0-32.2 26-58.2 58.2-58.2h1728.5c32.1 0 58.2 26 58.2 58.2z"/>
					<path id="&lt;Path&gt;" class="s0" d="m1009.8 1118.3c0-8 6.5-14.5 14.5-14.5 8.1 0 14.6 6.5 14.6 14.5 0 8.1-6.5 14.6-14.6 14.6-8 0-14.5-6.5-14.5-14.6z"/>
					<path id="&lt;Path&gt;" class="s0" d="m1056 1118.3c0-8 6.5-14.5 14.5-14.5 8.1 0 14.6 6.5 14.6 14.5 0 8.1-6.5 14.6-14.6 14.6-8 0-14.5-6.5-14.5-14.6z"/>
					<path id="&lt;Path&gt;" class="s0" d="m963.6 1118.3c0-8 6.5-14.5 14.5-14.5 8.1 0 14.6 6.5 14.6 14.5 0 8.1-6.5 14.6-14.6 14.6-8 0-14.5-6.5-14.5-14.6z"/>
				</g>
				<path id="&lt;Path&gt;" class="s6" d="m2705.3 2076.2h-1745.3v-30h1745.3z"/>
				<path id="&lt;Path&gt;" class="s14" d="m2709.1 1286.8h-1746.4v-71.2h1746.4z"/>
				<path id="&lt;Path&gt;" class="s13" d="m2705.3 2002.3h-638.3v-491.7h638.3z"/>
				<path id="&lt;Path&gt;" class="s0" d="m2663.2 1565.1h-382.7v-17.9h382.7z"/>
				<path id="&lt;Path&gt;" class="s0" d="m2663.2 1630.2h-382.7v-17.9h382.7z"/>
				<path id="&lt;Path&gt;" class="s0" d="m2663.2 1832h-382.7v-17.9h382.7z"/>
				<path id="&lt;Path&gt;" class="s0" d="m2663.2 1897.1h-382.7v-17.9h382.7z"/>
				<path id="&lt;Path&gt;" class="s0" d="m2663.2 1962.1h-382.7v-17.8h382.7z"/>
				<path id="&lt;Path&gt;" class="s0" d="m2110.9 1814.1h149.7v148h-149.7z"/>
				<path id="&lt;Path&gt;" class="s0" d="m2663.2 1695.2h-382.7v-17.8h382.7z"/>
				<g id="&lt;Group&gt;">
					<path id="&lt;Path&gt;" class="s3" d="m2412.7 1922.7l169.2 69.1-46.3 113.4-169.2-69z"/>
					<path id="&lt;Path&gt;" class="s15" d="m2411.6 1892.8l191.9 78.3c-13.2-5.4-24.2 9.8-21.6 20.7l-169.2-69.1c10.8-5.4 12.5-24.3-1.1-29.9z"/>
					<path id="&lt;Path&gt;" class="s15" d="m2366.5 2036l169.2 69q-0.1 0.1-0.2 0.1c-9.4 6.1-12 24.4 1.2 29.8l-191.9-78.3c13.5 5.5 25.5-9 21.7-20.4q0-0.1 0-0.2z"/>
					<path id="&lt;Path&gt;" class="s2" d="m2334.6 2108.9l172.8 70.5c4.2 1.7 6.6 6 6 10.3q-0.2 1.2-0.7 2.4l-0.3 0.9c-2.1 5-7.7 7.4-12.7 5.3l-172.8-70.5c-5-2-7.4-7.7-5.3-12.6l0.4-1q0.4-1.1 1.1-2.1c2.6-3.4 7.3-4.9 11.5-3.2z"/>
					<path id="&lt;Path&gt;" class="s2" d="m2448.6 1829.6l172.8 70.5c4.9 2 7.3 7.7 5.3 12.6l-0.4 1q-0.4 1.1-1.1 1.9c-2.5 3.6-7.3 5.1-11.5 3.4l-172.9-70.5c-4.2-1.7-6.6-6.1-5.9-10.5q0.2-1.1 0.6-2.1l0.4-1c2-5 7.7-7.3 12.7-5.3z"/>
					<path id="&lt;Path&gt;" class="s3" d="m2434.1 1837.7l191.9 78.3c6 2.4 8.8 9.1 6.4 15.1l-13.8 33.7c-2.4 5.9-9.2 8.8-15.1 6.3l-191.9-78.3c-5.9-2.4-8.7-9.1-6.3-15l13.7-33.8c2.5-5.9 9.2-8.7 15.1-6.3z"/>
					<path id="&lt;Path&gt;" class="s3" d="m2344.8 2056.6l191.9 78.3c5.9 2.4 8.8 9.2 6.4 15.1l-13.8 33.7c-2.4 5.9-9.2 8.8-15.1 6.4l-191.9-78.3c-5.9-2.4-8.8-9.2-6.3-15.1l13.7-33.7c2.4-6 9.2-8.8 15.1-6.4z"/>
					<path id="&lt;Path&gt;" class="s3" d="m2591.2 2008.4l-37.3 91.5-13.8-5.7 37.3-91.5z"/>
					<path id="&lt;Path&gt;" class="s3" d="m2601.3 2040.3l590 241.8c12 5 17.8 18.8 12.9 30.8-4.9 12.1-18.8 17.9-30.8 13l-589.9-241.8z"/>
					<path id="&lt;Path&gt;" class="s2" d="m2587.7 2016.9l28.2 11.5c5.4 2.2 7.9 8.3 5.8 13.7l-22.5 55c-2.2 5.3-8.3 7.9-13.7 5.7l-28.1-11.5z"/>
					<path id="&lt;Path&gt;" class="s16" d="m2429.5 1942.7l-37.1 90.9c-1 2.5-3.8 3.7-6.3 2.7-2.4-1-3.6-3.8-2.6-6.3l37.1-90.9c1-2.5 3.8-3.6 6.2-2.6 2.5 1 3.7 3.8 2.7 6.2z"/>
					<path id="&lt;Path&gt;" class="s16" d="m2368.7 2066.3l8.8 3.7-22.5 55.1-8.9-3.6z"/>
					<path id="&lt;Path&gt;" class="s16" d="m2458 1847.4l8.9 3.6-22.5 55.2-8.9-3.6z"/>
					<path id="&lt;Path&gt;" class="s17" d="m2579.3 1961.3l24.2 9.8c-13.2-5.4-24.2 9.8-21.6 20.7l-46.3 113.4-0.1-0.1c-9.4 6.1-12 24.4 1.2 29.8l-24.2-9.9z"/>
					<path id="&lt;Path&gt;" class="s17" d="m2490 2180.2l23.4 9.5q-0.2 1.2-0.7 2.4l-0.3 0.9c-2.1 5-7.7 7.4-12.7 5.3l-14.6-5.9z"/>
					<path id="&lt;Path&gt;" class="s17" d="m2606.7 1894.1l14.7 6c4.9 2 7.3 7.7 5.3 12.6l-0.4 1q-0.4 1.1-1.1 1.9l-23.3-9.5z"/>
				</g>
				<g id="&lt;Group&gt;">
					<path id="&lt;Path&gt;" class="s15" d="m2746.3 2298.2v9.7c0 1.2-0.1 2.5-0.4 3.7-1.7 9.1-9.7 16-19.4 16h-436.6c-9.6 0-17.7-6.9-19.4-16-0.2-1.2-0.3-2.5-0.3-3.7v-9.7c0-10.9 8.8-19.7 19.7-19.7h436.6c10.9 0 19.8 8.8 19.8 19.7z"/>
					<path id="&lt;Path&gt;" class="s3" d="m2725.7 2246.6v31.9h-435v-31.9c0-27.6 22.4-49.9 49.9-49.9h335.2c27.6 0 49.9 22.3 49.9 49.9z"/>
					<path id="&lt;Path&gt;" class="s16" d="m2633.7 2222h-293.2c-4.8 0-8.7-3.9-8.7-8.7 0-4.8 3.9-8.7 8.7-8.7h293.2c4.8 0 8.7 3.9 8.7 8.7 0 4.8-3.9 8.7-8.7 8.7z"/>
					<path id="&lt;Path&gt;" class="s2" d="m2746.3 2298.2v9.7c0 1.2-0.1 2.5-0.4 3.7h-475.4c-0.2-1.2-0.3-2.5-0.3-3.7v-9.7c0-10.9 8.8-19.7 19.7-19.7h436.6c10.9 0 19.8 8.8 19.8 19.7z"/>
				</g>
				<g id="&lt;Group&gt;">
					<path id="&lt;Path&gt;" class="s18" d="m1776.1 1640.5h-38.8l0.3-291.5h38.8z"/>
					<path id="&lt;Path&gt;" class="s2" d="m1760.5 1660.5h-7.7l0.3-310.3h7.8z"/>
					<path id="&lt;Path&gt;" class="s18" d="m1777.9 1309.3l9.7 24.7c1.8 4.8 0 10.2-4.4 12.8l-20.8 12.5c-3.4 2-7.5 2-10.8 0l-20.9-12.6c-4.4-2.6-6.2-8-4.3-12.8l9.7-24.7z"/>
					<path id="&lt;Path&gt;" class="s13" d="m1737.6 1337.3l6.4-16.4h26l6.4 16.4-19.4 11.7z"/>
					<path id="&lt;Path&gt;" class="s19" d="m1648.2 1678.6c44-5 75.1-19.9 84.5-50.4l-5.7 73.4-99.2-0.1c0-11.7 8.7-21.6 20.4-22.9z"/>
					<path id="&lt;Path&gt;" class="s19" d="m1885.5 1701.7l-99.2-0.1-5.6-73.4c9.3 30.6 40.4 45.6 84.4 50.6 11.7 1.3 20.4 11.2 20.4 22.9z"/>
					<path id="&lt;Path&gt;" class="s18" d="m1794.3 1701.3v0.4l-0.3 272.2-0.1 72.3h-75.3l0.1-72.3 0.3-272.3v-0.4h8l59.2 0.1z"/>
					<path id="&lt;Path&gt;" class="s13" d="m1759.5 1718.5v17.8l-0.9 237.6-0.3 72.3h-4.1l-0.1-72.3-0.4-237.6v-17.8z"/>
					<path id="&lt;Path&gt;" class="s20" d="m1794.3 1701.3l-37.7 37.8-37.6-37.9 18.3-97.7 19.4 38.5 19.4-38.5z"/>
				</g>
				<g id="&lt;Group&gt;">
					<path id="&lt;Path&gt;" class="s18" d="m1592.2 1102.7c82.3-18.5 237-107.6 267.6-119.6 30.7-12 75.4 63.1 54.4 86.8-21.1 23.6-333.7 222.6-408.5 200.6-51.2-15 4.2-149.2 86.5-167.8z"/>
					<path id="&lt;Path&gt;" class="s19" d="m1402 1064.3c-13.1 6.2-27.4 4.7-40.8-0.1-27.3-9.8-50.5-33.4-50.5-33.4-76.1 29.7-98.7-52.3-51-89.9 20.2-16-24.4-22.5-27.9-61.5-3.5-39 29.9-69.8 84.5-84.2q2.3-0.6 4.5-0.9c43.7-7.2 73.4 51.8 87.8 116.6 15.4 68.7 13.7 143.9-6.6 153.4z"/>
					<path id="&lt;Path&gt;" class="s2" d="m1402 1064.3c-13.1 6.2-27.4 4.7-40.8-0.1 0 0 24.9-3.4 26.5-26.4 1.7-23.1-56.1-20.3-72.8-54.6-16.8-34.4 11.2-58.6 0-78.1l93.7 5.8c15.4 68.7 13.7 143.9-6.6 153.4z"/>
					<path id="&lt;Path&gt;" class="s18" d="m1576 1109c0 0 17.4 65.1-49.3 91.3-66.7 26.2-202.2-14.6-216.5-70.8 0 0 65.8-4.1 79.4-43.2 13.6-39.1 2.4-193.4-4.5-205.3-7-11.9 165.4 45.4 165.4 45.4l-13.2 55.6-8.5 35.4c-1.5 10.9-1.7 26.4-1.3 40.6 0.5 17 1.9 32.2 3.1 35.9 2.4 6.7 12.6 9.5 45.4 15.1z"/>
					<path id="&lt;Path&gt;" class="s2" d="m1528.8 1017.4c-1.5 10.9-1.7 26.4-1.3 40.6-29-3.5-56.9-17.4-77-53.8l86.4-23.7c0 0 0.2 0.5 0.4 1.5z"/>
					<path id="&lt;Path&gt;" class="s20" d="m1555.8 775.2c17.4 11.9 30.9 30.2 25.8 51.7-5.1 21.5-9.1 35.6-9.1 35.6l-86.5-43.6z"/>
					<path id="&lt;Path&gt;" class="s18" d="m1595.6 973.2c6.3 7.8 8 18.1-2.1 28.3-10.1 10.1-72.3 22-120.5 14.6-48.1-7.3-87.9-135.1-87.9-135.1 0 0 98.4-184.7 163-91.5 15.6 22.5 17.1 33.6 18.2 44 1 10.5 1 21.3 2.4 25.5 1.4 4.2 33.7 42.4 34.9 46.5 2.7 9-13.1 18-18 22.2-4.2 3.5 0.4 8.3 2.6 12q0 0 0 0 0.6 1 0.9 2c1.4 4.2-0.5 8.4-0.5 8.4 0 0 5.3 3.9 4.6 9.7-0.3 3.1-0.7 9.5 2.4 13.4z"/>
					<path id="&lt;Path&gt;" class="s20" d="m1260.4 867.7c13.3 34.6 47.4 53.7 33.8 73.2-13.5 19.4-48.4 42.1-32.7 71 15.7 29 49.2 18.9 49.2 18.9-76.1 29.7-98.7-52.3-51-89.9 20.2-16-24.4-22.5-27.9-61.5-3.5-39 29.9-69.8 84.5-84.2q2.3-0.6 4.5-0.9l-6.8 8.6c-23.6 5.8-66.9 30.1-53.6 64.8z"/>
					<path id="&lt;Path&gt;" class="s20" d="m1215.6 1051.1c-1.3 0-2.5-0.5-3.3-1.5-11.1-13.5-6.4-19.7 0-25.4 3.2-2.9 6-5.4 6-10.5 0-5-3.2-7-10.9-10.6-8.2-3.8-19.4-9-19.2-24.7 0.3-19.5 16.9-24.1 30.3-27.9 12.7-3.6 20.5-6.3 21.8-14.6 1.4-8.8-4.1-14.6-13.1-23.2-9.7-9.3-21.8-20.8-18.6-41.1 5.8-37.3 47-69.7 100.1-78.6 2.3-0.4 13.4-1.1 13.8 1.3 0.4 2.3-10.1 6.7-12.4 7.1-48.7 8.2-87.9 38.3-93.1 71.5-2.5 15.9 6.6 24.5 16.2 33.7 8.7 8.3 17.7 16.9 15.6 30.6-2.2 14.3-15.9 18.2-28 21.6-14.8 4.1-23.8 7.5-24 19.7-0.1 9.7 5.3 12.7 14.2 16.9 7 3.2 15.8 7.3 15.8 18.3 0 8.9-5.1 13.5-8.8 16.9-4.5 4-5.9 5.3 0.9 13.5 1.5 1.9 1.2 4.6-0.6 6.1-0.8 0.6-1.8 0.9-2.7 0.9z"/>
					<path id="&lt;Path&gt;" class="s2" d="m1588.6 950.1c-9.8 7.5-25.3 15-26.3 15.5 2.1-1.8 22.2-23.9 23.3-24.4 1.2-0.7 3.3-0.2 3.5 0.5 1.4 4.2-0.5 8.4-0.5 8.4z"/>
					<path id="&lt;Path&gt;" class="s13" d="m1555.8 775.2q0 0 0 0c-0.9 5.8-4 11-7.7 14.3-8.6 7.7-16.1 10.2-15.4 51.4 0.6 32-27.8 57.7-57.2 72.9-8.5 4.4-17 7.9-25 10.5-35.8 11.5-56.1 35.2-56.1 35.2l1.3 30.8c0 0-48 1.7-63.4-29.3-14-28.5-1.2-36.2-8.8-47.2q-1.1-1.5-2.7-3.1c-5.9-6-13.6-12-19.7-19.9-7.2-9.3-12.2-21.2-10-38.8 4.2-32.5 18.7-29.3 25.2-56.8 6.5-27.4 31.6-48.4 56.3-50.7 13-1.2 23.8-11.5 36.4-18.4 11.3-6.1 24.2-9.5 41.5-1.1 31.8 15.3 59.9 15.9 79.8 21.4 3 0.9 5.8 1.8 8.5 3 10.9 4.8 15.8 11.7 16.9 18.7h0.1c0.4 2.4 0.3 4.8 0 7.1z"/>
					<path id="&lt;Path&gt;" class="s2" d="m1555.8 775.2c-0.9 5.8-4 11-7.7 14.3-8.6 7.7-16.1 10.2-15.4 51.4 0.6 32-27.8 57.7-57.2 72.9-9-4-10.4-7.9 1.4-11 48.5-12.7 34.9-53.1 47.2-89.9 12.3-36.7 24-23.4 31.7-37.7z"/>
					<path id="&lt;Path&gt;" class="s2" d="m1462.5 835.1c9.4 50.3-14.3 62.5-39.2 73-24.9 10.5-25.3 57.7-25.3 57.7 0 0-8.4 10-15.8-18.5-7.4-28.6 7.4-49.7 29-61.5 21.7-11.9 30.1-23.1 29.4-55.9-0.7-30.4 24.4-83.5 71.5-87.1 0 0-63.5 17.4-49.6 92.3z"/>
					<path id="&lt;Path&gt;" class="s20" d="m1555.7 768.1c-28.6-10.6-49.5 12.7-47.2 42 2.4 29.4-9 70.8-40.1 94.5-31.1 23.8-35.5 24.4-35.5 24.4 0 0 38.6-37.1 51-61.3 12.3-24.3 14.4-51.3 10-81.3-4.3-29.1 22.7-40.4 36.4-40 3 0.9 5.8 1.8 8.5 3 10.9 4.8 15.8 11.7 16.9 18.7z"/>
					<path id="&lt;Path&gt;" class="s18" d="m1443.4 957.8c3.1 6 0.3 25.5-11 25.4-11.3-0.2-27.1-18.4-34.8-30-7.7-11.6-9.8-34.1 6.7-40.4 16.4-6.3 31.7 4.9 34.9 18.1 2.1 8.8 1 21 4.2 26.9z"/>
					<path id="&lt;Path&gt;" class="s20" d="m1584.9 880.6c-9.7 27-111.2 72-147.5 85-36.3 13-62.5 72.9-84.4 114.6-5.5 10.6-13.9 19.3-23.4 26.9q0 0.1 0 0.1c-23.7 18.8-55 30.6-70.6 45.5-21.9 21.1-39.1 50.2-39.4 47.4-0.1-0.5-0.3-2.5-0.6-5.7-1-13.2-2-46.3 9.3-67.3 14-25.8 44.7-30.2 78-60.5 23.7-21.6 31.8-65.3 60.2-99.1 6.8-8 13.8-14.6 21.8-20.4 20.4-15.1 46.7-25.8 88.5-46.6q0-0.1 0.1-0.1 7.1-3.6 15-7.6c45.4-23.3 68.7-53.3 74.5-57.8 0.7-0.5 2.5 1.4 4.9 4.8 3.7 5.3 8.5 14.1 11.5 22.7 2.4 7 3.7 13.7 2.1 18.1z"/>
					<path id="&lt;Path&gt;" class="s21" d="m1276.4 1293.3l38.5 94.8-68.1 225.5c0 0-0.4-106.6-5.4-214.1z"/>
					<path id="&lt;Path&gt;" class="s2" d="m1388.3 947.1c-28.9 29.6-31.5 71.1-49 100.4-17.4 29.4-35 44.3-61.1 54.6-26.2 10.4-48 15.2-53.2 73.9-0.7 8.4-2.8 14.3-6 18.4-1-13.2-2-46.3 9.3-67.3 14-25.8 44.7-30.2 78-60.5 23.7-21.6 31.8-65.3 60.2-99.1 6.8-8 13.8-14.6 21.8-20.4z"/>
					<path id="&lt;Path&gt;" class="s18" d="m1302.3 1325c-51.2 67-108.2 216.6-124 261.3-10.9 31-98.2 26.1-102.2-5.3-7-53.7 113.4-409.1 184.9-440.2 48.9-21.4 92.5 117.2 41.3 184.2z"/>
					<g id="&lt;Group&gt;">
						<path id="&lt;Path&gt;" class="s19" d="m1675.2 2046.1h-520.9c0 0 6.5-41.3 18.4-71.7 5.5-13.9 12.1-25.6 19.7-29.8 0 0-6.5-29.7 0.8-58.3 1.1-4.1 2.4-8.2 4.1-12.1q1.4-3.3 3.1-6.4c17.7-32.6 36.4-69.4 38.9-89.9 2.5-20.5 4.7-73.3 9.9-92.1 6.3-22.6 39.6-86.2 41-115 1.4-28.9 348.2-56.4 348.2-56.4-12.6 51.7-4.2 123.4-3.3 138.8 1 15.3-4.6 18.6 4.7 33.5 5.3 8.4 6.5 22.7 7.4 37.6 0.8 11.5 1.3 23.4 3.3 33.1 0.9 4.4 1.9 8.6 3 12.7 4.4 16.6 9.5 31.3 11 51.1 1.8 24.7-1 60.1 0 88.9 0.9 28.9 10.7 136 10.7 136z"/>
						<path id="&lt;Path&gt;" class="s2" d="m1452.8 1657.5c-33.6 22.2-37.4 33.4-30.4 38 7 4.7 16.6 14.9-16.8 41.9-33.5 27-142.9 67.5-142.9 67.5 0 0 156.3-72.1 142.9-91.2-13.4-19.1-78.6 37.5-93.5 29.7-14.9-7.8 152.2-122.2 152.2-122.2z"/>
						<path id="&lt;Path&gt;" class="s2" d="m1325.3 1665c-27.6 33.3-30 65-78.2 83.6-48.1 18.6 25.7-14 29.3-50.3 3.6-36.3 8.6-75.4 38.7-84.7 30-9.3 10.2 51.4 10.2 51.4z"/>
						<path id="&lt;Path&gt;" class="s2" d="m1578.6 1595c-24.9 46.1-70.3 91.5-79.4 94.9-9.1 3.5 39.6-42.5 48.1-94.9 8.5-52.4 31.3 0 31.3 0z"/>
						<path id="&lt;Path&gt;" class="s20" d="m1685.7 1559.5c-14.9 4.1-13-8.2-22-3.6-6.8 3.5-4.2 29-23.4 29.1-22.4 0.2-15.7-15.3-14.3-25.9 0.6-5.1 0-9.1-6-9.5-18.3-1.2-12.8 57.5-51.2 63.1q-1.6 0.2-3.1 0.4c-37.7 4.4-14.4-20-15.7-26.5-0.3-1.2-1.4-1.8-4-1.4-4.4 0.7-8.4 2.1-12.1 4.2q0 0 0 0c-30 16.7-38.1 73.9-71.4 75.5-28.2 1.5-15.1-20.6-10.8-35.6 0.9-3.1 1.4-5.9 1.1-8.1-0.3-2.8-2-4.8-5.8-5.2q-1.6-0.2-3.6-0.1c-49.9 3.8-73.5 52.5-104.7 58.3-9.2 1.7-17 1.9-23.8 0.8-15.9-2.7-25.6-12.9-33-27.8-1.1-2.2-2.4-4.1-4-5.6-12.6-12.5-37.6-2-38.6-1.6 14-12.4 52.4-391.7 49.6-432.9-2.8-41.1-25.3-62.2-27.9-66.3-1.9-3 3.6-2.6 10.2-4.1 3.5-0.8 7.2-2.1 10.3-4.7 6.3-5.2 12.4-4.6 19.3-4.3 4.7 0.1 9.7 0.1 15.4-2.2 9.7-4 15.9 1.3 18.6 3.7 53.5 47.6 109.6 53.5 157.5 47.9 47.5-5.6 67.9-42.8 66.8-71.1-0.1-4.5 24.3-8.2 27.2-3.1 4 6.9 48.9 102.1 69.2 152.4 20.2 50.2 13.9 57.2 10.4 138.9-3.4 81.7 19.8 165.3 19.8 165.3z"/>
						<path id="&lt;Path&gt;" class="s13" d="m1316.2 1125.5c0 0 38.4 39.8 62.9 115.5 8.7 26.9-3.5 26.9-7.3 14.6-11.2-35.8-42.3-103.6-55.6-130.1z"/>
						<path id="&lt;Path&gt;" class="s2" d="m1603.6 1839.4c-12.6 18.5 19.4 0.3 15.4 10.4-10.9 27.6-106.5 133.8-162 163.8-26.7 14.4-7-7.3-9.8-8-2.8-0.7-118.8 79.1-15.5 2.8 103.3-76.4 205.7-263.4 215.5-284.1 0.8 11.5 1.3 23.4 3.3 33.1 0.9 4.4 1.9 8.6 3 12.7-3.1 0.2-37.3 50.8-49.9 69.3z"/>
						<path id="&lt;Path&gt;" class="s2" d="m1640.3 1585c-22.4 0.2-15.7-15.3-14.3-25.9q0 0 0-0.1c1.3-7.9 7.2-167.4 9.6-197.2 0.4-4.7 2.8 214.6 4.7 223.2z"/>
						<path id="&lt;Path&gt;" class="s2" d="m1565.7 1613.1c-37.7 4.4-14.4-20-15.7-26.5-0.1-2.4-3.1-105.8-5.2-157.3-0.8-21.8 8.4 128.3 8.7 169.9 0.1 12.4 10.6 10.9 12.2 13.9z"/>
						<path id="&lt;Path&gt;" class="s2" d="m1533.9 1589.4c-30 16.7-38.1 73.9-71.4 75.5-28.2 1.5-15.1-20.6-10.8-35.6-1.9 21.6 9.1 24.6 23.8 18.7 16.3-6.5 40.9-53.4 58.4-58.6z"/>
						<path id="&lt;Path&gt;" class="s13" d="m1439.2 1427.1c0 0 0 0.8 0.1 2.2 0.1 1.4 0.2 3.5 0.4 6.2 0.2 2.6 0.4 5.8 0.7 9.5 0.3 3.7 0.7 7.9 1.1 12.4 0.7 9.1 1.6 19.7 2.5 31.1 0.9 11.4 1.8 23.5 2.7 35.6 0.5 6.1 0.9 12.1 1.3 18.1 0.5 6 0.9 11.9 1.3 17.5 0.7 11.4 1.4 22 1.9 31.1 0.6 9.2 0.9 16.8 1.2 22.1 0.3 5.3 0.4 8.3 0.4 8.3 0 0-0.3-3-0.9-8.3-0.6-5.3-1.4-12.8-2.3-21.9-0.9-9.1-1.8-19.7-2.8-31.1-0.5-5.7-1-11.5-1.4-17.5-0.5-6-1-12-1.4-18.1-0.5-6.1-0.9-12.1-1.3-18.1-0.4-6-0.8-11.8-1.2-17.5-0.3-5.7-0.6-11.2-0.9-16.5-0.3-5.2-0.5-10.1-0.7-14.7-0.3-4.5-0.4-8.7-0.5-12.4-0.1-3.7-0.2-7-0.2-9.6-0.1-2.7 0-4.8-0.1-6.2 0.1-1.4 0.1-2.2 0.1-2.2z"/>
						<path id="&lt;Path&gt;" class="s13" d="m1660.7 1390.2c0 0 0 0.6-0.2 1.8q-0.1 1-0.3 2.3-0.1 1.3-0.3 3.1-0.2 1.7-0.3 3.8c-0.1 1.3-0.2 2.8-0.3 4.4-0.1 3.2-0.2 6.9-0.3 10.8 0 3.9 0 8.2 0 12.7 0.1 4.5 0.3 9.3 0.4 14.2 0.2 5 0.5 10.1 0.8 15.2 0.3 5.2 0.6 10.4 1.1 15.7 0.3 5.2 0.8 10.5 1.2 15.6 0.5 5.2 1 10.3 1.5 15.2 0.6 4.9 1.1 9.6 1.6 14.1 0.6 4.5 1.1 8.7 1.7 12.6 0.5 3.9 1 7.5 1.6 10.7 0.5 3.2 1.1 5.9 1.6 8.1q0.4 1.7 0.7 3 0.4 1.3 0.6 2.2c0.5 1.2 0.7 1.8 0.7 1.8 0 0-0.3-0.6-0.8-1.7q-0.4-0.9-0.8-2.2c-0.3-0.8-0.6-1.8-1-2.9-1.2-4.5-2.8-10.9-4.2-18.7-0.7-3.9-1.5-8.1-2.1-12.6-0.7-4.5-1.4-9.2-2-14.1-0.6-5-1.2-10-1.7-15.2-0.5-5.2-1-10.4-1.4-15.7-0.4-5.3-0.7-10.5-1-15.7-0.3-5.2-0.4-10.3-0.5-15.3-0.1-4.9-0.1-9.7 0-14.3 0-4.5 0.2-8.8 0.4-12.8 0.2-3.9 0.5-7.5 0.9-10.7 0.1-1.6 0.4-3.1 0.5-4.5q0.3-2.1 0.6-3.8c0.3-2.3 0.7-4.1 1-5.3 0.2-1.2 0.3-1.8 0.3-1.8z"/>
						<path id="&lt;Path&gt;" class="s13" d="m1610 1557.5c0 0 0.3-8.4 0.8-20.9 0.6-12.5 1.3-29.1 2-45.8 1.4-33.3 2.8-66.7 2.8-66.7 0 0 0.1 2.1 0.3 5.8 0.1 1.8 0.1 4 0.2 6.6 0.1 2.5 0.2 5.4 0.2 8.5 0.2 6.3 0.1 13.6 0 21.4-0.1 3.9-0.1 8-0.3 12.1-0.1 4.1-0.3 8.3-0.4 12.4-0.4 8.4-0.9 16.7-1.4 24.5-0.6 7.8-1.2 15.1-1.8 21.3-0.6 6.3-1.2 11.5-1.6 15.1-0.5 3.6-0.8 5.7-0.8 5.7z"/>
						<path id="&lt;Path&gt;" class="s13" d="m1409.8 1499.3c0 0 0.1 2 0.2 5.5 0.1 3.5 0.3 8.5 0.3 14.5 0.1 6 0.2 13 0.1 20.5q0 5.6 0 11.6-0.1 5.9-0.2 11.9-0.1 6-0.2 11.9c-0.1 3.9-0.2 7.8-0.3 11.6-0.2 7.4-0.5 14.4-0.7 20.4-0.3 6-0.6 11-0.8 14.5-0.2 3.5-0.4 5.5-0.4 5.5 0 0-0.1-2-0.1-5.5-0.1-3.5-0.3-8.5-0.3-14.5-0.1-6-0.2-13-0.2-20.5 0.1-3.7 0-7.6 0.1-11.5q0.1-6 0.1-12 0.2-6 0.3-11.9 0.1-5.9 0.3-11.5c0.2-7.5 0.5-14.5 0.7-20.5 0.3-6 0.6-11 0.8-14.5 0.2-3.5 0.3-5.5 0.3-5.5z"/>
						<path id="&lt;Path&gt;" class="s13" d="m1527.6 1477.7c0 0 0.1 1.8 0.3 4.9 0.1 3.2 0.4 7.7 0.5 13 0.2 5.4 0.3 11.7 0.4 18.5q0.1 5 0.2 10.4 0 5.3 0 10.7 0 5.4 0 10.7c0 3.5-0.1 7-0.2 10.4-0.1 6.7-0.2 13-0.4 18.4-0.1 5.4-0.4 9.9-0.5 13-0.2 3.2-0.3 5-0.3 5 0 0-0.1-1.8-0.3-5-0.1-3.1-0.3-7.6-0.5-13-0.2-5.4-0.3-11.7-0.4-18.4-0.1-3.4-0.1-6.9-0.1-10.4q-0.1-5.3-0.1-10.7 0-5.4 0.1-10.7 0-5.4 0.1-10.4c0.1-6.8 0.2-13.1 0.4-18.5 0.2-5.3 0.4-9.8 0.5-13 0.2-3.1 0.3-4.9 0.3-4.9z"/>
						<path id="&lt;Path&gt;" class="s2" d="m1314.9 1675c-15.9-2.7-25.6-12.9-33-27.8-1.1-2.2-2.4-4.1-4-5.6-1.1-21.9-3.8-56.2 2.4-131.8-5.5 66.6-7 155.2 34.6 165.2z"/>
						<path id="&lt;Path&gt;" class="s13" d="m1299.5 1204.7c-2.3-28-25.1-68.9-25.1-68.9 0 0 24.8 33.5 33 68.2 8.8 36.6 11.1 104.5 6.4 142.8-3 24.8-18.8 27.4-18.1 6.1 2.2-77.2 8.3-95.8 3.8-148.2z"/>
						<path id="&lt;Path&gt;" class="s13" d="m1295.4 1127.5c32.7 39.1 57.6 107.7 53.2 146.6-2.1 18.3-19 12.1-20.5-17.4-2.9-61.8-35.2-132.3-32.7-129.2z"/>
						<path id="&lt;Path&gt;" class="s13" d="m1578.1 1100.4c19.7 29.8 56.6 121.7 50.3 121.7-9.1 0-50.3-121.7-50.3-121.7z"/>
						<path id="&lt;Path&gt;" class="s13" d="m1565.1 1102.1c-5.1 40.4-6.7 132.2 4.6 137.1 11.2 4.9-4.6-137.1-4.6-137.1z"/>
						<path id="&lt;Path&gt;" class="s13" d="m1571.3 1100.9c0 0 54.5 154.5 40.1 166.8-8.2 7-40.1-166.8-40.1-166.8z"/>
						<path id="&lt;Path&gt;" class="s2" d="m1308.1 1127.5c0 0 2.1 2.4 4.9 6.3 1.4 1.9 3.1 4.1 4.7 6.6 1.7 2.5 3.3 5.2 5 7.9 1.6 2.8 3.1 5.6 4.3 8.4 1.3 2.7 2.3 5.3 3.1 7.5 1.6 4.5 2.4 7.6 2.4 7.6 0 0-0.4-0.6-1.1-1.9-0.7-1.2-1.6-2.9-2.7-5q-0.9-1.6-1.8-3.4-1-1.8-2.1-3.7-1.1-2-2.2-4-1.1-2-2.3-4.1c-1.6-2.7-3.2-5.4-4.7-8-1.5-2.6-2.8-5-3.9-7.1-2.3-4.2-3.6-7.1-3.6-7.1z"/>
						<path id="&lt;Path&gt;" class="s2" d="m1286 1129.2q0 0 0.8 0.3c0.5 0.3 1.3 0.7 2.1 1.4 0.7 0.8 1.6 1.7 2.5 2.9 0.9 1.1 1.8 2.5 2.8 4.1 1.9 3.1 3.7 6.9 5.6 11 0.8 2 1.8 4.2 2.6 6.4q1.3 3.3 2.5 6.7 1.2 3.4 2.3 6.8c0.7 2.2 1.4 4.4 2 6.6 1.3 4.3 2.3 8.3 3.2 11.8 1.7 7 2.5 11.7 2.5 11.7 0 0-1.7-4.5-4.1-11.2-1.1-3.4-2.5-7.4-3.9-11.6q-1.1-3.2-2.3-6.5-1.1-3.3-2.3-6.7c-1.6-4.5-3.2-8.9-4.8-13.1-1.6-4.1-3.2-8-4.7-11.2-0.8-1.5-1.5-3-2.3-4.2q-1.1-1.9-2-3.1-1-1.2-1.7-1.7-0.8-0.4-0.8-0.4z"/>
						<path id="&lt;Path&gt;" class="s2" d="m1278.2 1134.2c0 0 0.5 0.3 1.5 0.8q0.8 0.5 1.7 1.2c0.7 0.4 1.4 1 2.1 1.7 1.4 1.3 2.9 2.9 4.4 4.8 0.7 1 1.5 2 2.2 3q1 1.6 2 3.3c0.7 1.1 1.2 2.2 1.8 3.3 0.6 1.1 1.1 2.2 1.6 3.3q0.8 1.7 1.4 3.2 0.6 1.5 1 2.9c0.6 1.8 1 3.4 1.3 4.5 0.2 1.1 0.3 1.7 0.3 1.7 0 0-0.3-0.6-0.9-1.5-0.5-1-1.3-2.4-2.2-4-0.9-1.7-1.9-3.6-3.1-5.7-0.5-1-1.2-2-1.7-3.1-0.6-1.1-1.2-2.2-1.9-3.2q-0.9-1.6-1.9-3.2c-0.6-1-1.3-2.1-1.9-3-0.6-1-1.2-2-1.9-2.8-0.5-0.9-1.2-1.7-1.7-2.5q-0.9-1.1-1.6-2-0.7-0.8-1.3-1.4c-0.8-0.8-1.2-1.3-1.2-1.3z"/>
						<path id="&lt;Path&gt;" class="s2" d="m1567.4 1101.5q0.1 0.1 0.3 0.7c0.1 0.5 0.4 1.2 0.6 2 0.5 1.8 1.1 4.2 1.7 7.2 0.6 3 1.3 6.6 1.9 10.3 0.3 1.9 0.6 3.9 0.9 5.8q0.4 3 0.8 6.1 0.4 3 0.7 6c0.3 2 0.4 4 0.6 5.8 0.4 3.8 0.7 7.4 1 10.4 0.5 6.1 0.6 10.2 0.6 10.2 0 0-1.1-3.9-2.2-9.9-0.6-3.1-1.2-6.6-1.8-10.3-0.3-1.9-0.6-3.9-0.9-5.9q-0.4-2.9-0.8-6-0.3-3-0.7-6c-0.3-2-0.4-4-0.7-5.8-0.4-3.8-0.7-7.4-1-10.4-0.3-3.1-0.5-5.6-0.7-7.4-0.1-1.7-0.3-2.8-0.3-2.8z"/>
						<path id="&lt;Path&gt;" class="s2" d="m1192.4 1966.5c-7.3 2.1-13.6 5.6-19.7 7.9 5.5-13.9 12.1-25.6 19.7-29.8 70.8-21.9 93.6-34.2 112.2-54.5 18.6-20.4-8.9 46.3-112.2 76.4z"/>
						<path id="&lt;Path&gt;" class="s2" d="m1193.2 1886.3c1.1-4.1 2.4-8.2 4.1-12.1 24.3 4.1 42.2-26.9 56.8-25.7 27.2 2-45.4 49.5-60.9 37.8z"/>
						<path id="&lt;Path&gt;" class="s2" d="m1575.1 1100.4c0 0 2.4 4.9 5.5 12.5q1.2 2.9 2.5 6.1c0.8 2.2 1.7 4.5 2.6 6.9 1.8 4.8 3.5 10 5.2 15.2q1.2 3.9 2.4 7.8c0.8 2.5 1.5 5.1 2.2 7.5 1.4 5 2.6 9.6 3.6 13.5 2 8 3 13.3 3 13.3 0 0-2-5.1-4.6-12.8-1.3-3.9-2.8-8.4-4.4-13.2-1.5-4.9-3.2-10.1-4.9-15.3-3.3-10.3-6.6-20.7-9.1-28.4-1.2-3.9-2.2-7.2-2.9-9.5-0.7-2.3-1.1-3.6-1.1-3.6z"/>
						<path id="&lt;Path&gt;" class="s2" d="m1639.8 1686.7c-49.2 106.8-143.8 193.4-146.8 196.1 78.2-88.5 136.8-231.3 142.1-229.6 1 15.3-4.6 18.6 4.7 33.5z"/>
						<path id="&lt;Path&gt;" class="s2" d="m1457.3 1822.1c0 0 28-5.4 14.5 18.2-17.2 30-156.7 98.7-156.7 98.7 24.4-7.9 146.4-93.6 142.2-103.8-4.2-10.3-45.8 26-64.2 21.4-10.6-2.7 157.9-121.2 177.8-146.6-41.2 45.7-80.9 90.7-113.6 112.1z"/>
						<path id="&lt;Path&gt;" class="s2" d="m1471.8 1840.3c0 0-0.6 0.9-1.8 2.7q-0.8 1.3-2.1 3.2c-0.9 1.2-1.9 2.6-3.1 4.1-1.2 1.6-2.5 3.3-4 5.1q-1.1 1.3-2.3 2.8-1.3 1.4-2.6 2.9c-3.6 4.1-7.8 8.6-12.5 13.3-4.7 4.7-9.8 9.7-15.5 14.9-5.6 5.2-11.6 10.6-17.9 15.9-6.4 5.4-13 10.9-19.9 16.3-6.8 5.4-13.8 10.9-20.9 16.2-7.2 5.3-14.4 10.4-21.6 15.4-7.2 4.9-14.3 9.7-21.4 14.2-6.9 4.6-13.8 8.7-20.4 12.7q-4.9 2.8-9.6 5.5c-3.1 1.8-6.1 3.5-9.1 5.1-2.9 1.5-5.7 3.1-8.4 4.5q-4.1 2-7.7 3.9-3.6 1.7-6.8 3.2c-2.1 1.1-4.1 1.9-5.8 2.7-3.6 1.7-6.4 2.8-8.3 3.6-1.9 0.8-3 1.2-3 1.2 0 0 1-0.4 2.9-1.3 1.9-0.9 4.7-2.2 8.1-4 1.7-0.8 3.7-1.8 5.8-2.8q3.1-1.7 6.6-3.6c4.8-2.6 10.1-5.5 15.9-8.8 2.9-1.6 5.8-3.4 8.9-5.2q4.6-2.8 9.5-5.8c6.4-4 13.2-8.4 20.1-12.9 7-4.5 14-9.4 21.2-14.4 7.1-5 14.3-10.2 21.4-15.5 7.1-5.2 14.2-10.6 21-15.9 6.9-5.4 13.6-10.8 19.9-16.1 6.4-5.4 12.5-10.5 18.2-15.6 5.7-5 10.9-9.9 15.7-14.5 4.8-4.7 9.1-8.9 12.8-12.9q1.4-1.4 2.7-2.8 1.2-1.4 2.4-2.7c1.6-1.8 2.9-3.4 4.2-4.9 1.3-1.5 2.3-2.9 3.2-4q1.4-1.8 2.3-3.1c1.2-1.7 1.9-2.6 1.9-2.6z"/>
						<path id="&lt;Path&gt;" class="s2" d="m1493 1882.8c0 0-2.3 2.7-6.4 7.3q-1.5 1.8-3.4 3.9-1.9 2-4.1 4.4c-3 3.1-6.2 6.8-10 10.5-3.8 3.7-7.8 7.8-12.3 12q-3.3 3.1-6.8 6.4c-2.3 2.2-4.7 4.3-7.2 6.6-2.5 2.2-5 4.5-7.5 6.7q-3.9 3.3-7.9 6.8c-5.2 4.5-10.7 9-16.1 13.6-5.6 4.3-11.1 8.8-16.6 13q-4.2 3.2-8.3 6.3-4.1 3.1-8.1 6.1c-5.2 4-10.5 7.6-15.5 11.1-5 3.5-9.7 6.8-14.2 9.7q-3.3 2.1-6.4 4.1-3.1 1.9-5.8 3.6c-3.7 2.3-7 4.1-9.7 5.7q-1 0.6-1.9 1.1-0.9 0.4-1.7 0.9-1.6 0.8-2.7 1.4c-1.5 0.7-2.3 1.1-2.3 1.1 0 0 0.8-0.4 2.2-1.3 1.4-0.9 3.6-2 6.2-3.7 2.6-1.7 5.8-3.6 9.3-6.1q2.7-1.8 5.7-3.8 3-2.1 6.2-4.3c4.4-3 9-6.5 13.9-10q3.7-2.7 7.5-5.6 1.9-1.4 3.9-2.9 1.9-1.5 3.9-3 4-3 8-6.1 4-3.1 8.2-6.3c5.5-4.3 10.9-8.8 16.4-13.2 5.4-4.5 11-8.9 16.2-13.4q4-3.4 7.9-6.7c2.6-2.2 5.1-4.5 7.6-6.6 5-4.4 9.7-8.7 14.2-12.7 4.6-4 8.7-8.1 12.6-11.7q2.9-2.7 5.5-5.2 2.5-2.6 4.9-4.8 2.3-2.3 4.3-4.2 1.9-2.1 3.5-3.7c4.3-4.5 6.8-7 6.8-7z"/>
						<path id="&lt;Path&gt;" class="s20" d="m1648.2 1739.5c0 0-1 2.8-2.6 7.7-0.4 1.3-1 2.6-1.7 4q-0.9 2.2-2 4.7c-1.4 3.4-3.3 7-5.3 11-1 2-2.1 4.1-3.3 6.2q-1.7 3.1-3.6 6.5c-2.6 4.4-5.4 9-8.3 13.8q-2.2 3.5-4.5 7.2c-1.6 2.4-3.1 4.9-4.8 7.3-3.3 4.9-6.6 9.8-10 14.7-3.4 4.9-6.9 9.7-10.3 14.5-3.4 4.7-6.9 9.3-10.2 13.8-6.7 8.9-13.1 17.2-18.7 24.1-5.5 7-10.3 12.7-13.6 16.8-3.3 4-5.2 6.2-5.2 6.2 0 0 1.7-2.4 4.8-6.6 3.1-4.2 7.5-10.2 12.8-17.4 5.2-7.2 11.3-15.5 17.9-24.5 3.3-4.6 6.6-9.2 10-14 3.4-4.8 6.9-9.6 10.2-14.5 3.5-4.8 6.8-9.8 10.1-14.6 3.3-4.8 6.4-9.7 9.4-14.3 3-4.7 5.9-9.2 8.6-13.6q2-3.3 3.8-6.4c1.3-2 2.4-4 3.5-6q1.6-2.9 3.1-5.5c0.5-0.9 1-1.8 1.4-2.6q0.7-1.3 1.3-2.5 1.2-2.5 2.2-4.6c0.7-1.4 1.4-2.6 1.8-3.9 2.1-4.8 3.2-7.5 3.2-7.5z"/>
						<path id="&lt;Path&gt;" class="s2" d="m1633 1625.4c0 0-0.7 1.5-1.9 4.1q-1 2-2.3 4.7c-0.9 1.8-2 3.8-3.2 5.9-1.1 2.2-2.5 4.5-4 7q-2.1 3.6-4.7 7.5c-3.3 5.2-7.2 10.6-11.1 15.9-1.9 2.7-4 5.2-6 7.8-2 2.6-4 5-6 7.4-2 2.4-3.9 4.6-5.8 6.7-1.9 2.2-3.7 4.1-5.4 5.9-3.4 3.6-6.3 6.5-8.4 8.6-2 2-3.3 3.1-3.3 3.1 0 0 1.1-1.3 2.9-3.5 1.9-2.2 4.5-5.4 7.6-9.2q2.3-2.9 5-6.2 2.6-3.3 5.5-7 2.8-3.6 5.8-7.4c1.9-2.6 4-5.2 5.9-7.9 1.9-2.6 3.9-5.2 5.8-7.8q1.4-2 2.8-3.9c0.9-1.3 1.8-2.6 2.7-3.9 1.7-2.5 3.4-4.9 5-7.3 1.5-2.3 3.1-4.5 4.4-6.6 1.3-2 2.5-3.9 3.6-5.6q1.6-2.6 2.7-4.4c1.5-2.5 2.4-3.9 2.4-3.9z"/>
						<path id="&lt;Path&gt;" class="s13" d="m1295.7 1833.1c0 0 1.4-0.6 4.2-1.8 2.7-1.2 6.7-3 11.7-5.3 5.1-2.3 11.2-5.2 18.1-8.6q5.3-2.5 11.1-5.5 5.8-2.9 12.2-6.2c4.2-2.2 8.6-4.5 13.1-6.9 4.5-2.5 9.2-5 13.9-7.7 4.8-2.6 9.7-5.4 14.6-8.3q3.7-2.2 7.5-4.4 3.8-2.2 7.6-4.5c5.1-3.1 10.2-6.3 15.4-9.6 5.2-3.3 10.4-6.7 15.6-10.1 10.3-7 20.8-14.2 30.9-21.9l7.6-5.6q3.7-3 7.5-5.9c5-3.8 9.8-7.9 14.6-11.9q1.8-1.5 3.5-3 1.8-1.6 3.5-3.1 3.5-3.1 6.9-6.1c4.6-4.1 8.9-8.4 13.2-12.4q6.3-6.4 12.3-12.5c3.8-4.2 7.6-8.4 11.2-12.4q5.2-6.3 10.1-12.2 4.7-6.2 9-11.9c2.7-3.9 5.1-7.7 7.6-11.3q0.9-1.4 1.8-2.7 0.8-1.3 1.6-2.7 1.5-2.6 3-5.1 1.5-2.5 2.9-4.8c0.9-1.6 1.6-3.2 2.4-4.7q2.3-4.4 4.2-8.2 0.4-0.9 0.9-1.8 0.4-0.9 0.7-1.7 0.8-1.7 1.4-3.2 1.3-3 2.2-5.1c1.1-2.7 1.8-4.2 1.8-4.2 0 0-0.6 1.5-1.7 4.3q-0.8 2.1-2 5.1-0.6 1.5-1.3 3.3-0.3 0.8-0.7 1.7-0.4 0.9-0.8 1.9-1.8 3.8-4 8.3c-0.8 1.5-1.4 3.1-2.3 4.7q-1.4 2.4-2.8 4.9-1.4 2.6-2.9 5.3-0.8 1.3-1.5 2.7-0.9 1.3-1.8 2.7c-2.3 3.7-4.8 7.5-7.5 11.5q-4.2 5.8-8.7 12.1-4.9 6-10 12.4c-3.6 4.1-7.4 8.3-11.2 12.7q-5.9 6.2-12.2 12.6c-4.3 4.1-8.6 8.4-13.2 12.5q-3.4 3.1-6.9 6.2-1.7 1.6-3.5 3.1-1.8 1.6-3.6 3.1c-4.8 4-9.6 8.1-14.6 12q-3.7 3-7.4 5.9l-7.7 5.8c-10.2 7.6-20.7 14.8-31.1 21.8-5.2 3.4-10.5 6.8-15.7 10.1-5.2 3.2-10.3 6.4-15.5 9.4-5.1 3.1-10.1 6.1-15.1 8.9-5 2.8-10 5.5-14.8 8.1-4.8 2.7-9.5 5.1-14 7.5-4.6 2.3-9 4.6-13.3 6.7-8.6 4.3-16.5 8-23.5 11.2-7.1 3.3-13.2 6-18.4 8.2-10.2 4.4-16.1 6.6-16.1 6.6z"/>
						<path id="&lt;Path&gt;" class="s13" d="m1554.9 1657.5c0 0-0.6 1-1.8 3-1.3 2-2.9 5.1-5.4 8.6q-1.9 2.7-4.1 6c-1.5 2.1-3.3 4.4-5.1 6.8-1.8 2.4-3.7 5.1-5.8 7.7q-3.3 4-6.8 8.3c-2.3 3-4.9 5.9-7.5 8.9-2.7 3.1-5.3 6.3-8.2 9.4-5.8 6.4-11.8 13.1-18.4 19.8q-2.4 2.5-4.9 5-1.3 1.3-2.5 2.6-1.3 1.2-2.6 2.5-5.1 5.1-10.4 10.2l-2.6 2.6-2.7 2.5q-2.8 2.5-5.5 5.1-2.7 2.5-5.5 5.1l-2.7 2.5-2.8 2.5c-7.5 6.5-15 13.1-22.7 19.2-3.8 3.1-7.5 6.2-11.3 9.2q-5.8 4.4-11.3 8.7c-7.4 5.8-15 10.7-22 15.6-1.7 1.2-3.4 2.5-5.2 3.6q-2.6 1.7-5.2 3.3-5.1 3.2-9.8 6.3c-1.6 0.9-3.1 2-4.7 2.8q-2.3 1.4-4.6 2.6-4.4 2.5-8.4 4.8c-2.7 1.4-5.1 2.9-7.5 4.1q-3.5 1.7-6.4 3.1c-7.9 3.8-12.4 6-12.4 6 0 0 4.4-2.3 12.1-6.5q2.9-1.5 6.4-3.3c2.3-1.2 4.7-2.8 7.3-4.3q3.9-2.4 8.3-5 2.1-1.3 4.4-2.7c1.6-0.9 3.1-2 4.6-3q4.7-3.1 9.7-6.4 2.5-1.7 5.1-3.4c1.8-1.1 3.4-2.4 5.2-3.6q5.2-3.8 10.6-7.7c1.8-1.4 3.7-2.6 5.5-4q2.7-2.1 5.5-4.3 5.5-4.3 11.2-8.6c3.8-3 7.5-6.2 11.3-9.3 7.6-6.1 15-12.8 22.4-19.3l2.9-2.5 2.7-2.5q2.7-2.5 5.5-5 2.7-2.5 5.4-5l2.8-2.5 2.6-2.6q5.3-5.1 10.5-10.1 1.2-1.2 2.5-2.5 1.3-1.2 2.5-2.5 2.5-2.5 5-5c6.5-6.6 12.7-13.2 18.6-19.4 2.9-3.1 5.6-6.3 8.3-9.3 2.7-3 5.3-5.8 7.7-8.7 4.8-5.7 9.3-10.8 13-15.6 1.9-2.4 3.7-4.6 5.3-6.7q2.3-3.2 4.2-5.8c2.7-3.5 4.4-6.4 5.7-8.3 1.3-2 2-3 2-3z"/>
						<path id="&lt;Path&gt;" class="s13" d="m1448.6 1698.3c0 0-0.2 0.5-0.5 1.5-0.3 1-0.5 2.5-1.4 4.2q-0.5 1.4-1.2 3-0.8 1.5-1.7 3.3-0.5 0.8-1 1.8-0.6 0.9-1.2 1.8c-0.8 1.3-1.6 2.7-2.5 4q-1.5 2-3 4.2c-1 1.4-2.3 2.8-3.4 4.2-2.4 3-5.1 5.9-7.9 8.9-2.9 2.9-5.8 6-9 8.8-1.6 1.5-3.2 3-4.8 4.4q-2.5 2.1-5.1 4.2c-1.6 1.4-3.4 2.7-5.1 4-1.7 1.3-3.4 2.7-5.2 3.9q-2.6 1.9-5.2 3.7-1.3 0.9-2.6 1.8-1.3 0.8-2.6 1.7c-3.5 2.2-6.7 4.4-10 6.2-3.3 1.8-6.3 3.7-9.2 5.1-2.9 1.5-5.6 2.9-8 4.1-2.4 1.1-4.5 2.1-6.2 2.9-3.5 1.5-5.5 2.4-5.5 2.4 0 0 1.9-1.1 5.2-2.9 1.7-0.9 3.7-2 6-3.3 2.3-1.4 4.9-2.9 7.7-4.6q1-0.6 2.1-1.2 1.1-0.7 2.2-1.4 2.2-1.4 4.6-2.9c3.2-1.9 6.3-4.2 9.7-6.5 3.4-2.2 6.7-4.8 10.2-7.2 1.7-1.3 3.4-2.6 5.1-4 1.7-1.3 3.5-2.6 5.1-4q2.5-2.1 5-4.1c1.6-1.4 3.2-2.9 4.8-4.3 3.2-2.8 6.2-5.7 9.1-8.5q2.1-2.2 4.1-4.3c1.4-1.4 2.7-2.8 3.9-4.2 2.5-2.8 4.7-5.5 6.7-8 1-1.3 1.8-2.6 2.7-3.8q0.7-0.9 1.3-1.7 0.5-0.9 1.1-1.8 1-1.6 1.9-3.1 0.8-1.5 1.4-2.8c1-1.6 1.4-3.1 1.8-4 0.4-1 0.6-1.5 0.6-1.5z"/>
						<path id="&lt;Path&gt;" class="s13" d="m1648.2 1870.1c0 0-0.2 0.9-0.6 2.5-0.4 1.6-1 4.1-1.9 7.1-0.8 3-2.1 6.6-3.5 10.8-1.4 4.1-3.2 8.8-5.4 13.8-1 2.4-2.1 5-3.4 7.7q-0.9 1.9-1.9 4-1 2-2 4.1c-1.4 2.8-2.9 5.6-4.4 8.5q-2.4 4.2-5 8.6c-3.4 5.8-7.2 11.7-11.1 17.6-4.1 5.9-8.2 11.8-12.6 17.5-4.5 5.7-9.1 11.3-13.8 16.6-4.7 5.4-9.5 10.4-14.3 15.2-4.8 4.8-9.7 9.2-14.4 13.2-4.7 4-9.3 7.7-13.7 10.8q-1.6 1.2-3.2 2.4-1.6 1.1-3.2 2.1c-2 1.4-4 2.6-5.9 3.7-1.8 1.2-3.6 2.2-5.3 3.1q-1.3 0.7-2.4 1.4-1.2 0.6-2.2 1.1c-1.4 0.7-2.7 1.4-3.8 1.9q-1.7 0.7-2.8 1.2c-1.6 0.7-2.4 1.1-2.4 1.1 0 0 0.8-0.5 2.3-1.2q1.1-0.6 2.8-1.4 1.6-0.9 3.6-2.1 1-0.6 2.2-1.2 1.1-0.7 2.3-1.4c1.6-1 3.4-2.1 5.2-3.3 1.8-1.2 3.7-2.5 5.7-4q1.5-1.1 3-2.2 1.6-1.2 3.2-2.4c4.2-3.3 8.7-7 13.3-11.1 4.6-4.2 9.3-8.6 14-13.4 4.7-4.8 9.4-9.9 14-15.2 4.7-5.3 9.2-10.9 13.6-16.6 4.4-5.6 8.6-11.4 12.6-17.2 4-5.9 7.8-11.7 11.2-17.4 3.5-5.8 6.8-11.4 9.7-16.8q1-2.1 2.1-4.1 1-2 2-3.9c1.3-2.6 2.5-5.2 3.6-7.6 2.3-4.9 4.2-9.4 5.9-13.5 1.6-4 2.9-7.6 3.9-10.6 1-3 1.8-5.3 2.2-6.9 0.5-1.6 0.8-2.5 0.8-2.5z"/>
						<path id="&lt;Path&gt;" class="s13" d="m1448.6 1640.6c0 0-1.7 1.3-4.7 3.4-2.9 2.2-7.1 5.3-12.1 9-5.1 3.6-11 7.9-17.3 12.5-6.4 4.6-13.2 9.4-19.9 14.3-13.6 9.7-27.2 19.3-37.4 26.6-2.5 1.8-4.8 3.5-6.9 5-2 1.5-3.8 2.8-5.3 3.9-2.9 2.2-4.5 3.5-4.5 3.5 0 0 0.4-0.3 1.1-1 0.7-0.7 1.7-1.7 3.1-2.9 2.8-2.4 6.7-5.8 11.6-9.8 2.4-1.9 5-4.1 7.9-6.2 2.8-2.2 5.8-4.6 9-6.9 6.2-4.7 13-9.6 19.7-14.5 3.4-2.4 6.9-4.8 10.2-7.2 3.4-2.3 6.7-4.6 9.9-6.8 6.5-4.4 12.6-8.4 17.8-11.8 5.3-3.5 9.8-6.2 12.8-8.1 3.2-1.9 5-3 5-3z"/>
						<path id="&lt;Path&gt;" class="s20" d="m1418.6 1698.3q0 0 0.2 0.2c0.1 0.2 0.4 0.3 0.6 0.6 0.6 0.6 1.2 1.6 1.5 3.1 0.8 2.9 0.2 7.3-1.9 11.9-1.1 2.2-2.5 4.6-4.1 7-1.6 2.3-3.6 4.7-5.7 7-2.1 2.3-4.3 4.6-6.7 6.8-1.2 1.1-2.5 2.2-3.7 3.3q-2 1.5-3.9 3.1-3.9 3.1-7.9 5.9c-2.7 1.9-5.4 3.6-8 5.2-2.7 1.7-5.2 3.2-7.7 4.6q-1.9 1.1-3.6 2-1.8 1-3.4 1.8c-2.2 1.2-4.2 2.2-6 3.1q-2.8 1.3-4.7 2.2c-2.6 1.2-4.2 1.9-4.2 1.9 0 0 1.4-0.9 3.9-2.4q1.9-1 4.5-2.6 2.5-1.6 5.7-3.6 3.2-1.9 6.7-4.2c2.4-1.5 4.9-3.1 7.4-4.8q1.9-1.3 3.9-2.7 1.9-1.3 3.9-2.7 3.9-2.8 7.8-5.9 1.9-1.5 3.8-3c1.2-1.1 2.5-2.1 3.7-3.2 2.3-2.1 4.6-4.3 6.8-6.5 2-2.2 4-4.3 5.7-6.6 1.7-2.2 3.2-4.3 4.3-6.5 1.2-2.1 2-4.1 2.5-6 0.5-1.9 0.6-3.6 0.4-5-0.2-1.4-0.6-2.5-1.1-3.1-0.2-0.3-0.4-0.5-0.5-0.6q-0.2-0.3-0.2-0.3z"/>
					</g>
					<path id="&lt;Path&gt;" class="s18" d="m1178.3 1586.3c15.4 27.3 133.8 307.5 136.6 317.3 2.9 9.8-47.5 45.4-53.8 37-6.3-8.4-104-164.8-134.8-222-30.7-57.3-52.1-118-50.5-142.2 0 0 87.3-17.1 102.5 9.9z"/>
					<path id="&lt;Path&gt;" class="s18" d="m1861 982.4c13.3-28.4 177.6-292 183.9-300 6.3-8 59.9 17 56.7 27-3.2 10-73.9 180.3-102.7 238.6-28.8 58.2-65.9 110.9-86.5 123.7 0 0-64.6-61.3-51.4-89.3z"/>
					<path id="&lt;Path&gt;" class="s2" d="m1584.9 880.6c-9.7 27-111.2 72-147.5 85-36.3 13-62.5 72.9-84.4 114.6-5.5 10.6-13.9 19.3-23.4 26.9 21.5-20.4 22-50.7 52.6-108 30.5-57.2 74.7-54.9 116.6-68.1 41.9-13.1 86.1-50.4 84-68.5 2.4 7 3.7 13.7 2.1 18.1z"/>
					<path id="&lt;Path&gt;" class="s2" d="m1576.5 847.6c-7.5 19.3-31.7 52.4-64.7 62.2-33.1 9.7-79.1 18.6-95.9 33.5 0 0 26.8-29.3 72.6-38.2 56.1-10.9 88-57.5 88-57.5z"/>
					<path id="&lt;Path&gt;" class="s2" d="m1571.3 839.8c-5 13.6-34.4 35.5-94.4 60.6q7.1-3.6 15-7.6c45.4-23.3 68.7-53.3 74.5-57.8 0.7-0.5 2.5 1.4 4.9 4.8z"/>
					<path id="&lt;Path&gt;" class="s13" d="m1580.4 856.4c0 0-0.2 0.9-0.5 2.6q-0.2 1.2-0.7 3-0.2 0.8-0.5 1.8-0.3 1-0.7 2c-0.4 1.4-1.1 2.8-1.8 4.4-0.8 1.5-1.6 3.1-2.6 4.6-0.5 0.8-1.1 1.6-1.7 2.3-0.5 0.8-1.1 1.6-1.8 2.3-1.2 1.5-2.6 2.9-4 4.3-1.4 1.3-2.8 2.6-4.3 3.9-1.4 1.2-3 2.3-4.4 3.5-2.9 2.2-5.7 4.1-8.1 5.7-4.8 3.2-8.2 5.2-8.2 5.2 0 0 2.8-2.7 7.2-6.5 2.2-1.9 4.8-4 7.6-6.3q2-1.8 4.1-3.7c1.5-1.2 2.8-2.5 4.2-3.8 1.3-1.3 2.7-2.7 3.9-4.1 0.6-0.7 1.2-1.4 1.8-2.1 0.6-0.7 1.2-1.4 1.6-2.1 1.1-1.4 2-2.8 2.9-4.2 0.8-1.4 1.6-2.7 2.2-4q0.4-1 0.9-1.9 0.4-0.9 0.7-1.7c0.5-1 0.9-2 1.2-2.8 0.6-1.6 1-2.4 1-2.4z"/>
					<path id="&lt;Path&gt;" class="s13" d="m1415.9 930.3q0 0-1 0.8c-0.7 0.5-1.7 1.2-2.9 2.1-1.2 1-2.6 2.2-4.2 3.7q-2.4 2.2-5 5.2c-1.8 2-3.6 4.2-5.4 6.6-1.9 2.4-3.7 5-5.5 7.8-3.6 5.5-7.2 11.6-10.4 17.9-1.6 3.1-3.2 6.3-4.7 9.4-1.4 3.2-2.9 6.3-4.2 9.3-1.3 3.1-2.6 6-3.7 8.9q-1.7 4.2-3.2 7.9c-1.9 5-3.5 9.1-4.5 12.1-1 2.9-1.6 4.6-1.6 4.6q0 0 0.2-1.2c0.2-0.9 0.5-2.1 0.9-3.6 0.8-3 1.9-7.3 3.5-12.4 1.6-5.1 3.6-11 6.1-17.2 2.5-6.2 5.5-12.7 8.7-19.1 1.7-3.2 3.4-6.3 5.2-9.3 1.8-3.1 3.8-5.9 5.7-8.7 1.9-2.7 3.9-5.3 5.9-7.7 1.9-2.4 3.9-4.5 5.8-6.4 1-1 1.9-1.8 2.8-2.6 0.9-0.9 1.9-1.6 2.7-2.3 1.7-1.3 3.2-2.5 4.6-3.3 1.3-0.9 2.4-1.4 3.1-1.9q1.1-0.6 1.1-0.6z"/>
					<path id="&lt;Path&gt;" class="s19" d="m1418.2 790.1c-4.2 19 4.4 41.1 0.7 56.5-5.2 21.1-48.5 40.3-59.3 64.4-10.9 24 16.1 52 16.1 52 0 0-45.1-18.8-34.6-57.5 10.4-38.8 47.6-44 59.9-58.9 12.3-14.9-5.1-39.2 3.7-59.7 11.9-27.6 39.9-46.2 57.8-56.7 0 0-39.2 36.6-44.3 59.9z"/>
					<path id="&lt;Path&gt;" class="s20" d="m1450.5 725c-27 1.7-44.5 22.6-52.2 40.8-7.7 18.2 0.4-29.8 10.7-39.7 11.3-6.1 24.2-9.5 41.5-1.1z"/>
					<path id="&lt;Path&gt;" class="s20" d="m1323.5 913.8q-1.1-1.5-2.7-3.1c-5.9-6-13.6-12-19.7-19.9-1.6-21.1 10.5-33.9 22.2-34.4 27.5-1.3 46.8-11.5 47.4-11.9-27 23.4-47.3 19.1-51.6 34.9-4.4 15.8 4.2 18.9 4.4 34.4z"/>
					<path id="&lt;Path&gt;" class="s2" d="m1364.2 780.8c-2.4 15.4 3.3 35.9-15.3 46.3-18.7 10.5-29.4 2.8-38.7 1.9-9.3-0.9-16 8.7-16 8.7 0 0 4.4-22.9 26.7-18.8 22.4 4 32.1-9.2 35.9-30.6 3.7-21.5 14.9-42 35-51.4 0 0-22.7 12.5-27.6 43.9z"/>
					<g id="&lt;Group&gt;">
						<path id="&lt;Path&gt;" class="s18" d="m1328.3 1925c35.5 29.8 46.6 39.4 52.7 52.2 6.5 13.7 18.1 50.7 15.8 58.6-0.6 2.1-14.4 2.1-19.3-7.9-3.2-6.6-8.2-23.5-19.2-37-7.6-9.1-17.7-11.9-22.7-19.1-26.3-37.9-7.3-46.8-7.3-46.8z"/>
						<path id="&lt;Path&gt;" class="s18" d="m1298.4 2068.2c-8.6-6.8-10.4-19.6-24.7-42.9-8.8-14.3-13-43.9-8.7-64.1 1.1-5.7-9.8-32.3-9.8-32.3 9.4-16.6 43.9-51 59.7-25.3 16.3 26.4 64.1 74.5 61.2 88.2-2.4 11.4-68.9 37.6-73.1 36-2.3 2.7 11.4 30.3 10.7 37.4-0.3 2.8-9.8 7.4-15.3 3z"/>
						<path id="&lt;Path&gt;" class="s18" d="m1375.5 1986.9c7.1 13.5 3.5 44.6 2.5 61.5-0.5 7.8-17.5 13.9-19.2 5-3.1-15.6-4.3-38.6-5.2-45.2-1-8.2 19.8-25.1 21.9-21.3z"/>
						<path id="&lt;Path&gt;" class="s18" d="m1325.9 2025.1c5.2 23.1 8.7 34.6 9.3 37.9 1.6 8-16.3 11.4-20.1 4.7-5.2-9-12.3-27.2-17.4-39-4.7-10.6 25.3-16.8 28.2-3.6z"/>
						<path id="&lt;Path&gt;" class="s18" d="m1353.6 2008.2c2.5 7.1 5.7 43.5 3.7 54.4-1.3 7.1-15.7 10.8-19 4.8-2.2-4-6.6-28.5-12.2-44.2-2.4-7.5 25-22.4 27.5-15z"/>
					</g>
					<g id="&lt;Group&gt;">
						<path id="&lt;Path&gt;" class="s19" d="m2036.5 636.7c-6.2 9.1-16.2-4-18.3-8.9-2.3-5.7-0.6-13.5 4-16 0 0 20.6 15.8 14.3 24.9z"/>
						<path id="&lt;Path&gt;" class="s18" d="m2105.8 640.1c9.7-0.9 33.7-12.1 33.6-10.3-3.1 37.9-23.6 38.6-33.2 82.1-2.4 10.7-16.5 27.5-16.5 27.5-15.7-0.4-64-27.1-62.5-29.5 3.6-6.1 13.4-22.3 21-34.1 4.2-6.4 13.1-20.2 15.1-23.7 3.7-6.1 25.8-10.4 42.5-12z"/>
						<path id="&lt;Path&gt;" class="s2" d="m2105.8 640.1c8 4.6 13.6 8.5 13.6 8.5-7.1 4.9-22.6 6.8-25.5 9.7-3 2.9-11.5 11.8-23.4 14.3-11.9 2.5-17.1-4.8-17.1-4.8 4.2-6.5 7.9-12.2 9.9-15.7 3.7-6.1 25.8-10.4 42.5-12z"/>
						<path id="&lt;Path&gt;" class="s20" d="m2027.2 591.9c0 0-0.1 14.6-5.3 15.6-2.8 0.6-8.3-10-8.7-16-0.2-3.2 1-13.5 5.5-22.4z"/>
						<path id="&lt;Path&gt;" class="s20" d="m2038.8 614.5c0 0-1.2 17.3-5.5 15.1-9.7-5-11.7-18.2-11.4-22.1 0.4-3.8 5.3-15.6 5.3-15.6 1.2-3.2 11.6 22.6 11.6 22.6z"/>
						<path id="&lt;Path&gt;" class="s20" d="m2051 634.8c0 0 0.8 8.2-4.8 12.1-5.6 3.9-13.1-11.4-13-15.6 0-4.3 2.4-12.6 5.6-16.8 2.1-2.7 12.2 20.3 12.2 20.3z"/>
						<path id="&lt;Path&gt;" class="s20" d="m2089.1 652.2c0.6 4.5-4.4 12.4-19.4 10.7-15.1-1.6-19.3-4.3-23.1-9.2-3.8-4.9-0.9-15.5 4.4-18.9 0 0 37.5 12.9 38.1 17.4z"/>
						<g id="&lt;Group&gt;">
							<path id="&lt;Path&gt;" class="s22" d="m2085 655.7h-11.5l5.6-29.9z"/>
							<path id="&lt;Path&gt;" class="s22" d="m2058.3 679.2l-138.8 24.5-2.6-7.2 138.8-24.5z"/>
							<path id="&lt;Path&gt;" class="s22" d="m2103.7 672.2l137.5 48.9-2.5 7.2-137.5-49z"/>
							<g id="&lt;Group&gt;">
								<path id="&lt;Path&gt;" class="s22" d="m2412.6 1001l-1.9-5.8c-0.1-0.3 0.1-0.6 0.4-0.7 0.3-0.1 0.7 0 0.8 0.4l1.8 5.7c0.2 0.4 0 0.7-0.3 0.8q-0.1 0-0.2 0c-0.3 0-0.5-0.1-0.6-0.4z"/>
								<path id="&lt;Compound Path&gt;" class="s22" d="m2407 983.6l-3.8-11.7c-0.1-0.3 0.1-0.6 0.4-0.7 0.3-0.1 0.7 0 0.8 0.3l3.7 11.7c0.1 0.3 0 0.7-0.4 0.8q0 0-0.1 0c-0.3 0-0.5-0.2-0.6-0.4zm-7.5-23.3l-3.8-11.7c-0.1-0.3 0.1-0.6 0.4-0.7 0.3-0.2 0.7 0 0.8 0.3l3.7 11.7c0.1 0.3 0 0.7-0.4 0.8q0 0-0.1 0c-0.3 0-0.5-0.2-0.6-0.4zm-7.5-23.3l-3.8-11.7c-0.1-0.3 0.1-0.6 0.4-0.8 0.4-0.1 0.7 0.1 0.8 0.4l3.7 11.7c0.1 0.3 0 0.7-0.3 0.8q-0.1 0-0.2 0c-0.3 0-0.5-0.2-0.6-0.4zm-7.5-23.3l-3.8-11.7c-0.1-0.3 0.1-0.7 0.4-0.8 0.4-0.1 0.7 0.1 0.8 0.4l3.8 11.7c0.1 0.3-0.1 0.7-0.4 0.8q-0.1 0-0.2 0c-0.3 0-0.5-0.2-0.6-0.4zm-7.5-23.3l-3.8-11.7c-0.1-0.3 0.1-0.7 0.4-0.8 0.4-0.1 0.7 0.1 0.8 0.4l3.8 11.7c0.1 0.3-0.1 0.7-0.4 0.8q-0.1 0-0.2 0c-0.3 0-0.5-0.2-0.6-0.4zm-7.5-23.3l-3.7-11.7c-0.2-0.3 0-0.7 0.3-0.8 0.4-0.1 0.7 0.1 0.8 0.4l3.8 11.7c0.1 0.3-0.1 0.6-0.4 0.8q-0.1 0-0.2 0c-0.3 0-0.5-0.2-0.6-0.4zm-7.5-23.3l-3.7-11.7c-0.1-0.3 0-0.7 0.3-0.8 0.4-0.1 0.7 0.1 0.8 0.4l3.8 11.7c0.1 0.3-0.1 0.6-0.4 0.7q-0.1 0.1-0.2 0.1c-0.3 0-0.5-0.2-0.6-0.4zm-7.5-23.3l-3.7-11.7c-0.1-0.3 0-0.7 0.4-0.8 0.3-0.1 0.6 0.1 0.7 0.4l3.8 11.7c0.1 0.3-0.1 0.6-0.4 0.7q-0.1 0.1-0.2 0.1c-0.3 0-0.5-0.2-0.6-0.4zm-7.5-23.4l-3.7-11.6c-0.1-0.3 0-0.7 0.4-0.8 0.3-0.1 0.6 0.1 0.7 0.4l3.8 11.7c0.1 0.3-0.1 0.6-0.4 0.7q-0.1 0.1-0.2 0.1c-0.3 0-0.5-0.2-0.6-0.5zm-7.5-23.3l-3.7-11.6c-0.1-0.3 0-0.7 0.4-0.8 0.3-0.1 0.6 0.1 0.7 0.4l3.8 11.7c0.1 0.3-0.1 0.6-0.4 0.7q-0.1 0.1-0.2 0.1c-0.3 0-0.5-0.2-0.6-0.5zm-7.5-23.3l-3.7-11.6c-0.1-0.3 0-0.7 0.4-0.8 0.3-0.1 0.6 0.1 0.7 0.4l3.8 11.7c0.1 0.3-0.1 0.6-0.4 0.7q-0.1 0.1-0.2 0.1c-0.3 0-0.5-0.2-0.6-0.5z"/>
								<path id="&lt;Path&gt;" class="s22" d="m2321.2 727.6c-0.3-0.1-0.5-0.4-0.4-0.7l2.4-7.6 2.5 7.6c0.1 0.3-0.1 0.6-0.4 0.7-0.3 0.1-0.7 0-0.8-0.4l-1.3-3.9-1.2 3.9c-0.1 0.3-0.4 0.5-0.6 0.5q-0.1 0-0.2-0.1z"/>
								<path id="&lt;Compound Path&gt;" class="s22" d="m2238.7 984c-0.3-0.1-0.5-0.5-0.4-0.8l3.8-11.7c0.1-0.3 0.4-0.4 0.8-0.3 0.3 0.1 0.5 0.4 0.3 0.7l-3.7 11.7c-0.1 0.2-0.3 0.4-0.6 0.4q-0.1 0-0.2 0zm7.5-23.3c-0.3-0.1-0.5-0.5-0.4-0.8l3.8-11.7c0.1-0.3 0.4-0.5 0.8-0.3 0.3 0.1 0.4 0.4 0.3 0.7l-3.7 11.7c-0.1 0.2-0.3 0.4-0.6 0.4q-0.1 0-0.2 0zm7.5-23.3c-0.3-0.1-0.5-0.5-0.4-0.8l3.8-11.7c0.1-0.3 0.4-0.5 0.7-0.4 0.4 0.2 0.5 0.5 0.4 0.8l-3.7 11.7c-0.1 0.2-0.3 0.4-0.6 0.4q-0.1 0-0.2 0zm7.5-23.3c-0.3-0.1-0.5-0.5-0.4-0.8l3.8-11.7c0.1-0.3 0.4-0.5 0.7-0.4 0.4 0.1 0.5 0.5 0.4 0.8l-3.7 11.7c-0.1 0.2-0.3 0.4-0.6 0.4q-0.1 0-0.2 0zm7.5-23.3c-0.3-0.1-0.5-0.5-0.4-0.8l3.8-11.7c0.1-0.3 0.4-0.5 0.7-0.4 0.4 0.1 0.5 0.5 0.4 0.8l-3.7 11.7c-0.1 0.2-0.3 0.4-0.6 0.4q-0.1 0-0.2 0zm7.5-23.3c-0.3-0.2-0.5-0.5-0.4-0.8l3.8-11.7c0.1-0.3 0.4-0.5 0.7-0.4 0.4 0.1 0.5 0.5 0.4 0.8l-3.7 11.7c-0.1 0.2-0.3 0.4-0.6 0.4q-0.1 0-0.2 0zm7.5-23.4c-0.3-0.1-0.5-0.4-0.4-0.7l3.8-11.7c0.1-0.3 0.4-0.5 0.7-0.4 0.4 0.1 0.5 0.5 0.4 0.8l-3.7 11.7c-0.1 0.2-0.3 0.4-0.6 0.4q-0.1 0-0.2-0.1zm7.5-23.3c-0.3-0.1-0.5-0.4-0.4-0.7l3.8-11.7c0.1-0.3 0.4-0.5 0.7-0.4 0.3 0.1 0.5 0.5 0.4 0.8l-3.7 11.7c-0.1 0.2-0.4 0.4-0.6 0.4q-0.1 0-0.2-0.1zm7.5-23.3c-0.3-0.1-0.5-0.4-0.4-0.7l3.8-11.7c0.1-0.3 0.4-0.5 0.7-0.4 0.3 0.1 0.5 0.5 0.4 0.8l-3.7 11.6c-0.1 0.3-0.4 0.5-0.6 0.5q-0.1 0-0.2-0.1zm7.5-23.3c-0.3-0.1-0.5-0.4-0.4-0.7l3.8-11.7c0.1-0.3 0.4-0.5 0.7-0.4 0.3 0.1 0.5 0.5 0.4 0.8l-3.7 11.6c-0.1 0.3-0.4 0.5-0.6 0.5q-0.1 0-0.2-0.1zm7.5-23.3c-0.3-0.1-0.5-0.4-0.4-0.7l3.7-11.7c0.2-0.3 0.5-0.5 0.8-0.4 0.3 0.1 0.5 0.5 0.4 0.8l-3.7 11.6c-0.1 0.3-0.4 0.5-0.6 0.5q-0.1 0-0.2-0.1z"/>
								<path id="&lt;Path&gt;" class="s22" d="m2233.1 1001.4c-0.3-0.1-0.5-0.4-0.4-0.8l1.9-5.7c0.1-0.4 0.4-0.5 0.8-0.4 0.3 0.1 0.5 0.4 0.4 0.7l-1.9 5.8c-0.1 0.3-0.3 0.4-0.6 0.4q-0.1 0-0.2 0z"/>
							</g>
							<path id="&lt;Path&gt;" class="s5" d="m2233.2 1001.1c-0.1 0-0.2-0.2-0.2-0.4l90.2-280.4 90.3 280.4c0 0.2-0.1 0.4-0.2 0.4-0.2 0.1-0.4 0-0.4-0.2l-89.7-278.6-89.6 278.6c0 0.2-0.2 0.2-0.3 0.2q0 0-0.1 0z"/>
							<path id="&lt;Path&gt;" class="s5" d="m2241.2 721.1c42.5 0 57.5-15.7 76.6-12.9 19.1 2.8 10.8 22.5 10.8 22.5 0 0-42.2-18.7-42.3 0h-33c-5 0-9.9-0.8-14.6-2.4z"/>
							<path id="&lt;Path&gt;" class="s22" d="m2323.1 722.3c-1.7 0-3-1.3-3-3 0-1.7 1.3-3.1 3-3.1 1.7 0 3.1 1.4 3.1 3.1 0 1.7-1.4 3-3.1 3z"/>
							<g id="&lt;Group&gt;">
								<path id="&lt;Path&gt;" class="s22" d="m2328.1 1000.8l-0.1-6c0-0.4 0.2-0.7 0.6-0.7 0.3 0 0.6 0.3 0.6 0.6l0.1 6.1c0 0.4-0.2 0.6-0.6 0.6q0 0 0 0c-0.3 0-0.6-0.2-0.6-0.6z"/>
								<path id="&lt;Compound Path&gt;" class="s22" d="m2327.8 983.1l-0.3-11.6c0-0.3 0.3-0.6 0.6-0.6 0.3 0 0.6 0.2 0.6 0.6l0.3 11.6c0 0.3-0.3 0.6-0.6 0.6q0 0 0 0c-0.4 0-0.6-0.2-0.6-0.6zm-0.5-23.2l-0.2-11.6c0-0.4 0.2-0.7 0.6-0.7 0.3 0 0.6 0.3 0.6 0.6l0.2 11.7c0 0.3-0.2 0.6-0.6 0.6q0 0 0 0c-0.3 0-0.6-0.3-0.6-0.6zm-0.5-23.3l-0.2-11.6c0-0.3 0.3-0.6 0.6-0.6 0.3 0 0.6 0.2 0.6 0.6l0.3 11.6c0 0.3-0.3 0.6-0.6 0.6q0 0 0 0c-0.4 0-0.6-0.2-0.7-0.6zm-0.4-23.2l-0.2-11.7c0-0.3 0.2-0.6 0.6-0.6 0.3 0 0.6 0.3 0.6 0.6l0.2 11.7c0 0.3-0.3 0.6-0.6 0.6q0 0 0 0c-0.3 0-0.6-0.3-0.6-0.6zm-0.5-23.3l-0.2-11.6c0-0.3 0.3-0.6 0.6-0.6 0.3 0 0.6 0.2 0.6 0.6l0.3 11.6c0 0.3-0.3 0.6-0.6 0.6q0 0-0.1 0c-0.3 0-0.6-0.2-0.6-0.6zm-0.4-23.2l-0.2-11.7c-0.1-0.3 0.2-0.6 0.6-0.6 0.3 0 0.6 0.3 0.6 0.6l0.2 11.6c0 0.4-0.3 0.7-0.6 0.7q0 0 0 0c-0.3 0-0.6-0.3-0.6-0.6zm-0.5-23.3l-0.2-11.6c0-0.3 0.3-0.6 0.6-0.6 0.3 0 0.6 0.2 0.6 0.6l0.2 11.6c0.1 0.3-0.2 0.6-0.6 0.6q0 0 0 0c-0.3 0-0.6-0.2-0.6-0.6zm-0.4-23.2l-0.3-11.7c0-0.3 0.3-0.6 0.6-0.6 0.4 0 0.7 0.3 0.7 0.6l0.2 11.6c0 0.4-0.3 0.7-0.6 0.7q0 0 0 0c-0.4 0-0.6-0.3-0.6-0.6zm-0.5-23.3l-0.2-11.6c0-0.3 0.2-0.6 0.6-0.6 0.3 0 0.6 0.2 0.6 0.6l0.2 11.6c0 0.3-0.2 0.6-0.6 0.6q0 0 0 0c-0.3 0-0.6-0.3-0.6-0.6zm-0.4-23.2l-0.3-11.7c0-0.3 0.3-0.6 0.6-0.6 0.4 0 0.6 0.3 0.6 0.6l0.3 11.6c0 0.4-0.3 0.7-0.6 0.7q0 0 0 0c-0.4 0-0.6-0.3-0.6-0.6zm-0.5-23.3l-0.2-11.6c0-0.4 0.2-0.6 0.6-0.6 0.3 0 0.6 0.2 0.6 0.6l0.2 11.6c0 0.3-0.2 0.6-0.6 0.6q0 0 0 0c-0.3 0-0.6-0.3-0.6-0.6z"/>
								<path id="&lt;Path&gt;" class="s22" d="m2322.8 727.4l-0.2-6.1c0-0.4 0.3-0.6 0.6-0.6 0.4 0 0.6 0.2 0.6 0.6l0.2 6c0 0.4-0.3 0.6-0.6 0.7q0 0 0 0c-0.4 0-0.6-0.3-0.6-0.6z"/>
							</g>
							<path id="&lt;Path&gt;" class="s5" d="m2328.4 1000.8l-5.5-279.5c0-0.2 0.2-0.3 0.3-0.3 0.2-0.1 0.3 0.1 0.3 0.3l5.5 279.5c0 0.2-0.1 0.3-0.3 0.3q0 0 0 0c-0.2 0-0.3-0.1-0.3-0.3z"/>
							<g id="&lt;Group&gt;">
								<path id="&lt;Path&gt;" class="s22" d="m2230.6 1004.8h185.3c0 0 0 26.5-92.7 27.2-93.2 0.6-92.6-27.2-92.6-27.2z"/>
								<path id="&lt;Path&gt;" class="s17" d="m2230.6 1004.8h38.3c6.4 15.5 25.9 25.1 54.3 25.5 28.5 0.5 76.5-3.3 86.5-25.5h6.2c0 0 0 26.5-92.7 27.2-93.2 0.6-92.6-27.2-92.6-27.2z"/>
								<path id="&lt;Path&gt;" class="s22" d="m2236 1004.8h-5.4v-7.9h5.4z"/>
								<path id="&lt;Path&gt;" class="s22" d="m2334.2 1004.8h-11v-7.9h11z"/>
								<path id="&lt;Path&gt;" class="s22" d="m2415.9 1004.8h-5.5v-7.9h5.5z"/>
							</g>
							<path id="&lt;Path&gt;" class="s5" d="m2113.8 669.8v14c-13.7 3.9-25.3 13.4-34.7 23h-2c-9.4-9.6-21-19.1-34.7-23v-14z"/>
							<path id="&lt;Path&gt;" class="s22" d="m2092.5 660.5v44.4l-7.9 7h-11.1l-7.8-7v-44.4l7.8-4.8h11.1z"/>
							<path id="&lt;Path&gt;" class="s17" d="m2092.5 660.5v44.4l-7.9 7h-3.5l7-7.8v-41.7l-7-6.7h3.5z"/>
							<g id="&lt;Group&gt;">
								<path id="&lt;Path&gt;" class="s22" d="m1745 976.8q-0.1 0-0.2 0c-0.3-0.1-0.5-0.5-0.4-0.8l1.9-5.8c0.1-0.3 0.4-0.5 0.7-0.4 0.4 0.1 0.5 0.5 0.4 0.8l-1.8 5.8c-0.1 0.2-0.4 0.4-0.6 0.4z"/>
								<path id="&lt;Compound Path&gt;" class="s22" d="m1750.6 959.3q-0.1 0-0.2 0c-0.3-0.1-0.5-0.4-0.4-0.7l3.8-11.7c0.1-0.3 0.4-0.5 0.7-0.4 0.4 0.1 0.5 0.5 0.4 0.8l-3.7 11.6c-0.1 0.3-0.3 0.4-0.6 0.4zm7.5-23.3q-0.1 0-0.2 0c-0.3-0.1-0.5-0.4-0.4-0.7l3.8-11.7c0.1-0.3 0.4-0.5 0.7-0.4 0.3 0.1 0.5 0.5 0.4 0.8l-3.7 11.6c-0.1 0.3-0.4 0.4-0.6 0.4zm7.5-23.3q-0.1 0-0.2 0c-0.3-0.1-0.5-0.4-0.4-0.8l3.8-11.6c0.1-0.3 0.4-0.5 0.7-0.4 0.3 0.1 0.5 0.4 0.4 0.8l-3.7 11.6c-0.1 0.3-0.4 0.4-0.6 0.4zm7.5-23.3q-0.1 0-0.2 0c-0.3-0.1-0.5-0.4-0.4-0.8l3.8-11.6c0.1-0.3 0.4-0.5 0.7-0.4 0.3 0.1 0.5 0.4 0.4 0.8l-3.7 11.6c-0.1 0.3-0.4 0.4-0.6 0.4zm7.5-23.3q-0.1 0-0.2 0c-0.3-0.1-0.5-0.4-0.4-0.8l3.7-11.6c0.2-0.3 0.5-0.5 0.8-0.4 0.3 0.1 0.5 0.4 0.4 0.8l-3.7 11.6c-0.1 0.3-0.4 0.4-0.6 0.4zm7.5-23.3q-0.1 0-0.2 0c-0.3-0.1-0.5-0.4-0.4-0.8l3.7-11.6c0.1-0.3 0.5-0.5 0.8-0.4 0.3 0.1 0.5 0.4 0.4 0.8l-3.7 11.6c-0.1 0.3-0.4 0.4-0.6 0.4zm7.5-23.3q-0.1 0-0.2 0c-0.3-0.1-0.5-0.4-0.4-0.8l3.7-11.6c0.1-0.3 0.5-0.5 0.8-0.4 0.3 0.1 0.5 0.4 0.4 0.8l-3.7 11.6c-0.1 0.3-0.4 0.4-0.6 0.4zm7.5-23.3q-0.1 0-0.2 0c-0.3-0.1-0.5-0.4-0.4-0.8l3.7-11.6c0.1-0.3 0.5-0.5 0.8-0.4 0.3 0.1 0.5 0.4 0.4 0.8l-3.8 11.6c0 0.3-0.3 0.4-0.5 0.4zm7.5-23.3q-0.1 0-0.2 0c-0.3-0.1-0.5-0.4-0.4-0.8l3.7-11.6c0.1-0.3 0.5-0.5 0.8-0.4 0.3 0.1 0.5 0.4 0.4 0.8l-3.8 11.6c0 0.3-0.3 0.4-0.5 0.4zm7.5-23.3q-0.1 0-0.2 0c-0.3-0.1-0.5-0.5-0.4-0.8l3.7-11.6c0.1-0.3 0.5-0.5 0.8-0.4 0.3 0.1 0.5 0.4 0.4 0.7l-3.8 11.7c0 0.3-0.3 0.4-0.5 0.4zm7.5-23.3q-0.1 0-0.2 0c-0.3-0.1-0.5-0.5-0.4-0.8l3.7-11.6c0.1-0.3 0.5-0.5 0.8-0.4 0.3 0.1 0.5 0.4 0.4 0.7l-3.8 11.7c0 0.3-0.3 0.4-0.5 0.4z"/>
								<path id="&lt;Path&gt;" class="s22" d="m1836.8 703c-0.3 0-0.5-0.1-0.6-0.4l-1.3-4-1.3 4c-0.1 0.3-0.4 0.5-0.7 0.4-0.4-0.1-0.5-0.5-0.4-0.8l2.4-7.6 2.5 7.6c0.1 0.3-0.1 0.7-0.4 0.8q-0.1 0-0.2 0z"/>
								<path id="&lt;Compound Path&gt;" class="s22" d="m1919.2 959.3c-0.2 0-0.5-0.1-0.5-0.4l-3.8-11.6c-0.1-0.3 0.1-0.7 0.4-0.8 0.3-0.1 0.7 0.1 0.8 0.4l3.7 11.7c0.1 0.3-0.1 0.6-0.4 0.7q-0.1 0-0.2 0zm-7.5-23.3c-0.2 0-0.5-0.1-0.5-0.4l-3.8-11.6c-0.1-0.3 0.1-0.7 0.4-0.8 0.3-0.1 0.7 0.1 0.8 0.4l3.7 11.7c0.1 0.3-0.1 0.6-0.4 0.7q-0.1 0-0.2 0zm-7.5-23.3c-0.2 0-0.5-0.1-0.5-0.4l-3.8-11.6c-0.1-0.4 0.1-0.7 0.4-0.8 0.3-0.1 0.7 0.1 0.8 0.4l3.7 11.6c0.1 0.4-0.1 0.7-0.4 0.8q-0.1 0-0.2 0zm-7.5-23.3c-0.2 0-0.4-0.1-0.5-0.4l-3.8-11.6c-0.1-0.4 0.1-0.7 0.4-0.8 0.3-0.1 0.7 0.1 0.8 0.4l3.7 11.6c0.1 0.4 0 0.7-0.4 0.8q-0.1 0-0.2 0zm-7.4-23.3c-0.3 0-0.5-0.1-0.6-0.4l-3.8-11.6c-0.1-0.4 0.1-0.7 0.4-0.8 0.3-0.1 0.7 0.1 0.8 0.4l3.7 11.6c0.1 0.4 0 0.7-0.4 0.8q-0.1 0-0.1 0zm-7.5-23.3c-0.3 0-0.5-0.1-0.6-0.4l-3.8-11.6c-0.1-0.4 0.1-0.7 0.4-0.8 0.3-0.1 0.7 0.1 0.8 0.4l3.7 11.6c0.1 0.4 0 0.7-0.4 0.8q-0.1 0-0.1 0zm-7.5-23.3c-0.3 0-0.5-0.1-0.6-0.4l-3.8-11.6c-0.1-0.4 0.1-0.7 0.4-0.8 0.3-0.1 0.7 0.1 0.8 0.4l3.7 11.6c0.1 0.4 0 0.7-0.4 0.8q0 0-0.1 0zm-7.5-23.3c-0.3 0-0.5-0.1-0.6-0.4l-3.8-11.6c-0.1-0.4 0.1-0.7 0.4-0.8 0.3-0.1 0.7 0.1 0.8 0.4l3.7 11.6c0.1 0.4 0 0.7-0.4 0.8q0 0-0.1 0zm-7.5-23.3c-0.3 0-0.5-0.1-0.6-0.4l-3.8-11.6c-0.1-0.4 0.1-0.7 0.4-0.8 0.4-0.1 0.7 0.1 0.8 0.4l3.7 11.6c0.1 0.4 0 0.7-0.3 0.8q-0.1 0-0.2 0zm-7.5-23.3c-0.3 0-0.5-0.1-0.6-0.4l-3.8-11.7c-0.1-0.3 0.1-0.6 0.4-0.7 0.4-0.1 0.7 0.1 0.8 0.4l3.7 11.6c0.2 0.3 0 0.7-0.3 0.8q-0.1 0-0.2 0zm-7.5-23.3c-0.3 0-0.5-0.1-0.6-0.4l-3.8-11.7c-0.1-0.3 0.1-0.6 0.4-0.7 0.4-0.1 0.7 0.1 0.8 0.4l3.8 11.6c0.1 0.3-0.1 0.7-0.4 0.8q-0.1 0-0.2 0z"/>
								<path id="&lt;Path&gt;" class="s22" d="m1924.8 976.8c-0.2 0-0.4-0.2-0.5-0.4l-1.9-5.8c-0.1-0.3 0.1-0.7 0.4-0.8 0.3-0.1 0.7 0.1 0.8 0.4l1.8 5.8c0.1 0.3 0 0.7-0.4 0.8q-0.1 0-0.2 0z"/>
							</g>
							<path id="&lt;Path&gt;" class="s17" d="m2085 655.7h-6.9l1-29.9z"/>
							<path id="&lt;Path&gt;" class="s5" d="m1924.8 976.5c-0.1 0-0.2-0.1-0.2-0.2l-89.7-278.7-89.6 278.7c-0.1 0.1-0.2 0.2-0.4 0.2-0.2-0.1-0.3-0.3-0.2-0.4l90.2-280.5 90.2 280.5c0.1 0.1 0 0.3-0.2 0.4q0 0-0.1 0z"/>
							<path id="&lt;Path&gt;" class="s5" d="m1919.5 703.7c-4.7 1.5-9.7 2.3-14.6 2.3h-33.1c0-18.6-42.2 0-42.2 0 0 0-8.3-19.6 10.8-22.4 19-2.8 34.1 12.9 76.5 12.9z"/>
							<path id="&lt;Path&gt;" class="s22" d="m1832 694.6c0-1.6 1.4-3 3-3 1.7 0 3.1 1.4 3.1 3 0 1.7-1.4 3.1-3.1 3.1-1.6 0-3-1.4-3-3.1z"/>
							<g id="&lt;Group&gt;">
								<path id="&lt;Path&gt;" class="s22" d="m1829.4 976.8q0 0 0 0c-0.3 0-0.6-0.3-0.6-0.6l0.2-6.1c0-0.3 0.3-0.6 0.6-0.6 0.3 0 0.6 0.3 0.6 0.6l-0.1 6.1c-0.1 0.3-0.3 0.6-0.7 0.6z"/>
								<path id="&lt;Compound Path&gt;" class="s22" d="m1829.8 959.1q0 0 0 0c-0.4 0-0.6-0.3-0.6-0.6l0.2-11.7c0-0.3 0.3-0.5 0.6-0.6 0.4 0 0.6 0.3 0.6 0.7l-0.2 11.6c0 0.3-0.3 0.6-0.6 0.6zm0.4-23.3q0 0 0 0c-0.3 0-0.6-0.3-0.6-0.6l0.3-11.6c0-0.4 0.3-0.6 0.6-0.6 0.3 0 0.6 0.3 0.6 0.6l-0.2 11.6c-0.1 0.4-0.3 0.6-0.7 0.6zm0.5-23.2q0 0 0 0c-0.3 0-0.6-0.3-0.6-0.6l0.2-11.7c0-0.3 0.3-0.6 0.6-0.6 0.4 0 0.6 0.3 0.6 0.7l-0.2 11.6c0 0.3-0.3 0.6-0.6 0.6zm0.5-23.3q-0.1 0-0.1 0c-0.3 0-0.6-0.3-0.6-0.6l0.3-11.6c0-0.4 0.3-0.6 0.6-0.6 0.3 0 0.6 0.3 0.6 0.6l-0.2 11.6c0 0.4-0.3 0.6-0.6 0.6zm0.4-23.2q0 0 0 0c-0.3 0-0.6-0.3-0.6-0.6l0.2-11.7c0-0.3 0.3-0.6 0.6-0.6 0.4 0 0.7 0.3 0.6 0.7l-0.2 11.6c0 0.3-0.3 0.6-0.6 0.6zm0.5-23.3q0 0 0 0c-0.4 0-0.6-0.3-0.6-0.6l0.2-11.6c0-0.4 0.3-0.6 0.6-0.6 0.3 0 0.6 0.3 0.6 0.6l-0.2 11.6c0 0.4-0.3 0.6-0.6 0.6zm0.4-23.2q0 0 0 0c-0.3 0-0.6-0.3-0.6-0.7l0.2-11.6c0-0.3 0.3-0.6 0.7-0.6 0.3 0 0.6 0.3 0.6 0.6l-0.3 11.7c0 0.3-0.2 0.6-0.6 0.6zm0.5-23.3q0 0 0 0c-0.4 0-0.6-0.3-0.6-0.6l0.2-11.6c0-0.4 0.3-0.6 0.6-0.6 0.4 0 0.6 0.3 0.6 0.6l-0.2 11.6c0 0.4-0.3 0.6-0.6 0.6zm0.4-23.2q0 0 0 0c-0.3 0-0.6-0.3-0.6-0.7l0.3-11.6c0-0.3 0.2-0.6 0.6-0.6 0.3 0 0.6 0.3 0.6 0.6l-0.3 11.7c0 0.3-0.2 0.6-0.6 0.6zm0.5-23.3q0 0 0 0c-0.4 0-0.6-0.3-0.6-0.6l0.2-11.6c0-0.4 0.3-0.6 0.6-0.6 0.4 0 0.6 0.3 0.6 0.6l-0.2 11.6c0 0.3-0.3 0.6-0.6 0.6zm0.4-23.2q0 0 0 0c-0.3 0-0.6-0.3-0.6-0.7l0.3-11.6c0-0.3 0.2-0.6 0.6-0.6 0.3 0 0.6 0.3 0.6 0.6l-0.3 11.7c0 0.3-0.2 0.6-0.6 0.6z"/>
								<path id="&lt;Path&gt;" class="s22" d="m1834.8 703.3q0 0 0 0c-0.4 0-0.6-0.3-0.6-0.6l0.1-6.1c0-0.3 0.3-0.6 0.6-0.6 0.4 0 0.6 0.3 0.6 0.6l-0.1 6.1c0 0.3-0.3 0.6-0.6 0.6z"/>
							</g>
							<path id="&lt;Path&gt;" class="s5" d="m1829.4 976.5c-0.1 0-0.3-0.2-0.3-0.3l5.5-279.6c0-0.2 0.1-0.3 0.3-0.3 0.2 0 0.3 0.2 0.3 0.3l-5.5 279.6c0 0.2-0.1 0.3-0.3 0.3z"/>
							<g id="&lt;Group&gt;">
								<path id="&lt;Path&gt;" class="s22" d="m1834.9 1007.3c-92.7-0.6-92.7-27.2-92.7-27.2h185.4c0 0 0.6 27.8-92.7 27.2z"/>
								<path id="&lt;Path&gt;" class="s17" d="m1834.9 1007.3c-92.7-0.6-92.7-27.2-92.7-27.2h6.2c10.1 22.2 58.1 26 86.5 25.6 28.5-0.5 48-10.1 54.4-25.6h38.3c0 0 0.6 27.8-92.7 27.2z"/>
								<path id="&lt;Path&gt;" class="s22" d="m1922.1 972.2h5.5v7.9h-5.5z"/>
								<path id="&lt;Path&gt;" class="s22" d="m1824 972.2h10.9v7.9h-10.9z"/>
								<path id="&lt;Path&gt;" class="s22" d="m1742.2 972.2h5.5v7.9h-5.5z"/>
							</g>
						</g>
						<path id="&lt;Path&gt;" class="s18" d="m2121.7 647c-5.8 5.9-21.4 0.1-25 2.3-3.6 2.3-24.8 9-33.4 2.8-8.5-6.1-10.6-12.1-14.2-15.7-10.6-10.5-8.1-20.9-10.3-21.9-7.5-3.6-10.9-21.6-11.6-22.6-0.7-0.9-11.4-13.8-8.5-22.8 2.9-9 29.2-24.4 35.3-26.6 6.2-2.2 11.1-3.5 34.1 5.9 23.1 9.3 61.3 49 49.7 88.4-11.6 39.4-10.3 4.4-16.1 10.2z"/>
						<path id="&lt;Path&gt;" class="s2" d="m2044.5 647.5c-0.4-3.6 1.9-8.6 4.3-11.3 7.7-8.4 50.3-17.2 53.9-17.7 0.2 0 0.4 0.1 0.4 0.3 0 0.2-0.1 0.4-0.3 0.5-3.5 0.5-45.8 9.1-53.4 17.4-2.3 2.6-4.5 7.3-4.1 10.7 0 0.2-0.2 0.4-0.4 0.4q-0.2 0.1-0.3-0.1-0.1-0.1-0.1-0.2z"/>
						<path id="&lt;Path&gt;" class="s2" d="m2032.8 631.3c0-6.3 4.5-15.3 5.7-17 3.8-5.8 6.9-7.3 11.6-9.5q1.2-0.6 2.6-1.3c5.9-2.9 29.1-10.6 35.4-11.6 0.2-0.1 0.4 0.1 0.5 0.3 0 0.2-0.2 0.4-0.4 0.4-6.3 1.1-29.3 8.7-35.2 11.6q-1.4 0.7-2.6 1.3c-4.5 2.2-7.5 3.6-11.3 9.2-1.1 1.7-5.5 10.5-5.5 16.6 0 0.2-0.2 0.4-0.4 0.4q-0.2 0-0.3-0.2-0.1-0.1-0.1-0.2z"/>
						<path id="&lt;Path&gt;" class="s2" d="m2021.5 607.5c0.1-1.1 3.5-12.6 5.3-15.8 3.8-6.6 9.1-10 15.2-14q1.2-0.8 2.5-1.6c7.3-4.8 20.9-9.2 30-10.9 0.2 0 0.4 0.1 0.4 0.3 0.1 0.2-0.1 0.4-0.3 0.5-9 1.6-22.5 6-29.6 10.7q-1.3 0.9-2.6 1.7c-6 3.9-11.2 7.3-14.9 13.7-1.9 3.2-5.2 14.6-5.2 15.5 0 0.2-0.2 0.3-0.4 0.3q-0.2 0-0.3-0.1-0.1-0.1-0.1-0.3z"/>
					</g>
				</g>
				<path id="&lt;Path&gt;" class="s6" d="m2401 1331.7h308.1v82.4h-308.1z"/>
				<path id="&lt;Path&gt;" class="s1" d="m2065 1331.7h308.1v82.4h-308.1z"/>
				<path id="&lt;Path&gt;" class="s6" d="m2709.1 1473.4h-644.1v-19.9h644.1z"/>
				<path id="&lt;Path&gt;" class="s0" d="m2110.9 1547.2h149.7v148h-149.7z"/>
				<g id="&lt;Group&gt;">
					<path id="&lt;Path&gt;" class="s23" d="m2159.7 1429.7c0 0-37.9 19.6-66.2 20.7-28.2 1.1-61.9-22.1-61.9-22.1 0 0 31.1-8.1 34.8-17.7 0.5-1.3 0.9-3.2 1.1-5.3 0.9-8.5-0.2-22-1.1-30.4-0.4-4.6-0.8-7.7-0.8-7.7l56.9-25.3c-2.2 16.3-5.2 58.9 0.4 66.4 5.7 7.5 36.8 21.4 36.8 21.4z"/>
					<path id="&lt;Path&gt;" class="s24" d="m2104.7 1374.9c-3.2 11.7-19.6 30.8-37.2 30.4 0.9-8.5-0.2-22-1.1-30.4z"/>
					<path id="&lt;Path&gt;" class="s23" d="m2107.1 1288.3c40.5 8.4 15.9 58 12.5 69.5-3.3 11.6-31.7 27.1-38.2 30.3-6.4 3.2-20.9 3.2-25.6-5-2.9-4.9-10.1-35.1-9.7-47.7 0.3-12.7 2.6-26.5 8.1-39.6 2.7-6.5 12.4-15.9 52.9-7.5z"/>
					<path id="&lt;Path&gt;" class="s19" d="m1981.9 1442.4c0.9-6.4 74.2-26.7 77.4-24.9 15 8.6 71.1 1.9 73.3-1.7q0.3-0.3 1.1-0.4c8.8-0.2 66.1 22.8 64.9 26.7-0.6 2.1-31.6 247.4-56 294.2-8.1 15.6-124.5 17.6-127.6-9.4-7.5-64.3-33.3-282.3-33.1-284.5z"/>
					<path id="&lt;Path&gt;" class="s15" d="m2119.6 1346.9c-5.8-8.1-9.1-20.4-7.7-29.5 1.4-9.1 0.8-15.8-9.7-14.2-10.6 1.6-21.7-3.9-25.8-10.7-4.2-6.8-18.6 14.1-26 13.9-7.4-0.1-12.7-18.1-6-28.5 6.7-10.3 20.7-24 38.3-18.7 17.5 5.4 31.5 0.5 44.3 6.4 12.8 5.9 20 23.4 22.6 30.5 2.6 7.2-8.5 37-13.1 42.3-4.7 5.4-16.9 8.5-16.9 8.5z"/>
					<path id="&lt;Path&gt;" class="s23" d="m2064.3 2242.3c0 0-4.6 25.8-1.6 39.7 1.6 7.8-8 16.5-18.1 15.5-13.1-1.4-27.6-14.4-25-17.2 6.2-6.7 5.4-20.7 4.2-32.9-0.9-9.5 39.8-15.5 40.5-5.1z"/>
					<path id="&lt;Path&gt;" class="s15" d="m1958.7 2310.4c5.7-3 52.8-19.9 59.7-33 2.4-4.5 16.7 6.3 17.4 10.5 0.6 4.3 15.1 9.3 18.2 5.7 3.2-3.5 5.4-11.1 8.7-11.6 5.9-0.9 8.1 44 7.5 44.5h-115.9c-0.2-1.5-2.4-12.5 4.4-16.1z"/>
					<path id="&lt;Path&gt;" class="s12" d="m2195.6 1439.1c21.4 11.2 31.8 63.7 31.8 63.7 2.5 25 2.4 205.1-18.8 189.4-22.7-16.9-30.6-101.8-30.6-101.8z"/>
					<path id="&lt;Path&gt;" class="s15" d="m2101.6 1717.3c0 0-17.2 232.6-11.3 266.4 7.4 42.6-20.6 282-21.8 285.6-1.3 3.6-49.6 0.4-51.1-4.8-2.5-8.7-12.5-253.2-15.7-283.2-3.1-30.1-7.8-219.7-8.7-249.8-0.7-18.6 108.6-14.2 108.6-14.2z"/>
					<path id="&lt;Path&gt;" class="s15" d="m2123.1 1340.4c0 0-3.7 12.4-5.4 25.4-1.7 13-29.4 22-38.4 25-9 3.1-24.2 1.6-26.7-5.6-2.5-7.2-5.2-28.2-5.2-28.2 0 0 4.4-4.9 15-4.3 10.7 0.7 22.5 5.5 31.5 7.4 9 2 17.7-9.9 21.6-20.6z"/>
					<g id="&lt;Group&gt;">
						<path id="&lt;Path&gt;" class="s23" d="m1847.4 1513.4c-1 5.5-7.1 2-28.2-3.3-21.1-5.4-32.3-25.2-36.3-28.7-3.7-3.2-7.6-6.9-6.9-11 0.4-2.3-3.2-6.2-0.2-7.5 1.9-0.8 4.3 0.2 7.8 0.7 5.7 0.9 16.9 10.5 21.9 14.7 5.1 4.2 15.3 10.4 24.1 14.8 14.1 5.4 18.8 14.9 17.8 20.3z"/>
						<path id="&lt;Path&gt;" class="s23" d="m1838.1 1507.5c0.7-1.7-7.7-6.5-9.2-11.3-1.5-4.8-14.5-18.9-15.6-23.1-1-4.2-1.5-7.1 0.8-6.1 2.3 1 20.9 17.1 24.2 18.6 3.3 1.4 11.7 9.8 15.9 16.2 4.2 6.4 4.3 13.6 6.8 22.9 0 0-23.6-15.5-22.9-17.2z"/>
						<path id="&lt;Path&gt;" class="s23" d="m1838 1534.3c-4.5-5.8-1-8.3-14.6-14.1-13.6-5.8-17.3-7.3-23.1-12.3-5.7-5.1-18.9-22-21.2-26.4-2.4-4.4 4.2-3.8 11.1 4.6 6.8 8.3 12.3 13.1 17.3 13.2 4.9 0.1 23.1 9.8 30.6 8.2 6.1-1.4 22.9 17.2 22.9 17.2z"/>
					</g>
					<path id="&lt;Path&gt;" class="s23" d="m2214 2218.4c0 0 2.6 26.1 9.3 38.7 3.7 7.1-3.2 18-13.2 19.5-13 2.1-30.6-6.8-28.8-10.1 4.2-8.1-0.5-21.4-4.9-32.8-3.5-9 34.1-25.2 37.6-15.3z"/>
					<path id="&lt;Path&gt;" class="s15" d="m2130.8 2311c4.7-4.4 45.5-32.7 48.6-47.1 1-4.9 17.8 1.9 19.6 5.8 1.7 3.9 17.1 5.1 19.1 0.8 2.1-4.2 2.2-12.1 5.2-13.4 5.4-2.3 19.9 40.4 19.4 41l-111.7 29.5c-0.7-1.4-5.8-11.4-0.2-16.6z"/>
					<path id="&lt;Path&gt;" class="s23" d="m2119.6 1340.1c4.2-10.4 14.2-12.6 17.2-7.2 3.1 5.3-0.2 14.7-8.6 24.3-8.3 9.6-12.2 6.7-12.2 3.5 0-3.2 3.6-20.6 3.6-20.6z"/>
					<path id="&lt;Path&gt;" class="s15" d="m2172.4 1725.5c5 29.5-2.5 163.8-6.2 196.3-3.7 32.4 0 64.9 18.7 109.3 18.7 44.5 38.1 206.2 39.4 212.3 1.2 6-50.3 18-52.3 12-2.1-6-77-234.7-82.3-258.6-5.3-23.9-26.3-239.7-30.4-274.4 0 0 108.2-26.5 113.1 3.1z"/>
					<path id="&lt;Path&gt;" class="s15" d="m1920.3 1702.8c-10 0.6-20.2-14.4-22.4-30-2.2-15.1 22.4-92.9 22.4-92.9l33 33.4c0 0-6.9 57.1-15.2 73.9-2.5 4.9-17.8 15.6-17.8 15.6z"/>
					<path id="&lt;Path&gt;" class="s12" d="m2198.6 1442.1c-2.3 8.4-19.3 137.9-18.9 162.6 0.5 24.7 54.5 537.7 54.5 537.7l-143.9 9.4c-1.3-21.3-22-560-16.8-570.2 5.1-10.1 41.7-106.4 59.1-165.8 2.3-7.6 68.3 17.9 66 26.3z"/>
					<path id="&lt;Path&gt;" class="s0" d="m1926 1690.7c-38.2 5.4-91.5-146.7-94.7-154.5-3.1-7.8 29.3-28.3 33.7-23.4 4.3 4.8 76 95.5 77.9 104.5 1.8 9 6.9 70-16.9 73.4z"/>
					<path id="&lt;Path&gt;" class="s19" d="m1900.3 1677.3q-0.5 0-1-0.3c-15.8-12.3-39.1-59.3-69.4-139.6l-0.8-2.2c-0.3-0.8 0.1-1.7 1-2 0.8-0.3 1.7 0.1 2 0.9l0.8 2.2c37.4 99.3 57.8 130 68.4 138.1 0.7 0.6 0.8 1.6 0.3 2.3-0.4 0.4-0.8 0.6-1.3 0.6z"/>
					<path id="&lt;Path&gt;" class="s19" d="m1925.5 1591c-0.5 0-0.9-0.2-1.2-0.6l-60.6-76.6c-0.5-0.7-0.4-1.8 0.3-2.3 0.7-0.6 1.7-0.4 2.3 0.3l60.5 76.6c0.5 0.7 0.4 1.7-0.3 2.2q-0.4 0.4-1 0.4z"/>
					<path id="&lt;Path&gt;" class="s12" d="m2059.3 1417.5c-2.7 56.2 14.2 164.1 14.2 164.1l-12.6 570.2-97.3-15.9c0 0 29-576.8 27.7-619.7-1.3-42.9-7.5-68.1-9.4-73.8-1.8-5.7 77.7-32.2 77.4-24.9z"/>
					<path id="&lt;Path&gt;" class="s12" d="m1920.3 1579.9c16.9-47.7 46.8-130.8 63.4-139.5l17.2 122.7v0.1q0 0-0.3 1.2-0.1 0.4-0.2 0.9c-0.4 1.5-0.9 3.5-1.6 6.1-0.1 0.4-0.2 0.8-0.4 1.2-4.3 16.1-13.6 49.8-23.2 77.1-12.9 36.7-53.6 52.7-54.9 53.1 2.4-2 4-6.3 5.1-12.2 4.9-27.6-3.1-89.5-5.1-110.7z"/>
					<path id="&lt;Path&gt;" class="s15" d="m2206.8 1740.2c-20.6-18.4-19.1-92.5-19.1-92.5l29.3 32.4z"/>
					<g id="&lt;Group&gt;">
						<path id="&lt;Path&gt;" class="s23" d="m2121.7 1653.1c-1-0.8 4.3-2.2 4.5-3.6 1-4.8-10.5-6.6-14.9-8.5-5.3-2.4-8.4-4.2-8.6-6.8-0.2-2.6 19.3 2.7 24.7 3.3 7.4 0.8 15.6 5.8 32.2 15.9 0 0-31.9 4.1-37.9-0.3z"/>
						<path id="&lt;Path&gt;" class="s3" d="m2031.9 1733.2l-41.2-132.9c-1.3-4.3 1.4-8.8 5.8-9.7l95.7-18.7c3.9-0.7 7.6 1.5 8.8 5.2l41.2 132.8c1.3 4.4-1.4 8.9-5.8 9.8l-95.8 18.7c-3.8 0.7-7.6-1.5-8.7-5.2z"/>
						<g id="&lt;Group&gt;">
							<path id="&lt;Path&gt;" class="s23" d="m2180 1679.5c-0.9 2.5-24.2 3.2-25.3 4.5-5 6-23.1 11.1-29.9 11-6.8-0.2-21.6-25.3-21.6-34.4 0.1-3.7 17-8.3 22.4-8.9 3.8-0.5 14.5-3.6 29.6-0.9 13.9 2.4 23.2 2.7 29.9 3.9 0 0-1.8 15.8-5.1 24.8z"/>
							<path id="&lt;Path&gt;" class="s23" d="m2109.2 1666.7c-3.9 0.1-12.9 1.4-16.8 2.6-7.5 2.1-14.2 5-17.8 2.7-2-1.4 5.7-6 18.5-12.2 5.2-2.5 16.9-5.2 23.3-6.1 5.3-0.8-3.7 12.9-7.2 13z"/>
							<path id="&lt;Path&gt;" class="s23" d="m2111 1677.6c-4.4 1.6-14.2 3.2-18.5 5.6-11.4 6.4-14.6 5.6-17.4 4.7-4.6-1.6 6.1-7.9 13.8-13.2 5.8-4 16.3-7.4 18.5-8.3 5.1-2.2 8 9.5 3.6 11.2z"/>
							<path id="&lt;Path&gt;" class="s23" d="m2118.3 1688.3c-4.1 1-13.5 0.7-16.4 2.8-3.7 2.7-9.4 5.3-12.7 5.8-5.9 0.8-7.5-0.8-3.8-4.1 11.6-10.3 18.5-11.8 28.4-14.9 5.1-1.6 7.8 9.6 4.5 10.4z"/>
							<path id="&lt;Path&gt;" class="s23" d="m2124.8 1683c-4.7 2.2-13.2 4.6-17.1 6.3-4.7 2-11.4 2.8-12.1 0-0.7-2.3 8.8-5.9 12.6-7.4 3.8-1.5 8.6-5.4 8.6-5.5 0.1-0.1 12.8 4.3 8 6.6z"/>
						</g>
					</g>
					<path id="&lt;Path&gt;" class="s0" d="m2254.7 1629.3c3 17.5 7.9 56.9-6.6 68.7-6 4.8-34.9 7.1-57.3 1.8-19.2-4.6-33.7-10.7-35-13.1-1.2-2.4 3.9-36.5 8.3-36.5 5.2 0 38.2-3.7 52.9-8.1 14.6-4.4 37.7-12.8 37.7-12.8z"/>
					<path id="&lt;Path&gt;" class="s15" d="m1936.5 1609.4c-4.7-8.4-8.4-12.3-22.2-29.5-0.6-0.7-0.4-1.7 0.3-2.2 0.7-0.5 1.7-0.4 2.3 0.3 14.2 17.7 17.6 21.1 22.6 29.9 0.4 0.8 0.1 1.7-0.7 2.2q-0.4 0.2-0.8 0.2c-0.6 0-1.2-0.3-1.5-0.9z"/>
					<path id="&lt;Path&gt;" class="s0" d="m2100.6 1422.7c4.7 33.9 13 108.6 13.7 111.6 0.6 3-15-3.1-18.3 2-3.4 5.1 0.2 10-12.8 8.3-9.7-1.3-7.4-13.1-16.8-7.3-9.3 5.8-19-7.8-19-7.8l32.9-106.8z"/>
					<path id="&lt;Path&gt;" class="s2" d="m2132.6 1417.6l-22.9 27.2-19.4-17.3-18.8 16.7-12.2-24.9 8.2-12.2 22.8 13.8 31.7-16.7z"/>
					<path id="&lt;Path&gt;" class="s0" d="m2132.6 1415.8l-22.9 27.2-19.4-17.3-18.8 16.7-12.2-24.9 8.2-12.2 22.8 13.8 31.7-16.7z"/>
					<path id="&lt;Path&gt;" class="s12" d="m2227 1501.4c1.8 6.4 29.9 99.9 31 166.8 1.1 66.9-52.7 74.6-51.2 72 1.5-2.5 1.6-62-19.1-92.5z"/>
				</g>
			</g>
		</g>
	</g>
</svg>