<svg xmlns="http://www.w3.org/2000/svg" viewBox="0 0 384 384"><defs><style>.cls-1{fill:#e9473a;}.cls-2{fill:#fff;}.cls-3{fill:#4daf50;}.cls-4{fill:#cfd8dc;}.cls-5{fill:#c72928;}.cls-6{fill:#fcc010;}.cls-7{fill:#438ecc;}.cls-8{fill:#fbfbfb;}</style></defs><g id="Camada_2" data-name="Camada 2"><g id="Camada_1-2" data-name="Camada 1"><path class="cls-1" d="M277.69.06h19.45c5.35,1,10.9.6,16.15,2.16,21.84,6.5,38.45,19.84,50.5,39C374.32,58,378.14,76.43,376.48,95.91c-1.4,16.57-7.45,31.63-16.91,45.31-3.44,5.16-6.26,10.71-9.81,15.82A327.75,327.75,0,0,0,306,245.89a283.11,283.11,0,0,0-7.93,30.35,42.38,42.38,0,0,1-1.35,5.44c-1.57,4.73-4.8,7.26-9.26,7.29s-7.78-2.44-9.35-7.15c-1.63-4.86-2.26-9.95-3.46-14.91a328.72,328.72,0,0,0-29.41-77c-3.74-7-8-13.8-12-20.7-3.25-4.63-6.32-9.38-9.37-14.15-9.54-14.86-19.86-29.29-23.65-47.07-4.08-19.2-2.79-37.84,4.93-56,.64-1.49,1.77-2.71,2.29-4.26a84.35,84.35,0,0,1,21.24-27.59A85.8,85.8,0,0,1,260.47,2.54C266.11.81,272,1.14,277.69.06Z"/><path class="cls-2" d="M277.69.06C274,1.63,270,1.61,266.27,2.62,242,9.14,223.47,23.18,210.86,45c-.61,1.06-1.31,2.08-2,3.11C206.68,50,204,49.7,201.4,49.7q-41.68,0-83.38,0c-23,0-46.11-.07-69.16,0-19.14.08-34.2,12.4-38.24,31.05a29.73,29.73,0,0,0-.54,6.31q0,128.43,0,256.87c0,7.08,2.13,13.47,5.43,19.58a37.51,37.51,0,0,0,12.66,12.39c8.58,4.78,17.84,5.58,27.47,5.56q130-.19,260.09,0c8.56,0,16.56-1.58,24-5.9,4.88-3.24,9.56-6.69,12.27-12.14,4.72-8.59,5.65-17.83,5.63-27.48-.15-60.82-.07-121.65-.09-182.47a62.41,62.41,0,0,1,.88-13c1-1.73,1.85-3.51,2.91-5.18A87.92,87.92,0,0,0,304.93,1.79c-2.6-.55-5.38-.34-7.79-1.73,28.06,0,56.12,0,84.18-.06,2.23,0,2.68.45,2.68,2.68Q383.9,192,384,381.32c0,2.23-.45,2.68-2.68,2.68Q192,383.9,2.7,384C.47,384,0,383.55,0,381.32Q.12,192,0,2.68C0-.07,1.06,0,3.07,0Q140.38.09,277.69.06Z"/><path class="cls-3" d="M14.92,365.27a35.54,35.54,0,0,1-6.71-19.46c-.09-1.74-.08-3.49-.08-5.23q0-125.08-.05-250.15c0-17.65,7.24-30.68,23.06-38.68A34.92,34.92,0,0,1,47,48q80.39,0,160.77,0c.37,0,.75.07,1.12.1-3.91,9-7.27,18.19-8.45,28.06A89.06,89.06,0,0,0,213,134.41q6.16,10.2,12.37,20.38a4.57,4.57,0,0,1-1.54,3.66c-.73.68-1.4,1.42-2.11,2.12Q121.18,261.09,20.65,361.63C19,363.23,17.79,365.59,14.92,365.27Z"/><path class="cls-4" d="M358.35,140.47c1,1.71.9,3.59.9,5.46q0,98.72,0,197.41a35.86,35.86,0,0,1-6.77,21.74c-1.51,1-2.57.05-3.62-.85s-2-1.89-2.95-2.86q-74-73.89-147.94-147.93c-1.58-1.57-3.39-3-4-5.28a4.4,4.4,0,0,1,1.59-3.63c11.52-11.72,23.19-23.3,34.85-34.89,1.08-1.06,2.22-2.1,3.94-1.33,9.19,13.37,16.5,27.79,23.11,42.56a320.57,320.57,0,0,1,21.8,68.49c1.07,5.35,3.93,8.07,8.28,8s7-2.76,8.13-8.2A326.18,326.18,0,0,1,346,159.55C350.21,153.28,354.22,146.84,358.35,140.47Z"/><path class="cls-5" d="M327.09,87.9a39.7,39.7,0,1,1-79.4-.05,39.7,39.7,0,1,1,79.4.05Z"/><path class="cls-6" d="M234.31,168.31,194.72,208a4.52,4.52,0,0,1-1.57,3.57,110.77,110.77,0,0,1-8.2,7.87c-1.23,1.4-2.44,2.82-3.76,4.14Q106.57,298.2,32,372.81c-1.66,1.65-3.11,3.67-5.82,3.65a27.23,27.23,0,0,1-11.21-11.19L172.47,207.64q26.44-26.44,52.92-52.84A99.53,99.53,0,0,1,234.31,168.31Z"/><path class="cls-7" d="M26.13,376.46c.49-.56.95-1.14,1.47-1.66Q104.51,297.87,181.42,221c.79-.79,1.67-1.49,2.5-2.23a3.57,3.57,0,0,1,3.41,1.05c.82.77,1.62,1.55,2.42,2.35q74.08,74,148.09,148.18c1.51,1.5,3.81,2.69,3.21,5.49-.21,1.5-1.53,1.85-2.59,2.44a37.41,37.41,0,0,1-18.58,4.94q-136.17,0-272.34,0A36.29,36.29,0,0,1,26.13,376.46Z"/><path class="cls-8" d="M341.05,375.79c-4.45-4.36-8.94-8.67-13.34-13.07q-70.24-70.23-140.46-140.47c-1.14-1.14-2.22-2.35-3.33-3.53L194.72,208c1.28,1.18,2.6,2.32,3.83,3.55L348.87,361.85c1.14,1.14,2.39,2.16,3.59,3.24C350.19,370.28,346.54,374,341.05,375.79Z"/><path class="cls-8" d="M107.83,96c2.06,4.76,3.76,9.38,3.87,14.46.25,11-3.8,20-12.53,26.61-2.41,1.83-2.2,3-.48,4.92a99.22,99.22,0,0,0,7.43,7.36c10.22,9.19,15.22,20.39,13,34.34-1.73,10.89-7.61,18.38-18.3,21.34-11.15,3.1-22.7,4.17-34,1.48C52.79,203.13,44.1,193.6,40.69,179.6c-2.16-8.85,1.44-15.86,8.27-21.35,7.16-5.77,15.71-8.48,24.43-10.74,2.16-.56,4.37-1,6.55-1.47.8-.18,1.93-.06,1.69-1.41-.18-1-1.06-.83-1.79-.91-2.22-.23-4.48-.33-6.67-.77-15-3-25.84-17.13-25.14-32.67s12.91-29,28.16-30c12-.77,24.17-.32,36.25-.2a7.61,7.61,0,0,1,7.32,7.56,8,8,0,0,1-6.87,8.07C111.32,96,109.7,95.89,107.83,96Z"/><path class="cls-3" d="M81.56,191.6a33.34,33.34,0,0,1-13.91-2.13,18.91,18.91,0,0,1-10.36-9.18C55,175.78,55.73,173,59.8,170c3.87-2.84,8.33-4.44,12.85-5.8a148.56,148.56,0,0,1,18.22-3.84,5.53,5.53,0,0,1,5.26,1.78c5.4,5.17,8.91,10.82,7.53,18.8-.86,4.94-3.45,7.84-8.07,9.13A48.78,48.78,0,0,1,81.56,191.6Z"/><path class="cls-3" d="M95.84,111.7A16.05,16.05,0,0,1,80.1,127.83a16.27,16.27,0,0,1-16.23-16.11,16,16,0,0,1,32,0Z"/></g></g></svg>