<svg id="Camada_1" data-name="Camada 1" xmlns="http://www.w3.org/2000/svg" viewBox="0 0 383.22 383.25"><defs><style>.cls-1{fill:#fefefe;}.cls-2{fill:#404040;}.cls-3{fill:#111;}.cls-4{fill:#4d4d4d;}.cls-5{fill:#5c5c5c;}.cls-6{fill:#717171;}.cls-7{fill:#303030;}.cls-8{fill:#747474;}.cls-9{fill:#939393;}.cls-10{fill:#fec508;}.cls-11{fill:#fe9b00;}.cls-12{fill:#ef9313;}.cls-13{fill:#a70132;}.cls-14{fill:#dd8700;}.cls-15{fill:#c87b10;}.cls-16{fill:#febf52;}.cls-17{fill:#feca52;}.cls-18{fill:#fea900;}.cls-19{fill:#febf3a;}.cls-20{fill:#febe3d;}.cls-21{fill:#fec236;}.cls-22{fill:#fec627;}.cls-23{fill:#febd34;}.cls-24{fill:#feb920;}.cls-25{fill:#febf3e;}.cls-26{fill:#fec03e;}.cls-27{fill:#febd39;}.cls-28{fill:#f7b942;}.cls-29{fill:#f6b744;}.cls-30{fill:#fda900;}.cls-31{fill:#fede75;}</style></defs><title>bolsa-de-dinheiro</title><path d="M279.67,612.82c-4.92-1.82-10.16-1.45-15.24-2.18-30.69-4.4-59.69-13.4-85.22-31.6-14.76-10.52-26.74-23.47-33.34-40.75-5.29-13.82-4.63-27.86-1.26-41.91,9.35-39.09,27.4-74,51.17-106.14,13.66-18.45,29.41-34.85,48.75-47.52.31-.21.65-.36,1.14-.62-7.78-6.08-10.3-13.09-5.46-21.74.69-1.23-.17-1.83-.57-2.66-3.85-8-1.68-15.88,6-20.25,2-1.16,1.8-2.06,1.22-3.77q-7.09-21-14.08-42.08c-1.74-5.21-1.07-7.33,3.68-10.32,8.05-5.06,17.08-7.43,26.34-8.84,27.1-4.12,54.12-4.22,80.9,2.47A49.16,49.16,0,0,1,359,241.4c4.54,3,5.23,5,3.54,10.06-4.65,13.91-9.29,27.82-14,41.71-.72,2.11-.78,3.28,1.6,4.61a14.25,14.25,0,0,1,5.76,19.08,5.3,5.3,0,0,0,.06,5.36c3.37,7,1.29,13.46-6.06,19.64,4.23,3.1,8.54,6,12.59,9.28,24.48,19.65,42.77,44.38,58.41,71.29,1,1.69.48,2.36-1,3.08-1.11.54-2.13,1.26-3.19,1.9-4,4.25-5.58,4.2-8.36-.65a249.78,249.78,0,0,0-30.52-42.87c-13.86-15.5-29.05-29.47-48.4-38.1a16.31,16.31,0,0,0-6.87-1.39c-13.59.05-27.18,0-40.76.05-11.29-1.81-20.63,2.85-29.68,8.76-20.59,13.45-36.71,31.38-50.74,51.23-17.22,24.37-30.94,50.59-40.11,79.08-3.14,9.77-5.6,19.71-6.26,29.94-1,14.95,4.42,27.85,13.9,39.18,10.77,12.88,24.42,21.83,39.5,28.86a195.72,195.72,0,0,0,52.91,15.61,232.28,232.28,0,0,0,82.5-1.8c7-1.47,7-1.39,8.72,5.72.24.83.42,1.68.63,2.52.66,2.75-.44,4.18-3.15,4.76a160.3,160.3,0,0,1-24.94,3.78c-3.43.18-6.89.06-10.28.73h-1.5c-.48-.52-1.11-.35-1.69-.39h-1.37c-.73.09-1.54-.25-2.18.39h-4.49a4.05,4.05,0,0,0-3.74,0h-9.72c-.51-.55-1.17-.34-1.79-.39h-1.91c-.77.1-1.62-.27-2.29.39Z" transform="translate(-106.07 -229.57)"/><path d="M419.72,433.13c14.76.67,29.21,2.88,42.75,9.17,7.87,3.66,15,8.38,20.37,15.36a29.58,29.58,0,0,1,6.37,18.69c-.06,30.4-.24,60.81.08,91.21.13,11.89-4.64,20.89-13.6,28.05-11.4,9.12-24.84,13.29-39,15.73-2.72.46-5.58.16-8.14,1.48h-3a5.74,5.74,0,0,0-4.49,0h-8.23a5.74,5.74,0,0,0-4.49,0h-3.74c-6.07-1-12.25-1.1-18.23-2.9-8.71-2.62-17.13-5.8-24.68-11-6.49-4.28-11.7-9.69-14.85-16.89a25.06,25.06,0,0,1-2.45-10.11c0-32.79-.16-65.59.05-98.37,1.07-10,6.15-17.72,13.83-23.85,11.41-9.1,24.8-13.52,39-15.85a104.23,104.23,0,0,1,18.17-1.64C416.92,432.24,418.43,432.15,419.72,433.13Z" transform="translate(-106.07 -229.57)"/><path d="M106.07,305.28c2.7-3.68,6.87-5.25,10.82-6.7,8-2.94,13.34-8.07,16.07-16.12.71-2.1,2-4,2.94-6,1.22-2.75,3.16-4.55,6.24-4.5,2.9,0,4.7,1.79,5.94,4.38,2.31,4.82,4.83,9.53,7.13,14.35a6.93,6.93,0,0,0,3.51,3.56c5.05,2.38,10,5,15,7.45,2.4,1.19,4.09,2.87,4.16,5.69.07,3-1.7,4.76-4.21,6-5.77,2.9-12.59,4.75-16.94,9.08s-6,11-8.84,16.67c-1.25,2.5-3,4.33-6,4.27s-4.64-2-5.88-4.45c-2.81-5.67-4.62-12.38-8.88-16.63s-11-6.09-16.66-8.84c-1.84-.89-3-2.39-4.41-3.72Z" transform="translate(-106.07 -229.57)"/><path class="cls-1" d="M362.22,598.19c12.35,8.06,26.13,11.94,40.58,13.83.67.09,1.55-.23,1.83.8H314.84c4.8-1.69,9.89-1.29,14.83-2,6.52-1,13-2.19,19.5-3.23,3-.48,4-1.64,2.84-4.53a10.15,10.15,0,0,1-.39-2.17C354.79,598.53,358.42,598,362.22,598.19Z" transform="translate(-106.07 -229.57)"/><path class="cls-2" d="M421.09,612.82c1.5-1,3-1.29,4.49,0Z" transform="translate(-106.07 -229.57)"/><path class="cls-2" d="M408.37,612.82c1.5-1.33,3-1,4.49,0Z" transform="translate(-106.07 -229.57)"/><path class="cls-3" d="M299.87,612.82a2.51,2.51,0,0,1,3.74,0Z" transform="translate(-106.07 -229.57)"/><path class="cls-4" d="M286.36,612.19h2.23c.28.11.38.25.31.4s-.16.24-.25.24H286.4c-.22-.13-.31-.26-.25-.41S286.29,612.19,286.36,612.19Z" transform="translate(-106.07 -229.57)"/><path class="cls-5" d="M308.1,612.82c.54-1,1.44-.72,2.28-.64.22.15.29.3.21.43s-.16.21-.24.21Z" transform="translate(-106.07 -229.57)"/><path class="cls-6" d="M286.36,612.19a4.44,4.44,0,0,1,0,.63h-2.24C284.61,611.61,285.57,612.2,286.36,612.19Z" transform="translate(-106.07 -229.57)"/><path class="cls-7" d="M288.65,612.82c0-.22,0-.43-.06-.64a1.3,1.3,0,0,1,1.56.64Z" transform="translate(-106.07 -229.57)"/><path class="cls-8" d="M310.35,612.82c0-.22,0-.43,0-.64l1.5,0c.22.15.28.29.2.42s-.16.2-.23.2Z" transform="translate(-106.07 -229.57)"/><path class="cls-9" d="M311.85,612.82c0-.21,0-.42,0-.62.62-.11,1.29-.33,1.46.62Z" transform="translate(-106.07 -229.57)"/><path class="cls-10" d="M419.72,433.13c-15.77.09-31.18,2.14-45.8,8.42a64.22,64.22,0,0,0-14.7,8.68c-7.38,5.86-12.38,13.15-13.79,22.64-3.35,3.78-7.06,7.26-9.46,11.81a1.63,1.63,0,0,1-2.46.85c-6.7-8.44-16.43-12.32-25.7-16.77-3.95-1.89-5.42-4.43-5.33-8.74.22-11.2.06-22.41.09-33.62,0-1.83-.32-3.76,1-5.39,4.56-1.49,5.55-1.11,7.21,3.15,1.17,3,3.71,1.77,5.73,1.95,1.7.14,3.62.23,4-2.23a5.37,5.37,0,0,1,.93-2.79,6.52,6.52,0,0,1,3.14-1,2,2,0,0,0,1.8-2.05,38.46,38.46,0,0,0-.19-9.65c-.59-2.93-2.89-3.83-5.59-3.91-4.09-.13-8.19,0-12.28-.07-4.9-.08-5.61-.79-5.75-5.59v-.75c-.09-5.15-3.42-7.3-8.2-5.36-2.1.85-1.26,3.06-2.23,4.41-.29.4-.67.83-1.14.83-3.44,0-4.47,2.16-4.78,5.06a3.75,3.75,0,0,1-2.88,1.49,33,33,0,0,0-21.5,13.41,8.18,8.18,0,0,1-1.3,1.33c-13.49,12-12.69,34.64,1.56,45.72,5.78,4.49,12.47,7.29,19,10.37,4.19,2,5.86,4.6,5.75,9.25-.27,11.21-.07,22.42-.11,33.63,0,1.81.4,3.79-1.21,5.27-5.26,1.32-10.57.62-15.87.44a2.82,2.82,0,0,1-2.78-2.57c-.64-4.13-3.84-2.93-6.38-3.16-2.84-.27-3.62,1.5-3.91,3.82a2.8,2.8,0,0,1-.46,1c-5.11.82-5.83,4.26-5.27,8.62a10.78,10.78,0,0,1-.36,4.81c-1.29,2.14-2.64.56-3.7-.14a79.08,79.08,0,0,1-20.66-19.13,65.67,65.67,0,0,1-12.47-32.65c0-1.38,0-2.76,0-4.13a12.46,12.46,0,0,0-.55-4.25A47.54,47.54,0,0,1,213,465c.88-2.65.42-5.4.58-8.1a8.89,8.89,0,0,1,.26-1.78,14.22,14.22,0,0,0,.56-4.5,9.2,9.2,0,0,1,.27-1.64,13.88,13.88,0,0,0,.53-3.69c2.66-14.64,6.8-28.82,13.56-42.14,7.31-14.38,15.93-27.85,27.79-39a13.51,13.51,0,0,0,2.35-2.71,142.84,142.84,0,0,1,19.25-16.32,14.45,14.45,0,0,1,3.75-1.56c14.46-.05,28.92-.07,43.37-.15a9.12,9.12,0,0,1,3.9,1.11c19.24,8.68,34.7,22.27,48.62,37.78a260.29,260.29,0,0,1,30.53,42.38c3.1,5.27,3.08,5.28,8.43,2.72Z" transform="translate(-106.07 -229.57)"/><path d="M453,415.28a6.34,6.34,0,0,1-5.35-3.9c-2-4.11-4.41-8.1-6.1-12.35a13.82,13.82,0,0,0-8.11-8c-4.11-1.73-8-3.94-12-5.92-2.42-1.19-4-3-4-5.78s1.68-4.54,4.08-5.73c5-2.47,10-5.05,15-7.44a7,7,0,0,0,3.55-3.54c2.34-4.93,4.88-9.77,7.29-14.68,1.27-2.57,3.2-4.2,6.11-4.15,2.74.06,4.58,1.64,5.78,4.07,2.42,4.91,4.94,9.76,7.28,14.7a7,7,0,0,0,3.53,3.55c4.94,2.34,9.76,4.91,14.67,7.31,2.51,1.23,4.4,2.86,4.45,5.87s-1.75,4.77-4.28,6a13.64,13.64,0,0,1-1.68.81q-17.65,5.64-23.27,23.3a13.85,13.85,0,0,1-1.74,3.29A5.9,5.9,0,0,1,453,415.28Z" transform="translate(-106.07 -229.57)"/><path d="M373,312.25c-.44-.49-.84-.91-1.21-1.36-6.45-7.83-6.44-7.82,1.83-13.34,20.48-13.67,41-27.3,61.39-41.07,2.38-1.61,3.42-1.51,5,1,4.57,7.18,4.69,7.1-2.26,11.74l-61.78,41.16C375,311,374.07,311.54,373,312.25Z" transform="translate(-106.07 -229.57)"/><path d="M228.87,303a62,62,0,0,0-4,6.19c-1.56,3.09-3.05,3-5.82,1.16q-32.61-22-65.47-43.69c-2.5-1.65-2.56-2.72-1-5,4.79-6.91,4.7-7,11.75-2.27l62,41.41C227.24,301.34,228.37,301.7,228.87,303Z" transform="translate(-106.07 -229.57)"/><path d="M229.6,267c0,1.08-.74,1.42-1.21,1.95-6.53,7.19-6.53,7.18-13.22.49-9.07-9.06-18.1-18.16-27.23-27.15-1.69-1.66-2.45-2.78-.2-4.59s4.06-5.38,6.24-5.53c2.57-.17,4.38,3.56,6.48,5.63,9.11,9,18.15,18.09,27.21,27.16C228.37,265.69,229,266.43,229.6,267Z" transform="translate(-106.07 -229.57)"/><path d="M409.38,239.89c-.43.53-.76,1-1.19,1.47q-16.49,16.51-33,33c-1.05,1.05-1.68,1.29-3,.15-7.56-6.62-7.6-6.57-.65-13.52,8.89-8.89,17.9-17.66,26.59-26.73,2.5-2.61,3.94-2.37,5.94.17a49.16,49.16,0,0,0,3.93,4C408.48,238.87,408.88,239.34,409.38,239.89Z" transform="translate(-106.07 -229.57)"/><path class="cls-11" d="M257.21,364.42a139.51,139.51,0,0,0-16.91,20.85,175,175,0,0,0-12,21c-6,12.42-9.52,25.54-12.23,39-.9,1.1.12,2.58-.72,3.69l0,1.51c-.95,1.37.15,3.07-.72,4.46l0,1.59c-1,2.65.24,5.49-.71,8.15v12c.64,1.14.21,2.37.33,3.55.2,1.55-.41,3.16.38,4.66,1.79,16.81,9.35,30.67,21.58,42.1a92.48,92.48,0,0,0,13.59,10.27c2.75,1.21,5.19,3.2,8.38,3.28,8.7,5.08,18.26,8,27.81,11,1.66.6,3.45.4,5.12.91,5.64,2,11.62,2.46,17.46,3.57a14.27,14.27,0,0,0,4,.57,11.12,11.12,0,0,1,1.73.27,16.17,16.17,0,0,0,5.19.4,14.6,14.6,0,0,1,3,.31,15.08,15.08,0,0,0,5.56.32c4.2-.36,4.39-.47,4.39-4.67,0-9.85.11-19.7-.07-29.54a6.92,6.92,0,0,1,1.41-4.17q8.7-14.57,1.66-30c-.53-1.17-1.63-2.29-.94-3.81,2.21-3.94,4.59-7.75,8-10.79.9-.79,1.59-1.9,3-2,0,30.22.6,60.46-.14,90.67-.37,15.08,4.88,26.23,16.94,34.65l-10.61,2.67c-1.79-5.64-1.79-5.64-7.39-4.57-38.35,7.37-76.33,6.14-113.78-5.25-20.32-6.19-39.22-15.25-54.91-29.95s-24.32-32.26-20.79-54.42a173.66,173.66,0,0,1,10.39-36.92c14.63-36.85,34.72-70.24,63-98.37a159,159,0,0,1,27-21.22c8.29-5.28,17-8.08,26.82-6.59a161.35,161.35,0,0,0-22.45,18.53A6.72,6.72,0,0,0,257.21,364.42Z" transform="translate(-106.07 -229.57)"/><path class="cls-10" d="M268.55,264c8.17.69,16.3,1.71,24.53,1.65,9.07-.07,18.15.06,27.18-1a175.3,175.3,0,0,0,27-5.16c-3.25,9.62-6.32,18.69-9.39,27.76-1.62,1.74-3.81,2.1-6,2.46a17,17,0,0,0-4.36.71c-9.7.43-19.39.46-29.08,0a14.91,14.91,0,0,0-5-.65c-11.39-1.08-23.62-11.11-26.78-22.12C266.24,266.19,264.94,263.71,268.55,264Z" transform="translate(-106.07 -229.57)"/><path class="cls-12" d="M297.6,289.55h30.71c1.12-.85,2.6.17,3.72-.72l5.84-1.54c-2.37,8.26-2.37,8.26-10.64,8.26-21.28,0-42.56-.05-63.84.07-2.56,0-3.68-.72-4.46-3.16-3.42-10.76-7.05-21.46-10.75-32.64l20.37,4.2a1.69,1.69,0,0,0-1.45,2.45c3.35,10.77,14.46,21.32,26.06,22.36C294.53,289.77,296.23,288.65,297.6,289.55Z" transform="translate(-106.07 -229.57)"/><path class="cls-13" d="M297.64,313.51H255.4a21.12,21.12,0,0,1-3-.07,2.78,2.78,0,0,1-2.61-3.08,2.72,2.72,0,0,1,2.55-2.75,19.75,19.75,0,0,1,3-.08h84.49a19.75,19.75,0,0,1,3,.07,2.94,2.94,0,0,1,.06,5.83,19.85,19.85,0,0,1-3,.08Z" transform="translate(-106.07 -229.57)"/><path class="cls-13" d="M297.64,331.47q-21.67,0-43.35,0c-2.3,0-4.57-.27-4.42-3.18s2.57-2.83,4.76-2.83q29.34,0,58.68,0c9.21,0,18.43,0,27.65,0,2.31,0,4.54.27,4.43,3.17-.1,2.64-2.25,2.85-4.4,2.84Q319.32,331.45,297.64,331.47Z" transform="translate(-106.07 -229.57)"/><path class="cls-14" d="M264,250.68c-4.2-.15-8.11-1.59-12.09-3a173.09,173.09,0,0,1,91.54,0,40.31,40.31,0,0,1-12.07,3.1c-13.15-1-26.26-2.38-39.49-2a177.57,177.57,0,0,0-19.71,1.48A77.19,77.19,0,0,1,264,250.68Z" transform="translate(-106.07 -229.57)"/><path class="cls-15" d="M264,250.68c4.3-1.59,8.84-1.84,13.33-2.25a223.55,223.55,0,0,1,40.74,0c4.48.41,9,.62,13.31,2.27-1.41,1-3.12.82-4.68,1a200.45,200.45,0,0,1-61.32-.54A7.26,7.26,0,0,1,264,250.68Z" transform="translate(-106.07 -229.57)"/><path class="cls-16" d="M415.42,505.1c-15-.48-31.52-2.9-46.11-12.47-15.7-10.29-15.76-24.33-.27-34.84,9.91-6.72,21.12-9.9,32.8-11.47,19.36-2.6,38.25-.92,56.27,7.17a41.09,41.09,0,0,1,14,9.8c6.86,7.59,6.88,16.24-.07,23.74-7.11,7.68-16.41,11.48-26.19,14.26C436.54,503.93,427,505,415.42,505.1Z" transform="translate(-106.07 -229.57)"/><path class="cls-14" d="M476,552.27c-1.71,5.44-5.78,8.91-10.23,12-9.88,6.78-21.1,9.93-32.8,11.53-19.37,2.64-38.26,1-56.28-7.13-5.84-2.62-11.17-6-15.2-11.18a17.44,17.44,0,0,1-4-11c6.75,5.89,14.19,9.25,21.71,12.47,1.87,4.5,5.76,6.34,10.08,7.45a111,111,0,0,0,43.6,2.45c14.51-2.06,28.1-6.31,39.79-15.54C473.59,552.55,474.56,551.51,476,552.27Z" transform="translate(-106.07 -229.57)"/><path class="cls-14" d="M476,504.38c-1.71,5.44-5.78,8.91-10.23,12-9.88,6.77-21.1,9.94-32.79,11.53-19.38,2.64-38.27,1-56.29-7.13-5.84-2.62-11.19-6-15.2-11.18a16.09,16.09,0,0,1-3.86-10.89c6.63,5.78,14.07,9.14,21.59,12.36,1.87,4.5,5.76,6.34,10.08,7.45a111,111,0,0,0,43.6,2.45c14.51-2.06,28.1-6.31,39.79-15.54C473.59,504.67,474.56,503.62,476,504.38Z" transform="translate(-106.07 -229.57)"/><path class="cls-14" d="M476,576.08c-1.57,5.52-5.69,9-10.11,12-10,6.88-21.3,10.06-33.12,11.65-19.36,2.6-38.24.87-56.23-7.23-5.83-2.62-11.16-6.06-15.14-11.23a17.08,17.08,0,0,1-3.86-10.79c6.32,5.35,13.11,8.71,20.09,11.72,5.45,7.79,13.92,9,22.36,10.29,19.48,2.9,38.5,1.27,56.91-6a62.63,62.63,0,0,0,14.55-8.35C472.76,577.13,473.93,575.54,476,576.08Z" transform="translate(-106.07 -229.57)"/><path class="cls-14" d="M476,528.19c-1.57,5.51-5.69,9-10.11,12-9.95,6.88-21.3,10.06-33.11,11.65-19.36,2.6-38.24.88-56.23-7.23-5.83-2.62-11.16-6.07-15.15-11.23a17,17,0,0,1-3.86-10.78c6.33,5.32,13.1,8.71,20.09,11.71,5.44,7.79,13.92,9,22.35,10.29,19.49,2.91,38.51,1.28,56.92-6a62.28,62.28,0,0,0,14.55-8.35C472.76,529.24,473.93,527.65,476,528.19Z" transform="translate(-106.07 -229.57)"/><path class="cls-12" d="M476,552.27c-7.72,5.67-15.72,10.76-25,13.56a110.42,110.42,0,0,1-44.76,4.44c-7.53-.85-15-1.68-22-4.7a14.26,14.26,0,0,1-5.34-4.55c-.49-.6-1.59-1.74.37-2.1,11.83,3.64,23.87,6,36.29,6,22.1,0,43.06-3.94,61.45-18C477.44,549,476.72,550.66,476,552.27Z" transform="translate(-106.07 -229.57)"/><path class="cls-12" d="M476,504.38c-7.72,5.68-15.72,10.76-25,13.56a110.6,110.6,0,0,1-44.76,4.45c-7.53-.85-15-1.69-22-4.71a14.26,14.26,0,0,1-5.34-4.55c-.49-.6-1.59-1.74.37-2.1,11.83,3.64,23.87,6,36.29,6,22.1,0,43.06-3.94,61.45-18C477.44,501.15,476.72,502.77,476,504.38Z" transform="translate(-106.07 -229.57)"/><path class="cls-17" d="M476,576.08a78.48,78.48,0,0,1-34.3,16.24c-18,3.71-36,3.6-53.77-1.28-4.68-1.29-8.66-3.79-10.3-8.83,24.74,8.37,49.64,9,74.68,1.48A72.5,72.5,0,0,0,477,570.78,7.5,7.5,0,0,1,476,576.08Z" transform="translate(-106.07 -229.57)"/><path class="cls-17" d="M476,528.19a78.5,78.5,0,0,1-34.3,16.25c-18,3.7-36,3.59-53.78-1.29-4.68-1.29-8.66-3.8-10.29-8.83,24.74,8.37,49.63,9,74.68,1.49A72.53,72.53,0,0,0,477,522.89,7.5,7.5,0,0,1,476,528.19Z" transform="translate(-106.07 -229.57)"/><path class="cls-11" d="M158.81,308c-9,2.26-14,7.5-16.44,16.26-2.34-4.19-3.76-7.82-6.11-10.68s-6.75-3.52-10.14-5.92c3-2.61,7.13-3.13,9.85-5.74s3.53-6.8,5.89-10.23c2.7,3,3.17,7.34,6,10S154.58,305.17,158.81,308Z" transform="translate(-106.07 -229.57)"/><path d="M334.45,485.62c7.38,12.81,6.71,25.26-1.67,37.36-1.93,3.74-5.09,6.24-8.57,8.43A33,33,0,0,1,307.88,536c-4.47,0-2.93,3.31-3.17,5.65-.08,6-.63,6.51-7.08,6.4-6.52.12-7-.37-7.15-6.79-.1-5-.2-5.09-5.37-5.11-7.07,0-14.14.07-21.21,0-8-.12-11.44-5.62-8.3-13.11.32-6,.32-6,6.49-6a22.62,22.62,0,0,0,3,0c2.13-.28,3,.58,2.63,2.67-.54,2.88.73,3.54,3.44,3.4,4.83-.26,9.68-.15,14.52-.19,4.94-2,4.94-2,4.94-7.72,0-12.34-.08-24.68.05-37,0-3.31-1.13-5.24-4.1-6.74-6.67-3.35-13.66-6.11-19.65-10.72-10.82-8.34-15.22-24.5-10-37.11a24.24,24.24,0,0,1,3.46-5.31c6.2-8.8,14.55-14,25.34-15.08a6.54,6.54,0,0,0,5.87-5.9c.31-6,.31-6,6.5-6,5.59,0,5.59,0,5.59,5.66,0,6.31,0,6.31,6.44,6.31,3.73,0,7.46-.08,11.19,0,3.94.12,6.13,2.37,6.3,6.33.08,1.74,0,3.49,0,5.23,0,6.18,0,6.18-6,6.5-4.33,1.69-5.51,1.25-7.14-3-1.14-3-3.65-1.83-5.66-2-1.66-.13-3.61-.32-4,2.12a5.61,5.61,0,0,1-1,2.73c0,14.06-.06,28.11-.16,42.17,0,1.68.71,2.38,2.09,3,4.36,2.08,8.62,4.4,13,6.44C325,475.86,330.45,479.83,334.45,485.62Z" transform="translate(-106.07 -229.57)"/><path class="cls-18" d="M260.31,418.29c-4,7.76-5.93,15.86-3.66,24.52a31.67,31.67,0,0,0,17.11,21.08c4.78,2.4,9.51,4.93,14.39,7.11,2.61,1.17,3.62,2.58,3.58,5.59q-.3,21.14,0,42.27c0,3.37-.79,4.8-4.22,4.18a14.42,14.42,0,0,0-1.86-.14c0-13.45-.07-26.9.07-40.34,0-2.79-1-4.17-3.39-5.42-7.28-3.74-15.11-6.54-21.52-11.83a31.09,31.09,0,0,1-10.66-29C251.46,429.2,254.11,422.7,260.31,418.29Z" transform="translate(-106.07 -229.57)"/><path class="cls-18" d="M255.6,523c0,.62.11,1.24.12,1.86.1,9,1.19,10.12,10.06,10.12,7.71,0,15.43.06,23.15,0,2,0,3,.43,2.73,2.64a22.77,22.77,0,0,0,0,3c0,6.2,0,6.2,6,6.51,1.47,1.87,1.66,4.13.11,5.67-1.94,1.93-4.53.93-6.86.2-1.74-.3-3.66.69-5.23-.76-1.6-1.93-1.15-4.26-1.15-6.46,0-2.51-1.07-3.6-3.58-3.59H264.12A11.88,11.88,0,0,1,258,541a7.72,7.72,0,0,1-8.24-3.74c0-2.73,0-5.47,0-8.2C249.81,522.13,248.94,523.14,255.6,523Z" transform="translate(-106.07 -229.57)"/><path class="cls-18" d="M303.74,421.27c-.32-6-.32-6,5.47-6,1.36,0,2.74.09,4.09,0,1.76-.16,2.6.48,2.28,2.28-.57,3.13.71,4.28,3.78,3.76a9.23,9.23,0,0,1,2.22.1,20.5,20.5,0,0,0,0,2.6c.36,2.71-.92,3.55-3.43,3.28a19.27,19.27,0,0,0-3.72,0c-3,.26-5.55.1-4.89-4.09.23-1.44-.76-1.94-2.09-1.91S305,421.27,303.74,421.27Z" transform="translate(-106.07 -229.57)"/><path class="cls-18" d="M291.52,397.31c.32,6.15.32,6.15-5.87,5.9C285.76,396.45,284.83,397.43,291.52,397.31Z" transform="translate(-106.07 -229.57)"/><path class="cls-19" d="M213.85,464.62c.33-2.71-.86-5.55.71-8.15C214.21,459.18,215.39,462,213.85,464.62Z" transform="translate(-106.07 -229.57)"/><path class="cls-20" d="M214.56,484.87c-1.32-1.32-.54-3-.7-4.48q.34-.52.69,0Z" transform="translate(-106.07 -229.57)"/><path class="cls-21" d="M214.6,454.88c.18-1.5-.63-3.15.72-4.46C215.09,451.9,215.92,453.56,214.6,454.88Z" transform="translate(-106.07 -229.57)"/><path class="cls-22" d="M214.55,480.39h-.69c0-1.24,0-2.49,0-3.73C215.06,477.72,214.41,479.13,214.55,480.39Z" transform="translate(-106.07 -229.57)"/><path class="cls-23" d="M215.34,448.91c.13-1.25-.52-2.66.72-3.69C215.89,446.46,216.57,447.87,215.34,448.91Z" transform="translate(-106.07 -229.57)"/><path class="cls-24" d="M257.21,364.42a2.22,2.22,0,0,1,2.24-2.32A4.56,4.56,0,0,1,257.21,364.42Z" transform="translate(-106.07 -229.57)"/><path class="cls-11" d="M453.72,362.58c2.28,9,7.52,14,15.67,16.69-7.87,3-13.52,7.71-16,16.21-3-7.93-8-13.46-16.83-15.76,4.27-2.41,7.94-3.84,10.78-6.25S450.89,366.78,453.72,362.58Z" transform="translate(-106.07 -229.57)"/><path class="cls-10" d="M290.89,553h.75c6.91-.07,5.87.79,6-5.86,5.8-.3,5.8-.3,6.09-6.11a3.61,3.61,0,0,1,2.46-1.51c7.22-.8,12.9-4.71,18.34-9.08a65.92,65.92,0,0,0,8.25-7.41c1.23,1.1.74,2.56.74,3.88.05,8.73.07,17.46,0,26.19,0,6.43,1.11,5.91-6,5.86-1.62-.94-3.54.23-5.17-.71l-3.06,0c-1.61-.94-3.51.21-5.13-.71l-1.57,0c-1.12-.89-2.61.14-3.73-.73C302.73,556.12,296.56,555.73,290.89,553Z" transform="translate(-106.07 -229.57)"/><path class="cls-10" d="M258,541c8,0,16.07.1,24.1-.05,2.67,0,3.88.6,3.63,3.49-.22,2.58,0,5.19,0,7.78a124.61,124.61,0,0,1-24.79-9C259.77,542.65,258.48,542.32,258,541Z" transform="translate(-106.07 -229.57)"/><path class="cls-25" d="M314.15,557.46c1.71.27,3.58-.69,5.13.71C317.57,557.93,315.7,558.85,314.15,557.46Z" transform="translate(-106.07 -229.57)"/><path class="cls-26" d="M322.34,558.2c1.72.28,3.61-.69,5.17.71C325.79,558.67,323.9,559.63,322.34,558.2Z" transform="translate(-106.07 -229.57)"/><path class="cls-27" d="M308.85,556.7c1.26.18,2.68-.52,3.73.73C311.32,557.29,309.9,557.94,308.85,556.7Z" transform="translate(-106.07 -229.57)"/><path class="cls-28" d="M297.6,289.55c-1.48-.22-3.14.63-4.44-.72C294.65,289,296.3,288.25,297.6,289.55Z" transform="translate(-106.07 -229.57)"/><path class="cls-29" d="M332,288.83c-1,1.25-2.47.56-3.72.72C329.36,288.34,330.77,289,332,288.83Z" transform="translate(-106.07 -229.57)"/><path d="M417.42,499.09c-11.16-.15-22.1-1.51-32.48-5.94a32.53,32.53,0,0,1-10.58-6.88c-6.57-6.64-6.62-15.72.05-22.28,6.47-6.37,14.75-9.07,23.38-10.8,17.09-3.4,33.95-2.78,50.42,3.28a32.1,32.1,0,0,1,12.26,7.66c6.39,6.61,6.45,15.49-.05,22-6.91,7-15.93,9.48-25.15,11.3A84.08,84.08,0,0,1,417.42,499.09Z" transform="translate(-106.07 -229.57)"/><path class="cls-10" d="M318.65,519.44c-3.9,3.17-8.5,3.62-13.29,3.62-2,0-1.75-1.21-1.75-2.44q.08-16.37.13-32.73c14.37,2.42,22,16.47,17.52,28A11.5,11.5,0,0,1,318.65,519.44Z" transform="translate(-106.07 -229.57)"/><path class="cls-10" d="M284.78,455.77c-8.16-3-14.87-7.53-16.68-16.82a17.74,17.74,0,0,1,3.17-14.76c3.17-3.7,7.42-4.18,11.88-4a3.34,3.34,0,0,1,3.54,3.52c.27,9.8.24,19.6,0,29.4C286.65,454.28,286.56,455.73,284.78,455.77Z" transform="translate(-106.07 -229.57)"/><path class="cls-18" d="M284.78,455.77c1.11-.78.87-2,.87-3,0-9.42-.06-18.84.05-28.25,0-2.37-.63-3.31-3.13-3.26a23,23,0,0,0-11.3,3c4.28-6.87,10.78-9.1,18.49-8.94,1.46,0,1.91.52,1.9,1.95,0,13.91,0,27.81,0,42.34Z" transform="translate(-106.07 -229.57)"/><path class="cls-18" d="M318.65,519.44c6-11,2.05-20.18-4.49-25.85-3-2.63-7-3.7-10.42-5.7v-9c5.55,2.83,11.23,4.84,16,8.43C330.68,495.62,330,512.29,318.65,519.44Z" transform="translate(-106.07 -229.57)"/><path class="cls-30" d="M324.53,530.39c-4.18,5.72-10.15,8.38-16.82,9.83-1.32.29-2.65.51-4,.76,0-.61,0-1.23-.12-1.83-.54-3.24.55-4.47,4.05-4.24C313.71,535.31,319.21,533,324.53,530.39Z" transform="translate(-106.07 -229.57)"/><path class="cls-31" d="M416.64,463.13c10.51.12,20.24,1.27,29.34,5.5,3,1.39,7,2.76,7,6.48s-4,5.15-7,6.5c-11.66,5.25-24,6.18-36.57,5.13-7.73-.64-15.3-2.15-22.22-5.86-2.46-1.32-5.7-2.63-5.58-5.91.1-3,3.14-4.33,5.54-5.57C396.6,464.53,406.82,463.34,416.64,463.13Z" transform="translate(-106.07 -229.57)"/><path d="M315.52,419.42s-.27,1.93.07,2.1a29.94,29.94,0,0,0,9.31-.39C329.09,420.27,315.52,419.42,315.52,419.42Z" transform="translate(-106.07 -229.57)"/></svg>