<svg id="Camada_1" data-name="Camada 1" xmlns="http://www.w3.org/2000/svg" viewBox="0 0 258.17 328.42"><defs><style>.cls-1{fill:#083863;}.cls-2{fill:#18456d;}.cls-3{fill:#d3e0f3;}.cls-4{fill:#00cdb3;}</style></defs><title>clipboard</title><path class="cls-1" d="M304.31,256c1.51,1.05,3.36,1,5,1.51,10.09,3.29,17.5,9.66,21.8,19.37,1,2.18,2.09,2.73,4.27,2.69,6.2-.13,12.4-.07,18.6,0a17,17,0,0,1,5.69.7c3.08,1.09,4.73,3.1,4.7,6.45,0,3.2.15,6.42-.06,9.61-.16,2.36.72,2.79,2.88,2.76,8.33-.13,16.67-.07,25-.05,20.42.05,34.62,14.29,34.62,34.69,0,72.46-.36,144.92.22,217.38.17,21.88-17.37,33.43-33.45,33.35-26.4-.14-52.8,0-79.2,0q-55.95,0-111.89,0c-11.19,0-20.68-4-27.77-12.81-4.22-5.28-5.87-11.44-5.86-18.21q.1-52.57,0-105.16,0-57.56,0-115.11c0-19.53,14.33-33.94,33.94-34.07,8.54-.06,17.1-.13,25.64.05,2.52.06,3.09-.73,2.92-3-.2-2.77-.05-5.56,0-8.34,0-5.4,2.2-7.87,7.69-8,7-.22,14.1-.16,21.15-.09a3.06,3.06,0,0,0,3.36-2.11c5.36-11.72,14.38-18.79,27.16-20.94.26,0,.48-.34.72-.51h1.92a22.07,22.07,0,0,0,8.34,0Z" transform="translate(-168.9 -255.95)"/><path class="cls-2" d="M301.74,256a11.43,11.43,0,0,1-8.34,0Z" transform="translate(-168.9 -255.95)"/><path class="cls-3" d="M411.31,442.9V551c0,11.31-5.82,17.33-17.16,17.77-.53,0-1.07,0-1.6,0H203.36c-4.58,0-8.92-.78-12.78-3.41a13.06,13.06,0,0,1-6.09-11c-.05-1.92,0-3.85,0-5.77V333.69c0-11.61,7.05-18.93,18.59-19.09,8.55-.12,17.1,0,25.65-.07,2.1,0,2.77.59,2.71,2.72-.14,5.12-.08,10.26,0,15.39.05,6.12,3.2,9.29,9.29,9.29q57.07,0,114.16,0c6.17,0,9.51-3.35,9.55-9.48,0-5.13.09-10.27,0-15.39-.05-2,.66-2.54,2.58-2.52,8.65.08,17.31-.08,26,.07,11.35.2,18.4,7.56,18.4,18.95Q411.32,388.24,411.31,442.9Z" transform="translate(-168.9 -255.95)"/><path class="cls-4" d="M297.69,326.42c-15.6,0-31.19-.09-46.79.08-3.18,0-3.89-.93-3.82-3.94.21-8.22.15-16.45,0-24.68,0-2.27.66-2.91,2.89-2.85,5.45.14,10.9.05,16.34,0,5.87,0,8.28-1.87,9.8-7.54,2.7-10.09,11.45-17,21.48-16.93,9.43,0,18.09,6.81,20.69,16.18,1.85,6.64,4,8.29,10.9,8.29,5.45,0,10.9.1,16.34,0,2.27-.06,3.19.4,3.14,2.94-.16,8.55-.14,17.09,0,25.64,0,2.28-.72,2.87-2.93,2.86C329.73,326.38,313.71,326.42,297.69,326.42Z" transform="translate(-168.9 -255.95)"/><path class="cls-1" d="M335.1,384.94c14.62,0,29.25,0,43.88,0,5.23,0,8.7,3.15,8.74,7.74a7.52,7.52,0,0,1-6.33,7.68,19.5,19.5,0,0,1-3.5.25q-42.93,0-85.86,0c-6,0-9.46-2.68-9.66-7.44-.21-5,3.23-8.23,8.84-8.25Q313.15,384.91,335.1,384.94Z" transform="translate(-168.9 -255.95)"/><path class="cls-1" d="M335.06,510c14.63,0,29.26,0,43.89,0,5.39,0,8.87,3.3,8.77,8.05a7.5,7.5,0,0,1-6,7.32,18,18,0,0,1-3.81.36q-42.93,0-85.86,0c-6,0-9.48-2.69-9.69-7.44-.23-5,3.22-8.28,8.8-8.3,14.1,0,28.19,0,42.29,0Z" transform="translate(-168.9 -255.95)"/><path class="cls-1" d="M335,463.13c-14.74,0-29.47,0-44.21,0-4.92,0-8.21-3-8.41-7.35a7.46,7.46,0,0,1,7.22-8.12c2.13-.15,4.27-.08,6.4-.08q41.33,0,82.65,0c5.41,0,8.69,2.6,9.06,7,.41,5-3.07,8.52-8.51,8.53C364.46,463.16,349.72,463.13,335,463.13Z" transform="translate(-168.9 -255.95)"/><path class="cls-1" d="M208.1,385.32a7,7,0,0,1,4.22-6.27,7.33,7.33,0,0,1,8.59,1.37,105.55,105.55,0,0,1,8.44,8.75c2,2.39,3.19,1.91,5.15,0,7.16-7,14.48-13.9,21.78-20.79,3.09-2.92,6.38-3.4,9.63-1.59,4.73,2.64,5.86,8.4,2,12.16q-15.39,14.93-31.15,29.5c-3.19,3-7.23,2.68-10.34-.41-5.29-5.28-10.48-10.65-15.69-16A8.76,8.76,0,0,1,208.1,385.32Z" transform="translate(-168.9 -255.95)"/><path class="cls-1" d="M231.73,472.82a7,7,0,0,1-5.62-2.48c-5.15-5.27-10.33-10.51-15.41-15.84-3.44-3.62-3.47-8.74-.22-11.75s7.71-2.6,11.39,1.1c2.71,2.72,5.51,5.38,8,8.32,1.66,2,2.6,1.55,4.2,0q11-10.74,22.22-21.25c4.54-4.25,11-3,13.29,2.33a7,7,0,0,1-1.65,8.24Q252.54,456.23,237,470.81A7,7,0,0,1,231.73,472.82Z" transform="translate(-168.9 -255.95)"/><path class="cls-1" d="M208.09,510.5a7.07,7.07,0,0,1,4.21-6.36,7.32,7.32,0,0,1,8.6,1.35,122.51,122.51,0,0,1,8.68,9c1.82,2.13,2.85,1.79,4.69,0,7.23-7.1,14.62-14.05,22-21,3.45-3.25,7.34-3.52,10.69-.9,3.91,3.07,4.53,8,1,11.44q-15.42,14.93-31.16,29.51c-3.19,3-7.23,2.69-10.34-.4-5.29-5.28-10.48-10.65-15.69-16A8.74,8.74,0,0,1,208.09,510.5Z" transform="translate(-168.9 -255.95)"/></svg>