<?xml version="1.0" encoding="utf-8"?>
<!-- Generator: Adobe Illustrator 24.0.1, SVG Export Plug-In . SVG Version: 6.00 Build 0)  -->
<svg version="1.1" id="Camada_1" xmlns="http://www.w3.org/2000/svg" xmlns:xlink="http://www.w3.org/1999/xlink" x="0px" y="0px"
	 viewBox="0 0 595.3 841.9" style="enable-background:new 0 0 595.3 841.9;" xml:space="preserve">
<style type="text/css">
	.st0{fill:#19A2FE;}
	.st1{fill:#1E9AFE;}
	.st2{fill:#2198FE;}
	.st3{fill:#1B9FFE;}
	.st4{fill:#06B8FE;}
	.st5{fill:#05B9FE;}
	.st6{fill:#03BBFE;}
	.st7{fill:#4867FE;}
	.st8{fill:#04BAFE;}
	.st9{fill:#08B6FE;}
	.st10{fill:#4C63FE;}
	.st11{fill:#3381FE;}
	.st12{fill:#02BDFE;}
	.st13{fill:#4A65FE;}
	.st14{fill:#357FFE;}
	.st15{fill:#4F5EFE;}
	.st16{fill:#2F86FE;}
	.st17{fill:#3085FE;}
	.st18{fill:#2C8AFE;}
	.st19{fill:#0BB2FE;}
	.st20{fill:#377CFE;}
	.st21{fill:#525BFE;}
	.st22{fill:#0FADFE;}
	.st23{fill:#4669FE;}
	.st24{fill:#02BEFE;}
	.st25{fill:#288FFE;}
	.st26{fill:#4E61FE;}
	.st27{fill:#505EFE;}
	.st28{fill:#13A8FE;}
	.st29{fill:#446CFE;}
	.st30{fill:#0BB1FE;}
	.st31{fill:#2296FE;}
	.st32{fill:#466AFE;}
	.st33{fill:#2493FE;}
	.st34{fill:#4170FE;}
	.st35{fill:#17A4FE;}
	.st36{fill:#3B78FE;}
	.st37{fill:#2D88FE;}
	.st38{fill:#3C76FE;}
	.st39{fill:#19A1FE;}
	.st40{fill:#0AB3FE;}
	.st41{fill:#397AFE;}
	.st42{fill:#0EAFFE;}
	.st43{fill:#436EFE;}
	.st44{fill:#3E73FE;}
	.st45{fill:#4171FE;}
	.st46{fill:#367EFE;}
	.st47{fill:#2691FE;}
	.st48{fill:#288EFE;}
	.st49{fill:#4769FE;}
	.st50{fill:#3B77FE;}
	.st51{fill:#3184FE;}
	.st52{fill:#16A5FE;}
	.st53{fill:#3E74FE;}
	.st54{fill:#3F73FE;}
	.st55{fill:#0EAEFE;}
	.st56{fill:#2099FE;}
	.st57{fill:#3480FE;}
	.st58{fill:#1AA0FE;}
	.st59{fill:#0DB1FE;}
	.st60{fill:#3183FE;}
	.st61{fill:#15A6FE;}
	.st62{fill:#13A9FE;}
	.st63{fill:#10ACFE;}
	.st64{fill:#2593FE;}
	.st65{fill:#11ACFE;}
	.st66{fill:#377DFE;}
	.st67{fill:#11ABFE;}
	.st68{fill:#2B8CFE;}
	.st69{fill:#1C9DFE;}
	.st70{fill:#FEFEFE;}
</style>
<path class="st0" d="M129.7,367.9c-0.1,0.1-0.1,0.2-0.2,0.3c-0.1,0.2-0.3,0.4-0.4,0.5v0c-0.7,0.7-1.7,1.1-2.7,1.1
	c-6,0.3-11.9,0.3-17.9,0c-0.9,0-1.7-0.4-2.3-1v-1.5c1.6-2.5,0.8-5.7,2.2-8.3c0.5-0.4,1-0.8,1.6-0.8c6.8-0.4,13.7-0.9,20.5,0.3
	c0.2,0.2,0.3,0.4,0.4,0.6c0,0,0,0.1,0.1,0.1C132.7,362.3,130.5,365.1,129.7,367.9z"/>
<path class="st1" d="M129.5,384.8c0,0.3-0.1,0.5-0.2,0.7c-0.1,0.3-0.2,0.6-0.4,0.9c-0.5,0.8-1.3,1.3-2.3,1.3
	c-6.3,0.4-12.6,0.5-19-0.1c-0.6-0.1-1.1-0.5-1.6-0.9v-12c5.5,1.8,11.3,0.9,16.9,1.1c1.8,0.1,3.8-0.3,5.4,0.8c0,0,0.1,0,0.1,0.1
	c0.1,0,0.1,0.1,0.2,0.2C130.1,379.5,129.7,382.2,129.5,384.8z"/>
<path class="st2" d="M130.7,395.2c0,0.2-0.1,0.4-0.2,0.6c0,0.2-0.1,0.3-0.2,0.5c-7.4,0.9-14.8,1.7-22.2-0.5
	c-1.4-2.3-0.4-5.3-2.1-7.5v-1.5c6.5,0,12.9,0,19.3,0c1.8,0,3.3-0.1,3.2-2.4c0.3,0.4,0.5,0.7,0.8,1.1
	C131.2,388.6,131.5,391.8,130.7,395.2z"/>
<path class="st3" d="M128.5,376.9c0,0.1-0.1,0.2-0.1,0.3c-6.1,0-12.2-0.1-18.3,0.1c-2,0.1-3.2-0.7-4.1-2.3v-6c6.4,0,12.8,0,19.2,0
	c1.6,0,2.9-0.1,3.9-1.5c0.1,0.3,0.2,0.6,0.3,0.8C130.5,371.2,129.9,374.1,128.5,376.9z"/>
<path class="st4" d="M252.1,308c-0.2,2.8-2.5,2.8-4.3,2.9c-4.3,0.3-8.7,0.1-13,0.1c-8.2,0-16.4,0.1-24.6-0.1c-1,0-2.1,0.1-3.1,0.3
	c-0.7,0.1-1.3,0.3-2,0.4c0,0,0,0-0.1,0c-6,0.3-12.1,0.2-18.1,0.1c-0.1,0-0.2,0-0.3,0c-1-0.1-1.9-0.2-2.9-0.3
	c-12.6-1-25.2-0.1-37.8-0.4c-1.6,0-3.3,0.1-4.8-0.2c-1.1-0.3-2.7-0.4-2-2.3c2.5-2.4,5.2-4.4,8.2-6c12.3,0.3,24.6,0.1,36.9,0.2
	c19.8,0.1,39.5-0.3,59.3,0.2c0.4,0,0.7-0.2,1-0.4C247.6,303.5,249.3,306.4,252.1,308z"/>
<path class="st5" d="M445.7,301c3.1,1.4,5.8,3.6,8.3,5.9c0.7,1.9-0.8,2-2,2.3c-1.5,0.4-3,0.2-4.5,0.2c-11.7,0-23.4,0-35.1,0
	c-21,0-42,0-62.9-0.1c-2,0-4.7,1.1-5.6-2.1c2.7-2.6,5.8-4.6,9.1-6.4c28.9,0.3,57.8,0.1,86.8,0.1C441.8,301.1,443.8,301.5,445.7,301z
	"/>
<path class="st6" d="M445.7,301c-1.4,1.3-3.1,1.3-4.9,1.3c-27.6,0-55.3,0-82.9,0c-1.8,0-3.5,0-4.9-1.3c5.2-3.2,10.4-6.2,16.4-7.6
	c11.5,0.6,23.1,0.2,34.6,0.2c8.4,0,16.8,0.3,25.2-0.2c5.7,0.8,10.2,4.4,15.1,7C444.8,300.7,445.3,300.8,445.7,301z"/>
<path class="st7" d="M230.3,511.6c-2.7,3.6-6,6.5-9.6,9.2c-1,0.5-2.1,0.6-3.3,0.5c-15.2-0.3-30.5,0-45.7-0.1c-2,0-4.3,0.5-6-1.3
	c2-4,3.9-8,5.9-12c1.1-0.7,2.3-1.1,3.5-1c6.3,0.3,12.7-0.8,18.9,0.7c0.4,0.5,0.6,0.8,0.8,1.1v0c0.1,0.1,0.2,0.3,0.2,0.4
	c0.2,0.5,0.3,1,0.3,2.3c1.7-0.9,3.1-2.4,5-2.5c0.1,0,0.2,0,0.3,0c0.3,0,0.6,0.1,0.9,0.1c8,0.4,15.9,0,23.9,0.2
	C227.4,509.3,229.7,508.8,230.3,511.6z"/>
<path class="st8" d="M244.5,302.4c-0.4,1.8-1.9,1.3-3,1.4c-30.4,0-60.8,0-91.2,0c-1.1,0-2.6,0.5-3-1.3c3.9-2.9,8.2-5.1,12.7-6.8
	c1.6,0.7,3.2,0.2,4.8,0.2c21.9,0.2,43.8-0.3,65.6,0.2c0.5,0,1-0.2,1.4-0.5C236.5,296.9,240.4,299.9,244.5,302.4z"/>
<path class="st9" d="M462.3,314.2c-0.4,3.1-2.9,2.6-4.8,2.6c-8.1,0.2-16.3,0-24.5,0.1c-1.2,0-2.5-0.1-3.7,0.3h0c-0.1,0-0.3,0-0.4,0
	c-1.3,0.1-2.5-0.2-3.6-0.7c-6.7-2.9-13.7-4.2-20.8-5.3c-3.5-0.7-7-0.7-10.4,0c-4.8,0.5-9.5,1.9-14.3,2.5c-0.2,0-0.3,0-0.5,0
	c-0.4,0-0.8-0.1-1.2-0.1c-11.4-0.8-22.8-0.4-34.2-0.6c-1.7,0-3.8,0.5-4.5-2c1.2-1.6,2.6-2.9,4.5-3.8c1,1.4,2.5,0.9,3.8,0.9
	c8.7,0,17.4-0.1,26.2,0c7.7,0.1,15.4,0.7,23.1,0.5c18.2-0.5,36.3-0.3,54.5-0.5c1.1,0,2.3,0.2,2.6-1.4
	C457.5,308.5,459.8,311.5,462.3,314.2z"/>
<path class="st10" d="M165.7,520c16.3,0,32.5,0.1,48.8,0c2.1,0,4.2,0.2,6.2,0.8c-3.5,3.2-7,6.5-11.1,9c-1.8,0.8-3.8,1.1-5.8,1.1
	c-12.1,0-24.3,0-36.4,0c-2.4,0-5,0.2-6.9-2C162.2,526,164,523,165.7,520z"/>
<path class="st11" d="M408.3,450.5c-1.4,1.3-3.2,1.1-5,1.1c-17.4,0.2-34.7-0.3-52.1,0.2c-1,0-2-0.1-2.9-0.6c-4.2-2.4-7.8-5.6-11.2-9
	c1.5-1.5,3.5-1.2,5.3-1.2c8.1,0,16.2,0,24.3,0c2.3,0,4.6,0,6.8-0.7c0.2-0.1,0.4-0.1,0.6-0.2c0.1,0,0.2,0,0.3-0.1
	c1.4-0.3,2.8,0,4.1,0.4c7,2.5,14.3,3.2,21.7,3.7c4.7,0.3,7.2,2.1,8,5.5c0,0.1,0,0.2,0.1,0.3C408.3,450.2,408.3,450.3,408.3,450.5z"
	/>
<path class="st12" d="M231.8,295.6c-0.3,1.8-1.8,1.4-2.9,1.4c-22,0-44,0-66,0c-1.2,0-2.6,0.4-2.9-1.4c21.1-9.5,42.6-10,64.5-3
	C226.9,293.4,229.3,294.6,231.8,295.6z"/>
<path class="st11" d="M204.8,450.5c-1.3,1.2-3,1.1-4.6,1.1c-17.5,0.2-35-0.3-52.4,0.2c-1,0-2-0.1-2.9-0.6c-3.8-2.3-7.3-5-10.3-8.3
	c1.8-2,4.2-1.8,6.6-1.8c8.9-0.1,17.8,0,26.8,0c1.2,0,2.5,0.1,3.6-0.5c0.1,0,0.2-0.1,0.3-0.1c0,0,0.1,0,0.1-0.1
	c1.1-0.4,2.2-0.2,3.3,0.2c7.1,2.5,14.5,3.1,22,3.7c4.4,0.3,6.8,2.1,7.5,5.4c0,0.1,0,0.3,0.1,0.4
	C204.7,450.2,204.8,450.4,204.8,450.5z"/>
<path class="st13" d="M368,522.3c1.3-2.5,2.6-5,3.9-7.5c1.7-1.3,3.7-1.1,5.7-1.2c6.8-0.2,13.6,0.5,20.3-0.5c9.6,0.7,19.3,0.3,29,0.6
	c1.2,0,2.9-0.2,3.2,1.8c-2.9,3.1-6,6-9.4,8.4c-2.5,0.6-4.9,0.3-7.4,0.3c-12.9,0-25.8,0-38.7,0C372.2,524.2,369.7,524.6,368,522.3z"
	/>
<path class="st10" d="M368,522.3c1.9,0.6,3.8,0.8,5.9,0.8c13.9,0,27.8,0,41.7,0c1.7,0,3.5-0.1,5,0.9c-3.9,3.8-8.2,7-12.8,9.9
	c-13.2-1.3-26.5-0.3-39.7-0.6c-2.1-0.1-4.3,0.4-6-1.2C364,528.8,366,525.5,368,522.3z"/>
<path class="st14" d="M207,457.1c-0.6,1.3-1.9,2-4,2c-14.9,0-29.7,0.2-44.6-0.1c0,0-0.1,0-0.1,0c-0.2,0-0.4-0.2-0.5-0.3
	c-4.7-1.8-8.9-4.3-12.9-7.4c4.5-1.2,9.1-0.8,13.7-0.8c14.1,0,28.2,0,42.2,0c1.3,0,2.6,0.3,3.9-0.4c0,0,0.1,0,0.1-0.1
	c2.5,0.2,2.3,2,2.5,3.7c0,0.1,0,0.3,0,0.4C207.5,455.3,207.3,456.3,207,457.1z"/>
<path class="st14" d="M410.6,456.8c-0.5,1.5-1.8,2.3-4.1,2.3c-15.1-0.1-30.2,0.6-45.3-0.4c-4.7-1.8-8.9-4.3-12.9-7.4
	c4.5-1.2,9.1-0.8,13.7-0.8c14.1,0,28.2,0,42.2,0c1.3,0,2.7,0.3,3.9-0.4c0,0,0.1,0,0.1-0.1c2.6,0.2,2.3,2.1,2.5,3.8
	c0,0.1,0,0.2,0,0.3C411,455.1,410.9,456,410.6,456.8z"/>
<path class="st15" d="M362,532c13.5,0,26.9,0,40.4,0c2,0,4.1-0.2,5.4,1.8c-4.3,3.3-8.7,6.4-13.7,8.5c-11.3-0.3-22.6-0.1-33.9-0.2
	c-1.3,0-2.5-0.2-3.4-1.1C357.4,537.3,360,534.8,362,532z"/>
<path class="st16" d="M374.7,440.8c-1.8,1.3-3.8,1.4-6,1.4c-10.5,0-21,0-31.5,0c-3.7-3.3-7-7-9.8-11.2c1.5-1.5,3.4-1.1,5.3-1.2
	c7.4-0.3,14.8,0.5,22.2-0.5c0.3-0.1,0.6-0.2,0.9-0.2c0.1,0,0.2,0,0.3,0c1,0,1.8,0.4,2.7,1c4.9,3.3,9.6,7,15.1,9.5
	c0.2,0.1,0.4,0.3,0.5,0.5C374.5,440.3,374.6,440.5,374.7,440.8z"/>
<path class="st17" d="M169.6,442.1c-8.3,0.1-16.7,0.1-25,0.1c-3.3,0-6.7-0.2-10,0.7c-3.9-3.2-7.2-7-10-11.1c1.4-1.5,3.2-1.2,4.9-1.2
	c6.2-0.1,12.4,0,18.7-0.1c1.4,0,2.7-0.2,4-0.6c0.2-0.1,0.3-0.1,0.5-0.2c0.1,0,0.2,0,0.3,0c0.9-0.2,1.7,0,2.4,0.5
	c5,3.7,10.6,6.5,15.9,9.7c0.2,0.1,0.4,0.3,0.5,0.5c0.1,0.1,0.1,0.2,0.2,0.3C172.5,443.5,170.3,442.1,169.6,442.1z"/>
<path class="st18" d="M153.2,430.3c-1.3,1.5-3,1.5-4.8,1.5c-7.9,0-15.9,0-23.9,0.1c-3.2-3.6-5.7-7.7-7.8-12.1
	c1.5-1.9,3.7-1.8,5.8-1.8c6.1-0.1,12.3-0.1,18.4,0c0.2,0,0.4,0,0.6-0.1c0.1,0,0.2,0,0.3,0c0.5,0,0.9,0.2,1.2,0.5
	c3.5,3.6,7.4,6.9,9.9,11.4C153,429.9,153.1,430.1,153.2,430.3z"/>
<path class="st19" d="M266.9,330.3c-4,0.3-7.9,0.1-11.9,0.1c-3.3,0-6.7,0-10,0.3c-0.3,0-0.5,0-0.7,0c-0.1,0-0.2,0-0.3,0
	c-0.7-0.1-1.4-0.5-2-1c-3.8-3.2-7.6-6.2-11.8-8.9c-0.8-0.5-1.7-1.1-1.5-2v0c0,0,0-0.1,0.1-0.1c0.1-0.2,0.3-0.5,0.5-0.8
	c1.8-1.3,3.8-1,5.7-1c8.7-0.1,17.3,0.3,26-0.3c4.1,2.7,6.1,7.2,9.1,11C270.7,330.3,268.4,330.2,266.9,330.3z"/>
<path class="st20" d="M207.9,455.1c-0.3,4.3,0.2,8.8-2.3,12.7c0,0,0,0.1-0.1,0.1h0c-6.7,0.3-13.3,0.1-20,0c-0.9,0-1.7-0.4-2.3-1
	c-7.6-1.9-15.4-3.3-22.5-6.7c-0.8-0.4-1.6-0.8-2.4-1.2c-0.2-0.1-0.4-0.2-0.5-0.3c10.4-1.6,20.8-0.4,31.3-0.7
	c4.2-0.1,8.5-0.3,12.7,0.1c3.8,0.3,5.3-1,4.8-4.7c0,0,0,0,0-0.1c0.4,0,0.7,0.2,0.9,0.4C207.7,454,207.9,454.6,207.9,455.1z"/>
<path class="st9" d="M261,316.5c-1.3,1.5-3,1.5-4.8,1.5c-7.7,0-15.4,0-23,0c-1.5,0-3-0.1-4.3,0.7c-0.1,0-0.1,0.1-0.2,0.1v0
	c-1.1,0.5-2.1-0.1-3-0.6c-5.9-2.8-12-4.8-18.4-6c-0.8-0.1-1.6-0.2-2.2-0.8c-0.2-0.2-0.4-0.5-0.5-0.9c2.1-0.7,4.3-0.9,6.6-0.9
	c12,0,24,0,36,0c1.9,0,3.8,0.1,4.9-1.8C255.5,310.4,258.6,313.1,261,316.5z"/>
<path class="st9" d="M187.1,310.6c-0.1,0.5-0.3,0.8-0.6,1c-0.3,0.3-0.8,0.4-1.3,0.5c-7.3,1.3-14.3,3.7-21,7
	c-0.6,0.3-1.2,0.4-1.8,0.5c-0.1,0-0.2,0-0.4,0c-0.1,0-0.2,0-0.3,0c-8.3-0.8-16.6-0.2-24.9-0.4c-1.5,0-3,0.1-4.4-0.3
	c-1.3-0.3-2.4-0.9-1.7-2.6c2.4-3,5.2-5.6,8.3-7.9c0.5,2,2.2,1.3,3.4,1.3c9.7,0.1,19.4,0,29.1,0C176.8,309.8,182,309.5,187.1,310.6z"
	/>
<path class="st21" d="M356.8,541c10.2,0,20.3,0,30.5,0c2.4,0,4.6,0.3,6.8,1.4c-6.9,4.8-14.5,8.1-22.1,11.3
	c-4.1,1.7-8.1,1.2-11.6-1.7C357,549.1,355.7,545.4,356.8,541z"/>
<path class="st18" d="M356.1,429.1c0,0.1,0,0.2,0,0.3c-0.8,2-2.6,1.6-4.1,1.6c-8.1,0-16.3,0-24.4,0c-3.1-3.6-5.6-7.6-7.5-12
	c1.5-1.5,3.4-1.1,5.2-1.2c6.2-0.2,12.3,0.4,18.5-0.4c0.3-0.2,0.7-0.2,1-0.3c0,0,0,0,0.1,0c0.6,0,1.2,0.2,1.6,0.7
	c2.9,3.4,6.3,6.3,9.2,9.7C356,428.1,356.2,428.6,356.1,429.1z"/>
<path class="st22" d="M277.6,341.1c-1.5,1.5-3.4,1.2-5.2,1.2c-5.9,0.1-11.8-0.2-17.7,0.3c-0.4,0-0.8,0-1.3-0.1c-0.1,0-0.1,0-0.2,0
	c-0.3-0.1-0.5-0.2-0.7-0.4c-3-3.7-6.6-7-8.7-11.5c-0.1-0.2-0.2-0.4-0.3-0.6c7.6-1.6,15.3-0.4,22.9-0.8c1.4-0.1,3.1,0.5,3.5-1.7
	C273.3,331.6,275.8,336.2,277.6,341.1z"/>
<path class="st23" d="M439.3,506c-2.7,3.5-5.9,6.7-9.3,9.5c-0.6-0.8-1.5-0.7-2.4-0.7c-9.9-0.1-19.9,0.5-29.8-0.8
	c-0.2-0.3-0.3-0.5-0.2-0.8c0,0,0,0,0-0.1c0-0.1,0-0.1,0-0.2c0.1-0.1,0.3-0.3,0.4-0.4c3.2-3.2,6.9-5.7,10.4-8.5
	c0.6-0.5,1.3-0.8,2-0.7c0,0,0.1,0,0.1,0c0.3,0,0.7,0.1,1,0.3c7.3,0.7,14.7,0.1,22,0.4C435.8,504,438.1,503.6,439.3,506z"/>
<path class="st24" d="M429.3,293.4c-1.3,1.4-3.1,1.4-4.8,1.4c-16.7,0-33.5,0-50.2,0c-1.8,0-3.5,0-4.8-1.4c7.4-3.4,15.4-4.7,23.4-5.2
	C405.4,287.3,417.6,288.6,429.3,293.4z"/>
<path class="st25" d="M142,418.5c-3.6,1.2-7.3,0.3-10.9,0.5c-4.8,0.2-9.6-0.5-14.3,0.8c-2.3-3.8-4.1-7.8-5.3-12
	c1-2.1,3.1-1.8,4.8-1.8c5.8-0.1,11.6,0,17.3,0c0.3,0,0.6,0,0.9,0c0,0,0,0,0,0c0.7,0.1,1.2,0.5,1.6,1.2c2.1,3.5,4.3,6.9,5.7,10.8
	C141.8,418.1,141.9,418.3,142,418.5z"/>
<path class="st26" d="M160.5,529c8.6,1.6,17.3,0.6,26,0.8c7.7,0.2,15.4,0.1,23.1,0.1c-3.1,2.8-6.5,5-10,7.1
	c-12.4-0.2-24.7,0-37.1-0.1c-2.2,0-4.6,0.4-6.1-1.9C157.8,533,159.1,531,160.5,529z"/>
<path class="st19" d="M163,319.1c-0.2,0.2-0.4,0.3-0.6,0.5c-3.8,3.3-7.4,6.7-12.2,8.5c-0.1,0-0.1,0-0.2,0.1c-0.3,0.1-0.7,0.2-1,0.3
	c-7.3-0.6-14.6,0-21.9-0.4c-1.6-0.1-4.4,0.8-3.9-2.7c2-3.5,4.5-6.4,7.5-9c0.4,2.3,2.1,1.7,3.5,1.7c6.2,0,12.5,0,18.7,0
	c3.3,0,6.7-0.1,10,0.7C162.9,318.9,163,319,163,319.1z"/>
<path class="st21" d="M187.7,544.1c-6.3,4-13,7.2-20,9.7c-7.8,2.9-15.1-3-14.6-11.4c1.2-1,2.7-1.2,4.2-1.2c8.6,0,17.1-0.1,25.7,0.1
	C184.9,541.4,187.5,541,187.7,544.1z"/>
<path class="st27" d="M187.7,544.1c-0.8-2-2.5-1.7-4.1-1.7c-10.2,0-20.3,0-30.5,0c-0.2-3.1,1.4-5.3,3.3-7.5c1.8,0.6,3.6,0.8,5.5,0.8
	c11.4,0,22.8,0,34.3,0c1.2,0,2.9-0.7,3.5,1.2C195.7,539.5,192,542.3,187.7,544.1z"/>
<path class="st28" d="M277.8,354.2c-6,0.2-12.1,0.5-18.1-0.2c-0.3-0.2-0.6-0.4-0.9-0.7c0,0-0.1,0-0.1-0.1c-3.3-2.8-4.7-6.6-5.5-10.8
	c0-0.2-0.1-0.3-0.1-0.5c6.2-1.7,12.6-0.5,18.9-0.8c1.9-0.1,3.7,0,5.6-0.1c1.7,3,2.9,6.2,3.6,9.6
	C281.9,353.6,279.8,354.1,277.8,354.2z"/>
<path class="st25" d="M344.8,417.4c-0.4,2.3-2.2,1.6-3.6,1.6c-7.1,0.1-14.2,0-21.3,0.1c-2.3-3.5-3.8-7.3-5-11.3
	c0.9-1,2.2-1.1,3.4-1.1c6.4,0,12.9-0.3,19.3,0.2c0.4,0.2,0.8,0.4,1.1,0.6c0,0,0.1,0,0.1,0.1c3.4,2.2,4.8,5.9,5.9,9.7
	C344.8,417.3,344.8,417.4,344.8,417.4z"/>
<path class="st29" d="M195.1,508.8c-0.1,0-0.2,0-0.3-0.1v0c-5.6-1.4-11.3-0.4-17-0.7c-2.1-0.1-4.2-0.1-6.3-0.1c1.6-4,3.2-8,4.8-11.9
	c7.5-0.5,15-0.7,22.6,0.2c0.1,0.1,0.3,0.1,0.3,0.2c0,0.1,0.1,0.2,0.1,0.3c0,0,0,0,0,0.1C200.2,499.9,197.7,507,195.1,508.8z"/>
<path class="st30" d="M366.1,319.9c-4.2,2.6-7.6,6.6-12.4,8.4c-0.1,0-0.2,0.1-0.4,0.1c-0.2,0.1-0.4,0.1-0.5,0.2
	c-7.4-0.8-14.8-0.2-22.2-0.4c-1.7-0.1-3.8,0.6-4.6-1.9c2.1-3.4,4.5-6.5,7.4-9.1c8.8,1,17.7,0.3,26.5,0.5c1.9,0,3.7-0.2,5.6,0.4
	c0.4,0.2,0.8,0.4,1,0.7c0,0,0,0,0,0C366.7,319.1,366.7,319.5,366.1,319.9z"/>
<path class="st20" d="M411.5,457.4c-0.1,1.9-0.5,3.7-1.2,5.5c-0.1,0.2-0.2,0.4-0.3,0.5c-0.1,0.2-0.3,0.4-0.5,0.5
	c-0.8,0.7-1.8,1.1-2.9,1.1c-9.4,0.1-18.9,0.5-28.3-0.3c-6-1-11.7-3.1-17.1-6c1.9-0.6,3.9-0.8,5.9-0.8c12.7,0,25.4-0.1,38.1,0.1
	c3.8,0.1,5.3-1,4.7-4.8c0.4,0.1,0.7,0.3,0.9,0.5C411.9,454.7,411.6,456.1,411.5,457.4z"/>
<path class="st31" d="M284,401.1c-1,1-2.2,1.1-3.5,1.1c-4.7,0.1-9.4,0.1-14.2,0c-2.2,0-3.8-0.7-4.5-2.3c-0.2-0.5-0.4-1-0.5-1.7
	c0-0.2,0-0.5,0-0.7c0.3-3.2-1.4-6.8,1.7-9.5h0.1c6.1-0.2,12.3-0.1,18.5,0c1.2,0,2.5,0.1,3.4,1.1C285.2,393.1,284.8,397.1,284,401.1z
	"/>
<path class="st32" d="M238.6,502.8c-2.5,3.2-5,6.4-8.3,8.8c-0.9-1.6-2.5-1.3-4-1.3c-7.2,0-14.3,0-21.5,0c-1.6,0-3.2,0-4.7-0.9
	c0.1-0.2,0.2-0.4,0.3-0.6c2.1-3.6,5-6.3,8.9-7.6c0,0,0.1,0,0.1,0c0.3-0.1,0.6-0.2,1-0.3c7.1,0,14.1-0.1,21.2,0
	C234,501,236.6,500.9,238.6,502.8z"/>
<path class="st33" d="M134.6,406.1c-1,1.4-2.4,0.9-3.7,0.9c-5.2,0-10.3,0-15.5,0c-1.4,0-2.7-0.1-3.9,0.7c-1.7-3.8-2.8-7.8-3.3-11.9
	c7.4,0,14.9,0,22.3,0h0.3c3,2.7,3.2,6.5,3.8,10.1C134.5,406,134.6,406,134.6,406.1z"/>
<path class="st34" d="M453.3,488.6c-2.2,3.5-4.6,6.9-7.5,9.8c-7.1-0.9-14.3-0.2-21.5-0.5c-1.8,0-3.7,0.3-5.4-0.9
	c-0.3-0.3-0.4-0.7-0.5-1c0,0,0-0.1,0-0.1c-0.1-0.7,0.2-1.4,0.6-1.9c2-2.7,4-5.5,7.2-6.8c0.1,0,0.2-0.1,0.3-0.1
	c0.2-0.1,0.4-0.1,0.6-0.2c6.9-0.4,13.8-0.2,20.7-0.1C449.8,486.8,451.8,487,453.3,488.6z"/>
<path class="st35" d="M485.9,365.3c-6.5,0.3-13.1,0.8-19.6-0.3c-0.3,0-0.6-0.3-0.8-0.4c-0.1,0-0.1-0.1-0.1-0.1
	c-0.1-0.1-0.1-0.2-0.2-0.2c-2.2-2.7-2.4-6.2-3.4-9.4c-0.2-0.6-0.1-1.3,0.3-1.8c0,0,0-0.1,0.1-0.1c0.1-0.2,0.3-0.3,0.5-0.4
	c7.6-0.7,15.2-1.6,22.8,0.5c1.4,3.3,2.2,6.7,2.3,10.3C488,364.9,486.8,365.2,485.9,365.3z"/>
<path class="st9" d="M380.2,312.9c0,0.3-0.2,0.7-0.3,0.9c-0.2,0.2-0.4,0.4-0.7,0.5c-4.3,1.2-7.9,4.3-12.6,4.5h-0.1
	c-9.3,0-18.6,0-27.9,0c-1.9,0-3.8,0.1-5-1.7c1.7-2.3,3.7-4.3,6-6c1,1.4,2.5,0.9,3.8,0.9c6.4,0,12.7,0.2,19.1,0
	C368.3,311.8,374.2,312.6,380.2,312.9z"/>
<path class="st29" d="M445.8,498.4c-1.8,2.8-4,5.2-6.5,7.5c-1.4-0.9-3-0.9-4.7-0.9c-7,0-13.9,0-20.9,0c-1.3,0-2.9,0.5-3.2-1.6
	c0,0,0-0.1,0-0.2c1.3-3.9,4.5-5.6,7.8-7.4c0.1,0,0.2-0.1,0.3-0.2c0.9,1.5,2.4,1,3.7,1c6.7,0,13.5,0,20.2,0
	C443.9,496.9,445.5,496.3,445.8,498.4z"/>
<path class="st36" d="M204.2,478C204.1,478,204.1,478,204.2,478c-0.1,0.1-0.2,0.2-0.3,0.2c-1.1,0.9-2.5,1-3.9,1
	c-4.9,0.1-9.8,0.2-14.8,0c-1.4-0.1-3.4,0.4-3.7-2v0c0.5-3.4,1.1-6.9,1.6-10.3c5.6,0,11.2,0,16.8,0c1.9,0,3.7,0.2,5.5,0.8
	c0,0.1,0,0.1,0.1,0.2C207.1,471.5,205.8,474.8,204.2,478z"/>
<path class="st37" d="M279.5,425c-0.6,3.6-1.7,7.1-3,10.5c-0.6,1.3-1.8,1.7-3,1.8c-5.8,0.2-11.5,0.3-17.3,0c-1-0.1-1.9-0.4-2.7-1.1
	c-0.1-0.2-0.1-0.4-0.2-0.6c0-0.1,0-0.2,0-0.3c-0.5-3.6,1.4-9.6,3.8-11.5c0,0,0,0,0.1-0.1c0.1-0.1,0.2-0.1,0.2-0.2
	c1.9,1.2,4,1.2,6.1,1.3C268.9,424.8,274.2,424.2,279.5,425z"/>
<path class="st18" d="M484.5,419c-0.7,3.8-1.5,7.6-2.9,11.2c-1.1,1-2.5,1.1-3.8,1.2c-5,0-9.9,0.1-14.9,0c-1.6,0-3.3-0.1-4.2-1.8
	c0,0,0,0,0,0V429c0-3.9,0.1-7.8,3.4-10.7c0,0,0.1-0.1,0.1-0.1c0-0.1,0.1-0.1,0.2-0.1c5.9,1.2,11.9,0.4,17.8,0.7
	C481.6,418.7,483.1,418.4,484.5,419z"/>
<path class="st38" d="M463.9,472.2c-1.7,3.5-3.6,6.8-6,9.7c-2.3,1.2-4.6,0.3-7,0.3c-4.8,0.1-9.7,0.1-14.5,0c-1.4,0-2.7,0-3.9-0.8
	c-0.3-0.3-0.5-0.6-0.6-0.9c0,0,0-0.1,0-0.2c0-0.2,0-0.4,0.1-0.6c1.5-3.5,3.6-6.6,6.4-9.2c0.2-0.2,0.4-0.2,0.7-0.2c0,0,0.1,0,0.1,0
	c0.2,0,0.4,0.1,0.6,0.1c6.3,1.1,12.6,0.3,18.8,0.5C460.5,471.1,462.4,470.7,463.9,472.2z"/>
<path class="st39" d="M332.1,371.2C332.1,371.2,332.1,371.2,332.1,371.2c-0.2,0.2-0.3,0.4-0.5,0.6c-6.3,1-12.6,0.5-19,0.3
	c-1.3,0-3-0.4-2.5-2.4c0-0.1,0.1-0.2,0.1-0.4c-0.1-3.5,0.3-7,1.5-10.4c6.3,0.9,12.5,0.4,18.8,0.4c1.2,0,2.5-0.3,3.7,0.2
	c0,0,0,0.1,0,0.1C335.1,363.9,334.8,367.8,332.1,371.2z"/>
<path class="st40" d="M469.1,321.5c-0.3,2.6-2.5,2-4,2.1c-4.7,0.2-9.4,0.1-14.1,0.1c-3.4,0-6.7,0.2-10,0.5c-0.2,0-0.4-0.1-0.6-0.2
	c-0.2,0-0.4-0.1-0.5-0.2c-4.2-1.2-7.8-3.5-10.9-6.7c-0.2-0.2-0.4-0.4-0.6-0.6c1.5-0.9,3.1-0.9,4.7-0.9c8.3,0,16.7,0,25,0
	c1.6,0,3.3,0.4,4.2-1.5C465.4,315.8,466.8,319.1,469.1,321.5z"/>
<path class="st1" d="M333,389.9C333,389.9,333,389.9,333,389.9c0,0.1-0.1,0.2-0.1,0.2c-2.6,1.5-5.5,0.8-8.3,0.9
	c-3.3,0.1-6.6,0.1-10,0c-1.6-0.1-3.3-0.1-4.1-1.9c-0.6-3.5-1.1-6.9-0.7-10.5c7.4-0.5,14.8-1.2,22.2,0.4l0.1,0c0,0,0,0,0,0
	C333.5,382.6,334.7,386.1,333,389.9z"/>
<path class="st41" d="M266,461.7c-1.3,3.2-2.8,6.2-4.8,9.1c-0.4,0.3-0.8,0.6-1.3,0.7c-7.7,0.4-15.3,1.3-22.9-0.7
	c-0.4-0.2-0.8-0.5-0.9-0.8v0c0-0.1,0-0.1,0-0.2c-0.3-2.4,3-7.6,5.8-9.3c0.1-0.1,0.3-0.2,0.4-0.3c0.2-0.1,0.4-0.2,0.6-0.2
	c5.9,1.3,11.9,0.4,17.9,0.7C262.5,460.6,264.5,460.2,266,461.7z"/>
<path class="st42" d="M150.3,327.8c0,0.1-0.1,0.2-0.1,0.3c-1.7,3.5-3.8,6.5-7.5,8c0,0-0.1,0-0.1,0c-0.3,0.1-0.7,0.3-1,0.4
	c-6.5-0.3-12.9,0-19.3-0.2c-1.9-0.1-4.2,0.2-4.3-2.8c1.2-3.1,3.1-5.7,5.3-8.2c0.3,2,1.9,1.6,3.2,1.6c5.9,0,11.9,0.1,17.8,0
	C146.3,326.9,148.3,327.2,150.3,327.8z"/>
<path class="st43" d="M245.3,494.6c-1.9,3-4.2,5.8-6.8,8.2c-8.4-1.4-16.9-0.5-25.4-0.8c-1.3,0-2.8,0.5-3.8-0.7c0,0,0,0,0-0.1
	c0.5-3.6,4.5-4.4,6.1-7.2c0.5-0.8,1.3-1.3,2.2-1.3c0.1,0,0.1,0,0.2,0c0.3,0,0.5,0.1,0.8,0.2c7.1,1,14.3,0.2,21.4,0.5
	C241.9,493.5,243.8,493.1,245.3,494.6z"/>
<path class="st41" d="M468.3,463.9c-1,3-2.7,5.7-4.4,8.3c-7,0-14,0-21,0c-1.5,0-3,0.2-3.8-1.5c0-0.1,0-0.2,0.1-0.3
	c0.6-3.4,1.8-6.5,5.1-8c0,0,0,0,0,0c0.3-0.1,0.6-0.2,0.9-0.3c6.1,0.1,12.2,0,18.3,0.1C465.2,462.1,467.3,461.8,468.3,463.9z"/>
<path class="st44" d="M256.4,478.9c-1.5,3-3.4,5.8-5.5,8.3c-1.3,0.8-2.7,1.1-4.3,1.1c-5.9,0-11.9,0.1-17.8,0c-1.6,0-3.2-0.1-4.4-1.5
	c0-0.4,0-0.7,0-1.1c0,0,0-0.1,0-0.2c0.4-3.1,3.4-6.9,6.4-8.1c0.1,0,0.2-0.1,0.3-0.1c0.3-0.1,0.5-0.1,0.7-0.2
	c6.4,1.1,12.9,0.3,19.3,0.6C252.9,477.8,254.9,477.4,256.4,478.9z"/>
<path class="st42" d="M353.9,327.8c-0.1,0.2-0.1,0.3-0.2,0.5c-1.4,3.3-3.8,5.7-6.9,7.4c-0.1,0.1-0.2,0.1-0.3,0.2
	c-0.2,0.1-0.4,0.2-0.6,0.3c-6.8,0.4-13.6,0.2-20.5,0.1c-1.8,0-3.9-0.1-4-2.8c1-2.8,2.8-5.1,4.6-7.3c1.2,1.3,2.8,0.7,4.2,0.7
	C338.1,327.3,346,326.2,353.9,327.8z"/>
<path class="st45" d="M199.4,496.8L199.4,496.8c-6.4,0-12.8,0.1-19.2,0c-1.3,0-2.7,0.5-3.8-0.8c1-3.2,2-6.5,3-9.7
	c7.4-0.4,14.8-0.9,22.2,0.3c0.1,0.2,0.1,0.3,0.2,0.5c0,0.1,0.1,0.1,0.1,0.2C202.9,490.4,201.9,494.2,199.4,496.8z"/>
<path class="st31" d="M335.4,398.8c0,0.1,0,0.2-0.1,0.2c0,0.2-0.1,0.3-0.1,0.5c-0.7,0.8-1.7,1-2.7,1.1c-5.8,0.2-11.5,0.2-17.3,0
	c-1,0-1.9-0.4-2.7-1.1c-1.3-3.4-1.8-6.9-2.1-10.5c3.1,1.4,6.3,0.6,9.5,0.7c4.3,0.2,8.6,0,12.9,0l0.1,0.1
	C335.5,392.4,336,395.5,335.4,398.8z"/>
<path class="st46" d="M270,452.7c-1,3.2-2.4,6.1-4,9c-6.3,0-12.6,0-19,0c-1.8,0-3.6,0.1-4.8-1.6c0-0.1-0.1-0.1-0.2-0.2
	c0.1-3.8,1.9-7.1,4.4-8.5c0.1,0,0.2-0.1,0.3-0.1c0.3-0.1,0.5-0.2,0.8-0.3c5.7,1.2,11.4,0.4,17.1,0.6
	C266.6,451.6,268.5,451.2,270,452.7z"/>
<path class="st47" d="M487.6,400.3c-0.1,3.3-0.5,6.6-1.5,9.7c-0.5,0.4-1,0.8-1.6,0.9c-6.9,0.3-13.7,1-20.6-0.4
	c-0.1-0.1-0.1-0.3-0.2-0.5h0c-1.3-3.3-0.2-10.3,2-12.6c0,0,0,0,0,0c0-0.1,0.1-0.1,0.2-0.2c1.5,1.5,3.3,2,5.4,2c3.9-0.1,7.7,0,11.6,0
	C484.6,399.2,486.3,399.1,487.6,400.3z"/>
<path class="st48" d="M486.2,410c0.1,3.1-1,6-1.6,9c-6.2,1.6-12.5,0.3-18.7,0.7c-1.5,0.1-2.9,0-3.6-1.6c0,0,0-0.1,0-0.1
	c-1.3-3.1-0.5-5.7,1.7-8h0v0H486.2z"/>
<path class="st49" d="M400.3,507.8c-0.3,1.7-1.5,3.1-2.1,4.8c-0.1,0.2-0.1,0.4-0.2,0.6c0,0.1-0.1,0.2-0.1,0.4v0.5
	c-1.7,1.1-3.6,0.8-5.5,0.8c-6.8,0-13.7,0-20.5,0c1.4-3,2.8-6,4.2-9c1.4-1.2,3.2-1.1,4.9-1.1c6,0,12.1,0,18.1-0.1
	c0.4,0.1,0.7,0.2,0.9,0.4c0,0,0,0,0,0C401,505.7,400.5,506.8,400.3,507.8z"/>
<path class="st50" d="M261.2,470.7c-1.2,2.9-2.9,5.6-4.8,8.1c-7.1,0-14.2,0-21.3,0c-1.5,0-3.3,0.3-4.1-1.5c0,0,0-0.1-0.1-0.1
	c0.5-3.3,2-5.9,5.1-7.4v0h0C244.4,471.4,252.8,470.3,261.2,470.7z"/>
<path class="st28" d="M337.2,352c-0.1,0.1-0.1,0.1-0.2,0.2c-0.1,0.1-0.3,0.2-0.4,0.3c-6.5,0.8-13.1,0.4-19.7,0.3
	c-1.2,0-2.9,0.1-2.9-2c0.6-2.9,1.5-5.6,3-8.1c0.9-0.7,2-1,3.1-1.1c5.9-0.1,11.7-0.1,17.6,0c1.1,0,2.2,0.3,3.1,1.1
	c0.1,0.2,0.1,0.5,0.2,0.7c0,0.1,0.1,0.2,0.1,0.3v0C341.5,346.5,340,349.7,337.2,352z"/>
<path class="st1" d="M285,389.1c-6,0-12.1,0-18.1,0c-1.3,0-2.8,0.5-3.8-0.9c0-0.1-0.1-0.1-0.1-0.2c-1.6-2.9-1.3-5.9,0-8.8
	c0,0,0.1-0.1,0.1-0.1c0.1,0,0.1-0.1,0.2-0.1c0.8-0.5,1.6-0.7,2.5-0.7c6.6,0.1,13.2-0.6,19.7,0.3C285.6,382.1,285.9,385.7,285,389.1z
	"/>
<path class="st28" d="M485.5,353.1c-7.7,0-15.5,0-23.2,0c-0.1,0-0.1-0.1-0.2-0.1c-2.9-2-3.6-5.1-4.6-8.2c-0.1-0.3,0-0.6,0.2-0.8
	c0,0,0,0,0.1-0.1c0.2-0.2,0.4-0.3,0.7-0.5c3.9-0.9,7.9-0.4,11.8-0.5c3.8-0.1,7.7,0.1,11.5-0.5C483.8,345.8,484.5,349.5,485.5,353.1z
	"/>
<path class="st31" d="M487.6,400.3c-6.1,0-12.1-0.1-18.2,0.1c-2.4,0.1-3.7-0.6-3.5-3c0-0.1,0-0.2,0-0.3c-1.1-3.1-2.3-6.2,0.8-8.9
	l0,0c4.8,2.3,10,0.9,15,1.3c2.3,0.2,4.7-0.5,6.8,1.2C488.6,393.9,488.4,397.1,487.6,400.3z"/>
<path class="st51" d="M276.5,435.5c-0.9,3.6-2.1,7.1-3.7,10.4c-7.7,0.4-15.4,1.3-23.1-0.6c0-0.3-0.1-0.5-0.1-0.8c0,0,0-0.1,0-0.1
	c-0.4-3.6,0.9-6.6,3.7-9.1c0,0,0.1,0,0.1,0.1c2.9,1.4,6,0.8,8.9,0.7C267,436,271.9,437.1,276.5,435.5z"/>
<path class="st45" d="M250.8,487.2c-1.6,2.7-3.3,5.2-5.5,7.4c-8,0-15.9,0-23.9,0c-1.5,0-3.1,0.3-3.9-1.5c0-0.1,0.1-0.2,0.1-0.3
	c0.9-3.5,3.7-5.5,6.6-7.2c0,0,0,0.1,0,0.1c0.8,1.6,2.4,1.4,3.8,1.4C235.7,487.1,243.3,487.2,250.8,487.2z"/>
<path class="st29" d="M400.1,505C400.1,505,400.1,505,400.1,505c-2.4,1.4-4.9,0.7-7.3,0.8c-5.5,0.1-11.1,0-16.6,0c1.1-3,2.2-6,3.3-9
	c0.8-0.6,1.7-1,2.7-1.1c6-0.2,11.9-0.2,17.9,0c0.9,0,1.7,0.3,2.4,0.9c0.1,0.2,0.1,0.3,0.2,0.5c0,0.1,0,0.1,0.1,0.2
	C403.5,500.5,402.7,503,400.1,505z"/>
<path class="st16" d="M481.6,430.2c-0.6,3.1-1.4,6.2-2.9,9c-1.1,1-2.4,1.1-3.8,1.1c-4.8,0.1-9.6,0.1-14.4,0c-1.9,0-3.8-0.2-4.8-2.2
	c0-0.1-0.1-0.2-0.1-0.2c0-0.1,0-0.3,0-0.4c0-3.2,0.5-6.3,3-8.5c0.2-0.1,0.3-0.3,0.5-0.4c0.4,2.2,2.1,1.7,3.5,1.7
	C469,430.3,475.3,430.2,481.6,430.2z"/>
<path class="st35" d="M280.2,363.2c-6,0.1-11.9,0.4-17.9-0.2c-0.3-0.2-0.6-0.5-0.9-0.7c0,0,0,0,0,0c-2.2-2.1-3.3-5.8-2.7-9
	c0,0,0-0.1,0-0.1c6.2,0,12.4,0,18.7,0c1.8,0,3.6,0,3.8-2.5c1.2,2.7,2,5.4,2.2,8.3c0.1,0.2,0.1,0.4,0.2,0.6
	C284.4,362.3,282.8,363.2,280.2,363.2z"/>
<path class="st52" d="M334.3,359.8C334.3,359.8,334.3,359.9,334.3,359.8c-4,1.6-8.2,0.5-12.2,0.8c-2.5,0.2-5,0-7.5,0
	c-1.2,0-2.6,0.2-2.8-1.6c0.2-2.9,1-5.7,2.2-8.3c1,1.4,2.5,0.9,3.8,0.9c6.5,0,12.9,0,19.4,0c0,0.1,0,0.2,0,0.3
	C337.6,355.1,336.8,357.7,334.3,359.8z"/>
<path class="st53" d="M201.8,487.1h-0.1c-6.2,0-12.4,0-18.5,0c-1.3,0-2.8,0.5-3.8-0.8c0.5-3.1,1.1-6.1,2.2-9.1
	c0.5,0.7,1.1,0.9,1.9,0.9c6.1,0,12.3,0,18.4,0c0.7,0,1.4-0.5,2.1-0.7c0.1,0.2,0.1,0.4,0.2,0.6C205.1,481.4,204.4,484.5,201.8,487.1z
	"/>
<path class="st54" d="M405.5,488.4c0,0-0.1,0.1-0.1,0.1c-0.1,0.1-0.2,0.2-0.3,0.2c-0.9,0.6-1.9,0.9-3,0.9c-5.2,0.2-10.4,0.2-15.6,0
	c-2-0.1-4.2-0.4-3.5-3.4c0.4-3.1,1.1-6.2,2.2-9.1c2.8,1.5,5.8,1.2,8.8,1.3c4.3,0.2,8.7-0.8,13,0.8c0.1,0.1,0.1,0.2,0.2,0.3
	c0,0,0,0,0,0C408.7,482.9,407.2,485.7,405.5,488.4z"/>
<path class="st47" d="M282.6,410c-0.5,0.4-1,0.8-1.6,0.9c-6.8,0.3-13.7,0.9-20.5-0.4c-0.1-0.1-0.2-0.2-0.3-0.2c0,0,0-0.1-0.1-0.1
	c-0.5-0.5-0.8-1.2-0.6-1.9c0.6-3.3,0-7,2-10c0.3-0.4,0.5-0.8,0.9-1.2c-0.2,3,1.1,4.1,4.2,4c5.8-0.2,11.7-0.1,17.5-0.1
	C284.4,404.2,282.6,407,282.6,410z"/>
<path class="st55" d="M479,336.6L479,336.6c-0.9,1.1-2.1,1.2-3.4,1.2c-7.1,0-14.3,0.3-21.4-0.1c-0.3-0.1-0.5-0.2-0.8-0.3
	c-0.1,0-0.2-0.1-0.3-0.2c-3-1.5-5.2-4.2-5.6-6.8c0-0.2,0-0.4,0-0.6c0-0.2,0-0.4,0-0.6c1.7-1.4,3.7-1.1,5.7-1.2
	c6.8-0.3,13.6,0.6,20.3-0.6C476.1,330.1,477.2,333.6,479,336.6z"/>
<path class="st39" d="M282.6,372.1c-6.3,0.2-12.6,0.7-18.9-0.3c-0.2-0.2-0.4-0.3-0.5-0.5l-0.1-0.1c-2.5-2.5-2.3-5.7-1.6-9
	c0,0,0-0.1,0-0.1c6.3,0,12.5-0.1,18.8,0c2.4,0,3.5-0.7,3.2-3.1c0.1,0.2,0.1,0.4,0.2,0.6c1,3.2,1.4,6.4,1.3,9.8
	c0,0.1,0.1,0.2,0.1,0.3C285.6,371.8,283.9,372.1,282.6,372.1z"/>
<path class="st50" d="M407,479.6C407,479.6,407,479.6,407,479.6c-6.1,0-12.1,0-18.1,0c-1.8,0-3.5,0-3.8-2.5c0.2-2.8,0.7-5.5,1.5-8.2
	c5.4,0.9,10.9,0.4,16.3,0.5c1.8,0,3.7-0.2,5.4,0.8c0.1,0.1,0.1,0.3,0.2,0.4c0,0,0,0,0,0.1C409.9,474,409.3,477.4,407,479.6z"/>
<path class="st56" d="M488.5,390.6c-6.2,0-12.4,0-18.6,0c-1.8,0-3.3,0-3.2-2.4c0,0,0,0,0,0c-1.5-2.2-1.3-4.4-0.1-6.7
	c0.1,0,0.1-0.1,0.2-0.1c0.1,0,0.1-0.1,0.2-0.1c1.3-0.8,2.8-0.7,4.3-0.8c3.3,0,6.6-0.1,9.9,0c2.9,0.2,5.5-0.4,8-1.9
	C489.2,382.6,489.3,386.6,488.5,390.6z"/>
<path class="st57" d="M475.7,447.5c-0.7,2.9-2,5.7-3.5,8.3c-1.2,0.8-2.5,1-3.9,1c-5.2,0-10.4,0.1-15.6,0c-1.6,0-3.2-0.2-4.3-1.7
	c0-0.2,0-0.4-0.1-0.6c0-0.1,0-0.2,0-0.2c-0.2-3.2,1.2-6,3.7-7.6h0c0.3-0.2,0.5-0.3,0.8-0.5c5.9,0.3,11.9,0.1,17.8,0.2
	C472.5,446.3,474.3,446.1,475.7,447.5z"/>
<path class="st58" d="M484.6,374.5c-5.8,0-11.7,0.8-17.5-0.5c-0.1-0.2-0.2-0.3-0.4-0.5c0,0,0,0,0,0c-2-2.8-2.7-5.9-1.6-9.2
	c0.1-0.2,0.1-0.4,0.2-0.6c5.2,1.6,10.5,0.5,15.7,0.7c2.2,0.1,4.7,0.9,6.7-0.8c0.9,1.9,0.7,3.9,0.7,5.9c0,0.2,0,0.4,0.1,0.7
	c0,0,0,0,0,0.1C489,373.9,488.5,374.5,484.6,374.5z"/>
<path class="st59" d="M473.5,327.5c-0.3,2.3-2.1,1.7-3.5,1.7c-6.2,0-12.4,0-18.6,0c-1.4,0-2.7,0-4,0.6c-0.1,0-0.2,0.1-0.3,0.2
	c-3.2-1.2-5.9-3-7.4-6.1c-0.1-0.2-0.2-0.3-0.3-0.5c8.4-1.6,17-0.6,25.5-0.9c1.4,0,3,0.6,4.1-1C471.1,323.1,472.2,325.4,473.5,327.5z
	"/>
<path class="st60" d="M478.7,439.2c-0.6,2.9-1.6,5.6-3,8.2c-6.3,0-12.6,0-18.9,0c-1.6,0-3.2-0.1-4.7-0.9h0c-0.1-3.6,0.9-6.7,3.5-9.1
	c0.2-0.2,0.4-0.4,0.6-0.5c0.2,2.3,1.9,2.3,3.5,2.3C466.1,439.2,472.4,439.2,478.7,439.2z"/>
<path class="st61" d="M130.9,359.2L130.9,359.2c-7.6,0-15.1,0-22.6,0c0.2-3.8,1.4-7.3,3-10.7c5.2,1.7,10.6,1.3,15.9,1.3
	c2.1,0,4.2-0.3,6.3,0.6c0.1,0.2,0.2,0.3,0.2,0.5c0,0.1,0.1,0.2,0.1,0.4C134.5,354.1,133.4,357.1,130.9,359.2z"/>
<path class="st62" d="M138.4,343.1c-0.7,3.1-1.3,6.2-4.6,7.8c-0.1,0-0.1,0-0.2,0c-6.7-0.3-13.4,0.7-20-0.7c-1.2-0.2-2.2-0.3-2.3-1.8
	c0.3-2.1,1.1-4,2.2-5.8c0.8-0.6,1.7-1,2.7-1c7,0,14.1-0.5,21.1,0.3c0.3,0.2,0.8,0.3,1,0.6c0,0,0,0,0.1,0.1
	C138.4,342.7,138.5,342.9,138.4,343.1z"/>
<path class="st63" d="M346.9,335.2c0,0.2-0.1,0.3-0.1,0.5c-0.9,3.3-2.7,6-5.7,7.8c-0.1,0-0.1-0.1-0.2-0.1c-2.4-1.2-4.9-0.6-7.4-0.7
	c-5.5-0.1-11,0-16.6-0.1c1-3.3,2.5-6.3,4.5-9.1c0.8,2,2.6,1.7,4.2,1.7C332.7,335.2,339.8,335.2,346.9,335.2z"/>
<path class="st34" d="M402.7,497.4c-0.1,0.1-0.2,0.2-0.3,0.2c-1-1.3-2.5-0.8-3.8-0.8c-6.4,0-12.8,0-19.2,0c1.1-3.5,2.3-7,3.4-10.5
	c0.1,1.1,0.5,2.2,1.6,2.2c6.9-0.1,13.9,1,20.7-0.6c0,0.2,0.1,0.5,0.1,0.7C406,491.9,405.5,495,402.7,497.4z"/>
<path class="st64" d="M338.9,407.7c-8,0-16,0-24,0c-1.2-2.6-2.1-5.3-2.4-8.2c6.3,0,12.6,0,18.8,0c1.3,0,2.8,0.5,3.7-0.9
	c0.1,0.1,0.2,0.1,0.2,0.2c2.7,2.3,3.3,5.4,3.5,8.7C338.9,407.6,338.9,407.7,338.9,407.7z"/>
<path class="st65" d="M142.8,336c0,0,0,0.1,0,0.1c-0.4,2.9-1.9,5.1-4.4,6.5c-0.1,0-0.1,0.1-0.2,0.1c-8.2,0-16.5,0-24.7,0
	c0.8-3.4,2.6-6.3,4.5-9.1c0.7,1.8,2.2,1.7,3.8,1.7c5.6,0,11.2,0,16.7,0C139.9,335.2,141.4,335.2,142.8,336z"/>
<path class="st66" d="M472.3,455.8c-1,2.9-2.2,5.7-4,8.1c-5.1-1.7-10.3-0.3-15.4-0.8c-2.9-0.3-5.9,0.9-8.6-0.8c0,0,0,0,0,0
	c0.1-3.4,1.5-6.1,4.2-8c0.1-0.1,0.2-0.1,0.3-0.2c0.7,1.8,2.3,1.6,3.8,1.6C459.1,455.7,465.7,455.7,472.3,455.8z"/>
<path class="st54" d="M457.9,481.9c-1.1,2.5-2.8,4.7-4.6,6.7c-9-1.5-18.2-0.4-27.2-0.8c0-0.2,0.1-0.4,0.1-0.6
	c0.8-3.2,2.7-5.5,5.7-6.9c0.1,0,0.2-0.1,0.3-0.1c1,1.4,2.5,0.9,3.8,0.9c5.2,0.1,10.4,0.1,15.6,0
	C453.8,481.1,455.9,481.3,457.9,481.9z"/>
<path class="st67" d="M481.8,342.5c-0.7,1.8-2.3,1.7-3.8,1.7c-6.7,0-13.4,0-20,0c-0.1,0-0.1-0.1-0.2-0.1c-2.5-1.7-4.1-3.9-4.6-6.9
	c0-0.1,0-0.3-0.1-0.4c8.6,0,17.3-0.1,25.9-0.1v0C480.5,338.4,480.9,340.5,481.8,342.5z"/>
<path class="st68" d="M281.2,417.5c0,2.6-0.9,5-1.7,7.5c-4.8,1.6-9.8,0.4-14.7,0.7c-1.7,0.1-3.5-0.1-5.2,0c-1.7,0.1-2.5-0.6-2.5-2.2
	v-0.2c-1.3-2.6-0.5-4.5,1.4-6.1c0,0,0.1-0.1,0.1-0.1c0.2-0.1,0.3-0.2,0.5-0.3c6.5-1,13.1-0.4,19.7-0.3
	C279.8,416.5,280.6,416.8,281.2,417.5z"/>
<path class="st69" d="M489,378.6c-0.6,2.3-1.9,3.2-4.4,3c-5.9-0.3-11.8-0.1-17.8-0.1c-0.1-0.1-0.1-0.2-0.2-0.3
	c-1.7-2.6-1.6-5.3,0.1-7.9c0,0,0,0,0,0c5.8,0,11.7-0.2,17.5,0.1c2.9,0.1,4.5-0.6,4.3-3.3c0,0,0,0,0-0.1c0-0.2,0-0.4-0.1-0.7
	C489.5,372.4,489.1,375.5,489,378.6z"/>
<path class="st69" d="M285.5,378.6c-3.2,1.4-6.6,0.6-9.9,0.7c-4.1,0.2-8.2,0-12.3,0c-0.1-0.1-0.1-0.2-0.2-0.3
	c-1.7-2.6-1.5-5.2-0.1-7.8c0,0,0-0.1,0.1-0.1c6.2,0,12.5,0,18.7,0c1.3,0,2.9,0.3,3.1-1.7c0,0.1,0.1,0.2,0.1,0.3
	C286,372.6,285.6,375.6,285.5,378.6z"/>
<path class="st69" d="M332.1,379.1c0,0.1-0.1,0.2-0.2,0.3c-6.1,0-12.2,0-18.3,0c-1.4,0-2.7,0.1-4-0.7c-0.1-3-0.5-6,0.4-8.9
	c0-0.1,0.1-0.2,0.1-0.4c0.3,2.2,2,1.7,3.4,1.7c6.1,0,12.3,0,18.4,0c0,0,0,0,0,0C333.6,373.9,333.8,376.5,332.1,379.1z"/>
<path class="st11" d="M272.8,445.9c-0.6,2.4-1.5,4.7-2.8,6.8c-6.2,0-12.4,0-18.7,0c-1.7,0-3.4,0-4.6-1.5c0-0.1-0.1-0.1-0.1-0.2
	c-0.5-2.8,0.5-5,2.9-6.6c0,0,0.1,0,0.1-0.1c1.3,1.4,3.1,0.7,4.6,0.8C260.5,445.6,266.7,444.4,272.8,445.9z"/>
<path class="st48" d="M282.6,410c0,2.6-0.5,5.1-1.5,7.5h-22.5c0-0.1-0.1-0.2-0.1-0.2c-1.3-2.7-0.4-5,1.5-7.1c0-0.1,0.1-0.1,0.2-0.2
	H282.6z"/>
<path class="st41" d="M408.5,470.7L408.5,470.7c-6.2,0-12.3,0-18.4,0c-1.4,0-3.1,0.5-3.5-1.7c0.1-1.7-0.2-2.7-2.2-2.9
	c-2-0.1-4.1-0.4-6-1.4c9.2-1.3,18.5-0.6,27.8-0.8c1.4,0,2.7-0.1,3.5-1.5c0.1,0.3,0.3,0.6,0.3,0.9
	C410.9,466.1,410.3,468.8,408.5,470.7z"/>
<path class="st70" d="M130.7,395.2c-0.5-2.9-1.1-5.9-1.7-8.8c-0.1-0.7-0.3-1.4-0.4-2c-0.1-2.4-0.1-4.9-0.2-7.3c0-0.1,0-0.2,0-0.3
	c0.2-2.7,0.4-5.4,0.6-8v0c0-0.5,0.1-0.9,0.1-1.4c0.6-2.7,1.1-5.4,1.7-8.1c1.8,3-0.4,5.8-1.2,8.6c-0.1,0.1-0.1,0.2-0.2,0.3
	c1.1,3,0.4,5.8-0.9,8.6c0.1,0,0.1,0.1,0.2,0.2c1.4,2.5,0.9,5.2,0.8,7.8c0,0.3-0.1,0.5-0.2,0.7C131.2,388.6,131.5,391.8,130.7,395.2z
	"/>
<path class="st70" d="M130.9,359.2c0.9-2.6,1.9-5.3,2.8-7.9C134.5,354.1,133.4,357.1,130.9,359.2z"/>
<path class="st70" d="M199.4,496.8c0.8,3.1-1.7,10.3-4.3,12C197,505,198.2,500.9,199.4,496.8C199.3,496.8,199.3,496.8,199.4,496.8
	c1.1-3.1,2-6.2,2.5-9.5C202.9,490.4,201.9,494.2,199.4,496.8z"/>
<path class="st70" d="M194.4,445c-7.7-0.1-15.2-1.8-22.5-4.2c-0.1-0.1-0.3-0.1-0.4-0.2c-5.5-2.3-10.6-5.3-15.5-8.7
	c-0.9-0.6-1.5-1.7-2.8-1.6c-0.2-0.2-0.4-0.3-0.6-0.5c-4-3.4-6.9-7.8-10.7-11.3c-0.2-0.2-0.3-0.4-0.5-0.6c-2.8-3.6-4.3-8-6.9-11.8
	c0-0.1,0-0.1-0.1-0.2c-1.2-3.4-2.5-6.7-3.7-10.1c3,2.7,3.2,6.5,3.8,10.1c0.7,0.1,1.2,0.5,1.6,1.2c2.1,3.5,4.3,6.9,5.7,10.8
	c0.5,0,0.9,0.2,1.2,0.5c3.5,3.6,7.4,6.9,9.9,11.4c0.9-0.2,1.7,0,2.4,0.5c5,3.7,10.6,6.5,15.9,9.7c0.2,0.1,0.4,0.3,0.5,0.5
	c0,0,0.1,0,0.1-0.1c1.1-0.4,2.2-0.2,3.3,0.2c7.1,2.5,14.5,3.1,22,3.7c4.4,0.3,6.8,2.1,7.5,5.4C202.2,446.1,198.7,445,194.4,445z"/>
<path class="st70" d="M205.5,467.7c0.2-3.5,1.5-7,1.5-10.6c0-1.2-0.1-2.5-0.5-3.7c0,0,0,0,0-0.1c0-1.3-0.4-2.5-1.6-3.3
	c2.5,0.2,2.3,2,2.5,3.7c0.4,0.3,0.6,0.9,0.6,1.4c-0.3,4.3,0.2,8.8-2.3,12.7c1.6,3.6,0.3,6.9-1.4,10.1c1,3.4,0.3,6.5-2.3,9.1
	c1.1-2.9,1.6-5.9,2-8.9c0-0.3,0.1-0.6,0.1-0.8c0.8-3.1,1.3-6.2,1.5-9.4C205.5,467.8,205.5,467.8,205.5,467.7z"/>
<path class="st70" d="M224.3,485.6c-2.1,2.4-4.3,4.8-6.4,7.2c-0.1,0.1-0.2,0.2-0.3,0.3c-2.7,2.7-5.4,5.4-8.1,8.1l-0.1,0.1
	c-2.9,2.5-5.7,5-8.6,7.5c-0.2,0.2-0.4,0.4-0.7,0.6c-2,1.3-3.9,2.7-6.2,4.2c-0.3-2,0.8-3.1,1.1-4.5c0.2,0.5,0.3,1,0.3,2.3
	c1.7-0.9,3.1-2.4,5-2.5c2.1-3.6,5-6.3,8.9-7.6c0.5-3.6,4.5-4.4,6.1-7.2c0.5-0.8,1.3-1.3,2.2-1.3
	C218.6,489.2,221.3,487.3,224.3,485.6z"/>
<path class="st70" d="M230.8,477.5c-2.1,2.7-4.3,5.4-6.4,8.1C224.8,482.4,227.7,478.7,230.8,477.5z"/>
<path class="st70" d="M236,469.8c-1.7,2.5-3.4,4.9-5.1,7.4C231.5,473.9,232.9,471.3,236,469.8z"/>
<path class="st70" d="M241.8,460.3c-1.9,3.2-3.8,6.3-5.8,9.5c0,0,0,0,0,0v0c0-0.1,0-0.1,0-0.2C235.7,467.2,239,462.1,241.8,460.3z"
	/>
<path class="st70" d="M246.5,451.4c-1.5,2.8-2.9,5.7-4.4,8.5C242.2,456.1,244,452.7,246.5,451.4z"/>
<path class="st70" d="M253.3,435.4c-1.2,3-2.3,6-3.5,9c0,0.1-0.1,0.1-0.1,0.2c-1.2,2.1-2.3,4.1-2.9,6.5c-0.5-2.8,0.5-5,2.9-6.6
	C249.2,440.9,250.5,437.9,253.3,435.4z"/>
<path class="st70" d="M257.1,423.6c-1.3,3.8-2.5,7.7-3.8,11.5C252.8,431.6,254.7,425.6,257.1,423.6z"/>
<path class="st70" d="M263.3,379.4c-0.1,2.9-0.1,5.8-0.2,8.7v0.2c-0.9,2.9-0.6,5.9-0.8,8.9c-0.2,0.9-0.3,1.9-0.5,2.8
	c-0.5,3.4-1.1,6.7-1.6,10.1c0,0.1-0.1,0.2-0.1,0.3c-0.7,2.3-1.3,4.5-1.5,6.9c0,0.1,0,0.2,0,0.3c-0.9,1.9-1.4,3.8-1.5,5.9
	c-1.3-2.6-0.5-4.5,1.4-6.1c-1.3-2.7-0.4-5,1.5-7.1c-0.5-0.5-0.8-1.2-0.6-1.9c0.6-3.3,0-7,2-10c0-0.2,0-0.5,0-0.7
	c0.3-3.2-1.4-6.8,1.7-9.5c-1.6-2.9-1.3-5.9,0-8.8c0,0,0.1-0.1,0.1-0.1c-1.7-2.6-1.5-5.2-0.1-7.8c-2.5-2.5-2.3-5.7-1.6-9
	c-2.2-2.1-3.3-5.8-2.7-9c-3.3-2.8-4.7-6.6-5.5-10.8c-0.3-0.1-0.5-0.2-0.7-0.4c-3-3.7-6.6-7-8.7-11.5c-0.7-0.1-1.4-0.5-2-1
	c-3.8-3.2-7.6-6.2-11.8-8.9c-0.8-0.5-1.7-1.1-1.5-2c-1.1,0.5-2.1-0.1-3-0.6c-5.9-2.8-12-4.8-18.4-6c-0.8-0.1-1.6-0.2-2.2-0.8
	c0,0,0,0-0.1,0c-6,0.3-12.1,0.2-18.1,0.1c-0.1,0-0.2,0-0.3,0c-0.3,0.3-0.8,0.4-1.3,0.5c-7.3,1.3-14.3,3.7-21,7
	c-0.6,0.3-1.2,0.4-1.8,0.5c-3.8,3.3-7.4,6.7-12.2,8.5c-1.7,3.5-3.8,6.5-7.5,8c-0.4,2.9-1.9,5.1-4.4,6.5c0.1,0.1,0.2,0.3,0.1,0.5
	c-0.7,3.1-1.3,6.2-4.6,7.8c1.4-2.8,2.9-5.5,4.3-8.3c0-0.1,0.1-0.1,0.1-0.2c1.5-2.1,2.9-4.3,4.4-6.4c0-0.1,0.1-0.1,0.1-0.2
	c2.4-2.6,4.8-5.2,7.3-7.8c0.1-0.1,0.2-0.2,0.3-0.3c3.8-2.7,7.6-5.5,11.4-8.2c0.4-0.3,0.8-0.5,1.2-0.8c6.6-3.4,13.5-5.8,20.7-7.4
	c1.2-0.3,2.3-0.5,3.5-0.7h17.5c0.8,0.2,1.7,0.3,2.5,0.5c7.5,1.6,14.8,4,21.6,7.5c0,0,0.1,0,0.1,0.1c5.2,3.4,10.2,7,14.8,11.3
	c0.2,0.2,0.4,0.4,0.6,0.7c3.2,3.6,6.2,7.4,9,11.4c0.1,0.2,0.2,0.4,0.3,0.5c1.8,3.5,3.5,7,5.3,10.6c0,0.1,0,0.1,0.1,0.2
	c0.9,3,1.8,5.9,2.6,8.8c0,0,0,0.1,0,0.1c0.5,2.9,1.1,5.9,1.7,8.8v0.2c0.1,2.5,0.1,5.1,0.2,7.6C263.3,379.1,263.3,379.2,263.3,379.4z
	"/>
<path class="st70" d="M341.1,343.5c1.8-2.5,3.5-5.1,5.3-7.6c0.2-0.2,0.3-0.5,0.5-0.7c2.1-2.3,4.3-4.5,6.4-6.8
	c0.2-0.2,0.4-0.4,0.6-0.6c4.2-3,8.4-6,12.5-9c0,0,0,0,0.1,0c3.9-1.7,7.8-3.3,11.7-5c0.7-0.3,1.3-0.6,2-0.9c4.7-0.8,9.3-1.6,14-2.5
	c3.5-0.4,7-0.4,10.4,0c8.2,0.8,16.1,3.1,23.7,6.2c0.3,0.2,0.6,0.4,1,0.6c3.4,2,6.8,4.1,10.2,6.2c0.3,0.2,0.5,0.5,0.8,0.7
	c2.3,2,4.6,4,6.9,6c-3.2-1.2-5.9-3-7.4-6.1c-4.2-1.2-7.8-3.5-10.9-6.7c-1.3,0.1-2.5-0.2-3.6-0.7c-6.7-2.9-13.7-4.2-20.8-5.3
	c-3.5-0.7-7-0.7-10.4,0c-4.8,0.5-9.5,1.9-14.3,2.5c-0.2,0.2-0.4,0.4-0.7,0.5c-4.3,1.2-7.9,4.3-12.6,4.5c0.2,0.4,0.2,0.8-0.4,1.2
	c-4.2,2.6-7.6,6.6-12.4,8.4c-1.4,3.3-3.8,5.7-6.9,7.4C345.9,339,344.1,341.6,341.1,343.5z"/>
<path class="st70" d="M397.9,445c-6.8-0.1-13.5-1.3-20-3.5c-1-0.4-2-1-3.2-0.7c-0.4-0.1-0.8-0.3-1.1-0.4c-6.5-2.7-11.8-7.1-17.6-11
	c-0.1-0.1-0.2-0.2-0.2-0.3c-3.7-3.9-7.3-7.8-11-11.7c0-0.1-0.1-0.1-0.1-0.2c-1.9-3.2-3.9-6.3-5.8-9.5c0-0.1-0.1-0.2-0.1-0.3
	c-1.2-2.8-2.3-5.6-3.5-8.4c-0.1-0.2-0.1-0.3-0.2-0.4c-0.7-2.9-1.5-5.8-2.2-8.7c0,0,0-0.1,0-0.1c-0.3-3.5-0.6-7-1-10.5
	c0-0.1,0-0.2,0-0.3c0-2.6,0.1-5.2,0.2-7.8v-0.1c0.7-3.7,1.4-7.5,2.1-11.2c0,0,0-0.1,0.1-0.2c0.9-2.5,1.8-5,2.7-7.6
	c0-0.2,0.1-0.3,0.2-0.5c1.3-2.7,2.6-5.3,3.9-8c0.4,2.8-1,6-3.9,8.3c0.4,3.1-0.4,5.8-2.8,7.8c0.8,4.1,0.5,8-2.2,11.3
	c1.4,2.7,1.7,5.3,0,7.9c1.4,3.5,2.6,7,0.9,10.8c2.5,2.6,3.1,5.6,2.4,8.9c2.7,2.3,3.3,5.4,3.5,8.7c3.4,2.2,4.8,5.9,5.9,9.7
	c0.6,0,1.2,0.2,1.6,0.7c2.9,3.4,6.3,6.3,9.2,9.7c0.3,0.4,0.5,0.9,0.5,1.5c1,0,1.8,0.4,2.7,1c4.9,3.3,9.6,7,15.1,9.5
	c0.2,0.1,0.4,0.3,0.5,0.5c1.4-0.3,2.8,0,4.1,0.4c7,2.5,14.3,3.2,21.7,3.7c4.7,0.3,7.2,2.1,8,5.5C405.8,446.1,402.2,445.1,397.9,445z
	"/>
<path class="st70" d="M410.3,462.8c-0.1,0.2-0.2,0.4-0.3,0.5c0.9,2.7,0.4,5.4-1.5,7.3c0.8-2.2,0.9-4.5,1-6.8c0-0.5,0.1-1,0.1-1.5
	c0.1-1.9,0.8-3.8,1-5.6c0.1-1.2,0-2.3-0.7-3.5c0-1.3-0.5-2.5-1.6-3.3c2.6,0.2,2.3,2.1,2.5,3.8c1,0.9,0.7,2.3,0.7,3.6
	C411.4,459.2,411.1,461.1,410.3,462.8z"/>
<path class="st70" d="M444.2,462.3c-1.7,2.7-3.3,5.3-5,8c-0.1,0.1-0.1,0.2-0.2,0.3c-2.3,3.2-4.5,6.4-6.8,9.6
	c-0.1,0.1-0.2,0.2-0.3,0.3c-1.9,2.1-3.8,4.2-5.4,6.6c-0.1,0.2-0.3,0.4-0.4,0.7c-2.5,2.7-4.9,5.3-7.4,8c-0.1,0.1-0.2,0.2-0.3,0.3
	c-2.6,2.4-5.2,4.9-7.7,7.3c0,0-0.1,0.1-0.2,0.2c-4.1,3.2-8.2,6.5-12.3,9.7c-0.1,0.1-0.3,0.2-0.4,0.3c-0.1-0.1-0.2-0.2-0.2-0.3
	c0,0,0,0-0.1-0.1c-1.1-1.6,0.9-2.5,1.1-3.9c0.2-1.4,0.9-2.8,1.3-4.2c0,0,0,0,0-0.1c1.1-2.3,2-4.7,2.3-7.3c0.1-0.1,0.1-0.3,0.2-0.4
	c1.3-2.7,1.8-5.6,2.4-8.5c0.1-0.3,0.1-0.6,0.2-0.9c0.8-2.7,1.6-5.4,1.7-8.2c0,0,0,0,0,0c0.9-2.9,1.5-5.8,1.5-8.9
	c1.4,3.3,0.8,6.7-1.5,8.9c1.7,3.3,0.2,6-1.5,8.8c0,0-0.1,0.1-0.1,0.1c0.6,3.4,0.1,6.5-2.7,8.9c0.9,3,0,5.5-2.6,7.6
	c0.9,0.7,0.4,1.8,0.2,2.8c-0.3,1.7-1.5,3.1-2.1,4.8c3.2-3.2,6.9-5.7,10.4-8.5c0.6-0.5,1.3-0.8,2-0.7c1.3-3.9,4.5-5.6,7.8-7.4
	c-0.1-0.7,0.2-1.4,0.6-1.9c2-2.7,4-5.5,7.2-6.8c0.8-3.2,2.7-5.5,5.7-6.9c0-0.2,0-0.4,0.1-0.6c1.5-3.5,3.6-6.6,6.4-9.2
	c0.2-0.2,0.4-0.2,0.7-0.2C439.7,466.9,440.9,463.9,444.2,462.3z"/>
<path class="st70" d="M462,418.3c-1.3,3.3-2.1,6.8-2.9,10.3c-0.2,0.3-0.3,0.7-0.5,1c-1,2.4-1.8,4.9-2.4,7.4
	c-0.2,0.4-0.3,0.8-0.5,1.1c-1.2,2.8-2.4,5.7-3.5,8.5c-1.2,2.5-2.3,5-3.5,7.5c-0.1,0.1-0.1,0.3-0.2,0.4c-1.4,2.6-2.8,5.2-4.3,7.8
	c0.1-3.4,1.5-6.1,4.2-8c-0.2-3.2,1.2-6,3.7-7.6c-0.1-3.6,0.9-6.7,3.5-9.1c0-3.2,0.5-6.3,3-8.5C458.7,425,458.8,421.1,462,418.3z"/>
<path class="st70" d="M465.8,397.4c-0.7,4.2-1.4,8.4-2,12.6v0c-0.8,2.6-1.5,5.2-1.7,8c-1.3-3.1-0.5-5.7,1.7-8
	C462.5,406.7,463.6,399.7,465.8,397.4z"/>
<path class="st70" d="M466.8,381.2v0.4c-0.1,2.2-0.1,4.4-0.2,6.6v0c-1,2.9-0.6,5.9-0.8,8.9c-1.1-3.1-2.3-6.2,0.8-8.9
	c-1.5-2.2-1.3-4.4-0.1-6.7c0.1,0,0.1-0.1,0.2-0.1c-1.7-2.6-1.6-5.3,0.1-7.9c-2-2.8-2.7-5.9-1.6-9.2c-2.2-2.7-2.4-6.2-3.4-9.4
	c-0.2-0.6-0.1-1.3,0.3-1.8c-2.9-2-3.6-5.1-4.6-8.2c-0.1-0.3,0-0.6,0.2-0.8c-2.5-1.7-4.1-3.9-4.6-6.9c-3-1.5-5.2-4.2-5.6-6.8
	c1.8,2.1,3.7,4.2,5.5,6.3c0.1,0.2,0.3,0.4,0.4,0.6c1.4,2.2,2.9,4.4,4.3,6.6c0,0.1,0.1,0.1,0.1,0.2c1.4,2.9,2.8,5.9,4.3,8.8
	c0,0.1,0.1,0.1,0.1,0.2c1,3.5,2,7,3.1,10.5c0,0.3,0.1,0.6,0.1,0.9c0.4,2.9,0.8,5.9,1.3,8.8v0.1C466.8,376,466.8,378.6,466.8,381.2z"
	/>
<path class="st9" d="M404.6,310.4c-3.5,0-6.9,0-10.4,0C397.7,309.4,401.1,309.4,404.6,310.4z"/>
</svg>
